G04 #@! TF.GenerationSoftware,KiCad,Pcbnew,8.0.4*
G04 #@! TF.CreationDate,2024-09-04T02:40:27-04:00*
G04 #@! TF.ProjectId,phone_pcb,70686f6e-655f-4706-9362-2e6b69636164,rev?*
G04 #@! TF.SameCoordinates,Original*
G04 #@! TF.FileFunction,Legend,Top*
G04 #@! TF.FilePolarity,Positive*
%FSLAX46Y46*%
G04 Gerber Fmt 4.6, Leading zero omitted, Abs format (unit mm)*
G04 Created by KiCad (PCBNEW 8.0.4) date 2024-09-04 02:40:27*
%MOMM*%
%LPD*%
G01*
G04 APERTURE LIST*
G04 Aperture macros list*
%AMRoundRect*
0 Rectangle with rounded corners*
0 $1 Rounding radius*
0 $2 $3 $4 $5 $6 $7 $8 $9 X,Y pos of 4 corners*
0 Add a 4 corners polygon primitive as box body*
4,1,4,$2,$3,$4,$5,$6,$7,$8,$9,$2,$3,0*
0 Add four circle primitives for the rounded corners*
1,1,$1+$1,$2,$3*
1,1,$1+$1,$4,$5*
1,1,$1+$1,$6,$7*
1,1,$1+$1,$8,$9*
0 Add four rect primitives between the rounded corners*
20,1,$1+$1,$2,$3,$4,$5,0*
20,1,$1+$1,$4,$5,$6,$7,0*
20,1,$1+$1,$6,$7,$8,$9,0*
20,1,$1+$1,$8,$9,$2,$3,0*%
G04 Aperture macros list end*
%ADD10C,0.160000*%
%ADD11C,0.000000*%
%ADD12C,0.150000*%
%ADD13C,0.120000*%
%ADD14C,2.300000*%
%ADD15RoundRect,0.250000X0.510000X0.510000X-0.510000X0.510000X-0.510000X-0.510000X0.510000X-0.510000X0*%
%ADD16C,1.520000*%
%ADD17C,2.000000*%
%ADD18R,2.000000X1.020000*%
%ADD19C,1.020000*%
%ADD20RoundRect,0.250001X0.799999X-1.999999X0.799999X1.999999X-0.799999X1.999999X-0.799999X-1.999999X0*%
%ADD21R,1.700000X1.700000*%
%ADD22O,1.700000X1.700000*%
%ADD23RoundRect,0.135000X0.135000X0.185000X-0.135000X0.185000X-0.135000X-0.185000X0.135000X-0.185000X0*%
%ADD24RoundRect,0.250000X-0.425000X0.450000X-0.425000X-0.450000X0.425000X-0.450000X0.425000X0.450000X0*%
%ADD25RoundRect,0.125000X0.125000X-0.825000X0.125000X0.825000X-0.125000X0.825000X-0.125000X-0.825000X0*%
%ADD26RoundRect,0.140000X0.170000X-0.140000X0.170000X0.140000X-0.170000X0.140000X-0.170000X-0.140000X0*%
%ADD27RoundRect,0.140000X-0.140000X-0.170000X0.140000X-0.170000X0.140000X0.170000X-0.140000X0.170000X0*%
%ADD28RoundRect,0.250000X-0.262500X-0.450000X0.262500X-0.450000X0.262500X0.450000X-0.262500X0.450000X0*%
%ADD29RoundRect,0.140000X0.140000X0.170000X-0.140000X0.170000X-0.140000X-0.170000X0.140000X-0.170000X0*%
%ADD30RoundRect,0.250000X-0.450000X-0.425000X0.450000X-0.425000X0.450000X0.425000X-0.450000X0.425000X0*%
%ADD31R,1.100000X1.300000*%
%ADD32RoundRect,0.140000X-0.170000X0.140000X-0.170000X-0.140000X0.170000X-0.140000X0.170000X0.140000X0*%
G04 APERTURE END LIST*
D10*
X52894179Y-111111404D02*
X53275132Y-110844737D01*
X52894179Y-110654261D02*
X53694179Y-110654261D01*
X53694179Y-110654261D02*
X53694179Y-110959023D01*
X53694179Y-110959023D02*
X53656084Y-111035213D01*
X53656084Y-111035213D02*
X53617989Y-111073308D01*
X53617989Y-111073308D02*
X53541798Y-111111404D01*
X53541798Y-111111404D02*
X53427513Y-111111404D01*
X53427513Y-111111404D02*
X53351322Y-111073308D01*
X53351322Y-111073308D02*
X53313227Y-111035213D01*
X53313227Y-111035213D02*
X53275132Y-110959023D01*
X53275132Y-110959023D02*
X53275132Y-110654261D01*
X52932275Y-111759023D02*
X52894179Y-111682832D01*
X52894179Y-111682832D02*
X52894179Y-111530451D01*
X52894179Y-111530451D02*
X52932275Y-111454261D01*
X52932275Y-111454261D02*
X53008465Y-111416165D01*
X53008465Y-111416165D02*
X53313227Y-111416165D01*
X53313227Y-111416165D02*
X53389417Y-111454261D01*
X53389417Y-111454261D02*
X53427513Y-111530451D01*
X53427513Y-111530451D02*
X53427513Y-111682832D01*
X53427513Y-111682832D02*
X53389417Y-111759023D01*
X53389417Y-111759023D02*
X53313227Y-111797118D01*
X53313227Y-111797118D02*
X53237036Y-111797118D01*
X53237036Y-111797118D02*
X53160846Y-111416165D01*
X52932275Y-112482832D02*
X52894179Y-112406641D01*
X52894179Y-112406641D02*
X52894179Y-112254260D01*
X52894179Y-112254260D02*
X52932275Y-112178070D01*
X52932275Y-112178070D02*
X52970370Y-112139975D01*
X52970370Y-112139975D02*
X53046560Y-112101879D01*
X53046560Y-112101879D02*
X53275132Y-112101879D01*
X53275132Y-112101879D02*
X53351322Y-112139975D01*
X53351322Y-112139975D02*
X53389417Y-112178070D01*
X53389417Y-112178070D02*
X53427513Y-112254260D01*
X53427513Y-112254260D02*
X53427513Y-112406641D01*
X53427513Y-112406641D02*
X53389417Y-112482832D01*
X53427513Y-113168546D02*
X52894179Y-113168546D01*
X53427513Y-112825689D02*
X53008465Y-112825689D01*
X53008465Y-112825689D02*
X52932275Y-112863784D01*
X52932275Y-112863784D02*
X52894179Y-112939974D01*
X52894179Y-112939974D02*
X52894179Y-113054260D01*
X52894179Y-113054260D02*
X52932275Y-113130451D01*
X52932275Y-113130451D02*
X52970370Y-113168546D01*
X52894179Y-113549499D02*
X53427513Y-113549499D01*
X53275132Y-113549499D02*
X53351322Y-113587594D01*
X53351322Y-113587594D02*
X53389417Y-113625689D01*
X53389417Y-113625689D02*
X53427513Y-113701880D01*
X53427513Y-113701880D02*
X53427513Y-113778070D01*
X52932275Y-114006641D02*
X52894179Y-114082832D01*
X52894179Y-114082832D02*
X52894179Y-114235213D01*
X52894179Y-114235213D02*
X52932275Y-114311403D01*
X52932275Y-114311403D02*
X53008465Y-114349499D01*
X53008465Y-114349499D02*
X53046560Y-114349499D01*
X53046560Y-114349499D02*
X53122751Y-114311403D01*
X53122751Y-114311403D02*
X53160846Y-114235213D01*
X53160846Y-114235213D02*
X53160846Y-114120927D01*
X53160846Y-114120927D02*
X53198941Y-114044737D01*
X53198941Y-114044737D02*
X53275132Y-114006641D01*
X53275132Y-114006641D02*
X53313227Y-114006641D01*
X53313227Y-114006641D02*
X53389417Y-114044737D01*
X53389417Y-114044737D02*
X53427513Y-114120927D01*
X53427513Y-114120927D02*
X53427513Y-114235213D01*
X53427513Y-114235213D02*
X53389417Y-114311403D01*
X52932275Y-114997118D02*
X52894179Y-114920927D01*
X52894179Y-114920927D02*
X52894179Y-114768546D01*
X52894179Y-114768546D02*
X52932275Y-114692356D01*
X52932275Y-114692356D02*
X53008465Y-114654260D01*
X53008465Y-114654260D02*
X53313227Y-114654260D01*
X53313227Y-114654260D02*
X53389417Y-114692356D01*
X53389417Y-114692356D02*
X53427513Y-114768546D01*
X53427513Y-114768546D02*
X53427513Y-114920927D01*
X53427513Y-114920927D02*
X53389417Y-114997118D01*
X53389417Y-114997118D02*
X53313227Y-115035213D01*
X53313227Y-115035213D02*
X53237036Y-115035213D01*
X53237036Y-115035213D02*
X53160846Y-114654260D01*
X52970370Y-116444737D02*
X52932275Y-116406641D01*
X52932275Y-116406641D02*
X52894179Y-116292356D01*
X52894179Y-116292356D02*
X52894179Y-116216165D01*
X52894179Y-116216165D02*
X52932275Y-116101879D01*
X52932275Y-116101879D02*
X53008465Y-116025689D01*
X53008465Y-116025689D02*
X53084655Y-115987594D01*
X53084655Y-115987594D02*
X53237036Y-115949498D01*
X53237036Y-115949498D02*
X53351322Y-115949498D01*
X53351322Y-115949498D02*
X53503703Y-115987594D01*
X53503703Y-115987594D02*
X53579894Y-116025689D01*
X53579894Y-116025689D02*
X53656084Y-116101879D01*
X53656084Y-116101879D02*
X53694179Y-116216165D01*
X53694179Y-116216165D02*
X53694179Y-116292356D01*
X53694179Y-116292356D02*
X53656084Y-116406641D01*
X53656084Y-116406641D02*
X53617989Y-116444737D01*
X52932275Y-117092356D02*
X52894179Y-117016165D01*
X52894179Y-117016165D02*
X52894179Y-116863784D01*
X52894179Y-116863784D02*
X52932275Y-116787594D01*
X52932275Y-116787594D02*
X53008465Y-116749498D01*
X53008465Y-116749498D02*
X53313227Y-116749498D01*
X53313227Y-116749498D02*
X53389417Y-116787594D01*
X53389417Y-116787594D02*
X53427513Y-116863784D01*
X53427513Y-116863784D02*
X53427513Y-117016165D01*
X53427513Y-117016165D02*
X53389417Y-117092356D01*
X53389417Y-117092356D02*
X53313227Y-117130451D01*
X53313227Y-117130451D02*
X53237036Y-117130451D01*
X53237036Y-117130451D02*
X53160846Y-116749498D01*
X53427513Y-117473308D02*
X52894179Y-117473308D01*
X53351322Y-117473308D02*
X53389417Y-117511403D01*
X53389417Y-117511403D02*
X53427513Y-117587593D01*
X53427513Y-117587593D02*
X53427513Y-117701879D01*
X53427513Y-117701879D02*
X53389417Y-117778070D01*
X53389417Y-117778070D02*
X53313227Y-117816165D01*
X53313227Y-117816165D02*
X52894179Y-117816165D01*
X53427513Y-118082832D02*
X53427513Y-118387594D01*
X53694179Y-118197118D02*
X53008465Y-118197118D01*
X53008465Y-118197118D02*
X52932275Y-118235213D01*
X52932275Y-118235213D02*
X52894179Y-118311403D01*
X52894179Y-118311403D02*
X52894179Y-118387594D01*
X52932275Y-118959023D02*
X52894179Y-118882832D01*
X52894179Y-118882832D02*
X52894179Y-118730451D01*
X52894179Y-118730451D02*
X52932275Y-118654261D01*
X52932275Y-118654261D02*
X53008465Y-118616165D01*
X53008465Y-118616165D02*
X53313227Y-118616165D01*
X53313227Y-118616165D02*
X53389417Y-118654261D01*
X53389417Y-118654261D02*
X53427513Y-118730451D01*
X53427513Y-118730451D02*
X53427513Y-118882832D01*
X53427513Y-118882832D02*
X53389417Y-118959023D01*
X53389417Y-118959023D02*
X53313227Y-118997118D01*
X53313227Y-118997118D02*
X53237036Y-118997118D01*
X53237036Y-118997118D02*
X53160846Y-118616165D01*
X52894179Y-119339975D02*
X53427513Y-119339975D01*
X53275132Y-119339975D02*
X53351322Y-119378070D01*
X53351322Y-119378070D02*
X53389417Y-119416165D01*
X53389417Y-119416165D02*
X53427513Y-119492356D01*
X53427513Y-119492356D02*
X53427513Y-119568546D01*
X51606224Y-104597119D02*
X52406224Y-104597119D01*
X51606224Y-104939976D02*
X52025272Y-104939976D01*
X52025272Y-104939976D02*
X52101462Y-104901881D01*
X52101462Y-104901881D02*
X52139558Y-104825690D01*
X52139558Y-104825690D02*
X52139558Y-104711404D01*
X52139558Y-104711404D02*
X52101462Y-104635214D01*
X52101462Y-104635214D02*
X52063367Y-104597119D01*
X52139558Y-105206643D02*
X52139558Y-105511405D01*
X52406224Y-105320929D02*
X51720510Y-105320929D01*
X51720510Y-105320929D02*
X51644320Y-105359024D01*
X51644320Y-105359024D02*
X51606224Y-105435214D01*
X51606224Y-105435214D02*
X51606224Y-105511405D01*
X52139558Y-105663786D02*
X52139558Y-105968548D01*
X52406224Y-105778072D02*
X51720510Y-105778072D01*
X51720510Y-105778072D02*
X51644320Y-105816167D01*
X51644320Y-105816167D02*
X51606224Y-105892357D01*
X51606224Y-105892357D02*
X51606224Y-105968548D01*
X52139558Y-106235215D02*
X51339558Y-106235215D01*
X52101462Y-106235215D02*
X52139558Y-106311405D01*
X52139558Y-106311405D02*
X52139558Y-106463786D01*
X52139558Y-106463786D02*
X52101462Y-106539977D01*
X52101462Y-106539977D02*
X52063367Y-106578072D01*
X52063367Y-106578072D02*
X51987177Y-106616167D01*
X51987177Y-106616167D02*
X51758605Y-106616167D01*
X51758605Y-106616167D02*
X51682415Y-106578072D01*
X51682415Y-106578072D02*
X51644320Y-106539977D01*
X51644320Y-106539977D02*
X51606224Y-106463786D01*
X51606224Y-106463786D02*
X51606224Y-106311405D01*
X51606224Y-106311405D02*
X51644320Y-106235215D01*
X51644320Y-106920929D02*
X51606224Y-106997120D01*
X51606224Y-106997120D02*
X51606224Y-107149501D01*
X51606224Y-107149501D02*
X51644320Y-107225691D01*
X51644320Y-107225691D02*
X51720510Y-107263787D01*
X51720510Y-107263787D02*
X51758605Y-107263787D01*
X51758605Y-107263787D02*
X51834796Y-107225691D01*
X51834796Y-107225691D02*
X51872891Y-107149501D01*
X51872891Y-107149501D02*
X51872891Y-107035215D01*
X51872891Y-107035215D02*
X51910986Y-106959025D01*
X51910986Y-106959025D02*
X51987177Y-106920929D01*
X51987177Y-106920929D02*
X52025272Y-106920929D01*
X52025272Y-106920929D02*
X52101462Y-106959025D01*
X52101462Y-106959025D02*
X52139558Y-107035215D01*
X52139558Y-107035215D02*
X52139558Y-107149501D01*
X52139558Y-107149501D02*
X52101462Y-107225691D01*
X51682415Y-107606644D02*
X51644320Y-107644739D01*
X51644320Y-107644739D02*
X51606224Y-107606644D01*
X51606224Y-107606644D02*
X51644320Y-107568548D01*
X51644320Y-107568548D02*
X51682415Y-107606644D01*
X51682415Y-107606644D02*
X51606224Y-107606644D01*
X52101462Y-107606644D02*
X52063367Y-107644739D01*
X52063367Y-107644739D02*
X52025272Y-107606644D01*
X52025272Y-107606644D02*
X52063367Y-107568548D01*
X52063367Y-107568548D02*
X52101462Y-107606644D01*
X52101462Y-107606644D02*
X52025272Y-107606644D01*
X52444320Y-108559024D02*
X51415748Y-107873310D01*
X52444320Y-109397119D02*
X51415748Y-108711405D01*
X52139558Y-109587595D02*
X51606224Y-109739976D01*
X51606224Y-109739976D02*
X51987177Y-109892357D01*
X51987177Y-109892357D02*
X51606224Y-110044738D01*
X51606224Y-110044738D02*
X52139558Y-110197119D01*
X52139558Y-110425690D02*
X51606224Y-110578071D01*
X51606224Y-110578071D02*
X51987177Y-110730452D01*
X51987177Y-110730452D02*
X51606224Y-110882833D01*
X51606224Y-110882833D02*
X52139558Y-111035214D01*
X52139558Y-111263785D02*
X51606224Y-111416166D01*
X51606224Y-111416166D02*
X51987177Y-111568547D01*
X51987177Y-111568547D02*
X51606224Y-111720928D01*
X51606224Y-111720928D02*
X52139558Y-111873309D01*
X51682415Y-112178071D02*
X51644320Y-112216166D01*
X51644320Y-112216166D02*
X51606224Y-112178071D01*
X51606224Y-112178071D02*
X51644320Y-112139975D01*
X51644320Y-112139975D02*
X51682415Y-112178071D01*
X51682415Y-112178071D02*
X51606224Y-112178071D01*
X51606224Y-112559023D02*
X52139558Y-112559023D01*
X51987177Y-112559023D02*
X52063367Y-112597118D01*
X52063367Y-112597118D02*
X52101462Y-112635213D01*
X52101462Y-112635213D02*
X52139558Y-112711404D01*
X52139558Y-112711404D02*
X52139558Y-112787594D01*
X51644320Y-113359023D02*
X51606224Y-113282832D01*
X51606224Y-113282832D02*
X51606224Y-113130451D01*
X51606224Y-113130451D02*
X51644320Y-113054261D01*
X51644320Y-113054261D02*
X51720510Y-113016165D01*
X51720510Y-113016165D02*
X52025272Y-113016165D01*
X52025272Y-113016165D02*
X52101462Y-113054261D01*
X52101462Y-113054261D02*
X52139558Y-113130451D01*
X52139558Y-113130451D02*
X52139558Y-113282832D01*
X52139558Y-113282832D02*
X52101462Y-113359023D01*
X52101462Y-113359023D02*
X52025272Y-113397118D01*
X52025272Y-113397118D02*
X51949081Y-113397118D01*
X51949081Y-113397118D02*
X51872891Y-113016165D01*
X51644320Y-114082832D02*
X51606224Y-114006641D01*
X51606224Y-114006641D02*
X51606224Y-113854260D01*
X51606224Y-113854260D02*
X51644320Y-113778070D01*
X51644320Y-113778070D02*
X51682415Y-113739975D01*
X51682415Y-113739975D02*
X51758605Y-113701879D01*
X51758605Y-113701879D02*
X51987177Y-113701879D01*
X51987177Y-113701879D02*
X52063367Y-113739975D01*
X52063367Y-113739975D02*
X52101462Y-113778070D01*
X52101462Y-113778070D02*
X52139558Y-113854260D01*
X52139558Y-113854260D02*
X52139558Y-114006641D01*
X52139558Y-114006641D02*
X52101462Y-114082832D01*
X52139558Y-114768546D02*
X51606224Y-114768546D01*
X52139558Y-114425689D02*
X51720510Y-114425689D01*
X51720510Y-114425689D02*
X51644320Y-114463784D01*
X51644320Y-114463784D02*
X51606224Y-114539974D01*
X51606224Y-114539974D02*
X51606224Y-114654260D01*
X51606224Y-114654260D02*
X51644320Y-114730451D01*
X51644320Y-114730451D02*
X51682415Y-114768546D01*
X51606224Y-115149499D02*
X52139558Y-115149499D01*
X51987177Y-115149499D02*
X52063367Y-115187594D01*
X52063367Y-115187594D02*
X52101462Y-115225689D01*
X52101462Y-115225689D02*
X52139558Y-115301880D01*
X52139558Y-115301880D02*
X52139558Y-115378070D01*
X51644320Y-115606641D02*
X51606224Y-115682832D01*
X51606224Y-115682832D02*
X51606224Y-115835213D01*
X51606224Y-115835213D02*
X51644320Y-115911403D01*
X51644320Y-115911403D02*
X51720510Y-115949499D01*
X51720510Y-115949499D02*
X51758605Y-115949499D01*
X51758605Y-115949499D02*
X51834796Y-115911403D01*
X51834796Y-115911403D02*
X51872891Y-115835213D01*
X51872891Y-115835213D02*
X51872891Y-115720927D01*
X51872891Y-115720927D02*
X51910986Y-115644737D01*
X51910986Y-115644737D02*
X51987177Y-115606641D01*
X51987177Y-115606641D02*
X52025272Y-115606641D01*
X52025272Y-115606641D02*
X52101462Y-115644737D01*
X52101462Y-115644737D02*
X52139558Y-115720927D01*
X52139558Y-115720927D02*
X52139558Y-115835213D01*
X52139558Y-115835213D02*
X52101462Y-115911403D01*
X51644320Y-116597118D02*
X51606224Y-116520927D01*
X51606224Y-116520927D02*
X51606224Y-116368546D01*
X51606224Y-116368546D02*
X51644320Y-116292356D01*
X51644320Y-116292356D02*
X51720510Y-116254260D01*
X51720510Y-116254260D02*
X52025272Y-116254260D01*
X52025272Y-116254260D02*
X52101462Y-116292356D01*
X52101462Y-116292356D02*
X52139558Y-116368546D01*
X52139558Y-116368546D02*
X52139558Y-116520927D01*
X52139558Y-116520927D02*
X52101462Y-116597118D01*
X52101462Y-116597118D02*
X52025272Y-116635213D01*
X52025272Y-116635213D02*
X51949081Y-116635213D01*
X51949081Y-116635213D02*
X51872891Y-116254260D01*
X51682415Y-116978070D02*
X51644320Y-117016165D01*
X51644320Y-117016165D02*
X51606224Y-116978070D01*
X51606224Y-116978070D02*
X51644320Y-116939974D01*
X51644320Y-116939974D02*
X51682415Y-116978070D01*
X51682415Y-116978070D02*
X51606224Y-116978070D01*
X51644320Y-117701879D02*
X51606224Y-117625688D01*
X51606224Y-117625688D02*
X51606224Y-117473307D01*
X51606224Y-117473307D02*
X51644320Y-117397117D01*
X51644320Y-117397117D02*
X51682415Y-117359022D01*
X51682415Y-117359022D02*
X51758605Y-117320926D01*
X51758605Y-117320926D02*
X51987177Y-117320926D01*
X51987177Y-117320926D02*
X52063367Y-117359022D01*
X52063367Y-117359022D02*
X52101462Y-117397117D01*
X52101462Y-117397117D02*
X52139558Y-117473307D01*
X52139558Y-117473307D02*
X52139558Y-117625688D01*
X52139558Y-117625688D02*
X52101462Y-117701879D01*
X51606224Y-118159021D02*
X51644320Y-118082831D01*
X51644320Y-118082831D02*
X51682415Y-118044736D01*
X51682415Y-118044736D02*
X51758605Y-118006640D01*
X51758605Y-118006640D02*
X51987177Y-118006640D01*
X51987177Y-118006640D02*
X52063367Y-118044736D01*
X52063367Y-118044736D02*
X52101462Y-118082831D01*
X52101462Y-118082831D02*
X52139558Y-118159021D01*
X52139558Y-118159021D02*
X52139558Y-118273307D01*
X52139558Y-118273307D02*
X52101462Y-118349498D01*
X52101462Y-118349498D02*
X52063367Y-118387593D01*
X52063367Y-118387593D02*
X51987177Y-118425688D01*
X51987177Y-118425688D02*
X51758605Y-118425688D01*
X51758605Y-118425688D02*
X51682415Y-118387593D01*
X51682415Y-118387593D02*
X51644320Y-118349498D01*
X51644320Y-118349498D02*
X51606224Y-118273307D01*
X51606224Y-118273307D02*
X51606224Y-118159021D01*
X51606224Y-118768546D02*
X52139558Y-118768546D01*
X52063367Y-118768546D02*
X52101462Y-118806641D01*
X52101462Y-118806641D02*
X52139558Y-118882831D01*
X52139558Y-118882831D02*
X52139558Y-118997117D01*
X52139558Y-118997117D02*
X52101462Y-119073308D01*
X52101462Y-119073308D02*
X52025272Y-119111403D01*
X52025272Y-119111403D02*
X51606224Y-119111403D01*
X52025272Y-119111403D02*
X52101462Y-119149498D01*
X52101462Y-119149498D02*
X52139558Y-119225689D01*
X52139558Y-119225689D02*
X52139558Y-119339974D01*
X52139558Y-119339974D02*
X52101462Y-119416165D01*
X52101462Y-119416165D02*
X52025272Y-119454260D01*
X52025272Y-119454260D02*
X51606224Y-119454260D01*
X68317865Y-82454260D02*
X67517865Y-82454260D01*
X67517865Y-82454260D02*
X67517865Y-82149498D01*
X67517865Y-82149498D02*
X67555960Y-82073308D01*
X67555960Y-82073308D02*
X67594055Y-82035213D01*
X67594055Y-82035213D02*
X67670246Y-81997117D01*
X67670246Y-81997117D02*
X67784531Y-81997117D01*
X67784531Y-81997117D02*
X67860722Y-82035213D01*
X67860722Y-82035213D02*
X67898817Y-82073308D01*
X67898817Y-82073308D02*
X67936912Y-82149498D01*
X67936912Y-82149498D02*
X67936912Y-82454260D01*
X68279770Y-81349498D02*
X68317865Y-81425689D01*
X68317865Y-81425689D02*
X68317865Y-81578070D01*
X68317865Y-81578070D02*
X68279770Y-81654260D01*
X68279770Y-81654260D02*
X68203579Y-81692356D01*
X68203579Y-81692356D02*
X67898817Y-81692356D01*
X67898817Y-81692356D02*
X67822627Y-81654260D01*
X67822627Y-81654260D02*
X67784531Y-81578070D01*
X67784531Y-81578070D02*
X67784531Y-81425689D01*
X67784531Y-81425689D02*
X67822627Y-81349498D01*
X67822627Y-81349498D02*
X67898817Y-81311403D01*
X67898817Y-81311403D02*
X67975008Y-81311403D01*
X67975008Y-81311403D02*
X68051198Y-81692356D01*
X67784531Y-81082832D02*
X67784531Y-80778070D01*
X67517865Y-80968546D02*
X68203579Y-80968546D01*
X68203579Y-80968546D02*
X68279770Y-80930451D01*
X68279770Y-80930451D02*
X68317865Y-80854261D01*
X68317865Y-80854261D02*
X68317865Y-80778070D01*
X68279770Y-80206641D02*
X68317865Y-80282832D01*
X68317865Y-80282832D02*
X68317865Y-80435213D01*
X68317865Y-80435213D02*
X68279770Y-80511403D01*
X68279770Y-80511403D02*
X68203579Y-80549499D01*
X68203579Y-80549499D02*
X67898817Y-80549499D01*
X67898817Y-80549499D02*
X67822627Y-80511403D01*
X67822627Y-80511403D02*
X67784531Y-80435213D01*
X67784531Y-80435213D02*
X67784531Y-80282832D01*
X67784531Y-80282832D02*
X67822627Y-80206641D01*
X67822627Y-80206641D02*
X67898817Y-80168546D01*
X67898817Y-80168546D02*
X67975008Y-80168546D01*
X67975008Y-80168546D02*
X68051198Y-80549499D01*
X68317865Y-79825689D02*
X67784531Y-79825689D01*
X67936912Y-79825689D02*
X67860722Y-79787594D01*
X67860722Y-79787594D02*
X67822627Y-79749499D01*
X67822627Y-79749499D02*
X67784531Y-79673308D01*
X67784531Y-79673308D02*
X67784531Y-79597118D01*
X68317865Y-78720927D02*
X67517865Y-78720927D01*
X68317865Y-78263784D02*
X67860722Y-78606642D01*
X67517865Y-78263784D02*
X67975008Y-78720927D01*
X68317865Y-77578070D02*
X67898817Y-77578070D01*
X67898817Y-77578070D02*
X67822627Y-77616165D01*
X67822627Y-77616165D02*
X67784531Y-77692356D01*
X67784531Y-77692356D02*
X67784531Y-77844737D01*
X67784531Y-77844737D02*
X67822627Y-77920927D01*
X68279770Y-77578070D02*
X68317865Y-77654261D01*
X68317865Y-77654261D02*
X68317865Y-77844737D01*
X68317865Y-77844737D02*
X68279770Y-77920927D01*
X68279770Y-77920927D02*
X68203579Y-77959023D01*
X68203579Y-77959023D02*
X68127389Y-77959023D01*
X68127389Y-77959023D02*
X68051198Y-77920927D01*
X68051198Y-77920927D02*
X68013103Y-77844737D01*
X68013103Y-77844737D02*
X68013103Y-77654261D01*
X68013103Y-77654261D02*
X67975008Y-77578070D01*
X67784531Y-77197117D02*
X68317865Y-77197117D01*
X67860722Y-77197117D02*
X67822627Y-77159022D01*
X67822627Y-77159022D02*
X67784531Y-77082832D01*
X67784531Y-77082832D02*
X67784531Y-76968546D01*
X67784531Y-76968546D02*
X67822627Y-76892355D01*
X67822627Y-76892355D02*
X67898817Y-76854260D01*
X67898817Y-76854260D02*
X68317865Y-76854260D01*
X67784531Y-76130450D02*
X68432150Y-76130450D01*
X68432150Y-76130450D02*
X68508341Y-76168545D01*
X68508341Y-76168545D02*
X68546436Y-76206641D01*
X68546436Y-76206641D02*
X68584531Y-76282831D01*
X68584531Y-76282831D02*
X68584531Y-76397117D01*
X68584531Y-76397117D02*
X68546436Y-76473307D01*
X68279770Y-76130450D02*
X68317865Y-76206641D01*
X68317865Y-76206641D02*
X68317865Y-76359022D01*
X68317865Y-76359022D02*
X68279770Y-76435212D01*
X68279770Y-76435212D02*
X68241674Y-76473307D01*
X68241674Y-76473307D02*
X68165484Y-76511403D01*
X68165484Y-76511403D02*
X67936912Y-76511403D01*
X67936912Y-76511403D02*
X67860722Y-76473307D01*
X67860722Y-76473307D02*
X67822627Y-76435212D01*
X67822627Y-76435212D02*
X67784531Y-76359022D01*
X67784531Y-76359022D02*
X67784531Y-76206641D01*
X67784531Y-76206641D02*
X67822627Y-76130450D01*
X69072486Y-82454260D02*
X69872486Y-82454260D01*
X69110582Y-82454260D02*
X69072486Y-82378070D01*
X69072486Y-82378070D02*
X69072486Y-82225689D01*
X69072486Y-82225689D02*
X69110582Y-82149498D01*
X69110582Y-82149498D02*
X69148677Y-82111403D01*
X69148677Y-82111403D02*
X69224867Y-82073308D01*
X69224867Y-82073308D02*
X69453439Y-82073308D01*
X69453439Y-82073308D02*
X69529629Y-82111403D01*
X69529629Y-82111403D02*
X69567725Y-82149498D01*
X69567725Y-82149498D02*
X69605820Y-82225689D01*
X69605820Y-82225689D02*
X69605820Y-82378070D01*
X69605820Y-82378070D02*
X69567725Y-82454260D01*
X69605820Y-81730450D02*
X68805820Y-81730450D01*
X69605820Y-81387593D02*
X69186772Y-81387593D01*
X69186772Y-81387593D02*
X69110582Y-81425688D01*
X69110582Y-81425688D02*
X69072486Y-81501879D01*
X69072486Y-81501879D02*
X69072486Y-81616165D01*
X69072486Y-81616165D02*
X69110582Y-81692355D01*
X69110582Y-81692355D02*
X69148677Y-81730450D01*
X69605820Y-80892355D02*
X69567725Y-80968545D01*
X69567725Y-80968545D02*
X69529629Y-81006640D01*
X69529629Y-81006640D02*
X69453439Y-81044736D01*
X69453439Y-81044736D02*
X69224867Y-81044736D01*
X69224867Y-81044736D02*
X69148677Y-81006640D01*
X69148677Y-81006640D02*
X69110582Y-80968545D01*
X69110582Y-80968545D02*
X69072486Y-80892355D01*
X69072486Y-80892355D02*
X69072486Y-80778069D01*
X69072486Y-80778069D02*
X69110582Y-80701878D01*
X69110582Y-80701878D02*
X69148677Y-80663783D01*
X69148677Y-80663783D02*
X69224867Y-80625688D01*
X69224867Y-80625688D02*
X69453439Y-80625688D01*
X69453439Y-80625688D02*
X69529629Y-80663783D01*
X69529629Y-80663783D02*
X69567725Y-80701878D01*
X69567725Y-80701878D02*
X69605820Y-80778069D01*
X69605820Y-80778069D02*
X69605820Y-80892355D01*
X69072486Y-80282830D02*
X69605820Y-80282830D01*
X69148677Y-80282830D02*
X69110582Y-80244735D01*
X69110582Y-80244735D02*
X69072486Y-80168545D01*
X69072486Y-80168545D02*
X69072486Y-80054259D01*
X69072486Y-80054259D02*
X69110582Y-79978068D01*
X69110582Y-79978068D02*
X69186772Y-79939973D01*
X69186772Y-79939973D02*
X69605820Y-79939973D01*
X69567725Y-79254258D02*
X69605820Y-79330449D01*
X69605820Y-79330449D02*
X69605820Y-79482830D01*
X69605820Y-79482830D02*
X69567725Y-79559020D01*
X69567725Y-79559020D02*
X69491534Y-79597116D01*
X69491534Y-79597116D02*
X69186772Y-79597116D01*
X69186772Y-79597116D02*
X69110582Y-79559020D01*
X69110582Y-79559020D02*
X69072486Y-79482830D01*
X69072486Y-79482830D02*
X69072486Y-79330449D01*
X69072486Y-79330449D02*
X69110582Y-79254258D01*
X69110582Y-79254258D02*
X69186772Y-79216163D01*
X69186772Y-79216163D02*
X69262963Y-79216163D01*
X69262963Y-79216163D02*
X69339153Y-79597116D01*
X69605820Y-78263782D02*
X69072486Y-78263782D01*
X69224867Y-78263782D02*
X69148677Y-78225687D01*
X69148677Y-78225687D02*
X69110582Y-78187592D01*
X69110582Y-78187592D02*
X69072486Y-78111401D01*
X69072486Y-78111401D02*
X69072486Y-78035211D01*
X69567725Y-77463782D02*
X69605820Y-77539973D01*
X69605820Y-77539973D02*
X69605820Y-77692354D01*
X69605820Y-77692354D02*
X69567725Y-77768544D01*
X69567725Y-77768544D02*
X69491534Y-77806640D01*
X69491534Y-77806640D02*
X69186772Y-77806640D01*
X69186772Y-77806640D02*
X69110582Y-77768544D01*
X69110582Y-77768544D02*
X69072486Y-77692354D01*
X69072486Y-77692354D02*
X69072486Y-77539973D01*
X69072486Y-77539973D02*
X69110582Y-77463782D01*
X69110582Y-77463782D02*
X69186772Y-77425687D01*
X69186772Y-77425687D02*
X69262963Y-77425687D01*
X69262963Y-77425687D02*
X69339153Y-77806640D01*
X69072486Y-77159021D02*
X69605820Y-76968545D01*
X69605820Y-76968545D02*
X69072486Y-76778068D01*
X68805820Y-76320925D02*
X68805820Y-76244735D01*
X68805820Y-76244735D02*
X68843915Y-76168544D01*
X68843915Y-76168544D02*
X68882010Y-76130449D01*
X68882010Y-76130449D02*
X68958201Y-76092354D01*
X68958201Y-76092354D02*
X69110582Y-76054259D01*
X69110582Y-76054259D02*
X69301058Y-76054259D01*
X69301058Y-76054259D02*
X69453439Y-76092354D01*
X69453439Y-76092354D02*
X69529629Y-76130449D01*
X69529629Y-76130449D02*
X69567725Y-76168544D01*
X69567725Y-76168544D02*
X69605820Y-76244735D01*
X69605820Y-76244735D02*
X69605820Y-76320925D01*
X69605820Y-76320925D02*
X69567725Y-76397116D01*
X69567725Y-76397116D02*
X69529629Y-76435211D01*
X69529629Y-76435211D02*
X69453439Y-76473306D01*
X69453439Y-76473306D02*
X69301058Y-76511402D01*
X69301058Y-76511402D02*
X69110582Y-76511402D01*
X69110582Y-76511402D02*
X68958201Y-76473306D01*
X68958201Y-76473306D02*
X68882010Y-76435211D01*
X68882010Y-76435211D02*
X68843915Y-76397116D01*
X68843915Y-76397116D02*
X68805820Y-76320925D01*
X69529629Y-75711401D02*
X69567725Y-75673306D01*
X69567725Y-75673306D02*
X69605820Y-75711401D01*
X69605820Y-75711401D02*
X69567725Y-75749497D01*
X69567725Y-75749497D02*
X69529629Y-75711401D01*
X69529629Y-75711401D02*
X69605820Y-75711401D01*
X69605820Y-74911402D02*
X69605820Y-75368545D01*
X69605820Y-75139973D02*
X68805820Y-75139973D01*
X68805820Y-75139973D02*
X68920105Y-75216164D01*
X68920105Y-75216164D02*
X68996296Y-75292354D01*
X68996296Y-75292354D02*
X69034391Y-75368545D01*
X70360441Y-82111403D02*
X71008060Y-82111403D01*
X71008060Y-82111403D02*
X71084251Y-82149498D01*
X71084251Y-82149498D02*
X71122346Y-82187594D01*
X71122346Y-82187594D02*
X71160441Y-82263784D01*
X71160441Y-82263784D02*
X71160441Y-82378070D01*
X71160441Y-82378070D02*
X71122346Y-82454260D01*
X70855680Y-82111403D02*
X70893775Y-82187594D01*
X70893775Y-82187594D02*
X70893775Y-82339975D01*
X70893775Y-82339975D02*
X70855680Y-82416165D01*
X70855680Y-82416165D02*
X70817584Y-82454260D01*
X70817584Y-82454260D02*
X70741394Y-82492356D01*
X70741394Y-82492356D02*
X70512822Y-82492356D01*
X70512822Y-82492356D02*
X70436632Y-82454260D01*
X70436632Y-82454260D02*
X70398537Y-82416165D01*
X70398537Y-82416165D02*
X70360441Y-82339975D01*
X70360441Y-82339975D02*
X70360441Y-82187594D01*
X70360441Y-82187594D02*
X70398537Y-82111403D01*
X70893775Y-81730450D02*
X70360441Y-81730450D01*
X70093775Y-81730450D02*
X70131870Y-81768546D01*
X70131870Y-81768546D02*
X70169965Y-81730450D01*
X70169965Y-81730450D02*
X70131870Y-81692355D01*
X70131870Y-81692355D02*
X70093775Y-81730450D01*
X70093775Y-81730450D02*
X70169965Y-81730450D01*
X70360441Y-81463784D02*
X70360441Y-81159022D01*
X70093775Y-81349498D02*
X70779489Y-81349498D01*
X70779489Y-81349498D02*
X70855680Y-81311403D01*
X70855680Y-81311403D02*
X70893775Y-81235213D01*
X70893775Y-81235213D02*
X70893775Y-81159022D01*
X70893775Y-80892355D02*
X70093775Y-80892355D01*
X70893775Y-80549498D02*
X70474727Y-80549498D01*
X70474727Y-80549498D02*
X70398537Y-80587593D01*
X70398537Y-80587593D02*
X70360441Y-80663784D01*
X70360441Y-80663784D02*
X70360441Y-80778070D01*
X70360441Y-80778070D02*
X70398537Y-80854260D01*
X70398537Y-80854260D02*
X70436632Y-80892355D01*
X70360441Y-79825688D02*
X70893775Y-79825688D01*
X70360441Y-80168545D02*
X70779489Y-80168545D01*
X70779489Y-80168545D02*
X70855680Y-80130450D01*
X70855680Y-80130450D02*
X70893775Y-80054260D01*
X70893775Y-80054260D02*
X70893775Y-79939974D01*
X70893775Y-79939974D02*
X70855680Y-79863783D01*
X70855680Y-79863783D02*
X70817584Y-79825688D01*
X70893775Y-79444735D02*
X70093775Y-79444735D01*
X70398537Y-79444735D02*
X70360441Y-79368545D01*
X70360441Y-79368545D02*
X70360441Y-79216164D01*
X70360441Y-79216164D02*
X70398537Y-79139973D01*
X70398537Y-79139973D02*
X70436632Y-79101878D01*
X70436632Y-79101878D02*
X70512822Y-79063783D01*
X70512822Y-79063783D02*
X70741394Y-79063783D01*
X70741394Y-79063783D02*
X70817584Y-79101878D01*
X70817584Y-79101878D02*
X70855680Y-79139973D01*
X70855680Y-79139973D02*
X70893775Y-79216164D01*
X70893775Y-79216164D02*
X70893775Y-79368545D01*
X70893775Y-79368545D02*
X70855680Y-79444735D01*
X70817584Y-78720925D02*
X70855680Y-78682830D01*
X70855680Y-78682830D02*
X70893775Y-78720925D01*
X70893775Y-78720925D02*
X70855680Y-78759021D01*
X70855680Y-78759021D02*
X70817584Y-78720925D01*
X70817584Y-78720925D02*
X70893775Y-78720925D01*
X70855680Y-77997116D02*
X70893775Y-78073307D01*
X70893775Y-78073307D02*
X70893775Y-78225688D01*
X70893775Y-78225688D02*
X70855680Y-78301878D01*
X70855680Y-78301878D02*
X70817584Y-78339973D01*
X70817584Y-78339973D02*
X70741394Y-78378069D01*
X70741394Y-78378069D02*
X70512822Y-78378069D01*
X70512822Y-78378069D02*
X70436632Y-78339973D01*
X70436632Y-78339973D02*
X70398537Y-78301878D01*
X70398537Y-78301878D02*
X70360441Y-78225688D01*
X70360441Y-78225688D02*
X70360441Y-78073307D01*
X70360441Y-78073307D02*
X70398537Y-77997116D01*
X70893775Y-77539974D02*
X70855680Y-77616164D01*
X70855680Y-77616164D02*
X70817584Y-77654259D01*
X70817584Y-77654259D02*
X70741394Y-77692355D01*
X70741394Y-77692355D02*
X70512822Y-77692355D01*
X70512822Y-77692355D02*
X70436632Y-77654259D01*
X70436632Y-77654259D02*
X70398537Y-77616164D01*
X70398537Y-77616164D02*
X70360441Y-77539974D01*
X70360441Y-77539974D02*
X70360441Y-77425688D01*
X70360441Y-77425688D02*
X70398537Y-77349497D01*
X70398537Y-77349497D02*
X70436632Y-77311402D01*
X70436632Y-77311402D02*
X70512822Y-77273307D01*
X70512822Y-77273307D02*
X70741394Y-77273307D01*
X70741394Y-77273307D02*
X70817584Y-77311402D01*
X70817584Y-77311402D02*
X70855680Y-77349497D01*
X70855680Y-77349497D02*
X70893775Y-77425688D01*
X70893775Y-77425688D02*
X70893775Y-77539974D01*
X70893775Y-76930449D02*
X70360441Y-76930449D01*
X70436632Y-76930449D02*
X70398537Y-76892354D01*
X70398537Y-76892354D02*
X70360441Y-76816164D01*
X70360441Y-76816164D02*
X70360441Y-76701878D01*
X70360441Y-76701878D02*
X70398537Y-76625687D01*
X70398537Y-76625687D02*
X70474727Y-76587592D01*
X70474727Y-76587592D02*
X70893775Y-76587592D01*
X70474727Y-76587592D02*
X70398537Y-76549497D01*
X70398537Y-76549497D02*
X70360441Y-76473306D01*
X70360441Y-76473306D02*
X70360441Y-76359021D01*
X70360441Y-76359021D02*
X70398537Y-76282830D01*
X70398537Y-76282830D02*
X70474727Y-76244735D01*
X70474727Y-76244735D02*
X70893775Y-76244735D01*
X70055680Y-75292354D02*
X71084251Y-75978068D01*
X70893775Y-75025687D02*
X70093775Y-75025687D01*
X70589013Y-74949497D02*
X70893775Y-74720925D01*
X70360441Y-74720925D02*
X70665203Y-75025687D01*
X70893775Y-74035211D02*
X70474727Y-74035211D01*
X70474727Y-74035211D02*
X70398537Y-74073306D01*
X70398537Y-74073306D02*
X70360441Y-74149497D01*
X70360441Y-74149497D02*
X70360441Y-74301878D01*
X70360441Y-74301878D02*
X70398537Y-74378068D01*
X70855680Y-74035211D02*
X70893775Y-74111402D01*
X70893775Y-74111402D02*
X70893775Y-74301878D01*
X70893775Y-74301878D02*
X70855680Y-74378068D01*
X70855680Y-74378068D02*
X70779489Y-74416164D01*
X70779489Y-74416164D02*
X70703299Y-74416164D01*
X70703299Y-74416164D02*
X70627108Y-74378068D01*
X70627108Y-74378068D02*
X70589013Y-74301878D01*
X70589013Y-74301878D02*
X70589013Y-74111402D01*
X70589013Y-74111402D02*
X70550918Y-74035211D01*
X70360441Y-73654258D02*
X70893775Y-73654258D01*
X70436632Y-73654258D02*
X70398537Y-73616163D01*
X70398537Y-73616163D02*
X70360441Y-73539973D01*
X70360441Y-73539973D02*
X70360441Y-73425687D01*
X70360441Y-73425687D02*
X70398537Y-73349496D01*
X70398537Y-73349496D02*
X70474727Y-73311401D01*
X70474727Y-73311401D02*
X70893775Y-73311401D01*
X70360441Y-72587591D02*
X71008060Y-72587591D01*
X71008060Y-72587591D02*
X71084251Y-72625686D01*
X71084251Y-72625686D02*
X71122346Y-72663782D01*
X71122346Y-72663782D02*
X71160441Y-72739972D01*
X71160441Y-72739972D02*
X71160441Y-72854258D01*
X71160441Y-72854258D02*
X71122346Y-72930448D01*
X70855680Y-72587591D02*
X70893775Y-72663782D01*
X70893775Y-72663782D02*
X70893775Y-72816163D01*
X70893775Y-72816163D02*
X70855680Y-72892353D01*
X70855680Y-72892353D02*
X70817584Y-72930448D01*
X70817584Y-72930448D02*
X70741394Y-72968544D01*
X70741394Y-72968544D02*
X70512822Y-72968544D01*
X70512822Y-72968544D02*
X70436632Y-72930448D01*
X70436632Y-72930448D02*
X70398537Y-72892353D01*
X70398537Y-72892353D02*
X70360441Y-72816163D01*
X70360441Y-72816163D02*
X70360441Y-72663782D01*
X70360441Y-72663782D02*
X70398537Y-72587591D01*
X70360441Y-72206638D02*
X71160441Y-72206638D01*
X70398537Y-72206638D02*
X70360441Y-72130448D01*
X70360441Y-72130448D02*
X70360441Y-71978067D01*
X70360441Y-71978067D02*
X70398537Y-71901876D01*
X70398537Y-71901876D02*
X70436632Y-71863781D01*
X70436632Y-71863781D02*
X70512822Y-71825686D01*
X70512822Y-71825686D02*
X70741394Y-71825686D01*
X70741394Y-71825686D02*
X70817584Y-71863781D01*
X70817584Y-71863781D02*
X70855680Y-71901876D01*
X70855680Y-71901876D02*
X70893775Y-71978067D01*
X70893775Y-71978067D02*
X70893775Y-72130448D01*
X70893775Y-72130448D02*
X70855680Y-72206638D01*
X70093775Y-71559019D02*
X70093775Y-71063781D01*
X70093775Y-71063781D02*
X70398537Y-71330447D01*
X70398537Y-71330447D02*
X70398537Y-71216162D01*
X70398537Y-71216162D02*
X70436632Y-71139971D01*
X70436632Y-71139971D02*
X70474727Y-71101876D01*
X70474727Y-71101876D02*
X70550918Y-71063781D01*
X70550918Y-71063781D02*
X70741394Y-71063781D01*
X70741394Y-71063781D02*
X70817584Y-71101876D01*
X70817584Y-71101876D02*
X70855680Y-71139971D01*
X70855680Y-71139971D02*
X70893775Y-71216162D01*
X70893775Y-71216162D02*
X70893775Y-71444733D01*
X70893775Y-71444733D02*
X70855680Y-71520924D01*
X70855680Y-71520924D02*
X70817584Y-71559019D01*
X70055680Y-70149495D02*
X71084251Y-70835209D01*
X70360441Y-69882828D02*
X71160441Y-69882828D01*
X70398537Y-69882828D02*
X70360441Y-69806638D01*
X70360441Y-69806638D02*
X70360441Y-69654257D01*
X70360441Y-69654257D02*
X70398537Y-69578066D01*
X70398537Y-69578066D02*
X70436632Y-69539971D01*
X70436632Y-69539971D02*
X70512822Y-69501876D01*
X70512822Y-69501876D02*
X70741394Y-69501876D01*
X70741394Y-69501876D02*
X70817584Y-69539971D01*
X70817584Y-69539971D02*
X70855680Y-69578066D01*
X70855680Y-69578066D02*
X70893775Y-69654257D01*
X70893775Y-69654257D02*
X70893775Y-69806638D01*
X70893775Y-69806638D02*
X70855680Y-69882828D01*
X70893775Y-69159018D02*
X70093775Y-69159018D01*
X70893775Y-68816161D02*
X70474727Y-68816161D01*
X70474727Y-68816161D02*
X70398537Y-68854256D01*
X70398537Y-68854256D02*
X70360441Y-68930447D01*
X70360441Y-68930447D02*
X70360441Y-69044733D01*
X70360441Y-69044733D02*
X70398537Y-69120923D01*
X70398537Y-69120923D02*
X70436632Y-69159018D01*
X70893775Y-68320923D02*
X70855680Y-68397113D01*
X70855680Y-68397113D02*
X70817584Y-68435208D01*
X70817584Y-68435208D02*
X70741394Y-68473304D01*
X70741394Y-68473304D02*
X70512822Y-68473304D01*
X70512822Y-68473304D02*
X70436632Y-68435208D01*
X70436632Y-68435208D02*
X70398537Y-68397113D01*
X70398537Y-68397113D02*
X70360441Y-68320923D01*
X70360441Y-68320923D02*
X70360441Y-68206637D01*
X70360441Y-68206637D02*
X70398537Y-68130446D01*
X70398537Y-68130446D02*
X70436632Y-68092351D01*
X70436632Y-68092351D02*
X70512822Y-68054256D01*
X70512822Y-68054256D02*
X70741394Y-68054256D01*
X70741394Y-68054256D02*
X70817584Y-68092351D01*
X70817584Y-68092351D02*
X70855680Y-68130446D01*
X70855680Y-68130446D02*
X70893775Y-68206637D01*
X70893775Y-68206637D02*
X70893775Y-68320923D01*
X70360441Y-67711398D02*
X70893775Y-67711398D01*
X70436632Y-67711398D02*
X70398537Y-67673303D01*
X70398537Y-67673303D02*
X70360441Y-67597113D01*
X70360441Y-67597113D02*
X70360441Y-67482827D01*
X70360441Y-67482827D02*
X70398537Y-67406636D01*
X70398537Y-67406636D02*
X70474727Y-67368541D01*
X70474727Y-67368541D02*
X70893775Y-67368541D01*
X70855680Y-66682826D02*
X70893775Y-66759017D01*
X70893775Y-66759017D02*
X70893775Y-66911398D01*
X70893775Y-66911398D02*
X70855680Y-66987588D01*
X70855680Y-66987588D02*
X70779489Y-67025684D01*
X70779489Y-67025684D02*
X70474727Y-67025684D01*
X70474727Y-67025684D02*
X70398537Y-66987588D01*
X70398537Y-66987588D02*
X70360441Y-66911398D01*
X70360441Y-66911398D02*
X70360441Y-66759017D01*
X70360441Y-66759017D02*
X70398537Y-66682826D01*
X70398537Y-66682826D02*
X70474727Y-66644731D01*
X70474727Y-66644731D02*
X70550918Y-66644731D01*
X70550918Y-66644731D02*
X70627108Y-67025684D01*
D11*
G36*
X53706250Y-122645833D02*
G01*
X53177083Y-122645833D01*
X53177083Y-120529167D01*
X53706250Y-120529167D01*
X53706250Y-122645833D01*
G37*
G36*
X53970833Y-122645833D02*
G01*
X53706250Y-122645833D01*
X53706250Y-122116667D01*
X53970833Y-122116667D01*
X53970833Y-122645833D01*
G37*
G36*
X53970833Y-121587500D02*
G01*
X53706250Y-121587500D01*
X53706250Y-121322917D01*
X53970833Y-121322917D01*
X53970833Y-121587500D01*
G37*
G36*
X53970833Y-120793750D02*
G01*
X53706250Y-120793750D01*
X53706250Y-120529167D01*
X53970833Y-120529167D01*
X53970833Y-120793750D01*
G37*
G36*
X54235417Y-122645833D02*
G01*
X53970833Y-122645833D01*
X53970833Y-120529167D01*
X54235417Y-120529167D01*
X54235417Y-122645833D01*
G37*
G36*
X54500000Y-122645833D02*
G01*
X54235417Y-122645833D01*
X54235417Y-121852083D01*
X54500000Y-121852083D01*
X54500000Y-122645833D01*
G37*
G36*
X54500000Y-121587500D02*
G01*
X54235417Y-121587500D01*
X54235417Y-121322917D01*
X54500000Y-121322917D01*
X54500000Y-121587500D01*
G37*
G36*
X54500000Y-121058333D02*
G01*
X54235417Y-121058333D01*
X54235417Y-120793750D01*
X54500000Y-120793750D01*
X54500000Y-121058333D01*
G37*
G36*
X54764583Y-122645833D02*
G01*
X54500000Y-122645833D01*
X54500000Y-120529167D01*
X54764583Y-120529167D01*
X54764583Y-122645833D01*
G37*
G36*
X51854167Y-121058333D02*
G01*
X51325000Y-121058333D01*
X51325000Y-120793750D01*
X51854167Y-120793750D01*
X51854167Y-121058333D01*
G37*
G36*
X51854167Y-121587500D02*
G01*
X51325000Y-121587500D01*
X51325000Y-121322917D01*
X51854167Y-121322917D01*
X51854167Y-121587500D01*
G37*
G36*
X51854167Y-122116667D02*
G01*
X51325000Y-122116667D01*
X51325000Y-121852083D01*
X51854167Y-121852083D01*
X51854167Y-122116667D01*
G37*
G36*
X51854167Y-122910417D02*
G01*
X51325000Y-122910417D01*
X51325000Y-122381250D01*
X51854167Y-122381250D01*
X51854167Y-122910417D01*
G37*
G36*
X52383333Y-122381250D02*
G01*
X51854167Y-122381250D01*
X51854167Y-122116667D01*
X52383333Y-122116667D01*
X52383333Y-122381250D01*
G37*
G36*
X52383333Y-121852083D02*
G01*
X51854167Y-121852083D01*
X51854167Y-121587500D01*
X52383333Y-121587500D01*
X52383333Y-121852083D01*
G37*
G36*
X52383333Y-121322917D02*
G01*
X51854167Y-121322917D01*
X51854167Y-121058333D01*
X52383333Y-121058333D01*
X52383333Y-121322917D01*
G37*
G36*
X52383333Y-120793750D02*
G01*
X51854167Y-120793750D01*
X51854167Y-120264583D01*
X52383333Y-120264583D01*
X52383333Y-120793750D01*
G37*
G36*
X52118750Y-123175000D02*
G01*
X51325000Y-123175000D01*
X51325000Y-122645833D01*
X52118750Y-122645833D01*
X52118750Y-123175000D01*
G37*
G36*
X52118750Y-123175000D02*
G01*
X51325000Y-123175000D01*
X51325000Y-122645833D01*
X52118750Y-122645833D01*
X52118750Y-123175000D01*
G37*
G36*
X52118750Y-120529167D02*
G01*
X51325000Y-120529167D01*
X51325000Y-120000000D01*
X52118750Y-120000000D01*
X52118750Y-120529167D01*
G37*
G36*
X51589584Y-122910417D02*
G01*
X51325000Y-122910417D01*
X51325000Y-120264583D01*
X51589584Y-120264583D01*
X51589584Y-122910417D01*
G37*
G36*
X52383333Y-122910417D02*
G01*
X51325000Y-122910417D01*
X51325000Y-122645833D01*
X52383333Y-122645833D01*
X52383333Y-122910417D01*
G37*
G36*
X52383333Y-120529167D02*
G01*
X51325000Y-120529167D01*
X51325000Y-120264583D01*
X52383333Y-120264583D01*
X52383333Y-120529167D01*
G37*
G36*
X52383333Y-122910417D02*
G01*
X52118750Y-122910417D01*
X52118750Y-120264583D01*
X52383333Y-120264583D01*
X52383333Y-122910417D01*
G37*
G36*
X52912500Y-122116667D02*
G01*
X52118750Y-122116667D01*
X52118750Y-121058333D01*
X52912500Y-121058333D01*
X52912500Y-122116667D01*
G37*
G36*
X52912500Y-123175000D02*
G01*
X52647917Y-123175000D01*
X52647917Y-120000000D01*
X52912500Y-120000000D01*
X52912500Y-123175000D01*
G37*
G36*
X55293750Y-123175000D02*
G01*
X52647917Y-123175000D01*
X52647917Y-122910417D01*
X55293750Y-122910417D01*
X55293750Y-123175000D01*
G37*
G36*
X55293750Y-120264583D02*
G01*
X52647917Y-120264583D01*
X52647917Y-120000000D01*
X55293750Y-120000000D01*
X55293750Y-120264583D01*
G37*
G36*
X55293750Y-123175000D02*
G01*
X55029167Y-123175000D01*
X55029167Y-120000000D01*
X55293750Y-120000000D01*
X55293750Y-123175000D01*
G37*
D12*
X62416666Y-61514819D02*
X62416666Y-62229104D01*
X62416666Y-62229104D02*
X62369047Y-62371961D01*
X62369047Y-62371961D02*
X62273809Y-62467200D01*
X62273809Y-62467200D02*
X62130952Y-62514819D01*
X62130952Y-62514819D02*
X62035714Y-62514819D01*
X62845238Y-61610057D02*
X62892857Y-61562438D01*
X62892857Y-61562438D02*
X62988095Y-61514819D01*
X62988095Y-61514819D02*
X63226190Y-61514819D01*
X63226190Y-61514819D02*
X63321428Y-61562438D01*
X63321428Y-61562438D02*
X63369047Y-61610057D01*
X63369047Y-61610057D02*
X63416666Y-61705295D01*
X63416666Y-61705295D02*
X63416666Y-61800533D01*
X63416666Y-61800533D02*
X63369047Y-61943390D01*
X63369047Y-61943390D02*
X62797619Y-62514819D01*
X62797619Y-62514819D02*
X63416666Y-62514819D01*
X52488095Y-94456819D02*
X53059523Y-94456819D01*
X52773809Y-95456819D02*
X52773809Y-94456819D01*
X53392857Y-95456819D02*
X53392857Y-94456819D01*
X53392857Y-94456819D02*
X53773809Y-94456819D01*
X53773809Y-94456819D02*
X53869047Y-94504438D01*
X53869047Y-94504438D02*
X53916666Y-94552057D01*
X53916666Y-94552057D02*
X53964285Y-94647295D01*
X53964285Y-94647295D02*
X53964285Y-94790152D01*
X53964285Y-94790152D02*
X53916666Y-94885390D01*
X53916666Y-94885390D02*
X53869047Y-94933009D01*
X53869047Y-94933009D02*
X53773809Y-94980628D01*
X53773809Y-94980628D02*
X53392857Y-94980628D01*
X54440476Y-95456819D02*
X54630952Y-95456819D01*
X54630952Y-95456819D02*
X54726190Y-95409200D01*
X54726190Y-95409200D02*
X54773809Y-95361580D01*
X54773809Y-95361580D02*
X54869047Y-95218723D01*
X54869047Y-95218723D02*
X54916666Y-95028247D01*
X54916666Y-95028247D02*
X54916666Y-94647295D01*
X54916666Y-94647295D02*
X54869047Y-94552057D01*
X54869047Y-94552057D02*
X54821428Y-94504438D01*
X54821428Y-94504438D02*
X54726190Y-94456819D01*
X54726190Y-94456819D02*
X54535714Y-94456819D01*
X54535714Y-94456819D02*
X54440476Y-94504438D01*
X54440476Y-94504438D02*
X54392857Y-94552057D01*
X54392857Y-94552057D02*
X54345238Y-94647295D01*
X54345238Y-94647295D02*
X54345238Y-94885390D01*
X54345238Y-94885390D02*
X54392857Y-94980628D01*
X54392857Y-94980628D02*
X54440476Y-95028247D01*
X54440476Y-95028247D02*
X54535714Y-95075866D01*
X54535714Y-95075866D02*
X54726190Y-95075866D01*
X54726190Y-95075866D02*
X54821428Y-95028247D01*
X54821428Y-95028247D02*
X54869047Y-94980628D01*
X54869047Y-94980628D02*
X54916666Y-94885390D01*
X87984417Y-92173611D02*
X88698702Y-92173611D01*
X88698702Y-92173611D02*
X88841559Y-92221230D01*
X88841559Y-92221230D02*
X88936798Y-92316468D01*
X88936798Y-92316468D02*
X88984417Y-92459325D01*
X88984417Y-92459325D02*
X88984417Y-92554563D01*
X88984417Y-91173611D02*
X88984417Y-91745039D01*
X88984417Y-91459325D02*
X87984417Y-91459325D01*
X87984417Y-91459325D02*
X88127274Y-91554563D01*
X88127274Y-91554563D02*
X88222512Y-91649801D01*
X88222512Y-91649801D02*
X88270131Y-91745039D01*
X79607142Y-63609580D02*
X79559523Y-63657200D01*
X79559523Y-63657200D02*
X79416666Y-63704819D01*
X79416666Y-63704819D02*
X79321428Y-63704819D01*
X79321428Y-63704819D02*
X79178571Y-63657200D01*
X79178571Y-63657200D02*
X79083333Y-63561961D01*
X79083333Y-63561961D02*
X79035714Y-63466723D01*
X79035714Y-63466723D02*
X78988095Y-63276247D01*
X78988095Y-63276247D02*
X78988095Y-63133390D01*
X78988095Y-63133390D02*
X79035714Y-62942914D01*
X79035714Y-62942914D02*
X79083333Y-62847676D01*
X79083333Y-62847676D02*
X79178571Y-62752438D01*
X79178571Y-62752438D02*
X79321428Y-62704819D01*
X79321428Y-62704819D02*
X79416666Y-62704819D01*
X79416666Y-62704819D02*
X79559523Y-62752438D01*
X79559523Y-62752438D02*
X79607142Y-62800057D01*
X80559523Y-63704819D02*
X79988095Y-63704819D01*
X80273809Y-63704819D02*
X80273809Y-62704819D01*
X80273809Y-62704819D02*
X80178571Y-62847676D01*
X80178571Y-62847676D02*
X80083333Y-62942914D01*
X80083333Y-62942914D02*
X79988095Y-62990533D01*
X80940476Y-62800057D02*
X80988095Y-62752438D01*
X80988095Y-62752438D02*
X81083333Y-62704819D01*
X81083333Y-62704819D02*
X81321428Y-62704819D01*
X81321428Y-62704819D02*
X81416666Y-62752438D01*
X81416666Y-62752438D02*
X81464285Y-62800057D01*
X81464285Y-62800057D02*
X81511904Y-62895295D01*
X81511904Y-62895295D02*
X81511904Y-62990533D01*
X81511904Y-62990533D02*
X81464285Y-63133390D01*
X81464285Y-63133390D02*
X80892857Y-63704819D01*
X80892857Y-63704819D02*
X81511904Y-63704819D01*
X59988095Y-61539819D02*
X59988095Y-62349342D01*
X59988095Y-62349342D02*
X60035714Y-62444580D01*
X60035714Y-62444580D02*
X60083333Y-62492200D01*
X60083333Y-62492200D02*
X60178571Y-62539819D01*
X60178571Y-62539819D02*
X60369047Y-62539819D01*
X60369047Y-62539819D02*
X60464285Y-62492200D01*
X60464285Y-62492200D02*
X60511904Y-62444580D01*
X60511904Y-62444580D02*
X60559523Y-62349342D01*
X60559523Y-62349342D02*
X60559523Y-61539819D01*
X61559523Y-62539819D02*
X60988095Y-62539819D01*
X61273809Y-62539819D02*
X61273809Y-61539819D01*
X61273809Y-61539819D02*
X61178571Y-61682676D01*
X61178571Y-61682676D02*
X61083333Y-61777914D01*
X61083333Y-61777914D02*
X60988095Y-61825533D01*
X52488095Y-83706819D02*
X53059523Y-83706819D01*
X52773809Y-84706819D02*
X52773809Y-83706819D01*
X53392857Y-84706819D02*
X53392857Y-83706819D01*
X53392857Y-83706819D02*
X53773809Y-83706819D01*
X53773809Y-83706819D02*
X53869047Y-83754438D01*
X53869047Y-83754438D02*
X53916666Y-83802057D01*
X53916666Y-83802057D02*
X53964285Y-83897295D01*
X53964285Y-83897295D02*
X53964285Y-84040152D01*
X53964285Y-84040152D02*
X53916666Y-84135390D01*
X53916666Y-84135390D02*
X53869047Y-84183009D01*
X53869047Y-84183009D02*
X53773809Y-84230628D01*
X53773809Y-84230628D02*
X53392857Y-84230628D01*
X54535714Y-84135390D02*
X54440476Y-84087771D01*
X54440476Y-84087771D02*
X54392857Y-84040152D01*
X54392857Y-84040152D02*
X54345238Y-83944914D01*
X54345238Y-83944914D02*
X54345238Y-83897295D01*
X54345238Y-83897295D02*
X54392857Y-83802057D01*
X54392857Y-83802057D02*
X54440476Y-83754438D01*
X54440476Y-83754438D02*
X54535714Y-83706819D01*
X54535714Y-83706819D02*
X54726190Y-83706819D01*
X54726190Y-83706819D02*
X54821428Y-83754438D01*
X54821428Y-83754438D02*
X54869047Y-83802057D01*
X54869047Y-83802057D02*
X54916666Y-83897295D01*
X54916666Y-83897295D02*
X54916666Y-83944914D01*
X54916666Y-83944914D02*
X54869047Y-84040152D01*
X54869047Y-84040152D02*
X54821428Y-84087771D01*
X54821428Y-84087771D02*
X54726190Y-84135390D01*
X54726190Y-84135390D02*
X54535714Y-84135390D01*
X54535714Y-84135390D02*
X54440476Y-84183009D01*
X54440476Y-84183009D02*
X54392857Y-84230628D01*
X54392857Y-84230628D02*
X54345238Y-84325866D01*
X54345238Y-84325866D02*
X54345238Y-84516342D01*
X54345238Y-84516342D02*
X54392857Y-84611580D01*
X54392857Y-84611580D02*
X54440476Y-84659200D01*
X54440476Y-84659200D02*
X54535714Y-84706819D01*
X54535714Y-84706819D02*
X54726190Y-84706819D01*
X54726190Y-84706819D02*
X54821428Y-84659200D01*
X54821428Y-84659200D02*
X54869047Y-84611580D01*
X54869047Y-84611580D02*
X54916666Y-84516342D01*
X54916666Y-84516342D02*
X54916666Y-84325866D01*
X54916666Y-84325866D02*
X54869047Y-84230628D01*
X54869047Y-84230628D02*
X54821428Y-84183009D01*
X54821428Y-84183009D02*
X54726190Y-84135390D01*
X74333333Y-102204507D02*
X74000000Y-101728316D01*
X73761905Y-102204507D02*
X73761905Y-101204507D01*
X73761905Y-101204507D02*
X74142857Y-101204507D01*
X74142857Y-101204507D02*
X74238095Y-101252126D01*
X74238095Y-101252126D02*
X74285714Y-101299745D01*
X74285714Y-101299745D02*
X74333333Y-101394983D01*
X74333333Y-101394983D02*
X74333333Y-101537840D01*
X74333333Y-101537840D02*
X74285714Y-101633078D01*
X74285714Y-101633078D02*
X74238095Y-101680697D01*
X74238095Y-101680697D02*
X74142857Y-101728316D01*
X74142857Y-101728316D02*
X73761905Y-101728316D01*
X75285714Y-102204507D02*
X74714286Y-102204507D01*
X75000000Y-102204507D02*
X75000000Y-101204507D01*
X75000000Y-101204507D02*
X74904762Y-101347364D01*
X74904762Y-101347364D02*
X74809524Y-101442602D01*
X74809524Y-101442602D02*
X74714286Y-101490221D01*
X78392346Y-106655214D02*
X78439966Y-106702833D01*
X78439966Y-106702833D02*
X78487585Y-106845690D01*
X78487585Y-106845690D02*
X78487585Y-106940928D01*
X78487585Y-106940928D02*
X78439966Y-107083785D01*
X78439966Y-107083785D02*
X78344727Y-107179023D01*
X78344727Y-107179023D02*
X78249489Y-107226642D01*
X78249489Y-107226642D02*
X78059013Y-107274261D01*
X78059013Y-107274261D02*
X77916156Y-107274261D01*
X77916156Y-107274261D02*
X77725680Y-107226642D01*
X77725680Y-107226642D02*
X77630442Y-107179023D01*
X77630442Y-107179023D02*
X77535204Y-107083785D01*
X77535204Y-107083785D02*
X77487585Y-106940928D01*
X77487585Y-106940928D02*
X77487585Y-106845690D01*
X77487585Y-106845690D02*
X77535204Y-106702833D01*
X77535204Y-106702833D02*
X77582823Y-106655214D01*
X78487585Y-105702833D02*
X78487585Y-106274261D01*
X78487585Y-105988547D02*
X77487585Y-105988547D01*
X77487585Y-105988547D02*
X77630442Y-106083785D01*
X77630442Y-106083785D02*
X77725680Y-106179023D01*
X77725680Y-106179023D02*
X77773299Y-106274261D01*
X77487585Y-105083785D02*
X77487585Y-104988547D01*
X77487585Y-104988547D02*
X77535204Y-104893309D01*
X77535204Y-104893309D02*
X77582823Y-104845690D01*
X77582823Y-104845690D02*
X77678061Y-104798071D01*
X77678061Y-104798071D02*
X77868537Y-104750452D01*
X77868537Y-104750452D02*
X78106632Y-104750452D01*
X78106632Y-104750452D02*
X78297108Y-104798071D01*
X78297108Y-104798071D02*
X78392346Y-104845690D01*
X78392346Y-104845690D02*
X78439966Y-104893309D01*
X78439966Y-104893309D02*
X78487585Y-104988547D01*
X78487585Y-104988547D02*
X78487585Y-105083785D01*
X78487585Y-105083785D02*
X78439966Y-105179023D01*
X78439966Y-105179023D02*
X78392346Y-105226642D01*
X78392346Y-105226642D02*
X78297108Y-105274261D01*
X78297108Y-105274261D02*
X78106632Y-105321880D01*
X78106632Y-105321880D02*
X77868537Y-105321880D01*
X77868537Y-105321880D02*
X77678061Y-105274261D01*
X77678061Y-105274261D02*
X77582823Y-105226642D01*
X77582823Y-105226642D02*
X77535204Y-105179023D01*
X77535204Y-105179023D02*
X77487585Y-105083785D01*
X77704819Y-96809523D02*
X76704819Y-96809523D01*
X76704819Y-96809523D02*
X76704819Y-96428571D01*
X76704819Y-96428571D02*
X76752438Y-96333333D01*
X76752438Y-96333333D02*
X76800057Y-96285714D01*
X76800057Y-96285714D02*
X76895295Y-96238095D01*
X76895295Y-96238095D02*
X77038152Y-96238095D01*
X77038152Y-96238095D02*
X77133390Y-96285714D01*
X77133390Y-96285714D02*
X77181009Y-96333333D01*
X77181009Y-96333333D02*
X77228628Y-96428571D01*
X77228628Y-96428571D02*
X77228628Y-96809523D01*
X77609580Y-95238095D02*
X77657200Y-95285714D01*
X77657200Y-95285714D02*
X77704819Y-95428571D01*
X77704819Y-95428571D02*
X77704819Y-95523809D01*
X77704819Y-95523809D02*
X77657200Y-95666666D01*
X77657200Y-95666666D02*
X77561961Y-95761904D01*
X77561961Y-95761904D02*
X77466723Y-95809523D01*
X77466723Y-95809523D02*
X77276247Y-95857142D01*
X77276247Y-95857142D02*
X77133390Y-95857142D01*
X77133390Y-95857142D02*
X76942914Y-95809523D01*
X76942914Y-95809523D02*
X76847676Y-95761904D01*
X76847676Y-95761904D02*
X76752438Y-95666666D01*
X76752438Y-95666666D02*
X76704819Y-95523809D01*
X76704819Y-95523809D02*
X76704819Y-95428571D01*
X76704819Y-95428571D02*
X76752438Y-95285714D01*
X76752438Y-95285714D02*
X76800057Y-95238095D01*
X77704819Y-94809523D02*
X76704819Y-94809523D01*
X76704819Y-94809523D02*
X77419104Y-94476190D01*
X77419104Y-94476190D02*
X76704819Y-94142857D01*
X76704819Y-94142857D02*
X77704819Y-94142857D01*
X77704819Y-93142857D02*
X77704819Y-93714285D01*
X77704819Y-93428571D02*
X76704819Y-93428571D01*
X76704819Y-93428571D02*
X76847676Y-93523809D01*
X76847676Y-93523809D02*
X76942914Y-93619047D01*
X76942914Y-93619047D02*
X76990533Y-93714285D01*
X71009602Y-103069415D02*
X71057222Y-103117034D01*
X71057222Y-103117034D02*
X71104841Y-103259891D01*
X71104841Y-103259891D02*
X71104841Y-103355129D01*
X71104841Y-103355129D02*
X71057222Y-103497986D01*
X71057222Y-103497986D02*
X70961983Y-103593224D01*
X70961983Y-103593224D02*
X70866745Y-103640843D01*
X70866745Y-103640843D02*
X70676269Y-103688462D01*
X70676269Y-103688462D02*
X70533412Y-103688462D01*
X70533412Y-103688462D02*
X70342936Y-103640843D01*
X70342936Y-103640843D02*
X70247698Y-103593224D01*
X70247698Y-103593224D02*
X70152460Y-103497986D01*
X70152460Y-103497986D02*
X70104841Y-103355129D01*
X70104841Y-103355129D02*
X70104841Y-103259891D01*
X70104841Y-103259891D02*
X70152460Y-103117034D01*
X70152460Y-103117034D02*
X70200079Y-103069415D01*
X70104841Y-102164653D02*
X70104841Y-102640843D01*
X70104841Y-102640843D02*
X70581031Y-102688462D01*
X70581031Y-102688462D02*
X70533412Y-102640843D01*
X70533412Y-102640843D02*
X70485793Y-102545605D01*
X70485793Y-102545605D02*
X70485793Y-102307510D01*
X70485793Y-102307510D02*
X70533412Y-102212272D01*
X70533412Y-102212272D02*
X70581031Y-102164653D01*
X70581031Y-102164653D02*
X70676269Y-102117034D01*
X70676269Y-102117034D02*
X70914364Y-102117034D01*
X70914364Y-102117034D02*
X71009602Y-102164653D01*
X71009602Y-102164653D02*
X71057222Y-102212272D01*
X71057222Y-102212272D02*
X71104841Y-102307510D01*
X71104841Y-102307510D02*
X71104841Y-102545605D01*
X71104841Y-102545605D02*
X71057222Y-102640843D01*
X71057222Y-102640843D02*
X71009602Y-102688462D01*
X52488095Y-71706819D02*
X53059523Y-71706819D01*
X52773809Y-72706819D02*
X52773809Y-71706819D01*
X53392857Y-72706819D02*
X53392857Y-71706819D01*
X53392857Y-71706819D02*
X53773809Y-71706819D01*
X53773809Y-71706819D02*
X53869047Y-71754438D01*
X53869047Y-71754438D02*
X53916666Y-71802057D01*
X53916666Y-71802057D02*
X53964285Y-71897295D01*
X53964285Y-71897295D02*
X53964285Y-72040152D01*
X53964285Y-72040152D02*
X53916666Y-72135390D01*
X53916666Y-72135390D02*
X53869047Y-72183009D01*
X53869047Y-72183009D02*
X53773809Y-72230628D01*
X53773809Y-72230628D02*
X53392857Y-72230628D01*
X54821428Y-72040152D02*
X54821428Y-72706819D01*
X54583333Y-71659200D02*
X54345238Y-72373485D01*
X54345238Y-72373485D02*
X54964285Y-72373485D01*
X67583333Y-97859580D02*
X67535714Y-97907200D01*
X67535714Y-97907200D02*
X67392857Y-97954819D01*
X67392857Y-97954819D02*
X67297619Y-97954819D01*
X67297619Y-97954819D02*
X67154762Y-97907200D01*
X67154762Y-97907200D02*
X67059524Y-97811961D01*
X67059524Y-97811961D02*
X67011905Y-97716723D01*
X67011905Y-97716723D02*
X66964286Y-97526247D01*
X66964286Y-97526247D02*
X66964286Y-97383390D01*
X66964286Y-97383390D02*
X67011905Y-97192914D01*
X67011905Y-97192914D02*
X67059524Y-97097676D01*
X67059524Y-97097676D02*
X67154762Y-97002438D01*
X67154762Y-97002438D02*
X67297619Y-96954819D01*
X67297619Y-96954819D02*
X67392857Y-96954819D01*
X67392857Y-96954819D02*
X67535714Y-97002438D01*
X67535714Y-97002438D02*
X67583333Y-97050057D01*
X67916667Y-96954819D02*
X68535714Y-96954819D01*
X68535714Y-96954819D02*
X68202381Y-97335771D01*
X68202381Y-97335771D02*
X68345238Y-97335771D01*
X68345238Y-97335771D02*
X68440476Y-97383390D01*
X68440476Y-97383390D02*
X68488095Y-97431009D01*
X68488095Y-97431009D02*
X68535714Y-97526247D01*
X68535714Y-97526247D02*
X68535714Y-97764342D01*
X68535714Y-97764342D02*
X68488095Y-97859580D01*
X68488095Y-97859580D02*
X68440476Y-97907200D01*
X68440476Y-97907200D02*
X68345238Y-97954819D01*
X68345238Y-97954819D02*
X68059524Y-97954819D01*
X68059524Y-97954819D02*
X67964286Y-97907200D01*
X67964286Y-97907200D02*
X67916667Y-97859580D01*
X68816057Y-103096809D02*
X68863677Y-103144428D01*
X68863677Y-103144428D02*
X68911296Y-103287285D01*
X68911296Y-103287285D02*
X68911296Y-103382523D01*
X68911296Y-103382523D02*
X68863677Y-103525380D01*
X68863677Y-103525380D02*
X68768438Y-103620618D01*
X68768438Y-103620618D02*
X68673200Y-103668237D01*
X68673200Y-103668237D02*
X68482724Y-103715856D01*
X68482724Y-103715856D02*
X68339867Y-103715856D01*
X68339867Y-103715856D02*
X68149391Y-103668237D01*
X68149391Y-103668237D02*
X68054153Y-103620618D01*
X68054153Y-103620618D02*
X67958915Y-103525380D01*
X67958915Y-103525380D02*
X67911296Y-103382523D01*
X67911296Y-103382523D02*
X67911296Y-103287285D01*
X67911296Y-103287285D02*
X67958915Y-103144428D01*
X67958915Y-103144428D02*
X68006534Y-103096809D01*
X67911296Y-102763475D02*
X67911296Y-102096809D01*
X67911296Y-102096809D02*
X68911296Y-102525380D01*
X64488095Y-118206819D02*
X65059523Y-118206819D01*
X64773809Y-119206819D02*
X64773809Y-118206819D01*
X65392857Y-119206819D02*
X65392857Y-118206819D01*
X65392857Y-118206819D02*
X65773809Y-118206819D01*
X65773809Y-118206819D02*
X65869047Y-118254438D01*
X65869047Y-118254438D02*
X65916666Y-118302057D01*
X65916666Y-118302057D02*
X65964285Y-118397295D01*
X65964285Y-118397295D02*
X65964285Y-118540152D01*
X65964285Y-118540152D02*
X65916666Y-118635390D01*
X65916666Y-118635390D02*
X65869047Y-118683009D01*
X65869047Y-118683009D02*
X65773809Y-118730628D01*
X65773809Y-118730628D02*
X65392857Y-118730628D01*
X66345238Y-118302057D02*
X66392857Y-118254438D01*
X66392857Y-118254438D02*
X66488095Y-118206819D01*
X66488095Y-118206819D02*
X66726190Y-118206819D01*
X66726190Y-118206819D02*
X66821428Y-118254438D01*
X66821428Y-118254438D02*
X66869047Y-118302057D01*
X66869047Y-118302057D02*
X66916666Y-118397295D01*
X66916666Y-118397295D02*
X66916666Y-118492533D01*
X66916666Y-118492533D02*
X66869047Y-118635390D01*
X66869047Y-118635390D02*
X66297619Y-119206819D01*
X66297619Y-119206819D02*
X66916666Y-119206819D01*
X76488095Y-118206819D02*
X77059523Y-118206819D01*
X76773809Y-119206819D02*
X76773809Y-118206819D01*
X77392857Y-119206819D02*
X77392857Y-118206819D01*
X77392857Y-118206819D02*
X77773809Y-118206819D01*
X77773809Y-118206819D02*
X77869047Y-118254438D01*
X77869047Y-118254438D02*
X77916666Y-118302057D01*
X77916666Y-118302057D02*
X77964285Y-118397295D01*
X77964285Y-118397295D02*
X77964285Y-118540152D01*
X77964285Y-118540152D02*
X77916666Y-118635390D01*
X77916666Y-118635390D02*
X77869047Y-118683009D01*
X77869047Y-118683009D02*
X77773809Y-118730628D01*
X77773809Y-118730628D02*
X77392857Y-118730628D01*
X78297619Y-118206819D02*
X78964285Y-118206819D01*
X78964285Y-118206819D02*
X78535714Y-119206819D01*
X54583333Y-60617319D02*
X54250000Y-60141128D01*
X54011905Y-60617319D02*
X54011905Y-59617319D01*
X54011905Y-59617319D02*
X54392857Y-59617319D01*
X54392857Y-59617319D02*
X54488095Y-59664938D01*
X54488095Y-59664938D02*
X54535714Y-59712557D01*
X54535714Y-59712557D02*
X54583333Y-59807795D01*
X54583333Y-59807795D02*
X54583333Y-59950652D01*
X54583333Y-59950652D02*
X54535714Y-60045890D01*
X54535714Y-60045890D02*
X54488095Y-60093509D01*
X54488095Y-60093509D02*
X54392857Y-60141128D01*
X54392857Y-60141128D02*
X54011905Y-60141128D01*
X54964286Y-59712557D02*
X55011905Y-59664938D01*
X55011905Y-59664938D02*
X55107143Y-59617319D01*
X55107143Y-59617319D02*
X55345238Y-59617319D01*
X55345238Y-59617319D02*
X55440476Y-59664938D01*
X55440476Y-59664938D02*
X55488095Y-59712557D01*
X55488095Y-59712557D02*
X55535714Y-59807795D01*
X55535714Y-59807795D02*
X55535714Y-59903033D01*
X55535714Y-59903033D02*
X55488095Y-60045890D01*
X55488095Y-60045890D02*
X54916667Y-60617319D01*
X54916667Y-60617319D02*
X55535714Y-60617319D01*
X76008333Y-88409580D02*
X75960714Y-88457200D01*
X75960714Y-88457200D02*
X75817857Y-88504819D01*
X75817857Y-88504819D02*
X75722619Y-88504819D01*
X75722619Y-88504819D02*
X75579762Y-88457200D01*
X75579762Y-88457200D02*
X75484524Y-88361961D01*
X75484524Y-88361961D02*
X75436905Y-88266723D01*
X75436905Y-88266723D02*
X75389286Y-88076247D01*
X75389286Y-88076247D02*
X75389286Y-87933390D01*
X75389286Y-87933390D02*
X75436905Y-87742914D01*
X75436905Y-87742914D02*
X75484524Y-87647676D01*
X75484524Y-87647676D02*
X75579762Y-87552438D01*
X75579762Y-87552438D02*
X75722619Y-87504819D01*
X75722619Y-87504819D02*
X75817857Y-87504819D01*
X75817857Y-87504819D02*
X75960714Y-87552438D01*
X75960714Y-87552438D02*
X76008333Y-87600057D01*
X76484524Y-88504819D02*
X76675000Y-88504819D01*
X76675000Y-88504819D02*
X76770238Y-88457200D01*
X76770238Y-88457200D02*
X76817857Y-88409580D01*
X76817857Y-88409580D02*
X76913095Y-88266723D01*
X76913095Y-88266723D02*
X76960714Y-88076247D01*
X76960714Y-88076247D02*
X76960714Y-87695295D01*
X76960714Y-87695295D02*
X76913095Y-87600057D01*
X76913095Y-87600057D02*
X76865476Y-87552438D01*
X76865476Y-87552438D02*
X76770238Y-87504819D01*
X76770238Y-87504819D02*
X76579762Y-87504819D01*
X76579762Y-87504819D02*
X76484524Y-87552438D01*
X76484524Y-87552438D02*
X76436905Y-87600057D01*
X76436905Y-87600057D02*
X76389286Y-87695295D01*
X76389286Y-87695295D02*
X76389286Y-87933390D01*
X76389286Y-87933390D02*
X76436905Y-88028628D01*
X76436905Y-88028628D02*
X76484524Y-88076247D01*
X76484524Y-88076247D02*
X76579762Y-88123866D01*
X76579762Y-88123866D02*
X76770238Y-88123866D01*
X76770238Y-88123866D02*
X76865476Y-88076247D01*
X76865476Y-88076247D02*
X76913095Y-88028628D01*
X76913095Y-88028628D02*
X76960714Y-87933390D01*
X73083333Y-84859580D02*
X73035714Y-84907200D01*
X73035714Y-84907200D02*
X72892857Y-84954819D01*
X72892857Y-84954819D02*
X72797619Y-84954819D01*
X72797619Y-84954819D02*
X72654762Y-84907200D01*
X72654762Y-84907200D02*
X72559524Y-84811961D01*
X72559524Y-84811961D02*
X72511905Y-84716723D01*
X72511905Y-84716723D02*
X72464286Y-84526247D01*
X72464286Y-84526247D02*
X72464286Y-84383390D01*
X72464286Y-84383390D02*
X72511905Y-84192914D01*
X72511905Y-84192914D02*
X72559524Y-84097676D01*
X72559524Y-84097676D02*
X72654762Y-84002438D01*
X72654762Y-84002438D02*
X72797619Y-83954819D01*
X72797619Y-83954819D02*
X72892857Y-83954819D01*
X72892857Y-83954819D02*
X73035714Y-84002438D01*
X73035714Y-84002438D02*
X73083333Y-84050057D01*
X73654762Y-84383390D02*
X73559524Y-84335771D01*
X73559524Y-84335771D02*
X73511905Y-84288152D01*
X73511905Y-84288152D02*
X73464286Y-84192914D01*
X73464286Y-84192914D02*
X73464286Y-84145295D01*
X73464286Y-84145295D02*
X73511905Y-84050057D01*
X73511905Y-84050057D02*
X73559524Y-84002438D01*
X73559524Y-84002438D02*
X73654762Y-83954819D01*
X73654762Y-83954819D02*
X73845238Y-83954819D01*
X73845238Y-83954819D02*
X73940476Y-84002438D01*
X73940476Y-84002438D02*
X73988095Y-84050057D01*
X73988095Y-84050057D02*
X74035714Y-84145295D01*
X74035714Y-84145295D02*
X74035714Y-84192914D01*
X74035714Y-84192914D02*
X73988095Y-84288152D01*
X73988095Y-84288152D02*
X73940476Y-84335771D01*
X73940476Y-84335771D02*
X73845238Y-84383390D01*
X73845238Y-84383390D02*
X73654762Y-84383390D01*
X73654762Y-84383390D02*
X73559524Y-84431009D01*
X73559524Y-84431009D02*
X73511905Y-84478628D01*
X73511905Y-84478628D02*
X73464286Y-84573866D01*
X73464286Y-84573866D02*
X73464286Y-84764342D01*
X73464286Y-84764342D02*
X73511905Y-84859580D01*
X73511905Y-84859580D02*
X73559524Y-84907200D01*
X73559524Y-84907200D02*
X73654762Y-84954819D01*
X73654762Y-84954819D02*
X73845238Y-84954819D01*
X73845238Y-84954819D02*
X73940476Y-84907200D01*
X73940476Y-84907200D02*
X73988095Y-84859580D01*
X73988095Y-84859580D02*
X74035714Y-84764342D01*
X74035714Y-84764342D02*
X74035714Y-84573866D01*
X74035714Y-84573866D02*
X73988095Y-84478628D01*
X73988095Y-84478628D02*
X73940476Y-84431009D01*
X73940476Y-84431009D02*
X73845238Y-84383390D01*
X67603333Y-95449580D02*
X67555714Y-95497200D01*
X67555714Y-95497200D02*
X67412857Y-95544819D01*
X67412857Y-95544819D02*
X67317619Y-95544819D01*
X67317619Y-95544819D02*
X67174762Y-95497200D01*
X67174762Y-95497200D02*
X67079524Y-95401961D01*
X67079524Y-95401961D02*
X67031905Y-95306723D01*
X67031905Y-95306723D02*
X66984286Y-95116247D01*
X66984286Y-95116247D02*
X66984286Y-94973390D01*
X66984286Y-94973390D02*
X67031905Y-94782914D01*
X67031905Y-94782914D02*
X67079524Y-94687676D01*
X67079524Y-94687676D02*
X67174762Y-94592438D01*
X67174762Y-94592438D02*
X67317619Y-94544819D01*
X67317619Y-94544819D02*
X67412857Y-94544819D01*
X67412857Y-94544819D02*
X67555714Y-94592438D01*
X67555714Y-94592438D02*
X67603333Y-94640057D01*
X67984286Y-94640057D02*
X68031905Y-94592438D01*
X68031905Y-94592438D02*
X68127143Y-94544819D01*
X68127143Y-94544819D02*
X68365238Y-94544819D01*
X68365238Y-94544819D02*
X68460476Y-94592438D01*
X68460476Y-94592438D02*
X68508095Y-94640057D01*
X68508095Y-94640057D02*
X68555714Y-94735295D01*
X68555714Y-94735295D02*
X68555714Y-94830533D01*
X68555714Y-94830533D02*
X68508095Y-94973390D01*
X68508095Y-94973390D02*
X67936667Y-95544819D01*
X67936667Y-95544819D02*
X68555714Y-95544819D01*
X67109580Y-105416666D02*
X67157200Y-105464285D01*
X67157200Y-105464285D02*
X67204819Y-105607142D01*
X67204819Y-105607142D02*
X67204819Y-105702380D01*
X67204819Y-105702380D02*
X67157200Y-105845237D01*
X67157200Y-105845237D02*
X67061961Y-105940475D01*
X67061961Y-105940475D02*
X66966723Y-105988094D01*
X66966723Y-105988094D02*
X66776247Y-106035713D01*
X66776247Y-106035713D02*
X66633390Y-106035713D01*
X66633390Y-106035713D02*
X66442914Y-105988094D01*
X66442914Y-105988094D02*
X66347676Y-105940475D01*
X66347676Y-105940475D02*
X66252438Y-105845237D01*
X66252438Y-105845237D02*
X66204819Y-105702380D01*
X66204819Y-105702380D02*
X66204819Y-105607142D01*
X66204819Y-105607142D02*
X66252438Y-105464285D01*
X66252438Y-105464285D02*
X66300057Y-105416666D01*
X66204819Y-104559523D02*
X66204819Y-104749999D01*
X66204819Y-104749999D02*
X66252438Y-104845237D01*
X66252438Y-104845237D02*
X66300057Y-104892856D01*
X66300057Y-104892856D02*
X66442914Y-104988094D01*
X66442914Y-104988094D02*
X66633390Y-105035713D01*
X66633390Y-105035713D02*
X67014342Y-105035713D01*
X67014342Y-105035713D02*
X67109580Y-104988094D01*
X67109580Y-104988094D02*
X67157200Y-104940475D01*
X67157200Y-104940475D02*
X67204819Y-104845237D01*
X67204819Y-104845237D02*
X67204819Y-104654761D01*
X67204819Y-104654761D02*
X67157200Y-104559523D01*
X67157200Y-104559523D02*
X67109580Y-104511904D01*
X67109580Y-104511904D02*
X67014342Y-104464285D01*
X67014342Y-104464285D02*
X66776247Y-104464285D01*
X66776247Y-104464285D02*
X66681009Y-104511904D01*
X66681009Y-104511904D02*
X66633390Y-104559523D01*
X66633390Y-104559523D02*
X66585771Y-104654761D01*
X66585771Y-104654761D02*
X66585771Y-104845237D01*
X66585771Y-104845237D02*
X66633390Y-104940475D01*
X66633390Y-104940475D02*
X66681009Y-104988094D01*
X66681009Y-104988094D02*
X66776247Y-105035713D01*
X72488095Y-118206819D02*
X73059523Y-118206819D01*
X72773809Y-119206819D02*
X72773809Y-118206819D01*
X73392857Y-119206819D02*
X73392857Y-118206819D01*
X73392857Y-118206819D02*
X73773809Y-118206819D01*
X73773809Y-118206819D02*
X73869047Y-118254438D01*
X73869047Y-118254438D02*
X73916666Y-118302057D01*
X73916666Y-118302057D02*
X73964285Y-118397295D01*
X73964285Y-118397295D02*
X73964285Y-118540152D01*
X73964285Y-118540152D02*
X73916666Y-118635390D01*
X73916666Y-118635390D02*
X73869047Y-118683009D01*
X73869047Y-118683009D02*
X73773809Y-118730628D01*
X73773809Y-118730628D02*
X73392857Y-118730628D01*
X74916666Y-119206819D02*
X74345238Y-119206819D01*
X74630952Y-119206819D02*
X74630952Y-118206819D01*
X74630952Y-118206819D02*
X74535714Y-118349676D01*
X74535714Y-118349676D02*
X74440476Y-118444914D01*
X74440476Y-118444914D02*
X74345238Y-118492533D01*
X52488095Y-65706819D02*
X53059523Y-65706819D01*
X52773809Y-66706819D02*
X52773809Y-65706819D01*
X53392857Y-66706819D02*
X53392857Y-65706819D01*
X53392857Y-65706819D02*
X53773809Y-65706819D01*
X53773809Y-65706819D02*
X53869047Y-65754438D01*
X53869047Y-65754438D02*
X53916666Y-65802057D01*
X53916666Y-65802057D02*
X53964285Y-65897295D01*
X53964285Y-65897295D02*
X53964285Y-66040152D01*
X53964285Y-66040152D02*
X53916666Y-66135390D01*
X53916666Y-66135390D02*
X53869047Y-66183009D01*
X53869047Y-66183009D02*
X53773809Y-66230628D01*
X53773809Y-66230628D02*
X53392857Y-66230628D01*
X54869047Y-65706819D02*
X54392857Y-65706819D01*
X54392857Y-65706819D02*
X54345238Y-66183009D01*
X54345238Y-66183009D02*
X54392857Y-66135390D01*
X54392857Y-66135390D02*
X54488095Y-66087771D01*
X54488095Y-66087771D02*
X54726190Y-66087771D01*
X54726190Y-66087771D02*
X54821428Y-66135390D01*
X54821428Y-66135390D02*
X54869047Y-66183009D01*
X54869047Y-66183009D02*
X54916666Y-66278247D01*
X54916666Y-66278247D02*
X54916666Y-66516342D01*
X54916666Y-66516342D02*
X54869047Y-66611580D01*
X54869047Y-66611580D02*
X54821428Y-66659200D01*
X54821428Y-66659200D02*
X54726190Y-66706819D01*
X54726190Y-66706819D02*
X54488095Y-66706819D01*
X54488095Y-66706819D02*
X54392857Y-66659200D01*
X54392857Y-66659200D02*
X54345238Y-66611580D01*
X65204819Y-87059523D02*
X66204819Y-86392857D01*
X65204819Y-86392857D02*
X66204819Y-87059523D01*
X66204819Y-85488095D02*
X66204819Y-86059523D01*
X66204819Y-85773809D02*
X65204819Y-85773809D01*
X65204819Y-85773809D02*
X65347676Y-85869047D01*
X65347676Y-85869047D02*
X65442914Y-85964285D01*
X65442914Y-85964285D02*
X65490533Y-86059523D01*
X68488095Y-118206819D02*
X69059523Y-118206819D01*
X68773809Y-119206819D02*
X68773809Y-118206819D01*
X69392857Y-119206819D02*
X69392857Y-118206819D01*
X69392857Y-118206819D02*
X69773809Y-118206819D01*
X69773809Y-118206819D02*
X69869047Y-118254438D01*
X69869047Y-118254438D02*
X69916666Y-118302057D01*
X69916666Y-118302057D02*
X69964285Y-118397295D01*
X69964285Y-118397295D02*
X69964285Y-118540152D01*
X69964285Y-118540152D02*
X69916666Y-118635390D01*
X69916666Y-118635390D02*
X69869047Y-118683009D01*
X69869047Y-118683009D02*
X69773809Y-118730628D01*
X69773809Y-118730628D02*
X69392857Y-118730628D01*
X70297619Y-118206819D02*
X70916666Y-118206819D01*
X70916666Y-118206819D02*
X70583333Y-118587771D01*
X70583333Y-118587771D02*
X70726190Y-118587771D01*
X70726190Y-118587771D02*
X70821428Y-118635390D01*
X70821428Y-118635390D02*
X70869047Y-118683009D01*
X70869047Y-118683009D02*
X70916666Y-118778247D01*
X70916666Y-118778247D02*
X70916666Y-119016342D01*
X70916666Y-119016342D02*
X70869047Y-119111580D01*
X70869047Y-119111580D02*
X70821428Y-119159200D01*
X70821428Y-119159200D02*
X70726190Y-119206819D01*
X70726190Y-119206819D02*
X70440476Y-119206819D01*
X70440476Y-119206819D02*
X70345238Y-119159200D01*
X70345238Y-119159200D02*
X70297619Y-119111580D01*
X52488095Y-77706819D02*
X53059523Y-77706819D01*
X52773809Y-78706819D02*
X52773809Y-77706819D01*
X53392857Y-78706819D02*
X53392857Y-77706819D01*
X53392857Y-77706819D02*
X53773809Y-77706819D01*
X53773809Y-77706819D02*
X53869047Y-77754438D01*
X53869047Y-77754438D02*
X53916666Y-77802057D01*
X53916666Y-77802057D02*
X53964285Y-77897295D01*
X53964285Y-77897295D02*
X53964285Y-78040152D01*
X53964285Y-78040152D02*
X53916666Y-78135390D01*
X53916666Y-78135390D02*
X53869047Y-78183009D01*
X53869047Y-78183009D02*
X53773809Y-78230628D01*
X53773809Y-78230628D02*
X53392857Y-78230628D01*
X54821428Y-77706819D02*
X54630952Y-77706819D01*
X54630952Y-77706819D02*
X54535714Y-77754438D01*
X54535714Y-77754438D02*
X54488095Y-77802057D01*
X54488095Y-77802057D02*
X54392857Y-77944914D01*
X54392857Y-77944914D02*
X54345238Y-78135390D01*
X54345238Y-78135390D02*
X54345238Y-78516342D01*
X54345238Y-78516342D02*
X54392857Y-78611580D01*
X54392857Y-78611580D02*
X54440476Y-78659200D01*
X54440476Y-78659200D02*
X54535714Y-78706819D01*
X54535714Y-78706819D02*
X54726190Y-78706819D01*
X54726190Y-78706819D02*
X54821428Y-78659200D01*
X54821428Y-78659200D02*
X54869047Y-78611580D01*
X54869047Y-78611580D02*
X54916666Y-78516342D01*
X54916666Y-78516342D02*
X54916666Y-78278247D01*
X54916666Y-78278247D02*
X54869047Y-78183009D01*
X54869047Y-78183009D02*
X54821428Y-78135390D01*
X54821428Y-78135390D02*
X54726190Y-78087771D01*
X54726190Y-78087771D02*
X54535714Y-78087771D01*
X54535714Y-78087771D02*
X54440476Y-78135390D01*
X54440476Y-78135390D02*
X54392857Y-78183009D01*
X54392857Y-78183009D02*
X54345238Y-78278247D01*
X76580455Y-104179228D02*
X76628075Y-104226847D01*
X76628075Y-104226847D02*
X76675694Y-104369704D01*
X76675694Y-104369704D02*
X76675694Y-104464942D01*
X76675694Y-104464942D02*
X76628075Y-104607799D01*
X76628075Y-104607799D02*
X76532836Y-104703037D01*
X76532836Y-104703037D02*
X76437598Y-104750656D01*
X76437598Y-104750656D02*
X76247122Y-104798275D01*
X76247122Y-104798275D02*
X76104265Y-104798275D01*
X76104265Y-104798275D02*
X75913789Y-104750656D01*
X75913789Y-104750656D02*
X75818551Y-104703037D01*
X75818551Y-104703037D02*
X75723313Y-104607799D01*
X75723313Y-104607799D02*
X75675694Y-104464942D01*
X75675694Y-104464942D02*
X75675694Y-104369704D01*
X75675694Y-104369704D02*
X75723313Y-104226847D01*
X75723313Y-104226847D02*
X75770932Y-104179228D01*
X76675694Y-103226847D02*
X76675694Y-103798275D01*
X76675694Y-103512561D02*
X75675694Y-103512561D01*
X75675694Y-103512561D02*
X75818551Y-103607799D01*
X75818551Y-103607799D02*
X75913789Y-103703037D01*
X75913789Y-103703037D02*
X75961408Y-103798275D01*
X76675694Y-102274466D02*
X76675694Y-102845894D01*
X76675694Y-102560180D02*
X75675694Y-102560180D01*
X75675694Y-102560180D02*
X75818551Y-102655418D01*
X75818551Y-102655418D02*
X75913789Y-102750656D01*
X75913789Y-102750656D02*
X75961408Y-102845894D01*
X72692076Y-105613442D02*
X72739696Y-105661061D01*
X72739696Y-105661061D02*
X72787315Y-105803918D01*
X72787315Y-105803918D02*
X72787315Y-105899156D01*
X72787315Y-105899156D02*
X72739696Y-106042013D01*
X72739696Y-106042013D02*
X72644457Y-106137251D01*
X72644457Y-106137251D02*
X72549219Y-106184870D01*
X72549219Y-106184870D02*
X72358743Y-106232489D01*
X72358743Y-106232489D02*
X72215886Y-106232489D01*
X72215886Y-106232489D02*
X72025410Y-106184870D01*
X72025410Y-106184870D02*
X71930172Y-106137251D01*
X71930172Y-106137251D02*
X71834934Y-106042013D01*
X71834934Y-106042013D02*
X71787315Y-105899156D01*
X71787315Y-105899156D02*
X71787315Y-105803918D01*
X71787315Y-105803918D02*
X71834934Y-105661061D01*
X71834934Y-105661061D02*
X71882553Y-105613442D01*
X72120648Y-104756299D02*
X72787315Y-104756299D01*
X71739696Y-104994394D02*
X72453981Y-105232489D01*
X72453981Y-105232489D02*
X72453981Y-104613442D01*
D13*
X76460000Y-64360000D02*
X64040000Y-64360000D01*
X76460000Y-58690000D02*
X76460000Y-64360000D01*
X76460000Y-55350000D02*
X76460000Y-55810000D01*
X64040000Y-64360000D02*
X64040000Y-58690000D01*
X64040000Y-55350000D02*
X64040000Y-55810000D01*
X63730000Y-61320000D02*
X63730000Y-62850000D01*
X54950000Y-97000000D02*
G75*
G02*
X52550000Y-97000000I-1200000J0D01*
G01*
X52550000Y-97000000D02*
G75*
G02*
X54950000Y-97000000I1200000J0D01*
G01*
X81119598Y-117350278D02*
X81119598Y-116865278D01*
X86419598Y-117350278D02*
X81119598Y-117350278D01*
X86419598Y-116865278D02*
X86419598Y-117350278D01*
X81119598Y-114325278D02*
X81119598Y-115075278D01*
X86419598Y-114325278D02*
X86419598Y-115075278D01*
X81119598Y-111785278D02*
X81119598Y-112535278D01*
X86419598Y-111785278D02*
X86419598Y-112535278D01*
X81119598Y-109245278D02*
X81119598Y-109995278D01*
X86419598Y-109245278D02*
X86419598Y-109995278D01*
X81119598Y-106705278D02*
X81119598Y-107455278D01*
X86419598Y-106705278D02*
X86419598Y-107455278D01*
X81119598Y-104165278D02*
X81119598Y-104915278D01*
X86419598Y-104165278D02*
X86419598Y-104915278D01*
X81119598Y-101625278D02*
X81119598Y-102375278D01*
X86419598Y-101625278D02*
X86419598Y-102375278D01*
X81119598Y-99085278D02*
X81119598Y-99835278D01*
X86419598Y-99085278D02*
X86419598Y-99835278D01*
X81119598Y-96545278D02*
X81119598Y-97295278D01*
X86419598Y-96545278D02*
X86419598Y-97295278D01*
X81119598Y-94005278D02*
X81119598Y-94755278D01*
X86419598Y-94005278D02*
X86419598Y-94755278D01*
X81119598Y-91465278D02*
X81119598Y-92215278D01*
X86419598Y-91465278D02*
X86419598Y-92215278D01*
X81119598Y-88925278D02*
X81119598Y-89675278D01*
X86419598Y-88925278D02*
X86419598Y-89675278D01*
X81119598Y-86385278D02*
X81119598Y-87135278D01*
X86419598Y-86385278D02*
X86419598Y-87135278D01*
X81119598Y-83845278D02*
X81119598Y-84595278D01*
X86419598Y-83845278D02*
X86419598Y-84595278D01*
X81119598Y-81305278D02*
X81119598Y-82055278D01*
X86419598Y-81305278D02*
X86419598Y-82055278D01*
X81119598Y-78765278D02*
X81119598Y-79515278D01*
X86419598Y-78765278D02*
X86419598Y-79515278D01*
X81119598Y-76225278D02*
X81119598Y-76975278D01*
X86419598Y-76225278D02*
X86419598Y-76975278D01*
X81119598Y-73685278D02*
X81119598Y-74435278D01*
X86419598Y-73685278D02*
X86419598Y-74435278D01*
X81119598Y-71145278D02*
X81119598Y-71895278D01*
X86419598Y-71145278D02*
X86419598Y-71895278D01*
X81119598Y-68605278D02*
X81119598Y-69355278D01*
X86419598Y-68605278D02*
X86419598Y-69355278D01*
X86419598Y-66815278D02*
X86419598Y-66330278D01*
X87329598Y-66815278D02*
X86419598Y-66815278D01*
X81119598Y-66330278D02*
X81119598Y-66815278D01*
X86419598Y-66330278D02*
X81119598Y-66330278D01*
X87510000Y-53990000D02*
X84560000Y-53990000D01*
X78990000Y-53990000D02*
X81940000Y-53990000D01*
X87510000Y-61445563D02*
X87510000Y-53990000D01*
X78990000Y-61445563D02*
X78990000Y-53990000D01*
X86445563Y-62510000D02*
X87510000Y-61445563D01*
X86445563Y-62510000D02*
X84560000Y-62510000D01*
X80054437Y-62510000D02*
X78990000Y-61445563D01*
X80054437Y-62510000D02*
X81940000Y-62510000D01*
X56420000Y-61680000D02*
X57750000Y-61680000D01*
X56420000Y-63010000D02*
X56420000Y-61680000D01*
X56420000Y-64280000D02*
X56420000Y-107520000D01*
X56420000Y-64280000D02*
X59080000Y-64280000D01*
X56420000Y-107520000D02*
X59080000Y-107520000D01*
X59080000Y-64280000D02*
X59080000Y-107520000D01*
X54950000Y-86250000D02*
G75*
G02*
X52550000Y-86250000I-1200000J0D01*
G01*
X52550000Y-86250000D02*
G75*
G02*
X54950000Y-86250000I1200000J0D01*
G01*
X74653641Y-100199688D02*
X74346359Y-100199688D01*
X74653641Y-100959688D02*
X74346359Y-100959688D01*
X77065000Y-100163689D02*
X77065000Y-104073689D01*
X78935000Y-100163689D02*
X77065000Y-100163689D01*
X78935000Y-104073689D02*
X78935000Y-100163689D01*
X76460000Y-97010000D02*
X76185000Y-97010000D01*
X76460000Y-94250000D02*
X76460000Y-97010000D01*
X76460000Y-94250000D02*
X76460000Y-91490000D01*
X76460000Y-91490000D02*
X76185000Y-91490000D01*
X69040000Y-97010000D02*
X69315000Y-97010000D01*
X69040000Y-94250000D02*
X69040000Y-97010000D01*
X69040000Y-94250000D02*
X69040000Y-91490000D01*
X69040000Y-91490000D02*
X69315000Y-91490000D01*
X69315000Y-97800000D02*
X68985000Y-98040000D01*
X68985000Y-97560000D01*
X69315000Y-97800000D01*
G36*
X69315000Y-97800000D02*
G01*
X68985000Y-98040000D01*
X68985000Y-97560000D01*
X69315000Y-97800000D01*
G37*
X70287548Y-101206386D02*
X70287548Y-100990714D01*
X71007548Y-101206386D02*
X71007548Y-100990714D01*
X54950000Y-74250000D02*
G75*
G02*
X52550000Y-74250000I-1200000J0D01*
G01*
X52550000Y-74250000D02*
G75*
G02*
X54950000Y-74250000I1200000J0D01*
G01*
X67662164Y-99110000D02*
X67877836Y-99110000D01*
X67662164Y-98390000D02*
X67877836Y-98390000D01*
X68816477Y-101037979D02*
X68816477Y-100822307D01*
X68096477Y-101037979D02*
X68096477Y-100822307D01*
X66950000Y-120750000D02*
G75*
G02*
X64550000Y-120750000I-1200000J0D01*
G01*
X64550000Y-120750000D02*
G75*
G02*
X66950000Y-120750000I1200000J0D01*
G01*
X78950000Y-120750000D02*
G75*
G02*
X76550000Y-120750000I-1200000J0D01*
G01*
X76550000Y-120750000D02*
G75*
G02*
X78950000Y-120750000I1200000J0D01*
G01*
X57522936Y-59427500D02*
X57977064Y-59427500D01*
X57522936Y-60897500D02*
X57977064Y-60897500D01*
X74007836Y-88410000D02*
X73792164Y-88410000D01*
X74007836Y-87690000D02*
X73792164Y-87690000D01*
X74850000Y-85315000D02*
X70940000Y-85315000D01*
X70940000Y-87185000D02*
X74850000Y-87185000D01*
X70940000Y-85315000D02*
X70940000Y-87185000D01*
X67662164Y-96610000D02*
X67877836Y-96610000D01*
X67662164Y-95890000D02*
X67877836Y-95890000D01*
X67685000Y-103850000D02*
X67685000Y-99940000D01*
X67685000Y-99940000D02*
X65815000Y-99940000D01*
X65815000Y-99940000D02*
X65815000Y-103850000D01*
X74950000Y-120750000D02*
G75*
G02*
X72550000Y-120750000I-1200000J0D01*
G01*
X72550000Y-120750000D02*
G75*
G02*
X74950000Y-120750000I1200000J0D01*
G01*
X54950000Y-68250000D02*
G75*
G02*
X52550000Y-68250000I-1200000J0D01*
G01*
X52550000Y-68250000D02*
G75*
G02*
X54950000Y-68250000I1200000J0D01*
G01*
X69800000Y-84800000D02*
X66650000Y-84800000D01*
X66650000Y-84800000D02*
X66650000Y-88600000D01*
X70950000Y-120750000D02*
G75*
G02*
X68550000Y-120750000I-1200000J0D01*
G01*
X68550000Y-120750000D02*
G75*
G02*
X70950000Y-120750000I1200000J0D01*
G01*
X60837836Y-94110000D02*
X60622164Y-94110000D01*
X60837836Y-93390000D02*
X60622164Y-93390000D01*
X54950000Y-80250000D02*
G75*
G02*
X52550000Y-80250000I-1200000J0D01*
G01*
X52550000Y-80250000D02*
G75*
G02*
X54950000Y-80250000I1200000J0D01*
G01*
X75890000Y-101144207D02*
X75890000Y-100928535D01*
X76610000Y-101144207D02*
X76610000Y-100928535D01*
X60610000Y-103142164D02*
X60610000Y-103357836D01*
X59890000Y-103142164D02*
X59890000Y-103357836D01*
X73185000Y-103915189D02*
X73185000Y-100005189D01*
X73185000Y-100005189D02*
X71315000Y-100005189D01*
X71315000Y-100005189D02*
X71315000Y-103915189D01*
%LPC*%
D14*
X76240000Y-57250000D03*
X64240000Y-57250000D03*
D15*
X69730000Y-62090000D03*
D16*
X70750000Y-59550000D03*
D17*
X53750000Y-97000000D03*
D18*
X86569598Y-115970278D03*
X80969598Y-115970278D03*
X86569598Y-113430278D03*
X80969598Y-113430278D03*
X86569598Y-110890278D03*
X80969598Y-110890278D03*
X86569598Y-108350278D03*
X80969598Y-108350278D03*
X86569598Y-105810278D03*
X80969598Y-105810278D03*
X86569598Y-103270278D03*
X80969598Y-103270278D03*
X86569598Y-100730278D03*
X80969598Y-100730278D03*
X86569598Y-98190278D03*
X80969598Y-98190278D03*
X86569598Y-95650278D03*
X80969598Y-95650278D03*
X86569598Y-93110278D03*
X80969598Y-93110278D03*
X86569598Y-90570278D03*
X80969598Y-90570278D03*
X86569598Y-88030278D03*
X80969598Y-88030278D03*
X86569598Y-85490278D03*
X80969598Y-85490278D03*
X86569598Y-82950278D03*
X80969598Y-82950278D03*
X86569598Y-80410278D03*
X80969598Y-80410278D03*
X86569598Y-77870278D03*
X80969598Y-77870278D03*
X86569598Y-75330278D03*
X80969598Y-75330278D03*
X86569598Y-72790278D03*
X80969598Y-72790278D03*
X86569598Y-70250278D03*
X80969598Y-70250278D03*
X86569598Y-67710278D03*
X80969598Y-67710278D03*
D19*
X82499598Y-115970278D03*
X85039598Y-115970278D03*
X82499598Y-113430278D03*
X85039598Y-113430278D03*
D17*
X83769598Y-112160278D03*
D19*
X82499598Y-110890278D03*
X85039598Y-110890278D03*
X82499598Y-108350278D03*
X85039598Y-108350278D03*
X82499598Y-105810278D03*
X85039598Y-105810278D03*
X82499598Y-103270278D03*
X85039598Y-103270278D03*
X82499598Y-100730278D03*
X85039598Y-100730278D03*
X82499598Y-98190278D03*
X85039598Y-98190278D03*
X82499598Y-95650278D03*
X85039598Y-95650278D03*
X82499598Y-93110278D03*
X85039598Y-93110278D03*
X82499598Y-90570278D03*
X85039598Y-90570278D03*
X82499598Y-88030278D03*
X85039598Y-88030278D03*
X82499598Y-85490278D03*
X85039598Y-85490278D03*
X82499598Y-82950278D03*
X85039598Y-82950278D03*
X82499598Y-80410278D03*
X85039598Y-80410278D03*
X82499598Y-77870278D03*
X85039598Y-77870278D03*
X82499598Y-75330278D03*
X85039598Y-75330278D03*
X82499598Y-72790278D03*
X85039598Y-72790278D03*
D17*
X83769598Y-71520278D03*
D19*
X82499598Y-70250278D03*
X85039598Y-70250278D03*
X82499598Y-67710278D03*
X85039598Y-67710278D03*
D20*
X83250000Y-54650000D03*
X83250000Y-61850000D03*
D21*
X57750000Y-63010000D03*
D22*
X57750000Y-65550000D03*
X57750000Y-68090000D03*
X57750000Y-70630000D03*
X57750000Y-73170000D03*
X57750000Y-75710000D03*
X57750000Y-78250000D03*
X57750000Y-90950000D03*
X57750000Y-93490000D03*
X57750000Y-96030000D03*
X57750000Y-98570000D03*
X57750000Y-101110000D03*
X57750000Y-103650000D03*
X57750000Y-106190000D03*
D17*
X53750000Y-86250000D03*
D23*
X73990000Y-100579688D03*
X75010000Y-100579688D03*
D24*
X78000000Y-103823689D03*
X78000000Y-101123689D03*
D25*
X69825000Y-97750000D03*
X70475000Y-97750000D03*
X71125000Y-97750000D03*
X71775000Y-97750000D03*
X72425000Y-97750000D03*
X73075000Y-97750000D03*
X73725000Y-97750000D03*
X74375000Y-97750000D03*
X75025000Y-97750000D03*
X75675000Y-97750000D03*
X75675000Y-90750000D03*
X75025000Y-90750000D03*
X74375000Y-90750000D03*
X73725000Y-90750000D03*
X73075000Y-90750000D03*
X72425000Y-90750000D03*
X71775000Y-90750000D03*
X71125000Y-90750000D03*
X70475000Y-90750000D03*
X69825000Y-90750000D03*
D26*
X70647548Y-100618550D03*
X70647548Y-101578550D03*
D17*
X53750000Y-74250000D03*
D27*
X67290000Y-98750000D03*
X68250000Y-98750000D03*
D26*
X68456477Y-101410143D03*
X68456477Y-100450143D03*
D17*
X65750000Y-120750000D03*
X77750000Y-120750000D03*
D28*
X56837500Y-60162500D03*
X58662500Y-60162500D03*
D29*
X74380000Y-88050000D03*
X73420000Y-88050000D03*
D30*
X71900000Y-86250000D03*
X74600000Y-86250000D03*
D27*
X67290000Y-96250000D03*
X68250000Y-96250000D03*
D24*
X66750000Y-100900000D03*
X66750000Y-103600000D03*
D17*
X73750000Y-120750000D03*
X53750000Y-68250000D03*
D31*
X67400000Y-85650000D03*
X67400000Y-87750000D03*
X69050000Y-87750000D03*
X69050000Y-85650000D03*
D17*
X69750000Y-120750000D03*
D29*
X61210000Y-93750000D03*
X60250000Y-93750000D03*
D17*
X53750000Y-80250000D03*
D26*
X76250000Y-100556371D03*
X76250000Y-101516371D03*
D32*
X60250000Y-102770000D03*
X60250000Y-103730000D03*
D24*
X72250000Y-100965189D03*
X72250000Y-103665189D03*
%LPD*%
M02*
