G04 #@! TF.GenerationSoftware,KiCad,Pcbnew,8.0.4*
G04 #@! TF.CreationDate,2024-09-04T02:40:27-04:00*
G04 #@! TF.ProjectId,phone_pcb,70686f6e-655f-4706-9362-2e6b69636164,rev?*
G04 #@! TF.SameCoordinates,Original*
G04 #@! TF.FileFunction,Paste,Top*
G04 #@! TF.FilePolarity,Positive*
%FSLAX46Y46*%
G04 Gerber Fmt 4.6, Leading zero omitted, Abs format (unit mm)*
G04 Created by KiCad (PCBNEW 8.0.4) date 2024-09-04 02:40:27*
%MOMM*%
%LPD*%
G01*
G04 APERTURE LIST*
G04 Aperture macros list*
%AMRoundRect*
0 Rectangle with rounded corners*
0 $1 Rounding radius*
0 $2 $3 $4 $5 $6 $7 $8 $9 X,Y pos of 4 corners*
0 Add a 4 corners polygon primitive as box body*
4,1,4,$2,$3,$4,$5,$6,$7,$8,$9,$2,$3,0*
0 Add four circle primitives for the rounded corners*
1,1,$1+$1,$2,$3*
1,1,$1+$1,$4,$5*
1,1,$1+$1,$6,$7*
1,1,$1+$1,$8,$9*
0 Add four rect primitives between the rounded corners*
20,1,$1+$1,$2,$3,$4,$5,0*
20,1,$1+$1,$4,$5,$6,$7,0*
20,1,$1+$1,$6,$7,$8,$9,0*
20,1,$1+$1,$8,$9,$2,$3,0*%
G04 Aperture macros list end*
%ADD10R,2.000000X1.020000*%
%ADD11RoundRect,0.250001X0.799999X-1.999999X0.799999X1.999999X-0.799999X1.999999X-0.799999X-1.999999X0*%
%ADD12RoundRect,0.135000X0.135000X0.185000X-0.135000X0.185000X-0.135000X-0.185000X0.135000X-0.185000X0*%
%ADD13RoundRect,0.250000X-0.425000X0.450000X-0.425000X-0.450000X0.425000X-0.450000X0.425000X0.450000X0*%
%ADD14RoundRect,0.125000X0.125000X-0.825000X0.125000X0.825000X-0.125000X0.825000X-0.125000X-0.825000X0*%
%ADD15RoundRect,0.140000X0.170000X-0.140000X0.170000X0.140000X-0.170000X0.140000X-0.170000X-0.140000X0*%
%ADD16RoundRect,0.140000X-0.140000X-0.170000X0.140000X-0.170000X0.140000X0.170000X-0.140000X0.170000X0*%
%ADD17RoundRect,0.250000X-0.262500X-0.450000X0.262500X-0.450000X0.262500X0.450000X-0.262500X0.450000X0*%
%ADD18RoundRect,0.140000X0.140000X0.170000X-0.140000X0.170000X-0.140000X-0.170000X0.140000X-0.170000X0*%
%ADD19RoundRect,0.250000X-0.450000X-0.425000X0.450000X-0.425000X0.450000X0.425000X-0.450000X0.425000X0*%
%ADD20R,1.100000X1.300000*%
%ADD21RoundRect,0.140000X-0.170000X0.140000X-0.170000X-0.140000X0.170000X-0.140000X0.170000X0.140000X0*%
G04 APERTURE END LIST*
D10*
X86569598Y-115970278D03*
X80969598Y-115970278D03*
X86569598Y-113430278D03*
X80969598Y-113430278D03*
X86569598Y-110890278D03*
X80969598Y-110890278D03*
X86569598Y-108350278D03*
X80969598Y-108350278D03*
X86569598Y-105810278D03*
X80969598Y-105810278D03*
X86569598Y-103270278D03*
X80969598Y-103270278D03*
X86569598Y-100730278D03*
X80969598Y-100730278D03*
X86569598Y-98190278D03*
X80969598Y-98190278D03*
X86569598Y-95650278D03*
X80969598Y-95650278D03*
X86569598Y-93110278D03*
X80969598Y-93110278D03*
X86569598Y-90570278D03*
X80969598Y-90570278D03*
X86569598Y-88030278D03*
X80969598Y-88030278D03*
X86569598Y-85490278D03*
X80969598Y-85490278D03*
X86569598Y-82950278D03*
X80969598Y-82950278D03*
X86569598Y-80410278D03*
X80969598Y-80410278D03*
X86569598Y-77870278D03*
X80969598Y-77870278D03*
X86569598Y-75330278D03*
X80969598Y-75330278D03*
X86569598Y-72790278D03*
X80969598Y-72790278D03*
X86569598Y-70250278D03*
X80969598Y-70250278D03*
X86569598Y-67710278D03*
X80969598Y-67710278D03*
D11*
X83250000Y-54650000D03*
X83250000Y-61850000D03*
D12*
X73990000Y-100579688D03*
X75010000Y-100579688D03*
D13*
X78000000Y-103823689D03*
X78000000Y-101123689D03*
D14*
X69825000Y-97750000D03*
X70475000Y-97750000D03*
X71125000Y-97750000D03*
X71775000Y-97750000D03*
X72425000Y-97750000D03*
X73075000Y-97750000D03*
X73725000Y-97750000D03*
X74375000Y-97750000D03*
X75025000Y-97750000D03*
X75675000Y-97750000D03*
X75675000Y-90750000D03*
X75025000Y-90750000D03*
X74375000Y-90750000D03*
X73725000Y-90750000D03*
X73075000Y-90750000D03*
X72425000Y-90750000D03*
X71775000Y-90750000D03*
X71125000Y-90750000D03*
X70475000Y-90750000D03*
X69825000Y-90750000D03*
D15*
X70647548Y-100618550D03*
X70647548Y-101578550D03*
D16*
X67290000Y-98750000D03*
X68250000Y-98750000D03*
D15*
X68456477Y-101410143D03*
X68456477Y-100450143D03*
D17*
X56837500Y-60162500D03*
X58662500Y-60162500D03*
D18*
X74380000Y-88050000D03*
X73420000Y-88050000D03*
D19*
X71900000Y-86250000D03*
X74600000Y-86250000D03*
D16*
X67290000Y-96250000D03*
X68250000Y-96250000D03*
D13*
X66750000Y-100900000D03*
X66750000Y-103600000D03*
D20*
X67400000Y-85650000D03*
X67400000Y-87750000D03*
X69050000Y-87750000D03*
X69050000Y-85650000D03*
D18*
X61210000Y-93750000D03*
X60250000Y-93750000D03*
D15*
X76250000Y-100556371D03*
X76250000Y-101516371D03*
D21*
X60250000Y-102770000D03*
X60250000Y-103730000D03*
D13*
X72250000Y-100965189D03*
X72250000Y-103665189D03*
M02*
