M48
; DRILL file {KiCad 8.0.4} date 2024-09-04T02:40:31-0400
; FORMAT={-:-/ absolute / metric / decimal}
; #@! TF.CreationDate,2024-09-04T02:40:31-04:00
; #@! TF.GenerationSoftware,Kicad,Pcbnew,8.0.4
; #@! TF.FileFunction,NonPlated,1,2,NPTH
FMAT,2
METRIC
; #@! TA.AperFunction,NonPlated,NPTH,ComponentDrill
T1C1.020
; #@! TA.AperFunction,NonPlated,NPTH,ComponentDrill
T2C2.000
; #@! TA.AperFunction,NonPlated,NPTH,ComponentDrill
T3C2.300
%
G90
G05
T1
X82.5Y-67.71
X82.5Y-70.25
X82.5Y-72.79
X82.5Y-75.33
X82.5Y-77.87
X82.5Y-80.41
X82.5Y-82.95
X82.5Y-85.49
X82.5Y-88.03
X82.5Y-90.57
X82.5Y-93.11
X82.5Y-95.65
X82.5Y-98.19
X82.5Y-100.73
X82.5Y-103.27
X82.5Y-105.81
X82.5Y-108.35
X82.5Y-110.89
X82.5Y-113.43
X82.5Y-115.97
X85.04Y-67.71
X85.04Y-70.25
X85.04Y-72.79
X85.04Y-75.33
X85.04Y-77.87
X85.04Y-80.41
X85.04Y-82.95
X85.04Y-85.49
X85.04Y-88.03
X85.04Y-90.57
X85.04Y-93.11
X85.04Y-95.65
X85.04Y-98.19
X85.04Y-100.73
X85.04Y-103.27
X85.04Y-105.81
X85.04Y-108.35
X85.04Y-110.89
X85.04Y-113.43
X85.04Y-115.97
T2
X83.77Y-71.52
X83.77Y-112.16
T3
X64.24Y-57.25
X76.24Y-57.25
M30
