%TF.GenerationSoftware,KiCad,Pcbnew,8.0.4*%
%TF.CreationDate,2024-09-04T02:40:32-04:00*%
%TF.ProjectId,phone_pcb,70686f6e-655f-4706-9362-2e6b69636164,rev?*%
%TF.SameCoordinates,Original*%
%TF.FileFunction,Drillmap*%
%TF.FilePolarity,Positive*%
%FSLAX45Y45*%
G04 Gerber Fmt 4.5, Leading zero omitted, Abs format (unit mm)*
G04 Created by KiCad (PCBNEW 8.0.4) date 2024-09-04 02:40:32*
%MOMM*%
%LPD*%
G01*
G04 APERTURE LIST*
%ADD10C,0.050000*%
%ADD11C,0.200000*%
%ADD12C,0.100000*%
G04 APERTURE END LIST*
D10*
X8975000Y-4975000D02*
X4975000Y-4975000D01*
X4975000Y-12475000D01*
X8975000Y-12475000D01*
X8975000Y-4975000D01*
D11*
D12*
X6260000Y-9485000D02*
X6290000Y-9515000D01*
X6290000Y-9485000D02*
X6260000Y-9515000D01*
X6260000Y-9710000D02*
X6290000Y-9740000D01*
X6290000Y-9710000D02*
X6260000Y-9740000D01*
X6610000Y-9610000D02*
X6640000Y-9640000D01*
X6640000Y-9610000D02*
X6610000Y-9640000D01*
X6610000Y-9810000D02*
X6640000Y-9840000D01*
X6640000Y-9810000D02*
X6610000Y-9840000D01*
X7735000Y-9160000D02*
X7765000Y-9190000D01*
X7765000Y-9160000D02*
X7735000Y-9190000D01*
X7774466Y-8945534D02*
X7804466Y-8975534D01*
X7804466Y-8945534D02*
X7774466Y-8975534D01*
X7885000Y-11310000D02*
X7915000Y-11340000D01*
X7915000Y-11310000D02*
X7885000Y-11340000D01*
X7985000Y-11785000D02*
X8015000Y-11815000D01*
X8015000Y-11785000D02*
X7985000Y-11815000D01*
X8385000Y-10960000D02*
X8415000Y-10990000D01*
X8415000Y-10960000D02*
X8385000Y-10990000D01*
X6175000Y-10375000D02*
G75*
G02*
X6125000Y-10375000I-25000J0D01*
G01*
X6125000Y-10375000D02*
G75*
G02*
X6175000Y-10375000I25000J0D01*
G01*
X6450000Y-9475000D02*
G75*
G02*
X6400000Y-9475000I-25000J0D01*
G01*
X6400000Y-9475000D02*
G75*
G02*
X6450000Y-9475000I25000J0D01*
G01*
X7150000Y-8920000D02*
G75*
G02*
X7100000Y-8920000I-25000J0D01*
G01*
X7100000Y-8920000D02*
G75*
G02*
X7150000Y-8920000I25000J0D01*
G01*
X7367000Y-8892000D02*
G75*
G02*
X7317000Y-8892000I-25000J0D01*
G01*
X7317000Y-8892000D02*
G75*
G02*
X7367000Y-8892000I25000J0D01*
G01*
X7700000Y-7775000D02*
G75*
G02*
X7650000Y-7775000I-25000J0D01*
G01*
X7650000Y-7775000D02*
G75*
G02*
X7700000Y-7775000I25000J0D01*
G01*
X7800000Y-9925000D02*
G75*
G02*
X7750000Y-9925000I-25000J0D01*
G01*
X7750000Y-9925000D02*
G75*
G02*
X7800000Y-9925000I25000J0D01*
G01*
X7950000Y-7525000D02*
G75*
G02*
X7900000Y-7525000I-25000J0D01*
G01*
X7900000Y-7525000D02*
G75*
G02*
X7950000Y-7525000I25000J0D01*
G01*
X8675000Y-6900000D02*
G75*
G02*
X8625000Y-6900000I-25000J0D01*
G01*
X8625000Y-6900000D02*
G75*
G02*
X8675000Y-6900000I25000J0D01*
G01*
X6973000Y-6169500D02*
X6973000Y-6248500D01*
X6933500Y-6209000D02*
X7012500Y-6209000D01*
X7075000Y-5915500D02*
X7075000Y-5994500D01*
X7035500Y-5955000D02*
X7114500Y-5955000D01*
X5410356Y-6860356D02*
X5410356Y-6789644D01*
X5339644Y-6789644D01*
X5339644Y-6860356D01*
X5410356Y-6860356D01*
X5410356Y-7460356D02*
X5410356Y-7389644D01*
X5339644Y-7389644D01*
X5339644Y-7460356D01*
X5410356Y-7460356D01*
X5410356Y-8060356D02*
X5410356Y-7989644D01*
X5339644Y-7989644D01*
X5339644Y-8060356D01*
X5410356Y-8060356D01*
X5410356Y-8660356D02*
X5410356Y-8589644D01*
X5339644Y-8589644D01*
X5339644Y-8660356D01*
X5410356Y-8660356D01*
X5410356Y-9735356D02*
X5410356Y-9664644D01*
X5339644Y-9664644D01*
X5339644Y-9735356D01*
X5410356Y-9735356D01*
X5810356Y-6336356D02*
X5810356Y-6265644D01*
X5739644Y-6265644D01*
X5739644Y-6336356D01*
X5810356Y-6336356D01*
X5810356Y-6590356D02*
X5810356Y-6519644D01*
X5739644Y-6519644D01*
X5739644Y-6590356D01*
X5810356Y-6590356D01*
X5810356Y-6844356D02*
X5810356Y-6773644D01*
X5739644Y-6773644D01*
X5739644Y-6844356D01*
X5810356Y-6844356D01*
X5810356Y-7098356D02*
X5810356Y-7027644D01*
X5739644Y-7027644D01*
X5739644Y-7098356D01*
X5810356Y-7098356D01*
X5810356Y-7352356D02*
X5810356Y-7281644D01*
X5739644Y-7281644D01*
X5739644Y-7352356D01*
X5810356Y-7352356D01*
X5810356Y-7606356D02*
X5810356Y-7535644D01*
X5739644Y-7535644D01*
X5739644Y-7606356D01*
X5810356Y-7606356D01*
X5810356Y-7860356D02*
X5810356Y-7789644D01*
X5739644Y-7789644D01*
X5739644Y-7860356D01*
X5810356Y-7860356D01*
X5810356Y-9130356D02*
X5810356Y-9059644D01*
X5739644Y-9059644D01*
X5739644Y-9130356D01*
X5810356Y-9130356D01*
X5810356Y-9384356D02*
X5810356Y-9313644D01*
X5739644Y-9313644D01*
X5739644Y-9384356D01*
X5810356Y-9384356D01*
X5810356Y-9638356D02*
X5810356Y-9567644D01*
X5739644Y-9567644D01*
X5739644Y-9638356D01*
X5810356Y-9638356D01*
X5810356Y-9892356D02*
X5810356Y-9821644D01*
X5739644Y-9821644D01*
X5739644Y-9892356D01*
X5810356Y-9892356D01*
X5810356Y-10146356D02*
X5810356Y-10075644D01*
X5739644Y-10075644D01*
X5739644Y-10146356D01*
X5810356Y-10146356D01*
X5810356Y-10400356D02*
X5810356Y-10329644D01*
X5739644Y-10329644D01*
X5739644Y-10400356D01*
X5810356Y-10400356D01*
X5810356Y-10654356D02*
X5810356Y-10583644D01*
X5739644Y-10583644D01*
X5739644Y-10654356D01*
X5810356Y-10654356D01*
X6610356Y-12110356D02*
X6610356Y-12039644D01*
X6539644Y-12039644D01*
X6539644Y-12110356D01*
X6610356Y-12110356D01*
X7010356Y-12110356D02*
X7010356Y-12039644D01*
X6939644Y-12039644D01*
X6939644Y-12110356D01*
X7010356Y-12110356D01*
X7410356Y-12110356D02*
X7410356Y-12039644D01*
X7339644Y-12039644D01*
X7339644Y-12110356D01*
X7410356Y-12110356D01*
X7810356Y-12110356D02*
X7810356Y-12039644D01*
X7739644Y-12039644D01*
X7739644Y-12110356D01*
X7810356Y-12110356D01*
D11*
X5233277Y-12788984D02*
X5233277Y-12588984D01*
X5233277Y-12588984D02*
X5280896Y-12588984D01*
X5280896Y-12588984D02*
X5309467Y-12598508D01*
X5309467Y-12598508D02*
X5328515Y-12617555D01*
X5328515Y-12617555D02*
X5338039Y-12636603D01*
X5338039Y-12636603D02*
X5347563Y-12674698D01*
X5347563Y-12674698D02*
X5347563Y-12703269D01*
X5347563Y-12703269D02*
X5338039Y-12741365D01*
X5338039Y-12741365D02*
X5328515Y-12760412D01*
X5328515Y-12760412D02*
X5309467Y-12779460D01*
X5309467Y-12779460D02*
X5280896Y-12788984D01*
X5280896Y-12788984D02*
X5233277Y-12788984D01*
X5433277Y-12788984D02*
X5433277Y-12655650D01*
X5433277Y-12693746D02*
X5442801Y-12674698D01*
X5442801Y-12674698D02*
X5452324Y-12665174D01*
X5452324Y-12665174D02*
X5471372Y-12655650D01*
X5471372Y-12655650D02*
X5490420Y-12655650D01*
X5557086Y-12788984D02*
X5557086Y-12655650D01*
X5557086Y-12588984D02*
X5547563Y-12598508D01*
X5547563Y-12598508D02*
X5557086Y-12608031D01*
X5557086Y-12608031D02*
X5566610Y-12598508D01*
X5566610Y-12598508D02*
X5557086Y-12588984D01*
X5557086Y-12588984D02*
X5557086Y-12608031D01*
X5680896Y-12788984D02*
X5661848Y-12779460D01*
X5661848Y-12779460D02*
X5652324Y-12760412D01*
X5652324Y-12760412D02*
X5652324Y-12588984D01*
X5785658Y-12788984D02*
X5766610Y-12779460D01*
X5766610Y-12779460D02*
X5757086Y-12760412D01*
X5757086Y-12760412D02*
X5757086Y-12588984D01*
X6014229Y-12788984D02*
X6014229Y-12588984D01*
X6014229Y-12588984D02*
X6080896Y-12731841D01*
X6080896Y-12731841D02*
X6147562Y-12588984D01*
X6147562Y-12588984D02*
X6147562Y-12788984D01*
X6328515Y-12788984D02*
X6328515Y-12684222D01*
X6328515Y-12684222D02*
X6318991Y-12665174D01*
X6318991Y-12665174D02*
X6299943Y-12655650D01*
X6299943Y-12655650D02*
X6261848Y-12655650D01*
X6261848Y-12655650D02*
X6242801Y-12665174D01*
X6328515Y-12779460D02*
X6309467Y-12788984D01*
X6309467Y-12788984D02*
X6261848Y-12788984D01*
X6261848Y-12788984D02*
X6242801Y-12779460D01*
X6242801Y-12779460D02*
X6233277Y-12760412D01*
X6233277Y-12760412D02*
X6233277Y-12741365D01*
X6233277Y-12741365D02*
X6242801Y-12722317D01*
X6242801Y-12722317D02*
X6261848Y-12712793D01*
X6261848Y-12712793D02*
X6309467Y-12712793D01*
X6309467Y-12712793D02*
X6328515Y-12703269D01*
X6423753Y-12655650D02*
X6423753Y-12855650D01*
X6423753Y-12665174D02*
X6442801Y-12655650D01*
X6442801Y-12655650D02*
X6480896Y-12655650D01*
X6480896Y-12655650D02*
X6499943Y-12665174D01*
X6499943Y-12665174D02*
X6509467Y-12674698D01*
X6509467Y-12674698D02*
X6518991Y-12693746D01*
X6518991Y-12693746D02*
X6518991Y-12750888D01*
X6518991Y-12750888D02*
X6509467Y-12769936D01*
X6509467Y-12769936D02*
X6499943Y-12779460D01*
X6499943Y-12779460D02*
X6480896Y-12788984D01*
X6480896Y-12788984D02*
X6442801Y-12788984D01*
X6442801Y-12788984D02*
X6423753Y-12779460D01*
X6604705Y-12769936D02*
X6614229Y-12779460D01*
X6614229Y-12779460D02*
X6604705Y-12788984D01*
X6604705Y-12788984D02*
X6595182Y-12779460D01*
X6595182Y-12779460D02*
X6604705Y-12769936D01*
X6604705Y-12769936D02*
X6604705Y-12788984D01*
X6604705Y-12665174D02*
X6614229Y-12674698D01*
X6614229Y-12674698D02*
X6604705Y-12684222D01*
X6604705Y-12684222D02*
X6595182Y-12674698D01*
X6595182Y-12674698D02*
X6604705Y-12665174D01*
X6604705Y-12665174D02*
X6604705Y-12684222D01*
D12*
X4942500Y-13102500D02*
X4972500Y-13132500D01*
X4972500Y-13102500D02*
X4942500Y-13132500D01*
D11*
X5271372Y-13008984D02*
X5290420Y-13008984D01*
X5290420Y-13008984D02*
X5309467Y-13018508D01*
X5309467Y-13018508D02*
X5318991Y-13028031D01*
X5318991Y-13028031D02*
X5328515Y-13047079D01*
X5328515Y-13047079D02*
X5338039Y-13085174D01*
X5338039Y-13085174D02*
X5338039Y-13132793D01*
X5338039Y-13132793D02*
X5328515Y-13170888D01*
X5328515Y-13170888D02*
X5318991Y-13189936D01*
X5318991Y-13189936D02*
X5309467Y-13199460D01*
X5309467Y-13199460D02*
X5290420Y-13208984D01*
X5290420Y-13208984D02*
X5271372Y-13208984D01*
X5271372Y-13208984D02*
X5252324Y-13199460D01*
X5252324Y-13199460D02*
X5242801Y-13189936D01*
X5242801Y-13189936D02*
X5233277Y-13170888D01*
X5233277Y-13170888D02*
X5223753Y-13132793D01*
X5223753Y-13132793D02*
X5223753Y-13085174D01*
X5223753Y-13085174D02*
X5233277Y-13047079D01*
X5233277Y-13047079D02*
X5242801Y-13028031D01*
X5242801Y-13028031D02*
X5252324Y-13018508D01*
X5252324Y-13018508D02*
X5271372Y-13008984D01*
X5423753Y-13189936D02*
X5433277Y-13199460D01*
X5433277Y-13199460D02*
X5423753Y-13208984D01*
X5423753Y-13208984D02*
X5414229Y-13199460D01*
X5414229Y-13199460D02*
X5423753Y-13189936D01*
X5423753Y-13189936D02*
X5423753Y-13208984D01*
X5499944Y-13008984D02*
X5623753Y-13008984D01*
X5623753Y-13008984D02*
X5557086Y-13085174D01*
X5557086Y-13085174D02*
X5585658Y-13085174D01*
X5585658Y-13085174D02*
X5604705Y-13094698D01*
X5604705Y-13094698D02*
X5614229Y-13104222D01*
X5614229Y-13104222D02*
X5623753Y-13123269D01*
X5623753Y-13123269D02*
X5623753Y-13170888D01*
X5623753Y-13170888D02*
X5614229Y-13189936D01*
X5614229Y-13189936D02*
X5604705Y-13199460D01*
X5604705Y-13199460D02*
X5585658Y-13208984D01*
X5585658Y-13208984D02*
X5528515Y-13208984D01*
X5528515Y-13208984D02*
X5509467Y-13199460D01*
X5509467Y-13199460D02*
X5499944Y-13189936D01*
X5747562Y-13008984D02*
X5766610Y-13008984D01*
X5766610Y-13008984D02*
X5785658Y-13018508D01*
X5785658Y-13018508D02*
X5795182Y-13028031D01*
X5795182Y-13028031D02*
X5804705Y-13047079D01*
X5804705Y-13047079D02*
X5814229Y-13085174D01*
X5814229Y-13085174D02*
X5814229Y-13132793D01*
X5814229Y-13132793D02*
X5804705Y-13170888D01*
X5804705Y-13170888D02*
X5795182Y-13189936D01*
X5795182Y-13189936D02*
X5785658Y-13199460D01*
X5785658Y-13199460D02*
X5766610Y-13208984D01*
X5766610Y-13208984D02*
X5747562Y-13208984D01*
X5747562Y-13208984D02*
X5728515Y-13199460D01*
X5728515Y-13199460D02*
X5718991Y-13189936D01*
X5718991Y-13189936D02*
X5709467Y-13170888D01*
X5709467Y-13170888D02*
X5699943Y-13132793D01*
X5699943Y-13132793D02*
X5699943Y-13085174D01*
X5699943Y-13085174D02*
X5709467Y-13047079D01*
X5709467Y-13047079D02*
X5718991Y-13028031D01*
X5718991Y-13028031D02*
X5728515Y-13018508D01*
X5728515Y-13018508D02*
X5747562Y-13008984D01*
X5938039Y-13008984D02*
X5957086Y-13008984D01*
X5957086Y-13008984D02*
X5976134Y-13018508D01*
X5976134Y-13018508D02*
X5985658Y-13028031D01*
X5985658Y-13028031D02*
X5995182Y-13047079D01*
X5995182Y-13047079D02*
X6004705Y-13085174D01*
X6004705Y-13085174D02*
X6004705Y-13132793D01*
X6004705Y-13132793D02*
X5995182Y-13170888D01*
X5995182Y-13170888D02*
X5985658Y-13189936D01*
X5985658Y-13189936D02*
X5976134Y-13199460D01*
X5976134Y-13199460D02*
X5957086Y-13208984D01*
X5957086Y-13208984D02*
X5938039Y-13208984D01*
X5938039Y-13208984D02*
X5918991Y-13199460D01*
X5918991Y-13199460D02*
X5909467Y-13189936D01*
X5909467Y-13189936D02*
X5899943Y-13170888D01*
X5899943Y-13170888D02*
X5890420Y-13132793D01*
X5890420Y-13132793D02*
X5890420Y-13085174D01*
X5890420Y-13085174D02*
X5899943Y-13047079D01*
X5899943Y-13047079D02*
X5909467Y-13028031D01*
X5909467Y-13028031D02*
X5918991Y-13018508D01*
X5918991Y-13018508D02*
X5938039Y-13008984D01*
X6090420Y-13208984D02*
X6090420Y-13075650D01*
X6090420Y-13094698D02*
X6099943Y-13085174D01*
X6099943Y-13085174D02*
X6118991Y-13075650D01*
X6118991Y-13075650D02*
X6147563Y-13075650D01*
X6147563Y-13075650D02*
X6166610Y-13085174D01*
X6166610Y-13085174D02*
X6176134Y-13104222D01*
X6176134Y-13104222D02*
X6176134Y-13208984D01*
X6176134Y-13104222D02*
X6185658Y-13085174D01*
X6185658Y-13085174D02*
X6204705Y-13075650D01*
X6204705Y-13075650D02*
X6233277Y-13075650D01*
X6233277Y-13075650D02*
X6252324Y-13085174D01*
X6252324Y-13085174D02*
X6261848Y-13104222D01*
X6261848Y-13104222D02*
X6261848Y-13208984D01*
X6357086Y-13208984D02*
X6357086Y-13075650D01*
X6357086Y-13094698D02*
X6366610Y-13085174D01*
X6366610Y-13085174D02*
X6385658Y-13075650D01*
X6385658Y-13075650D02*
X6414229Y-13075650D01*
X6414229Y-13075650D02*
X6433277Y-13085174D01*
X6433277Y-13085174D02*
X6442801Y-13104222D01*
X6442801Y-13104222D02*
X6442801Y-13208984D01*
X6442801Y-13104222D02*
X6452324Y-13085174D01*
X6452324Y-13085174D02*
X6471372Y-13075650D01*
X6471372Y-13075650D02*
X6499943Y-13075650D01*
X6499943Y-13075650D02*
X6518991Y-13085174D01*
X6518991Y-13085174D02*
X6528515Y-13104222D01*
X6528515Y-13104222D02*
X6528515Y-13208984D01*
X6918991Y-12999460D02*
X6747563Y-13256603D01*
X7176134Y-13008984D02*
X7195182Y-13008984D01*
X7195182Y-13008984D02*
X7214229Y-13018508D01*
X7214229Y-13018508D02*
X7223753Y-13028031D01*
X7223753Y-13028031D02*
X7233277Y-13047079D01*
X7233277Y-13047079D02*
X7242801Y-13085174D01*
X7242801Y-13085174D02*
X7242801Y-13132793D01*
X7242801Y-13132793D02*
X7233277Y-13170888D01*
X7233277Y-13170888D02*
X7223753Y-13189936D01*
X7223753Y-13189936D02*
X7214229Y-13199460D01*
X7214229Y-13199460D02*
X7195182Y-13208984D01*
X7195182Y-13208984D02*
X7176134Y-13208984D01*
X7176134Y-13208984D02*
X7157086Y-13199460D01*
X7157086Y-13199460D02*
X7147563Y-13189936D01*
X7147563Y-13189936D02*
X7138039Y-13170888D01*
X7138039Y-13170888D02*
X7128515Y-13132793D01*
X7128515Y-13132793D02*
X7128515Y-13085174D01*
X7128515Y-13085174D02*
X7138039Y-13047079D01*
X7138039Y-13047079D02*
X7147563Y-13028031D01*
X7147563Y-13028031D02*
X7157086Y-13018508D01*
X7157086Y-13018508D02*
X7176134Y-13008984D01*
X7328515Y-13189936D02*
X7338039Y-13199460D01*
X7338039Y-13199460D02*
X7328515Y-13208984D01*
X7328515Y-13208984D02*
X7318991Y-13199460D01*
X7318991Y-13199460D02*
X7328515Y-13189936D01*
X7328515Y-13189936D02*
X7328515Y-13208984D01*
X7461848Y-13008984D02*
X7480896Y-13008984D01*
X7480896Y-13008984D02*
X7499944Y-13018508D01*
X7499944Y-13018508D02*
X7509467Y-13028031D01*
X7509467Y-13028031D02*
X7518991Y-13047079D01*
X7518991Y-13047079D02*
X7528515Y-13085174D01*
X7528515Y-13085174D02*
X7528515Y-13132793D01*
X7528515Y-13132793D02*
X7518991Y-13170888D01*
X7518991Y-13170888D02*
X7509467Y-13189936D01*
X7509467Y-13189936D02*
X7499944Y-13199460D01*
X7499944Y-13199460D02*
X7480896Y-13208984D01*
X7480896Y-13208984D02*
X7461848Y-13208984D01*
X7461848Y-13208984D02*
X7442801Y-13199460D01*
X7442801Y-13199460D02*
X7433277Y-13189936D01*
X7433277Y-13189936D02*
X7423753Y-13170888D01*
X7423753Y-13170888D02*
X7414229Y-13132793D01*
X7414229Y-13132793D02*
X7414229Y-13085174D01*
X7414229Y-13085174D02*
X7423753Y-13047079D01*
X7423753Y-13047079D02*
X7433277Y-13028031D01*
X7433277Y-13028031D02*
X7442801Y-13018508D01*
X7442801Y-13018508D02*
X7461848Y-13008984D01*
X7718991Y-13208984D02*
X7604706Y-13208984D01*
X7661848Y-13208984D02*
X7661848Y-13008984D01*
X7661848Y-13008984D02*
X7642801Y-13037555D01*
X7642801Y-13037555D02*
X7623753Y-13056603D01*
X7623753Y-13056603D02*
X7604706Y-13066127D01*
X7909467Y-13208984D02*
X7795182Y-13208984D01*
X7852325Y-13208984D02*
X7852325Y-13008984D01*
X7852325Y-13008984D02*
X7833277Y-13037555D01*
X7833277Y-13037555D02*
X7814229Y-13056603D01*
X7814229Y-13056603D02*
X7795182Y-13066127D01*
X8023753Y-13094698D02*
X8004706Y-13085174D01*
X8004706Y-13085174D02*
X7995182Y-13075650D01*
X7995182Y-13075650D02*
X7985658Y-13056603D01*
X7985658Y-13056603D02*
X7985658Y-13047079D01*
X7985658Y-13047079D02*
X7995182Y-13028031D01*
X7995182Y-13028031D02*
X8004706Y-13018508D01*
X8004706Y-13018508D02*
X8023753Y-13008984D01*
X8023753Y-13008984D02*
X8061848Y-13008984D01*
X8061848Y-13008984D02*
X8080896Y-13018508D01*
X8080896Y-13018508D02*
X8090420Y-13028031D01*
X8090420Y-13028031D02*
X8099944Y-13047079D01*
X8099944Y-13047079D02*
X8099944Y-13056603D01*
X8099944Y-13056603D02*
X8090420Y-13075650D01*
X8090420Y-13075650D02*
X8080896Y-13085174D01*
X8080896Y-13085174D02*
X8061848Y-13094698D01*
X8061848Y-13094698D02*
X8023753Y-13094698D01*
X8023753Y-13094698D02*
X8004706Y-13104222D01*
X8004706Y-13104222D02*
X7995182Y-13113746D01*
X7995182Y-13113746D02*
X7985658Y-13132793D01*
X7985658Y-13132793D02*
X7985658Y-13170888D01*
X7985658Y-13170888D02*
X7995182Y-13189936D01*
X7995182Y-13189936D02*
X8004706Y-13199460D01*
X8004706Y-13199460D02*
X8023753Y-13208984D01*
X8023753Y-13208984D02*
X8061848Y-13208984D01*
X8061848Y-13208984D02*
X8080896Y-13199460D01*
X8080896Y-13199460D02*
X8090420Y-13189936D01*
X8090420Y-13189936D02*
X8099944Y-13170888D01*
X8099944Y-13170888D02*
X8099944Y-13132793D01*
X8099944Y-13132793D02*
X8090420Y-13113746D01*
X8090420Y-13113746D02*
X8080896Y-13104222D01*
X8080896Y-13104222D02*
X8061848Y-13094698D01*
X8176134Y-13008984D02*
X8176134Y-13047079D01*
X8252325Y-13008984D02*
X8252325Y-13047079D01*
X8547563Y-13285174D02*
X8538039Y-13275650D01*
X8538039Y-13275650D02*
X8518991Y-13247079D01*
X8518991Y-13247079D02*
X8509468Y-13228031D01*
X8509468Y-13228031D02*
X8499944Y-13199460D01*
X8499944Y-13199460D02*
X8490420Y-13151841D01*
X8490420Y-13151841D02*
X8490420Y-13113746D01*
X8490420Y-13113746D02*
X8499944Y-13066127D01*
X8499944Y-13066127D02*
X8509468Y-13037555D01*
X8509468Y-13037555D02*
X8518991Y-13018508D01*
X8518991Y-13018508D02*
X8538039Y-12989936D01*
X8538039Y-12989936D02*
X8547563Y-12980412D01*
X8633277Y-13208984D02*
X8671372Y-13208984D01*
X8671372Y-13208984D02*
X8690420Y-13199460D01*
X8690420Y-13199460D02*
X8699944Y-13189936D01*
X8699944Y-13189936D02*
X8718991Y-13161365D01*
X8718991Y-13161365D02*
X8728515Y-13123269D01*
X8728515Y-13123269D02*
X8728515Y-13047079D01*
X8728515Y-13047079D02*
X8718991Y-13028031D01*
X8718991Y-13028031D02*
X8709468Y-13018508D01*
X8709468Y-13018508D02*
X8690420Y-13008984D01*
X8690420Y-13008984D02*
X8652325Y-13008984D01*
X8652325Y-13008984D02*
X8633277Y-13018508D01*
X8633277Y-13018508D02*
X8623753Y-13028031D01*
X8623753Y-13028031D02*
X8614230Y-13047079D01*
X8614230Y-13047079D02*
X8614230Y-13094698D01*
X8614230Y-13094698D02*
X8623753Y-13113746D01*
X8623753Y-13113746D02*
X8633277Y-13123269D01*
X8633277Y-13123269D02*
X8652325Y-13132793D01*
X8652325Y-13132793D02*
X8690420Y-13132793D01*
X8690420Y-13132793D02*
X8709468Y-13123269D01*
X8709468Y-13123269D02*
X8718991Y-13113746D01*
X8718991Y-13113746D02*
X8728515Y-13094698D01*
X8966611Y-13208984D02*
X8966611Y-13008984D01*
X9052325Y-13208984D02*
X9052325Y-13104222D01*
X9052325Y-13104222D02*
X9042801Y-13085174D01*
X9042801Y-13085174D02*
X9023753Y-13075650D01*
X9023753Y-13075650D02*
X8995182Y-13075650D01*
X8995182Y-13075650D02*
X8976134Y-13085174D01*
X8976134Y-13085174D02*
X8966611Y-13094698D01*
X9176134Y-13208984D02*
X9157087Y-13199460D01*
X9157087Y-13199460D02*
X9147563Y-13189936D01*
X9147563Y-13189936D02*
X9138039Y-13170888D01*
X9138039Y-13170888D02*
X9138039Y-13113746D01*
X9138039Y-13113746D02*
X9147563Y-13094698D01*
X9147563Y-13094698D02*
X9157087Y-13085174D01*
X9157087Y-13085174D02*
X9176134Y-13075650D01*
X9176134Y-13075650D02*
X9204706Y-13075650D01*
X9204706Y-13075650D02*
X9223753Y-13085174D01*
X9223753Y-13085174D02*
X9233277Y-13094698D01*
X9233277Y-13094698D02*
X9242801Y-13113746D01*
X9242801Y-13113746D02*
X9242801Y-13170888D01*
X9242801Y-13170888D02*
X9233277Y-13189936D01*
X9233277Y-13189936D02*
X9223753Y-13199460D01*
X9223753Y-13199460D02*
X9204706Y-13208984D01*
X9204706Y-13208984D02*
X9176134Y-13208984D01*
X9357087Y-13208984D02*
X9338039Y-13199460D01*
X9338039Y-13199460D02*
X9328515Y-13180412D01*
X9328515Y-13180412D02*
X9328515Y-13008984D01*
X9509468Y-13199460D02*
X9490420Y-13208984D01*
X9490420Y-13208984D02*
X9452325Y-13208984D01*
X9452325Y-13208984D02*
X9433277Y-13199460D01*
X9433277Y-13199460D02*
X9423753Y-13180412D01*
X9423753Y-13180412D02*
X9423753Y-13104222D01*
X9423753Y-13104222D02*
X9433277Y-13085174D01*
X9433277Y-13085174D02*
X9452325Y-13075650D01*
X9452325Y-13075650D02*
X9490420Y-13075650D01*
X9490420Y-13075650D02*
X9509468Y-13085174D01*
X9509468Y-13085174D02*
X9518992Y-13104222D01*
X9518992Y-13104222D02*
X9518992Y-13123269D01*
X9518992Y-13123269D02*
X9423753Y-13142317D01*
X9595182Y-13199460D02*
X9614230Y-13208984D01*
X9614230Y-13208984D02*
X9652325Y-13208984D01*
X9652325Y-13208984D02*
X9671373Y-13199460D01*
X9671373Y-13199460D02*
X9680896Y-13180412D01*
X9680896Y-13180412D02*
X9680896Y-13170888D01*
X9680896Y-13170888D02*
X9671373Y-13151841D01*
X9671373Y-13151841D02*
X9652325Y-13142317D01*
X9652325Y-13142317D02*
X9623753Y-13142317D01*
X9623753Y-13142317D02*
X9604706Y-13132793D01*
X9604706Y-13132793D02*
X9595182Y-13113746D01*
X9595182Y-13113746D02*
X9595182Y-13104222D01*
X9595182Y-13104222D02*
X9604706Y-13085174D01*
X9604706Y-13085174D02*
X9623753Y-13075650D01*
X9623753Y-13075650D02*
X9652325Y-13075650D01*
X9652325Y-13075650D02*
X9671373Y-13085174D01*
X9747563Y-13285174D02*
X9757087Y-13275650D01*
X9757087Y-13275650D02*
X9776134Y-13247079D01*
X9776134Y-13247079D02*
X9785658Y-13228031D01*
X9785658Y-13228031D02*
X9795182Y-13199460D01*
X9795182Y-13199460D02*
X9804706Y-13151841D01*
X9804706Y-13151841D02*
X9804706Y-13113746D01*
X9804706Y-13113746D02*
X9795182Y-13066127D01*
X9795182Y-13066127D02*
X9785658Y-13037555D01*
X9785658Y-13037555D02*
X9776134Y-13018508D01*
X9776134Y-13018508D02*
X9757087Y-12989936D01*
X9757087Y-12989936D02*
X9747563Y-12980412D01*
D12*
X4972500Y-13381500D02*
G75*
G02*
X4922500Y-13381500I-25000J0D01*
G01*
X4922500Y-13381500D02*
G75*
G02*
X4972500Y-13381500I25000J0D01*
G01*
D11*
X5271372Y-13272984D02*
X5290420Y-13272984D01*
X5290420Y-13272984D02*
X5309467Y-13282508D01*
X5309467Y-13282508D02*
X5318991Y-13292031D01*
X5318991Y-13292031D02*
X5328515Y-13311079D01*
X5328515Y-13311079D02*
X5338039Y-13349174D01*
X5338039Y-13349174D02*
X5338039Y-13396793D01*
X5338039Y-13396793D02*
X5328515Y-13434888D01*
X5328515Y-13434888D02*
X5318991Y-13453936D01*
X5318991Y-13453936D02*
X5309467Y-13463460D01*
X5309467Y-13463460D02*
X5290420Y-13472984D01*
X5290420Y-13472984D02*
X5271372Y-13472984D01*
X5271372Y-13472984D02*
X5252324Y-13463460D01*
X5252324Y-13463460D02*
X5242801Y-13453936D01*
X5242801Y-13453936D02*
X5233277Y-13434888D01*
X5233277Y-13434888D02*
X5223753Y-13396793D01*
X5223753Y-13396793D02*
X5223753Y-13349174D01*
X5223753Y-13349174D02*
X5233277Y-13311079D01*
X5233277Y-13311079D02*
X5242801Y-13292031D01*
X5242801Y-13292031D02*
X5252324Y-13282508D01*
X5252324Y-13282508D02*
X5271372Y-13272984D01*
X5423753Y-13453936D02*
X5433277Y-13463460D01*
X5433277Y-13463460D02*
X5423753Y-13472984D01*
X5423753Y-13472984D02*
X5414229Y-13463460D01*
X5414229Y-13463460D02*
X5423753Y-13453936D01*
X5423753Y-13453936D02*
X5423753Y-13472984D01*
X5614229Y-13272984D02*
X5518991Y-13272984D01*
X5518991Y-13272984D02*
X5509467Y-13368222D01*
X5509467Y-13368222D02*
X5518991Y-13358698D01*
X5518991Y-13358698D02*
X5538039Y-13349174D01*
X5538039Y-13349174D02*
X5585658Y-13349174D01*
X5585658Y-13349174D02*
X5604705Y-13358698D01*
X5604705Y-13358698D02*
X5614229Y-13368222D01*
X5614229Y-13368222D02*
X5623753Y-13387269D01*
X5623753Y-13387269D02*
X5623753Y-13434888D01*
X5623753Y-13434888D02*
X5614229Y-13453936D01*
X5614229Y-13453936D02*
X5604705Y-13463460D01*
X5604705Y-13463460D02*
X5585658Y-13472984D01*
X5585658Y-13472984D02*
X5538039Y-13472984D01*
X5538039Y-13472984D02*
X5518991Y-13463460D01*
X5518991Y-13463460D02*
X5509467Y-13453936D01*
X5747562Y-13272984D02*
X5766610Y-13272984D01*
X5766610Y-13272984D02*
X5785658Y-13282508D01*
X5785658Y-13282508D02*
X5795182Y-13292031D01*
X5795182Y-13292031D02*
X5804705Y-13311079D01*
X5804705Y-13311079D02*
X5814229Y-13349174D01*
X5814229Y-13349174D02*
X5814229Y-13396793D01*
X5814229Y-13396793D02*
X5804705Y-13434888D01*
X5804705Y-13434888D02*
X5795182Y-13453936D01*
X5795182Y-13453936D02*
X5785658Y-13463460D01*
X5785658Y-13463460D02*
X5766610Y-13472984D01*
X5766610Y-13472984D02*
X5747562Y-13472984D01*
X5747562Y-13472984D02*
X5728515Y-13463460D01*
X5728515Y-13463460D02*
X5718991Y-13453936D01*
X5718991Y-13453936D02*
X5709467Y-13434888D01*
X5709467Y-13434888D02*
X5699943Y-13396793D01*
X5699943Y-13396793D02*
X5699943Y-13349174D01*
X5699943Y-13349174D02*
X5709467Y-13311079D01*
X5709467Y-13311079D02*
X5718991Y-13292031D01*
X5718991Y-13292031D02*
X5728515Y-13282508D01*
X5728515Y-13282508D02*
X5747562Y-13272984D01*
X5938039Y-13272984D02*
X5957086Y-13272984D01*
X5957086Y-13272984D02*
X5976134Y-13282508D01*
X5976134Y-13282508D02*
X5985658Y-13292031D01*
X5985658Y-13292031D02*
X5995182Y-13311079D01*
X5995182Y-13311079D02*
X6004705Y-13349174D01*
X6004705Y-13349174D02*
X6004705Y-13396793D01*
X6004705Y-13396793D02*
X5995182Y-13434888D01*
X5995182Y-13434888D02*
X5985658Y-13453936D01*
X5985658Y-13453936D02*
X5976134Y-13463460D01*
X5976134Y-13463460D02*
X5957086Y-13472984D01*
X5957086Y-13472984D02*
X5938039Y-13472984D01*
X5938039Y-13472984D02*
X5918991Y-13463460D01*
X5918991Y-13463460D02*
X5909467Y-13453936D01*
X5909467Y-13453936D02*
X5899943Y-13434888D01*
X5899943Y-13434888D02*
X5890420Y-13396793D01*
X5890420Y-13396793D02*
X5890420Y-13349174D01*
X5890420Y-13349174D02*
X5899943Y-13311079D01*
X5899943Y-13311079D02*
X5909467Y-13292031D01*
X5909467Y-13292031D02*
X5918991Y-13282508D01*
X5918991Y-13282508D02*
X5938039Y-13272984D01*
X6090420Y-13472984D02*
X6090420Y-13339650D01*
X6090420Y-13358698D02*
X6099943Y-13349174D01*
X6099943Y-13349174D02*
X6118991Y-13339650D01*
X6118991Y-13339650D02*
X6147563Y-13339650D01*
X6147563Y-13339650D02*
X6166610Y-13349174D01*
X6166610Y-13349174D02*
X6176134Y-13368222D01*
X6176134Y-13368222D02*
X6176134Y-13472984D01*
X6176134Y-13368222D02*
X6185658Y-13349174D01*
X6185658Y-13349174D02*
X6204705Y-13339650D01*
X6204705Y-13339650D02*
X6233277Y-13339650D01*
X6233277Y-13339650D02*
X6252324Y-13349174D01*
X6252324Y-13349174D02*
X6261848Y-13368222D01*
X6261848Y-13368222D02*
X6261848Y-13472984D01*
X6357086Y-13472984D02*
X6357086Y-13339650D01*
X6357086Y-13358698D02*
X6366610Y-13349174D01*
X6366610Y-13349174D02*
X6385658Y-13339650D01*
X6385658Y-13339650D02*
X6414229Y-13339650D01*
X6414229Y-13339650D02*
X6433277Y-13349174D01*
X6433277Y-13349174D02*
X6442801Y-13368222D01*
X6442801Y-13368222D02*
X6442801Y-13472984D01*
X6442801Y-13368222D02*
X6452324Y-13349174D01*
X6452324Y-13349174D02*
X6471372Y-13339650D01*
X6471372Y-13339650D02*
X6499943Y-13339650D01*
X6499943Y-13339650D02*
X6518991Y-13349174D01*
X6518991Y-13349174D02*
X6528515Y-13368222D01*
X6528515Y-13368222D02*
X6528515Y-13472984D01*
X6918991Y-13263460D02*
X6747563Y-13520603D01*
X7176134Y-13272984D02*
X7195182Y-13272984D01*
X7195182Y-13272984D02*
X7214229Y-13282508D01*
X7214229Y-13282508D02*
X7223753Y-13292031D01*
X7223753Y-13292031D02*
X7233277Y-13311079D01*
X7233277Y-13311079D02*
X7242801Y-13349174D01*
X7242801Y-13349174D02*
X7242801Y-13396793D01*
X7242801Y-13396793D02*
X7233277Y-13434888D01*
X7233277Y-13434888D02*
X7223753Y-13453936D01*
X7223753Y-13453936D02*
X7214229Y-13463460D01*
X7214229Y-13463460D02*
X7195182Y-13472984D01*
X7195182Y-13472984D02*
X7176134Y-13472984D01*
X7176134Y-13472984D02*
X7157086Y-13463460D01*
X7157086Y-13463460D02*
X7147563Y-13453936D01*
X7147563Y-13453936D02*
X7138039Y-13434888D01*
X7138039Y-13434888D02*
X7128515Y-13396793D01*
X7128515Y-13396793D02*
X7128515Y-13349174D01*
X7128515Y-13349174D02*
X7138039Y-13311079D01*
X7138039Y-13311079D02*
X7147563Y-13292031D01*
X7147563Y-13292031D02*
X7157086Y-13282508D01*
X7157086Y-13282508D02*
X7176134Y-13272984D01*
X7328515Y-13453936D02*
X7338039Y-13463460D01*
X7338039Y-13463460D02*
X7328515Y-13472984D01*
X7328515Y-13472984D02*
X7318991Y-13463460D01*
X7318991Y-13463460D02*
X7328515Y-13453936D01*
X7328515Y-13453936D02*
X7328515Y-13472984D01*
X7461848Y-13272984D02*
X7480896Y-13272984D01*
X7480896Y-13272984D02*
X7499944Y-13282508D01*
X7499944Y-13282508D02*
X7509467Y-13292031D01*
X7509467Y-13292031D02*
X7518991Y-13311079D01*
X7518991Y-13311079D02*
X7528515Y-13349174D01*
X7528515Y-13349174D02*
X7528515Y-13396793D01*
X7528515Y-13396793D02*
X7518991Y-13434888D01*
X7518991Y-13434888D02*
X7509467Y-13453936D01*
X7509467Y-13453936D02*
X7499944Y-13463460D01*
X7499944Y-13463460D02*
X7480896Y-13472984D01*
X7480896Y-13472984D02*
X7461848Y-13472984D01*
X7461848Y-13472984D02*
X7442801Y-13463460D01*
X7442801Y-13463460D02*
X7433277Y-13453936D01*
X7433277Y-13453936D02*
X7423753Y-13434888D01*
X7423753Y-13434888D02*
X7414229Y-13396793D01*
X7414229Y-13396793D02*
X7414229Y-13349174D01*
X7414229Y-13349174D02*
X7423753Y-13311079D01*
X7423753Y-13311079D02*
X7433277Y-13292031D01*
X7433277Y-13292031D02*
X7442801Y-13282508D01*
X7442801Y-13282508D02*
X7461848Y-13272984D01*
X7718991Y-13472984D02*
X7604706Y-13472984D01*
X7661848Y-13472984D02*
X7661848Y-13272984D01*
X7661848Y-13272984D02*
X7642801Y-13301555D01*
X7642801Y-13301555D02*
X7623753Y-13320603D01*
X7623753Y-13320603D02*
X7604706Y-13330127D01*
X7814229Y-13472984D02*
X7852325Y-13472984D01*
X7852325Y-13472984D02*
X7871372Y-13463460D01*
X7871372Y-13463460D02*
X7880896Y-13453936D01*
X7880896Y-13453936D02*
X7899944Y-13425365D01*
X7899944Y-13425365D02*
X7909467Y-13387269D01*
X7909467Y-13387269D02*
X7909467Y-13311079D01*
X7909467Y-13311079D02*
X7899944Y-13292031D01*
X7899944Y-13292031D02*
X7890420Y-13282508D01*
X7890420Y-13282508D02*
X7871372Y-13272984D01*
X7871372Y-13272984D02*
X7833277Y-13272984D01*
X7833277Y-13272984D02*
X7814229Y-13282508D01*
X7814229Y-13282508D02*
X7804706Y-13292031D01*
X7804706Y-13292031D02*
X7795182Y-13311079D01*
X7795182Y-13311079D02*
X7795182Y-13358698D01*
X7795182Y-13358698D02*
X7804706Y-13377746D01*
X7804706Y-13377746D02*
X7814229Y-13387269D01*
X7814229Y-13387269D02*
X7833277Y-13396793D01*
X7833277Y-13396793D02*
X7871372Y-13396793D01*
X7871372Y-13396793D02*
X7890420Y-13387269D01*
X7890420Y-13387269D02*
X7899944Y-13377746D01*
X7899944Y-13377746D02*
X7909467Y-13358698D01*
X7976134Y-13272984D02*
X8109467Y-13272984D01*
X8109467Y-13272984D02*
X8023753Y-13472984D01*
X8176134Y-13272984D02*
X8176134Y-13311079D01*
X8252325Y-13272984D02*
X8252325Y-13311079D01*
X8547563Y-13549174D02*
X8538039Y-13539650D01*
X8538039Y-13539650D02*
X8518991Y-13511079D01*
X8518991Y-13511079D02*
X8509468Y-13492031D01*
X8509468Y-13492031D02*
X8499944Y-13463460D01*
X8499944Y-13463460D02*
X8490420Y-13415841D01*
X8490420Y-13415841D02*
X8490420Y-13377746D01*
X8490420Y-13377746D02*
X8499944Y-13330127D01*
X8499944Y-13330127D02*
X8509468Y-13301555D01*
X8509468Y-13301555D02*
X8518991Y-13282508D01*
X8518991Y-13282508D02*
X8538039Y-13253936D01*
X8538039Y-13253936D02*
X8547563Y-13244412D01*
X8652325Y-13358698D02*
X8633277Y-13349174D01*
X8633277Y-13349174D02*
X8623753Y-13339650D01*
X8623753Y-13339650D02*
X8614230Y-13320603D01*
X8614230Y-13320603D02*
X8614230Y-13311079D01*
X8614230Y-13311079D02*
X8623753Y-13292031D01*
X8623753Y-13292031D02*
X8633277Y-13282508D01*
X8633277Y-13282508D02*
X8652325Y-13272984D01*
X8652325Y-13272984D02*
X8690420Y-13272984D01*
X8690420Y-13272984D02*
X8709468Y-13282508D01*
X8709468Y-13282508D02*
X8718991Y-13292031D01*
X8718991Y-13292031D02*
X8728515Y-13311079D01*
X8728515Y-13311079D02*
X8728515Y-13320603D01*
X8728515Y-13320603D02*
X8718991Y-13339650D01*
X8718991Y-13339650D02*
X8709468Y-13349174D01*
X8709468Y-13349174D02*
X8690420Y-13358698D01*
X8690420Y-13358698D02*
X8652325Y-13358698D01*
X8652325Y-13358698D02*
X8633277Y-13368222D01*
X8633277Y-13368222D02*
X8623753Y-13377746D01*
X8623753Y-13377746D02*
X8614230Y-13396793D01*
X8614230Y-13396793D02*
X8614230Y-13434888D01*
X8614230Y-13434888D02*
X8623753Y-13453936D01*
X8623753Y-13453936D02*
X8633277Y-13463460D01*
X8633277Y-13463460D02*
X8652325Y-13472984D01*
X8652325Y-13472984D02*
X8690420Y-13472984D01*
X8690420Y-13472984D02*
X8709468Y-13463460D01*
X8709468Y-13463460D02*
X8718991Y-13453936D01*
X8718991Y-13453936D02*
X8728515Y-13434888D01*
X8728515Y-13434888D02*
X8728515Y-13396793D01*
X8728515Y-13396793D02*
X8718991Y-13377746D01*
X8718991Y-13377746D02*
X8709468Y-13368222D01*
X8709468Y-13368222D02*
X8690420Y-13358698D01*
X8966611Y-13472984D02*
X8966611Y-13272984D01*
X9052325Y-13472984D02*
X9052325Y-13368222D01*
X9052325Y-13368222D02*
X9042801Y-13349174D01*
X9042801Y-13349174D02*
X9023753Y-13339650D01*
X9023753Y-13339650D02*
X8995182Y-13339650D01*
X8995182Y-13339650D02*
X8976134Y-13349174D01*
X8976134Y-13349174D02*
X8966611Y-13358698D01*
X9176134Y-13472984D02*
X9157087Y-13463460D01*
X9157087Y-13463460D02*
X9147563Y-13453936D01*
X9147563Y-13453936D02*
X9138039Y-13434888D01*
X9138039Y-13434888D02*
X9138039Y-13377746D01*
X9138039Y-13377746D02*
X9147563Y-13358698D01*
X9147563Y-13358698D02*
X9157087Y-13349174D01*
X9157087Y-13349174D02*
X9176134Y-13339650D01*
X9176134Y-13339650D02*
X9204706Y-13339650D01*
X9204706Y-13339650D02*
X9223753Y-13349174D01*
X9223753Y-13349174D02*
X9233277Y-13358698D01*
X9233277Y-13358698D02*
X9242801Y-13377746D01*
X9242801Y-13377746D02*
X9242801Y-13434888D01*
X9242801Y-13434888D02*
X9233277Y-13453936D01*
X9233277Y-13453936D02*
X9223753Y-13463460D01*
X9223753Y-13463460D02*
X9204706Y-13472984D01*
X9204706Y-13472984D02*
X9176134Y-13472984D01*
X9357087Y-13472984D02*
X9338039Y-13463460D01*
X9338039Y-13463460D02*
X9328515Y-13444412D01*
X9328515Y-13444412D02*
X9328515Y-13272984D01*
X9509468Y-13463460D02*
X9490420Y-13472984D01*
X9490420Y-13472984D02*
X9452325Y-13472984D01*
X9452325Y-13472984D02*
X9433277Y-13463460D01*
X9433277Y-13463460D02*
X9423753Y-13444412D01*
X9423753Y-13444412D02*
X9423753Y-13368222D01*
X9423753Y-13368222D02*
X9433277Y-13349174D01*
X9433277Y-13349174D02*
X9452325Y-13339650D01*
X9452325Y-13339650D02*
X9490420Y-13339650D01*
X9490420Y-13339650D02*
X9509468Y-13349174D01*
X9509468Y-13349174D02*
X9518992Y-13368222D01*
X9518992Y-13368222D02*
X9518992Y-13387269D01*
X9518992Y-13387269D02*
X9423753Y-13406317D01*
X9595182Y-13463460D02*
X9614230Y-13472984D01*
X9614230Y-13472984D02*
X9652325Y-13472984D01*
X9652325Y-13472984D02*
X9671373Y-13463460D01*
X9671373Y-13463460D02*
X9680896Y-13444412D01*
X9680896Y-13444412D02*
X9680896Y-13434888D01*
X9680896Y-13434888D02*
X9671373Y-13415841D01*
X9671373Y-13415841D02*
X9652325Y-13406317D01*
X9652325Y-13406317D02*
X9623753Y-13406317D01*
X9623753Y-13406317D02*
X9604706Y-13396793D01*
X9604706Y-13396793D02*
X9595182Y-13377746D01*
X9595182Y-13377746D02*
X9595182Y-13368222D01*
X9595182Y-13368222D02*
X9604706Y-13349174D01*
X9604706Y-13349174D02*
X9623753Y-13339650D01*
X9623753Y-13339650D02*
X9652325Y-13339650D01*
X9652325Y-13339650D02*
X9671373Y-13349174D01*
X9747563Y-13549174D02*
X9757087Y-13539650D01*
X9757087Y-13539650D02*
X9776134Y-13511079D01*
X9776134Y-13511079D02*
X9785658Y-13492031D01*
X9785658Y-13492031D02*
X9795182Y-13463460D01*
X9795182Y-13463460D02*
X9804706Y-13415841D01*
X9804706Y-13415841D02*
X9804706Y-13377746D01*
X9804706Y-13377746D02*
X9795182Y-13330127D01*
X9795182Y-13330127D02*
X9785658Y-13301555D01*
X9785658Y-13301555D02*
X9776134Y-13282508D01*
X9776134Y-13282508D02*
X9757087Y-13253936D01*
X9757087Y-13253936D02*
X9747563Y-13244412D01*
D12*
X4933000Y-13606000D02*
X4933000Y-13685000D01*
X4893500Y-13645500D02*
X4972500Y-13645500D01*
D11*
X5271372Y-13536984D02*
X5290420Y-13536984D01*
X5290420Y-13536984D02*
X5309467Y-13546508D01*
X5309467Y-13546508D02*
X5318991Y-13556031D01*
X5318991Y-13556031D02*
X5328515Y-13575079D01*
X5328515Y-13575079D02*
X5338039Y-13613174D01*
X5338039Y-13613174D02*
X5338039Y-13660793D01*
X5338039Y-13660793D02*
X5328515Y-13698888D01*
X5328515Y-13698888D02*
X5318991Y-13717936D01*
X5318991Y-13717936D02*
X5309467Y-13727460D01*
X5309467Y-13727460D02*
X5290420Y-13736984D01*
X5290420Y-13736984D02*
X5271372Y-13736984D01*
X5271372Y-13736984D02*
X5252324Y-13727460D01*
X5252324Y-13727460D02*
X5242801Y-13717936D01*
X5242801Y-13717936D02*
X5233277Y-13698888D01*
X5233277Y-13698888D02*
X5223753Y-13660793D01*
X5223753Y-13660793D02*
X5223753Y-13613174D01*
X5223753Y-13613174D02*
X5233277Y-13575079D01*
X5233277Y-13575079D02*
X5242801Y-13556031D01*
X5242801Y-13556031D02*
X5252324Y-13546508D01*
X5252324Y-13546508D02*
X5271372Y-13536984D01*
X5423753Y-13717936D02*
X5433277Y-13727460D01*
X5433277Y-13727460D02*
X5423753Y-13736984D01*
X5423753Y-13736984D02*
X5414229Y-13727460D01*
X5414229Y-13727460D02*
X5423753Y-13717936D01*
X5423753Y-13717936D02*
X5423753Y-13736984D01*
X5499944Y-13536984D02*
X5633277Y-13536984D01*
X5633277Y-13536984D02*
X5547563Y-13736984D01*
X5718991Y-13736984D02*
X5757086Y-13736984D01*
X5757086Y-13736984D02*
X5776134Y-13727460D01*
X5776134Y-13727460D02*
X5785658Y-13717936D01*
X5785658Y-13717936D02*
X5804705Y-13689365D01*
X5804705Y-13689365D02*
X5814229Y-13651269D01*
X5814229Y-13651269D02*
X5814229Y-13575079D01*
X5814229Y-13575079D02*
X5804705Y-13556031D01*
X5804705Y-13556031D02*
X5795182Y-13546508D01*
X5795182Y-13546508D02*
X5776134Y-13536984D01*
X5776134Y-13536984D02*
X5738039Y-13536984D01*
X5738039Y-13536984D02*
X5718991Y-13546508D01*
X5718991Y-13546508D02*
X5709467Y-13556031D01*
X5709467Y-13556031D02*
X5699943Y-13575079D01*
X5699943Y-13575079D02*
X5699943Y-13622698D01*
X5699943Y-13622698D02*
X5709467Y-13641746D01*
X5709467Y-13641746D02*
X5718991Y-13651269D01*
X5718991Y-13651269D02*
X5738039Y-13660793D01*
X5738039Y-13660793D02*
X5776134Y-13660793D01*
X5776134Y-13660793D02*
X5795182Y-13651269D01*
X5795182Y-13651269D02*
X5804705Y-13641746D01*
X5804705Y-13641746D02*
X5814229Y-13622698D01*
X5938039Y-13536984D02*
X5957086Y-13536984D01*
X5957086Y-13536984D02*
X5976134Y-13546508D01*
X5976134Y-13546508D02*
X5985658Y-13556031D01*
X5985658Y-13556031D02*
X5995182Y-13575079D01*
X5995182Y-13575079D02*
X6004705Y-13613174D01*
X6004705Y-13613174D02*
X6004705Y-13660793D01*
X6004705Y-13660793D02*
X5995182Y-13698888D01*
X5995182Y-13698888D02*
X5985658Y-13717936D01*
X5985658Y-13717936D02*
X5976134Y-13727460D01*
X5976134Y-13727460D02*
X5957086Y-13736984D01*
X5957086Y-13736984D02*
X5938039Y-13736984D01*
X5938039Y-13736984D02*
X5918991Y-13727460D01*
X5918991Y-13727460D02*
X5909467Y-13717936D01*
X5909467Y-13717936D02*
X5899943Y-13698888D01*
X5899943Y-13698888D02*
X5890420Y-13660793D01*
X5890420Y-13660793D02*
X5890420Y-13613174D01*
X5890420Y-13613174D02*
X5899943Y-13575079D01*
X5899943Y-13575079D02*
X5909467Y-13556031D01*
X5909467Y-13556031D02*
X5918991Y-13546508D01*
X5918991Y-13546508D02*
X5938039Y-13536984D01*
X6090420Y-13736984D02*
X6090420Y-13603650D01*
X6090420Y-13622698D02*
X6099943Y-13613174D01*
X6099943Y-13613174D02*
X6118991Y-13603650D01*
X6118991Y-13603650D02*
X6147563Y-13603650D01*
X6147563Y-13603650D02*
X6166610Y-13613174D01*
X6166610Y-13613174D02*
X6176134Y-13632222D01*
X6176134Y-13632222D02*
X6176134Y-13736984D01*
X6176134Y-13632222D02*
X6185658Y-13613174D01*
X6185658Y-13613174D02*
X6204705Y-13603650D01*
X6204705Y-13603650D02*
X6233277Y-13603650D01*
X6233277Y-13603650D02*
X6252324Y-13613174D01*
X6252324Y-13613174D02*
X6261848Y-13632222D01*
X6261848Y-13632222D02*
X6261848Y-13736984D01*
X6357086Y-13736984D02*
X6357086Y-13603650D01*
X6357086Y-13622698D02*
X6366610Y-13613174D01*
X6366610Y-13613174D02*
X6385658Y-13603650D01*
X6385658Y-13603650D02*
X6414229Y-13603650D01*
X6414229Y-13603650D02*
X6433277Y-13613174D01*
X6433277Y-13613174D02*
X6442801Y-13632222D01*
X6442801Y-13632222D02*
X6442801Y-13736984D01*
X6442801Y-13632222D02*
X6452324Y-13613174D01*
X6452324Y-13613174D02*
X6471372Y-13603650D01*
X6471372Y-13603650D02*
X6499943Y-13603650D01*
X6499943Y-13603650D02*
X6518991Y-13613174D01*
X6518991Y-13613174D02*
X6528515Y-13632222D01*
X6528515Y-13632222D02*
X6528515Y-13736984D01*
X6918991Y-13527460D02*
X6747563Y-13784603D01*
X7176134Y-13536984D02*
X7195182Y-13536984D01*
X7195182Y-13536984D02*
X7214229Y-13546508D01*
X7214229Y-13546508D02*
X7223753Y-13556031D01*
X7223753Y-13556031D02*
X7233277Y-13575079D01*
X7233277Y-13575079D02*
X7242801Y-13613174D01*
X7242801Y-13613174D02*
X7242801Y-13660793D01*
X7242801Y-13660793D02*
X7233277Y-13698888D01*
X7233277Y-13698888D02*
X7223753Y-13717936D01*
X7223753Y-13717936D02*
X7214229Y-13727460D01*
X7214229Y-13727460D02*
X7195182Y-13736984D01*
X7195182Y-13736984D02*
X7176134Y-13736984D01*
X7176134Y-13736984D02*
X7157086Y-13727460D01*
X7157086Y-13727460D02*
X7147563Y-13717936D01*
X7147563Y-13717936D02*
X7138039Y-13698888D01*
X7138039Y-13698888D02*
X7128515Y-13660793D01*
X7128515Y-13660793D02*
X7128515Y-13613174D01*
X7128515Y-13613174D02*
X7138039Y-13575079D01*
X7138039Y-13575079D02*
X7147563Y-13556031D01*
X7147563Y-13556031D02*
X7157086Y-13546508D01*
X7157086Y-13546508D02*
X7176134Y-13536984D01*
X7328515Y-13717936D02*
X7338039Y-13727460D01*
X7338039Y-13727460D02*
X7328515Y-13736984D01*
X7328515Y-13736984D02*
X7318991Y-13727460D01*
X7318991Y-13727460D02*
X7328515Y-13717936D01*
X7328515Y-13717936D02*
X7328515Y-13736984D01*
X7461848Y-13536984D02*
X7480896Y-13536984D01*
X7480896Y-13536984D02*
X7499944Y-13546508D01*
X7499944Y-13546508D02*
X7509467Y-13556031D01*
X7509467Y-13556031D02*
X7518991Y-13575079D01*
X7518991Y-13575079D02*
X7528515Y-13613174D01*
X7528515Y-13613174D02*
X7528515Y-13660793D01*
X7528515Y-13660793D02*
X7518991Y-13698888D01*
X7518991Y-13698888D02*
X7509467Y-13717936D01*
X7509467Y-13717936D02*
X7499944Y-13727460D01*
X7499944Y-13727460D02*
X7480896Y-13736984D01*
X7480896Y-13736984D02*
X7461848Y-13736984D01*
X7461848Y-13736984D02*
X7442801Y-13727460D01*
X7442801Y-13727460D02*
X7433277Y-13717936D01*
X7433277Y-13717936D02*
X7423753Y-13698888D01*
X7423753Y-13698888D02*
X7414229Y-13660793D01*
X7414229Y-13660793D02*
X7414229Y-13613174D01*
X7414229Y-13613174D02*
X7423753Y-13575079D01*
X7423753Y-13575079D02*
X7433277Y-13556031D01*
X7433277Y-13556031D02*
X7442801Y-13546508D01*
X7442801Y-13546508D02*
X7461848Y-13536984D01*
X7595182Y-13536984D02*
X7718991Y-13536984D01*
X7718991Y-13536984D02*
X7652325Y-13613174D01*
X7652325Y-13613174D02*
X7680896Y-13613174D01*
X7680896Y-13613174D02*
X7699944Y-13622698D01*
X7699944Y-13622698D02*
X7709467Y-13632222D01*
X7709467Y-13632222D02*
X7718991Y-13651269D01*
X7718991Y-13651269D02*
X7718991Y-13698888D01*
X7718991Y-13698888D02*
X7709467Y-13717936D01*
X7709467Y-13717936D02*
X7699944Y-13727460D01*
X7699944Y-13727460D02*
X7680896Y-13736984D01*
X7680896Y-13736984D02*
X7623753Y-13736984D01*
X7623753Y-13736984D02*
X7604706Y-13727460D01*
X7604706Y-13727460D02*
X7595182Y-13717936D01*
X7909467Y-13736984D02*
X7795182Y-13736984D01*
X7852325Y-13736984D02*
X7852325Y-13536984D01*
X7852325Y-13536984D02*
X7833277Y-13565555D01*
X7833277Y-13565555D02*
X7814229Y-13584603D01*
X7814229Y-13584603D02*
X7795182Y-13594127D01*
X8099944Y-13736984D02*
X7985658Y-13736984D01*
X8042801Y-13736984D02*
X8042801Y-13536984D01*
X8042801Y-13536984D02*
X8023753Y-13565555D01*
X8023753Y-13565555D02*
X8004706Y-13584603D01*
X8004706Y-13584603D02*
X7985658Y-13594127D01*
X8176134Y-13536984D02*
X8176134Y-13575079D01*
X8252325Y-13536984D02*
X8252325Y-13575079D01*
X8547563Y-13813174D02*
X8538039Y-13803650D01*
X8538039Y-13803650D02*
X8518991Y-13775079D01*
X8518991Y-13775079D02*
X8509468Y-13756031D01*
X8509468Y-13756031D02*
X8499944Y-13727460D01*
X8499944Y-13727460D02*
X8490420Y-13679841D01*
X8490420Y-13679841D02*
X8490420Y-13641746D01*
X8490420Y-13641746D02*
X8499944Y-13594127D01*
X8499944Y-13594127D02*
X8509468Y-13565555D01*
X8509468Y-13565555D02*
X8518991Y-13546508D01*
X8518991Y-13546508D02*
X8538039Y-13517936D01*
X8538039Y-13517936D02*
X8547563Y-13508412D01*
X8614230Y-13556031D02*
X8623753Y-13546508D01*
X8623753Y-13546508D02*
X8642801Y-13536984D01*
X8642801Y-13536984D02*
X8690420Y-13536984D01*
X8690420Y-13536984D02*
X8709468Y-13546508D01*
X8709468Y-13546508D02*
X8718991Y-13556031D01*
X8718991Y-13556031D02*
X8728515Y-13575079D01*
X8728515Y-13575079D02*
X8728515Y-13594127D01*
X8728515Y-13594127D02*
X8718991Y-13622698D01*
X8718991Y-13622698D02*
X8604706Y-13736984D01*
X8604706Y-13736984D02*
X8728515Y-13736984D01*
X8966611Y-13736984D02*
X8966611Y-13536984D01*
X9052325Y-13736984D02*
X9052325Y-13632222D01*
X9052325Y-13632222D02*
X9042801Y-13613174D01*
X9042801Y-13613174D02*
X9023753Y-13603650D01*
X9023753Y-13603650D02*
X8995182Y-13603650D01*
X8995182Y-13603650D02*
X8976134Y-13613174D01*
X8976134Y-13613174D02*
X8966611Y-13622698D01*
X9176134Y-13736984D02*
X9157087Y-13727460D01*
X9157087Y-13727460D02*
X9147563Y-13717936D01*
X9147563Y-13717936D02*
X9138039Y-13698888D01*
X9138039Y-13698888D02*
X9138039Y-13641746D01*
X9138039Y-13641746D02*
X9147563Y-13622698D01*
X9147563Y-13622698D02*
X9157087Y-13613174D01*
X9157087Y-13613174D02*
X9176134Y-13603650D01*
X9176134Y-13603650D02*
X9204706Y-13603650D01*
X9204706Y-13603650D02*
X9223753Y-13613174D01*
X9223753Y-13613174D02*
X9233277Y-13622698D01*
X9233277Y-13622698D02*
X9242801Y-13641746D01*
X9242801Y-13641746D02*
X9242801Y-13698888D01*
X9242801Y-13698888D02*
X9233277Y-13717936D01*
X9233277Y-13717936D02*
X9223753Y-13727460D01*
X9223753Y-13727460D02*
X9204706Y-13736984D01*
X9204706Y-13736984D02*
X9176134Y-13736984D01*
X9357087Y-13736984D02*
X9338039Y-13727460D01*
X9338039Y-13727460D02*
X9328515Y-13708412D01*
X9328515Y-13708412D02*
X9328515Y-13536984D01*
X9509468Y-13727460D02*
X9490420Y-13736984D01*
X9490420Y-13736984D02*
X9452325Y-13736984D01*
X9452325Y-13736984D02*
X9433277Y-13727460D01*
X9433277Y-13727460D02*
X9423753Y-13708412D01*
X9423753Y-13708412D02*
X9423753Y-13632222D01*
X9423753Y-13632222D02*
X9433277Y-13613174D01*
X9433277Y-13613174D02*
X9452325Y-13603650D01*
X9452325Y-13603650D02*
X9490420Y-13603650D01*
X9490420Y-13603650D02*
X9509468Y-13613174D01*
X9509468Y-13613174D02*
X9518992Y-13632222D01*
X9518992Y-13632222D02*
X9518992Y-13651269D01*
X9518992Y-13651269D02*
X9423753Y-13670317D01*
X9595182Y-13727460D02*
X9614230Y-13736984D01*
X9614230Y-13736984D02*
X9652325Y-13736984D01*
X9652325Y-13736984D02*
X9671373Y-13727460D01*
X9671373Y-13727460D02*
X9680896Y-13708412D01*
X9680896Y-13708412D02*
X9680896Y-13698888D01*
X9680896Y-13698888D02*
X9671373Y-13679841D01*
X9671373Y-13679841D02*
X9652325Y-13670317D01*
X9652325Y-13670317D02*
X9623753Y-13670317D01*
X9623753Y-13670317D02*
X9604706Y-13660793D01*
X9604706Y-13660793D02*
X9595182Y-13641746D01*
X9595182Y-13641746D02*
X9595182Y-13632222D01*
X9595182Y-13632222D02*
X9604706Y-13613174D01*
X9604706Y-13613174D02*
X9623753Y-13603650D01*
X9623753Y-13603650D02*
X9652325Y-13603650D01*
X9652325Y-13603650D02*
X9671373Y-13613174D01*
X9747563Y-13813174D02*
X9757087Y-13803650D01*
X9757087Y-13803650D02*
X9776134Y-13775079D01*
X9776134Y-13775079D02*
X9785658Y-13756031D01*
X9785658Y-13756031D02*
X9795182Y-13727460D01*
X9795182Y-13727460D02*
X9804706Y-13679841D01*
X9804706Y-13679841D02*
X9804706Y-13641746D01*
X9804706Y-13641746D02*
X9795182Y-13594127D01*
X9795182Y-13594127D02*
X9785658Y-13565555D01*
X9785658Y-13565555D02*
X9776134Y-13546508D01*
X9776134Y-13546508D02*
X9757087Y-13517936D01*
X9757087Y-13517936D02*
X9747563Y-13508412D01*
D12*
X4957856Y-13944856D02*
X4957856Y-13874144D01*
X4887144Y-13874144D01*
X4887144Y-13944856D01*
X4957856Y-13944856D01*
D11*
X5338039Y-14000984D02*
X5223753Y-14000984D01*
X5280896Y-14000984D02*
X5280896Y-13800984D01*
X5280896Y-13800984D02*
X5261848Y-13829555D01*
X5261848Y-13829555D02*
X5242801Y-13848603D01*
X5242801Y-13848603D02*
X5223753Y-13858127D01*
X5423753Y-13981936D02*
X5433277Y-13991460D01*
X5433277Y-13991460D02*
X5423753Y-14000984D01*
X5423753Y-14000984D02*
X5414229Y-13991460D01*
X5414229Y-13991460D02*
X5423753Y-13981936D01*
X5423753Y-13981936D02*
X5423753Y-14000984D01*
X5557086Y-13800984D02*
X5576134Y-13800984D01*
X5576134Y-13800984D02*
X5595182Y-13810508D01*
X5595182Y-13810508D02*
X5604705Y-13820031D01*
X5604705Y-13820031D02*
X5614229Y-13839079D01*
X5614229Y-13839079D02*
X5623753Y-13877174D01*
X5623753Y-13877174D02*
X5623753Y-13924793D01*
X5623753Y-13924793D02*
X5614229Y-13962888D01*
X5614229Y-13962888D02*
X5604705Y-13981936D01*
X5604705Y-13981936D02*
X5595182Y-13991460D01*
X5595182Y-13991460D02*
X5576134Y-14000984D01*
X5576134Y-14000984D02*
X5557086Y-14000984D01*
X5557086Y-14000984D02*
X5538039Y-13991460D01*
X5538039Y-13991460D02*
X5528515Y-13981936D01*
X5528515Y-13981936D02*
X5518991Y-13962888D01*
X5518991Y-13962888D02*
X5509467Y-13924793D01*
X5509467Y-13924793D02*
X5509467Y-13877174D01*
X5509467Y-13877174D02*
X5518991Y-13839079D01*
X5518991Y-13839079D02*
X5528515Y-13820031D01*
X5528515Y-13820031D02*
X5538039Y-13810508D01*
X5538039Y-13810508D02*
X5557086Y-13800984D01*
X5747562Y-13800984D02*
X5766610Y-13800984D01*
X5766610Y-13800984D02*
X5785658Y-13810508D01*
X5785658Y-13810508D02*
X5795182Y-13820031D01*
X5795182Y-13820031D02*
X5804705Y-13839079D01*
X5804705Y-13839079D02*
X5814229Y-13877174D01*
X5814229Y-13877174D02*
X5814229Y-13924793D01*
X5814229Y-13924793D02*
X5804705Y-13962888D01*
X5804705Y-13962888D02*
X5795182Y-13981936D01*
X5795182Y-13981936D02*
X5785658Y-13991460D01*
X5785658Y-13991460D02*
X5766610Y-14000984D01*
X5766610Y-14000984D02*
X5747562Y-14000984D01*
X5747562Y-14000984D02*
X5728515Y-13991460D01*
X5728515Y-13991460D02*
X5718991Y-13981936D01*
X5718991Y-13981936D02*
X5709467Y-13962888D01*
X5709467Y-13962888D02*
X5699943Y-13924793D01*
X5699943Y-13924793D02*
X5699943Y-13877174D01*
X5699943Y-13877174D02*
X5709467Y-13839079D01*
X5709467Y-13839079D02*
X5718991Y-13820031D01*
X5718991Y-13820031D02*
X5728515Y-13810508D01*
X5728515Y-13810508D02*
X5747562Y-13800984D01*
X5938039Y-13800984D02*
X5957086Y-13800984D01*
X5957086Y-13800984D02*
X5976134Y-13810508D01*
X5976134Y-13810508D02*
X5985658Y-13820031D01*
X5985658Y-13820031D02*
X5995182Y-13839079D01*
X5995182Y-13839079D02*
X6004705Y-13877174D01*
X6004705Y-13877174D02*
X6004705Y-13924793D01*
X6004705Y-13924793D02*
X5995182Y-13962888D01*
X5995182Y-13962888D02*
X5985658Y-13981936D01*
X5985658Y-13981936D02*
X5976134Y-13991460D01*
X5976134Y-13991460D02*
X5957086Y-14000984D01*
X5957086Y-14000984D02*
X5938039Y-14000984D01*
X5938039Y-14000984D02*
X5918991Y-13991460D01*
X5918991Y-13991460D02*
X5909467Y-13981936D01*
X5909467Y-13981936D02*
X5899943Y-13962888D01*
X5899943Y-13962888D02*
X5890420Y-13924793D01*
X5890420Y-13924793D02*
X5890420Y-13877174D01*
X5890420Y-13877174D02*
X5899943Y-13839079D01*
X5899943Y-13839079D02*
X5909467Y-13820031D01*
X5909467Y-13820031D02*
X5918991Y-13810508D01*
X5918991Y-13810508D02*
X5938039Y-13800984D01*
X6090420Y-14000984D02*
X6090420Y-13867650D01*
X6090420Y-13886698D02*
X6099943Y-13877174D01*
X6099943Y-13877174D02*
X6118991Y-13867650D01*
X6118991Y-13867650D02*
X6147563Y-13867650D01*
X6147563Y-13867650D02*
X6166610Y-13877174D01*
X6166610Y-13877174D02*
X6176134Y-13896222D01*
X6176134Y-13896222D02*
X6176134Y-14000984D01*
X6176134Y-13896222D02*
X6185658Y-13877174D01*
X6185658Y-13877174D02*
X6204705Y-13867650D01*
X6204705Y-13867650D02*
X6233277Y-13867650D01*
X6233277Y-13867650D02*
X6252324Y-13877174D01*
X6252324Y-13877174D02*
X6261848Y-13896222D01*
X6261848Y-13896222D02*
X6261848Y-14000984D01*
X6357086Y-14000984D02*
X6357086Y-13867650D01*
X6357086Y-13886698D02*
X6366610Y-13877174D01*
X6366610Y-13877174D02*
X6385658Y-13867650D01*
X6385658Y-13867650D02*
X6414229Y-13867650D01*
X6414229Y-13867650D02*
X6433277Y-13877174D01*
X6433277Y-13877174D02*
X6442801Y-13896222D01*
X6442801Y-13896222D02*
X6442801Y-14000984D01*
X6442801Y-13896222D02*
X6452324Y-13877174D01*
X6452324Y-13877174D02*
X6471372Y-13867650D01*
X6471372Y-13867650D02*
X6499943Y-13867650D01*
X6499943Y-13867650D02*
X6518991Y-13877174D01*
X6518991Y-13877174D02*
X6528515Y-13896222D01*
X6528515Y-13896222D02*
X6528515Y-14000984D01*
X6918991Y-13791460D02*
X6747563Y-14048603D01*
X7176134Y-13800984D02*
X7195182Y-13800984D01*
X7195182Y-13800984D02*
X7214229Y-13810508D01*
X7214229Y-13810508D02*
X7223753Y-13820031D01*
X7223753Y-13820031D02*
X7233277Y-13839079D01*
X7233277Y-13839079D02*
X7242801Y-13877174D01*
X7242801Y-13877174D02*
X7242801Y-13924793D01*
X7242801Y-13924793D02*
X7233277Y-13962888D01*
X7233277Y-13962888D02*
X7223753Y-13981936D01*
X7223753Y-13981936D02*
X7214229Y-13991460D01*
X7214229Y-13991460D02*
X7195182Y-14000984D01*
X7195182Y-14000984D02*
X7176134Y-14000984D01*
X7176134Y-14000984D02*
X7157086Y-13991460D01*
X7157086Y-13991460D02*
X7147563Y-13981936D01*
X7147563Y-13981936D02*
X7138039Y-13962888D01*
X7138039Y-13962888D02*
X7128515Y-13924793D01*
X7128515Y-13924793D02*
X7128515Y-13877174D01*
X7128515Y-13877174D02*
X7138039Y-13839079D01*
X7138039Y-13839079D02*
X7147563Y-13820031D01*
X7147563Y-13820031D02*
X7157086Y-13810508D01*
X7157086Y-13810508D02*
X7176134Y-13800984D01*
X7328515Y-13981936D02*
X7338039Y-13991460D01*
X7338039Y-13991460D02*
X7328515Y-14000984D01*
X7328515Y-14000984D02*
X7318991Y-13991460D01*
X7318991Y-13991460D02*
X7328515Y-13981936D01*
X7328515Y-13981936D02*
X7328515Y-14000984D01*
X7461848Y-13800984D02*
X7480896Y-13800984D01*
X7480896Y-13800984D02*
X7499944Y-13810508D01*
X7499944Y-13810508D02*
X7509467Y-13820031D01*
X7509467Y-13820031D02*
X7518991Y-13839079D01*
X7518991Y-13839079D02*
X7528515Y-13877174D01*
X7528515Y-13877174D02*
X7528515Y-13924793D01*
X7528515Y-13924793D02*
X7518991Y-13962888D01*
X7518991Y-13962888D02*
X7509467Y-13981936D01*
X7509467Y-13981936D02*
X7499944Y-13991460D01*
X7499944Y-13991460D02*
X7480896Y-14000984D01*
X7480896Y-14000984D02*
X7461848Y-14000984D01*
X7461848Y-14000984D02*
X7442801Y-13991460D01*
X7442801Y-13991460D02*
X7433277Y-13981936D01*
X7433277Y-13981936D02*
X7423753Y-13962888D01*
X7423753Y-13962888D02*
X7414229Y-13924793D01*
X7414229Y-13924793D02*
X7414229Y-13877174D01*
X7414229Y-13877174D02*
X7423753Y-13839079D01*
X7423753Y-13839079D02*
X7433277Y-13820031D01*
X7433277Y-13820031D02*
X7442801Y-13810508D01*
X7442801Y-13810508D02*
X7461848Y-13800984D01*
X7595182Y-13800984D02*
X7718991Y-13800984D01*
X7718991Y-13800984D02*
X7652325Y-13877174D01*
X7652325Y-13877174D02*
X7680896Y-13877174D01*
X7680896Y-13877174D02*
X7699944Y-13886698D01*
X7699944Y-13886698D02*
X7709467Y-13896222D01*
X7709467Y-13896222D02*
X7718991Y-13915269D01*
X7718991Y-13915269D02*
X7718991Y-13962888D01*
X7718991Y-13962888D02*
X7709467Y-13981936D01*
X7709467Y-13981936D02*
X7699944Y-13991460D01*
X7699944Y-13991460D02*
X7680896Y-14000984D01*
X7680896Y-14000984D02*
X7623753Y-14000984D01*
X7623753Y-14000984D02*
X7604706Y-13991460D01*
X7604706Y-13991460D02*
X7595182Y-13981936D01*
X7814229Y-14000984D02*
X7852325Y-14000984D01*
X7852325Y-14000984D02*
X7871372Y-13991460D01*
X7871372Y-13991460D02*
X7880896Y-13981936D01*
X7880896Y-13981936D02*
X7899944Y-13953365D01*
X7899944Y-13953365D02*
X7909467Y-13915269D01*
X7909467Y-13915269D02*
X7909467Y-13839079D01*
X7909467Y-13839079D02*
X7899944Y-13820031D01*
X7899944Y-13820031D02*
X7890420Y-13810508D01*
X7890420Y-13810508D02*
X7871372Y-13800984D01*
X7871372Y-13800984D02*
X7833277Y-13800984D01*
X7833277Y-13800984D02*
X7814229Y-13810508D01*
X7814229Y-13810508D02*
X7804706Y-13820031D01*
X7804706Y-13820031D02*
X7795182Y-13839079D01*
X7795182Y-13839079D02*
X7795182Y-13886698D01*
X7795182Y-13886698D02*
X7804706Y-13905746D01*
X7804706Y-13905746D02*
X7814229Y-13915269D01*
X7814229Y-13915269D02*
X7833277Y-13924793D01*
X7833277Y-13924793D02*
X7871372Y-13924793D01*
X7871372Y-13924793D02*
X7890420Y-13915269D01*
X7890420Y-13915269D02*
X7899944Y-13905746D01*
X7899944Y-13905746D02*
X7909467Y-13886698D01*
X8080896Y-13867650D02*
X8080896Y-14000984D01*
X8033277Y-13791460D02*
X7985658Y-13934317D01*
X7985658Y-13934317D02*
X8109467Y-13934317D01*
X8176134Y-13800984D02*
X8176134Y-13839079D01*
X8252325Y-13800984D02*
X8252325Y-13839079D01*
X8547563Y-14077174D02*
X8538039Y-14067650D01*
X8538039Y-14067650D02*
X8518991Y-14039079D01*
X8518991Y-14039079D02*
X8509468Y-14020031D01*
X8509468Y-14020031D02*
X8499944Y-13991460D01*
X8499944Y-13991460D02*
X8490420Y-13943841D01*
X8490420Y-13943841D02*
X8490420Y-13905746D01*
X8490420Y-13905746D02*
X8499944Y-13858127D01*
X8499944Y-13858127D02*
X8509468Y-13829555D01*
X8509468Y-13829555D02*
X8518991Y-13810508D01*
X8518991Y-13810508D02*
X8538039Y-13781936D01*
X8538039Y-13781936D02*
X8547563Y-13772412D01*
X8614230Y-13820031D02*
X8623753Y-13810508D01*
X8623753Y-13810508D02*
X8642801Y-13800984D01*
X8642801Y-13800984D02*
X8690420Y-13800984D01*
X8690420Y-13800984D02*
X8709468Y-13810508D01*
X8709468Y-13810508D02*
X8718991Y-13820031D01*
X8718991Y-13820031D02*
X8728515Y-13839079D01*
X8728515Y-13839079D02*
X8728515Y-13858127D01*
X8728515Y-13858127D02*
X8718991Y-13886698D01*
X8718991Y-13886698D02*
X8604706Y-14000984D01*
X8604706Y-14000984D02*
X8728515Y-14000984D01*
X8795182Y-13800984D02*
X8918991Y-13800984D01*
X8918991Y-13800984D02*
X8852325Y-13877174D01*
X8852325Y-13877174D02*
X8880896Y-13877174D01*
X8880896Y-13877174D02*
X8899944Y-13886698D01*
X8899944Y-13886698D02*
X8909468Y-13896222D01*
X8909468Y-13896222D02*
X8918991Y-13915269D01*
X8918991Y-13915269D02*
X8918991Y-13962888D01*
X8918991Y-13962888D02*
X8909468Y-13981936D01*
X8909468Y-13981936D02*
X8899944Y-13991460D01*
X8899944Y-13991460D02*
X8880896Y-14000984D01*
X8880896Y-14000984D02*
X8823753Y-14000984D01*
X8823753Y-14000984D02*
X8804706Y-13991460D01*
X8804706Y-13991460D02*
X8795182Y-13981936D01*
X9157087Y-14000984D02*
X9157087Y-13800984D01*
X9242801Y-14000984D02*
X9242801Y-13896222D01*
X9242801Y-13896222D02*
X9233277Y-13877174D01*
X9233277Y-13877174D02*
X9214230Y-13867650D01*
X9214230Y-13867650D02*
X9185658Y-13867650D01*
X9185658Y-13867650D02*
X9166611Y-13877174D01*
X9166611Y-13877174D02*
X9157087Y-13886698D01*
X9366611Y-14000984D02*
X9347563Y-13991460D01*
X9347563Y-13991460D02*
X9338039Y-13981936D01*
X9338039Y-13981936D02*
X9328515Y-13962888D01*
X9328515Y-13962888D02*
X9328515Y-13905746D01*
X9328515Y-13905746D02*
X9338039Y-13886698D01*
X9338039Y-13886698D02*
X9347563Y-13877174D01*
X9347563Y-13877174D02*
X9366611Y-13867650D01*
X9366611Y-13867650D02*
X9395182Y-13867650D01*
X9395182Y-13867650D02*
X9414230Y-13877174D01*
X9414230Y-13877174D02*
X9423753Y-13886698D01*
X9423753Y-13886698D02*
X9433277Y-13905746D01*
X9433277Y-13905746D02*
X9433277Y-13962888D01*
X9433277Y-13962888D02*
X9423753Y-13981936D01*
X9423753Y-13981936D02*
X9414230Y-13991460D01*
X9414230Y-13991460D02*
X9395182Y-14000984D01*
X9395182Y-14000984D02*
X9366611Y-14000984D01*
X9547563Y-14000984D02*
X9528515Y-13991460D01*
X9528515Y-13991460D02*
X9518992Y-13972412D01*
X9518992Y-13972412D02*
X9518992Y-13800984D01*
X9699944Y-13991460D02*
X9680896Y-14000984D01*
X9680896Y-14000984D02*
X9642801Y-14000984D01*
X9642801Y-14000984D02*
X9623753Y-13991460D01*
X9623753Y-13991460D02*
X9614230Y-13972412D01*
X9614230Y-13972412D02*
X9614230Y-13896222D01*
X9614230Y-13896222D02*
X9623753Y-13877174D01*
X9623753Y-13877174D02*
X9642801Y-13867650D01*
X9642801Y-13867650D02*
X9680896Y-13867650D01*
X9680896Y-13867650D02*
X9699944Y-13877174D01*
X9699944Y-13877174D02*
X9709468Y-13896222D01*
X9709468Y-13896222D02*
X9709468Y-13915269D01*
X9709468Y-13915269D02*
X9614230Y-13934317D01*
X9785658Y-13991460D02*
X9804706Y-14000984D01*
X9804706Y-14000984D02*
X9842801Y-14000984D01*
X9842801Y-14000984D02*
X9861849Y-13991460D01*
X9861849Y-13991460D02*
X9871373Y-13972412D01*
X9871373Y-13972412D02*
X9871373Y-13962888D01*
X9871373Y-13962888D02*
X9861849Y-13943841D01*
X9861849Y-13943841D02*
X9842801Y-13934317D01*
X9842801Y-13934317D02*
X9814230Y-13934317D01*
X9814230Y-13934317D02*
X9795182Y-13924793D01*
X9795182Y-13924793D02*
X9785658Y-13905746D01*
X9785658Y-13905746D02*
X9785658Y-13896222D01*
X9785658Y-13896222D02*
X9795182Y-13877174D01*
X9795182Y-13877174D02*
X9814230Y-13867650D01*
X9814230Y-13867650D02*
X9842801Y-13867650D01*
X9842801Y-13867650D02*
X9861849Y-13877174D01*
X9938039Y-14077174D02*
X9947563Y-14067650D01*
X9947563Y-14067650D02*
X9966611Y-14039079D01*
X9966611Y-14039079D02*
X9976134Y-14020031D01*
X9976134Y-14020031D02*
X9985658Y-13991460D01*
X9985658Y-13991460D02*
X9995182Y-13943841D01*
X9995182Y-13943841D02*
X9995182Y-13905746D01*
X9995182Y-13905746D02*
X9985658Y-13858127D01*
X9985658Y-13858127D02*
X9976134Y-13829555D01*
X9976134Y-13829555D02*
X9966611Y-13810508D01*
X9966611Y-13810508D02*
X9947563Y-13781936D01*
X9947563Y-13781936D02*
X9938039Y-13772412D01*
M02*
