G04 #@! TF.GenerationSoftware,KiCad,Pcbnew,8.0.4*
G04 #@! TF.CreationDate,2024-09-04T02:40:27-04:00*
G04 #@! TF.ProjectId,phone_pcb,70686f6e-655f-4706-9362-2e6b69636164,rev?*
G04 #@! TF.SameCoordinates,Original*
G04 #@! TF.FileFunction,Copper,L1,Top*
G04 #@! TF.FilePolarity,Positive*
%FSLAX46Y46*%
G04 Gerber Fmt 4.6, Leading zero omitted, Abs format (unit mm)*
G04 Created by KiCad (PCBNEW 8.0.4) date 2024-09-04 02:40:27*
%MOMM*%
%LPD*%
G01*
G04 APERTURE LIST*
G04 Aperture macros list*
%AMRoundRect*
0 Rectangle with rounded corners*
0 $1 Rounding radius*
0 $2 $3 $4 $5 $6 $7 $8 $9 X,Y pos of 4 corners*
0 Add a 4 corners polygon primitive as box body*
4,1,4,$2,$3,$4,$5,$6,$7,$8,$9,$2,$3,0*
0 Add four circle primitives for the rounded corners*
1,1,$1+$1,$2,$3*
1,1,$1+$1,$4,$5*
1,1,$1+$1,$6,$7*
1,1,$1+$1,$8,$9*
0 Add four rect primitives between the rounded corners*
20,1,$1+$1,$2,$3,$4,$5,0*
20,1,$1+$1,$4,$5,$6,$7,0*
20,1,$1+$1,$6,$7,$8,$9,0*
20,1,$1+$1,$8,$9,$2,$3,0*%
G04 Aperture macros list end*
G04 #@! TA.AperFunction,ComponentPad*
%ADD10RoundRect,0.250000X0.510000X0.510000X-0.510000X0.510000X-0.510000X-0.510000X0.510000X-0.510000X0*%
G04 #@! TD*
G04 #@! TA.AperFunction,ComponentPad*
%ADD11C,1.520000*%
G04 #@! TD*
G04 #@! TA.AperFunction,ComponentPad*
%ADD12C,2.000000*%
G04 #@! TD*
G04 #@! TA.AperFunction,SMDPad,CuDef*
%ADD13R,2.000000X1.020000*%
G04 #@! TD*
G04 #@! TA.AperFunction,SMDPad,CuDef*
%ADD14RoundRect,0.250001X0.799999X-1.999999X0.799999X1.999999X-0.799999X1.999999X-0.799999X-1.999999X0*%
G04 #@! TD*
G04 #@! TA.AperFunction,ComponentPad*
%ADD15R,1.700000X1.700000*%
G04 #@! TD*
G04 #@! TA.AperFunction,ComponentPad*
%ADD16O,1.700000X1.700000*%
G04 #@! TD*
G04 #@! TA.AperFunction,SMDPad,CuDef*
%ADD17RoundRect,0.135000X0.135000X0.185000X-0.135000X0.185000X-0.135000X-0.185000X0.135000X-0.185000X0*%
G04 #@! TD*
G04 #@! TA.AperFunction,SMDPad,CuDef*
%ADD18RoundRect,0.250000X-0.425000X0.450000X-0.425000X-0.450000X0.425000X-0.450000X0.425000X0.450000X0*%
G04 #@! TD*
G04 #@! TA.AperFunction,SMDPad,CuDef*
%ADD19RoundRect,0.125000X0.125000X-0.825000X0.125000X0.825000X-0.125000X0.825000X-0.125000X-0.825000X0*%
G04 #@! TD*
G04 #@! TA.AperFunction,SMDPad,CuDef*
%ADD20RoundRect,0.140000X0.170000X-0.140000X0.170000X0.140000X-0.170000X0.140000X-0.170000X-0.140000X0*%
G04 #@! TD*
G04 #@! TA.AperFunction,SMDPad,CuDef*
%ADD21RoundRect,0.140000X-0.140000X-0.170000X0.140000X-0.170000X0.140000X0.170000X-0.140000X0.170000X0*%
G04 #@! TD*
G04 #@! TA.AperFunction,SMDPad,CuDef*
%ADD22RoundRect,0.250000X-0.262500X-0.450000X0.262500X-0.450000X0.262500X0.450000X-0.262500X0.450000X0*%
G04 #@! TD*
G04 #@! TA.AperFunction,SMDPad,CuDef*
%ADD23RoundRect,0.140000X0.140000X0.170000X-0.140000X0.170000X-0.140000X-0.170000X0.140000X-0.170000X0*%
G04 #@! TD*
G04 #@! TA.AperFunction,SMDPad,CuDef*
%ADD24RoundRect,0.250000X-0.450000X-0.425000X0.450000X-0.425000X0.450000X0.425000X-0.450000X0.425000X0*%
G04 #@! TD*
G04 #@! TA.AperFunction,SMDPad,CuDef*
%ADD25R,1.100000X1.300000*%
G04 #@! TD*
G04 #@! TA.AperFunction,SMDPad,CuDef*
%ADD26RoundRect,0.140000X-0.170000X0.140000X-0.170000X-0.140000X0.170000X-0.140000X0.170000X0.140000X0*%
G04 #@! TD*
G04 #@! TA.AperFunction,ViaPad*
%ADD27C,0.600000*%
G04 #@! TD*
G04 #@! TA.AperFunction,ViaPad*
%ADD28C,0.800000*%
G04 #@! TD*
G04 #@! TA.AperFunction,Conductor*
%ADD29C,0.200000*%
G04 #@! TD*
G04 #@! TA.AperFunction,Conductor*
%ADD30C,0.400000*%
G04 #@! TD*
G04 APERTURE END LIST*
D10*
X69730000Y-62090000D03*
D11*
X70750000Y-59550000D03*
D12*
X53750000Y-97000000D03*
D13*
X86569598Y-115970278D03*
X80969598Y-115970278D03*
X86569598Y-113430278D03*
X80969598Y-113430278D03*
X86569598Y-110890278D03*
X80969598Y-110890278D03*
X86569598Y-108350278D03*
X80969598Y-108350278D03*
X86569598Y-105810278D03*
X80969598Y-105810278D03*
X86569598Y-103270278D03*
X80969598Y-103270278D03*
X86569598Y-100730278D03*
X80969598Y-100730278D03*
X86569598Y-98190278D03*
X80969598Y-98190278D03*
X86569598Y-95650278D03*
X80969598Y-95650278D03*
X86569598Y-93110278D03*
X80969598Y-93110278D03*
X86569598Y-90570278D03*
X80969598Y-90570278D03*
X86569598Y-88030278D03*
X80969598Y-88030278D03*
X86569598Y-85490278D03*
X80969598Y-85490278D03*
X86569598Y-82950278D03*
X80969598Y-82950278D03*
X86569598Y-80410278D03*
X80969598Y-80410278D03*
X86569598Y-77870278D03*
X80969598Y-77870278D03*
X86569598Y-75330278D03*
X80969598Y-75330278D03*
X86569598Y-72790278D03*
X80969598Y-72790278D03*
X86569598Y-70250278D03*
X80969598Y-70250278D03*
X86569598Y-67710278D03*
X80969598Y-67710278D03*
D14*
X83250000Y-54650000D03*
X83250000Y-61850000D03*
D15*
X57750000Y-63010000D03*
D16*
X57750000Y-65550000D03*
X57750000Y-68090000D03*
X57750000Y-70630000D03*
X57750000Y-73170000D03*
X57750000Y-75710000D03*
X57750000Y-78250000D03*
X57750000Y-90950000D03*
X57750000Y-93490000D03*
X57750000Y-96030000D03*
X57750000Y-98570000D03*
X57750000Y-101110000D03*
X57750000Y-103650000D03*
X57750000Y-106190000D03*
D12*
X53750000Y-86250000D03*
D17*
X73990000Y-100579688D03*
X75010000Y-100579688D03*
D18*
X78000000Y-103823689D03*
X78000000Y-101123689D03*
D19*
X69825000Y-97750000D03*
X70475000Y-97750000D03*
X71125000Y-97750000D03*
X71775000Y-97750000D03*
X72425000Y-97750000D03*
X73075000Y-97750000D03*
X73725000Y-97750000D03*
X74375000Y-97750000D03*
X75025000Y-97750000D03*
X75675000Y-97750000D03*
X75675000Y-90750000D03*
X75025000Y-90750000D03*
X74375000Y-90750000D03*
X73725000Y-90750000D03*
X73075000Y-90750000D03*
X72425000Y-90750000D03*
X71775000Y-90750000D03*
X71125000Y-90750000D03*
X70475000Y-90750000D03*
X69825000Y-90750000D03*
D20*
X70647548Y-100618550D03*
X70647548Y-101578550D03*
D12*
X53750000Y-74250000D03*
D21*
X67290000Y-98750000D03*
X68250000Y-98750000D03*
D20*
X68456477Y-101410143D03*
X68456477Y-100450143D03*
D12*
X65750000Y-120750000D03*
X77750000Y-120750000D03*
D22*
X56837500Y-60162500D03*
X58662500Y-60162500D03*
D23*
X74380000Y-88050000D03*
X73420000Y-88050000D03*
D24*
X71900000Y-86250000D03*
X74600000Y-86250000D03*
D21*
X67290000Y-96250000D03*
X68250000Y-96250000D03*
D18*
X66750000Y-100900000D03*
X66750000Y-103600000D03*
D12*
X73750000Y-120750000D03*
X53750000Y-68250000D03*
D25*
X67400000Y-85650000D03*
X67400000Y-87750000D03*
X69050000Y-87750000D03*
X69050000Y-85650000D03*
D12*
X69750000Y-120750000D03*
D23*
X61210000Y-93750000D03*
X60250000Y-93750000D03*
D12*
X53750000Y-80250000D03*
D20*
X76250000Y-100556371D03*
X76250000Y-101516371D03*
D26*
X60250000Y-102770000D03*
X60250000Y-103730000D03*
D18*
X72250000Y-100965189D03*
X72250000Y-103665189D03*
D27*
X77500000Y-91750000D03*
X80000000Y-118000000D03*
X84000000Y-109750000D03*
D28*
X64250000Y-94750000D03*
X61500000Y-103750000D03*
D27*
X62750000Y-95000000D03*
X66250000Y-96250000D03*
X66250000Y-98250000D03*
D28*
X77750000Y-99250000D03*
D27*
X77894660Y-89605340D03*
D28*
X71250000Y-89200000D03*
X73420000Y-88920000D03*
X76750000Y-77750000D03*
X79250000Y-75250000D03*
D27*
X62750000Y-97250000D03*
X79000000Y-113250000D03*
D28*
X86500000Y-69000000D03*
D29*
X86569598Y-113430278D02*
X87869598Y-112130278D01*
X81985822Y-96460278D02*
X79710278Y-96460278D01*
X84683374Y-106670278D02*
X84179598Y-106166502D01*
X84179598Y-105600816D02*
X83359598Y-104780816D01*
X84179598Y-106166502D02*
X84179598Y-105600816D01*
X83359598Y-97834054D02*
X81985822Y-96460278D01*
X75025000Y-91775000D02*
X75025000Y-90750000D01*
X87869598Y-112130278D02*
X87869598Y-106670278D01*
X87869598Y-106670278D02*
X84683374Y-106670278D01*
X83359598Y-104780816D02*
X83359598Y-97834054D01*
X79710278Y-96460278D02*
X75025000Y-91775000D01*
X70750000Y-100597210D02*
X71775000Y-99572210D01*
X71775000Y-99572210D02*
X71775000Y-97750000D01*
X71117979Y-100965189D02*
X70750000Y-100597210D01*
X72250000Y-100965189D02*
X71117979Y-100965189D01*
X72250000Y-100965189D02*
X72250000Y-100680378D01*
X71820852Y-97795852D02*
X71775000Y-97750000D01*
X72250000Y-100680378D02*
X72350690Y-100579688D01*
X72350690Y-100579688D02*
X73990000Y-100579688D01*
X72250000Y-100965189D02*
X71820852Y-100536041D01*
D30*
X71125000Y-90750000D02*
X71125000Y-91795926D01*
X72120926Y-92100000D02*
X72425000Y-91795926D01*
X71125000Y-91795926D02*
X71429074Y-92100000D01*
X71429074Y-92100000D02*
X72120926Y-92100000D01*
X72425000Y-91795926D02*
X72425000Y-90750000D01*
X71125000Y-91795926D02*
X70820926Y-92100000D01*
X70820926Y-92100000D02*
X70129074Y-92100000D01*
X70129074Y-92100000D02*
X69825000Y-91795926D01*
X69825000Y-91795926D02*
X69825000Y-90750000D01*
X74375000Y-95875000D02*
X74250000Y-95750000D01*
X74375000Y-97750000D02*
X74375000Y-95875000D01*
X73075000Y-95825000D02*
X73000000Y-95750000D01*
X73075000Y-97750000D02*
X73075000Y-95825000D01*
X70760000Y-59550000D02*
X59688666Y-59550000D01*
X57937500Y-59062500D02*
X56837500Y-60162500D01*
X59688666Y-59550000D02*
X59201166Y-59062500D01*
X59201166Y-59062500D02*
X57937500Y-59062500D01*
D29*
X77500000Y-91750000D02*
X76675000Y-91750000D01*
X76675000Y-91750000D02*
X75675000Y-90750000D01*
X82855822Y-92250278D02*
X84179598Y-93574054D01*
X84179598Y-103929598D02*
X85200000Y-104950000D01*
X85200000Y-104950000D02*
X85710000Y-104950000D01*
X77894660Y-89605340D02*
X80539598Y-92250278D01*
X80539598Y-92250278D02*
X82855822Y-92250278D01*
X85710000Y-104950000D02*
X86570000Y-105810000D01*
X84179598Y-93574054D02*
X84179598Y-103929598D01*
D30*
X64250000Y-86500000D02*
X64250000Y-94750000D01*
X68150000Y-82600000D02*
X64250000Y-86500000D01*
X71900000Y-82600000D02*
X68150000Y-82600000D01*
X61500000Y-103750000D02*
X60270000Y-103750000D01*
X60270000Y-103750000D02*
X60250000Y-103730000D01*
D29*
X77750000Y-112000000D02*
X80970000Y-108780000D01*
X80970000Y-108780000D02*
X80970000Y-108350000D01*
X80970000Y-108350000D02*
X68100000Y-108350000D01*
X68100000Y-108350000D02*
X62750000Y-103000000D01*
X77750000Y-120750000D02*
X77750000Y-112000000D01*
X62750000Y-103000000D02*
X62750000Y-97250000D01*
X62750000Y-95000000D02*
X61500000Y-93750000D01*
X61500000Y-93750000D02*
X61210000Y-93750000D01*
X62490000Y-96030000D02*
X66030000Y-96030000D01*
X66030000Y-96030000D02*
X66250000Y-96250000D01*
X66250000Y-96250000D02*
X67290000Y-96250000D01*
X68250000Y-98750000D02*
X68500000Y-99000000D01*
X68500000Y-99000000D02*
X70174999Y-99000000D01*
X70174999Y-99000000D02*
X70475000Y-98699999D01*
X70475000Y-98699999D02*
X70475000Y-97750000D01*
X68250000Y-96250000D02*
X68325000Y-96250000D01*
X68325000Y-96250000D02*
X69825000Y-97750000D01*
X67290000Y-98750000D02*
X66750000Y-98750000D01*
X66750000Y-98750000D02*
X66250000Y-98250000D01*
X66750000Y-100900000D02*
X68006620Y-100900000D01*
X68006620Y-100900000D02*
X68456477Y-100450143D01*
X68456477Y-100450143D02*
X69374856Y-100450143D01*
X71125000Y-98699999D02*
X71125000Y-97750000D01*
X69374856Y-100450143D02*
X71125000Y-98699999D01*
D30*
X73725000Y-97750000D02*
X73725000Y-98795926D01*
X73420926Y-99100000D02*
X72729074Y-99100000D01*
X73725000Y-98795926D02*
X73420926Y-99100000D01*
X72729074Y-99100000D02*
X72425000Y-98795926D01*
X72425000Y-98795926D02*
X72425000Y-97750000D01*
X75010000Y-100579688D02*
X75010000Y-100080926D01*
X75010000Y-100080926D02*
X73725000Y-98795926D01*
X76250000Y-100556371D02*
X75033317Y-100556371D01*
X75033317Y-100556371D02*
X75010000Y-100579688D01*
X77750000Y-99250000D02*
X77556371Y-99250000D01*
X77556371Y-99250000D02*
X76250000Y-100556371D01*
X77750000Y-100873689D02*
X78000000Y-101123689D01*
X77750000Y-99250000D02*
X77750000Y-100873689D01*
D29*
X86570000Y-80410000D02*
X86363776Y-80410000D01*
X86363776Y-80410000D02*
X83500000Y-83273776D01*
X83500000Y-83273776D02*
X83500000Y-85706224D01*
X77430000Y-86570000D02*
X75675000Y-88325000D01*
X75675000Y-88325000D02*
X75675000Y-90750000D01*
X83500000Y-85706224D02*
X82636224Y-86570000D01*
X82636224Y-86570000D02*
X77430000Y-86570000D01*
X79000000Y-113250000D02*
X79000000Y-112860000D01*
X82360000Y-109500000D02*
X82566100Y-109500000D01*
X78750000Y-97750000D02*
X75675000Y-97750000D01*
X82566100Y-109500000D02*
X83750000Y-108316100D01*
X83750000Y-108316100D02*
X83750000Y-105736904D01*
X79000000Y-112860000D02*
X82360000Y-109500000D01*
X83750000Y-105736904D02*
X82093374Y-104080278D01*
X82093374Y-104080278D02*
X79669598Y-104080278D01*
X79669598Y-104080278D02*
X79669598Y-98669598D01*
X79669598Y-98669598D02*
X78750000Y-97750000D01*
D30*
X71250000Y-89200000D02*
X70979074Y-89200000D01*
X70979074Y-89200000D02*
X70475000Y-89704074D01*
X70475000Y-89704074D02*
X70475000Y-90750000D01*
X71250000Y-89200000D02*
X71270926Y-89200000D01*
X71270926Y-89200000D02*
X71775000Y-89704074D01*
X71775000Y-89704074D02*
X71775000Y-90750000D01*
D29*
X69050000Y-87750000D02*
X71024999Y-87750000D01*
X71024999Y-87750000D02*
X73075000Y-89800001D01*
X73075000Y-89800001D02*
X73075000Y-90750000D01*
D30*
X73420000Y-88050000D02*
X73420000Y-88920000D01*
X73420000Y-88920000D02*
X73725000Y-89225000D01*
X73725000Y-89225000D02*
X73725000Y-90750000D01*
X71900000Y-86250000D02*
X69650000Y-86250000D01*
X69650000Y-86250000D02*
X69050000Y-85650000D01*
X71900000Y-86250000D02*
X71900000Y-86530000D01*
X71900000Y-86530000D02*
X73420000Y-88050000D01*
X79570000Y-69110000D02*
X79570000Y-74930000D01*
X76750000Y-77750000D02*
X71900000Y-82600000D01*
X79570000Y-74930000D02*
X79250000Y-75250000D01*
X71900000Y-82600000D02*
X71900000Y-86250000D01*
D29*
X85250000Y-114750000D02*
X84936224Y-114750000D01*
X80236224Y-120102254D02*
X78288478Y-122050000D01*
X71050000Y-122050000D02*
X69750000Y-120750000D01*
X84936224Y-114750000D02*
X80236224Y-119450000D01*
X78288478Y-122050000D02*
X71050000Y-122050000D01*
X80236224Y-119450000D02*
X80236224Y-120102254D01*
D30*
X83250000Y-61850000D02*
X83250000Y-65430000D01*
X83250000Y-65430000D02*
X79570000Y-69110000D01*
X58662500Y-60162500D02*
X58662500Y-62097500D01*
X58662500Y-62097500D02*
X57750000Y-63010000D01*
X69740000Y-62090000D02*
X60590000Y-62090000D01*
X60590000Y-62090000D02*
X58662500Y-60162500D01*
X56837500Y-60162500D02*
X56837500Y-61162500D01*
X56250000Y-61750000D02*
X56250000Y-64050000D01*
X56837500Y-61162500D02*
X56250000Y-61750000D01*
X56250000Y-64050000D02*
X57750000Y-65550000D01*
X60250000Y-103730000D02*
X57830000Y-103730000D01*
X57830000Y-103730000D02*
X57750000Y-103650000D01*
D29*
X57750000Y-73170000D02*
X61580000Y-77000000D01*
X61580000Y-77000000D02*
X85700000Y-77000000D01*
X85700000Y-77000000D02*
X86570000Y-77870000D01*
X86570000Y-75330000D02*
X85520000Y-76380000D01*
X85520000Y-76380000D02*
X63500000Y-76380000D01*
X63500000Y-76380000D02*
X57750000Y-70630000D01*
X62490000Y-96030000D02*
X57750000Y-96030000D01*
X60270000Y-93750000D02*
X58010000Y-93750000D01*
X58010000Y-93750000D02*
X57750000Y-93490000D01*
X57750000Y-96030000D02*
X53750000Y-92030000D01*
X53750000Y-92030000D02*
X53750000Y-86250000D01*
X57750000Y-73170000D02*
X53750000Y-77170000D01*
X53750000Y-77170000D02*
X53750000Y-80250000D01*
X53750000Y-74250000D02*
X57370000Y-70630000D01*
X57370000Y-70630000D02*
X57750000Y-70630000D01*
X57750000Y-68090000D02*
X53910000Y-68090000D01*
X53910000Y-68090000D02*
X53750000Y-68250000D01*
D30*
X58077500Y-63337500D02*
X57750000Y-63010000D01*
D29*
X85250000Y-114750000D02*
X86570000Y-113430000D01*
D30*
X86500000Y-69000000D02*
X86500000Y-70180000D01*
X86500000Y-70180000D02*
X86570000Y-70250000D01*
X86500000Y-67780000D02*
X86570000Y-67710000D01*
X86500000Y-69000000D02*
X86500000Y-67780000D01*
G04 #@! TA.AperFunction,Conductor*
G36*
X79615043Y-110798091D02*
G01*
X79658308Y-110841356D01*
X79669098Y-110886301D01*
X79669098Y-111445138D01*
X79669099Y-111445141D01*
X79672012Y-111470268D01*
X79690971Y-111513204D01*
X79697179Y-111574073D01*
X79670410Y-111623196D01*
X78679517Y-112614090D01*
X78679516Y-112614091D01*
X78626793Y-112705411D01*
X78626792Y-112705415D01*
X78610514Y-112766162D01*
X78577190Y-112817476D01*
X78575160Y-112819077D01*
X78571720Y-112821716D01*
X78571713Y-112821723D01*
X78475462Y-112947160D01*
X78475462Y-112947161D01*
X78414957Y-113093233D01*
X78414955Y-113093241D01*
X78394318Y-113249999D01*
X78394318Y-113250000D01*
X78414955Y-113406758D01*
X78414957Y-113406766D01*
X78475462Y-113552838D01*
X78475462Y-113552839D01*
X78554687Y-113656087D01*
X78571718Y-113678282D01*
X78697159Y-113774536D01*
X78697160Y-113774536D01*
X78697161Y-113774537D01*
X78843233Y-113835042D01*
X78843238Y-113835044D01*
X78960809Y-113850522D01*
X78999999Y-113855682D01*
X79000000Y-113855682D01*
X79000001Y-113855682D01*
X79031352Y-113851554D01*
X79156762Y-113835044D01*
X79302841Y-113774536D01*
X79428282Y-113678282D01*
X79491559Y-113595816D01*
X79541979Y-113561164D01*
X79603144Y-113562765D01*
X79651686Y-113600012D01*
X79669098Y-113656087D01*
X79669098Y-113985138D01*
X79669099Y-113985141D01*
X79672012Y-114010268D01*
X79697354Y-114067663D01*
X79717392Y-114113043D01*
X79796833Y-114192484D01*
X79899607Y-114237863D01*
X79924733Y-114240778D01*
X82014462Y-114240777D01*
X82039589Y-114237863D01*
X82142363Y-114192484D01*
X82157118Y-114177728D01*
X82211633Y-114149950D01*
X82265005Y-114156266D01*
X82277768Y-114161553D01*
X82424695Y-114190778D01*
X82424696Y-114190778D01*
X82574500Y-114190778D01*
X82574501Y-114190778D01*
X82721428Y-114161553D01*
X82859830Y-114104225D01*
X82984389Y-114020997D01*
X83090317Y-113915069D01*
X83173545Y-113790510D01*
X83230873Y-113652108D01*
X83260098Y-113505181D01*
X83260098Y-113445847D01*
X83279005Y-113387656D01*
X83328505Y-113351692D01*
X83389689Y-113351692D01*
X83389691Y-113351692D01*
X83389691Y-113351693D01*
X83476771Y-113379987D01*
X83476768Y-113379987D01*
X83671178Y-113410778D01*
X83671181Y-113410778D01*
X83868018Y-113410778D01*
X84062425Y-113379987D01*
X84149505Y-113351693D01*
X84210690Y-113351692D01*
X84260190Y-113387656D01*
X84279098Y-113445847D01*
X84279098Y-113505183D01*
X84308323Y-113652107D01*
X84308323Y-113652109D01*
X84365649Y-113790507D01*
X84365649Y-113790508D01*
X84395406Y-113835042D01*
X84448879Y-113915069D01*
X84554807Y-114020997D01*
X84679366Y-114104225D01*
X84679367Y-114104225D01*
X84679368Y-114104226D01*
X84743893Y-114130953D01*
X84817768Y-114161553D01*
X84841634Y-114166300D01*
X84895019Y-114196196D01*
X84920636Y-114251760D01*
X84908700Y-114311770D01*
X84863771Y-114353304D01*
X84847946Y-114359024D01*
X84781636Y-114376792D01*
X84752688Y-114393506D01*
X84735974Y-114403156D01*
X84707024Y-114419870D01*
X84690310Y-114429520D01*
X84615743Y-114504086D01*
X84615744Y-114504087D01*
X84615742Y-114504089D01*
X83376794Y-115743035D01*
X83322277Y-115770812D01*
X83261845Y-115761241D01*
X83218580Y-115717976D01*
X83215333Y-115710931D01*
X83173546Y-115610048D01*
X83173546Y-115610047D01*
X83152809Y-115579013D01*
X83090317Y-115485487D01*
X82984389Y-115379559D01*
X82859830Y-115296331D01*
X82859829Y-115296330D01*
X82859827Y-115296329D01*
X82721428Y-115239003D01*
X82574503Y-115209778D01*
X82574501Y-115209778D01*
X82456210Y-115209778D01*
X82398019Y-115190871D01*
X82376957Y-115170107D01*
X82326790Y-115103093D01*
X82326782Y-115103085D01*
X82211688Y-115016925D01*
X82211686Y-115016924D01*
X82076979Y-114966681D01*
X82076968Y-114966679D01*
X82017422Y-114960278D01*
X81219599Y-114960278D01*
X81219598Y-114960279D01*
X81219598Y-116980277D01*
X81219599Y-116980278D01*
X81900543Y-116980278D01*
X81958734Y-116999185D01*
X81994698Y-117048685D01*
X81994698Y-117109871D01*
X81970547Y-117149282D01*
X79915741Y-119204090D01*
X79915740Y-119204091D01*
X79863017Y-119295411D01*
X79863016Y-119295411D01*
X79863017Y-119295412D01*
X79835724Y-119397273D01*
X79835724Y-119895352D01*
X79816817Y-119953543D01*
X79806728Y-119965356D01*
X79201926Y-120570157D01*
X79147409Y-120597934D01*
X79086977Y-120588363D01*
X79043712Y-120545098D01*
X79036295Y-120525776D01*
X79035635Y-120523315D01*
X79035635Y-120523308D01*
X78976739Y-120303504D01*
X78907481Y-120154981D01*
X78880573Y-120097276D01*
X78880571Y-120097272D01*
X78880568Y-120097266D01*
X78837061Y-120035131D01*
X78750053Y-119910869D01*
X78750052Y-119910867D01*
X78750049Y-119910864D01*
X78750047Y-119910861D01*
X78589139Y-119749953D01*
X78589135Y-119749950D01*
X78589132Y-119749947D01*
X78589130Y-119749946D01*
X78402737Y-119619434D01*
X78402728Y-119619428D01*
X78207660Y-119528466D01*
X78162912Y-119486738D01*
X78150500Y-119438742D01*
X78150500Y-116528102D01*
X79469597Y-116528102D01*
X79475999Y-116587648D01*
X79476001Y-116587659D01*
X79526244Y-116722366D01*
X79526245Y-116722368D01*
X79612405Y-116837462D01*
X79612413Y-116837470D01*
X79727507Y-116923630D01*
X79727509Y-116923631D01*
X79862216Y-116973874D01*
X79862227Y-116973876D01*
X79921774Y-116980278D01*
X80719597Y-116980278D01*
X80719598Y-116980277D01*
X80719598Y-116220279D01*
X80719597Y-116220278D01*
X79469599Y-116220278D01*
X79469598Y-116220279D01*
X79469598Y-116528102D01*
X79469597Y-116528102D01*
X78150500Y-116528102D01*
X78150500Y-115412453D01*
X79469598Y-115412453D01*
X79469598Y-115720277D01*
X79469599Y-115720278D01*
X80719597Y-115720278D01*
X80719598Y-115720277D01*
X80719598Y-114960279D01*
X80719597Y-114960278D01*
X79921774Y-114960278D01*
X79862227Y-114966679D01*
X79862216Y-114966681D01*
X79727509Y-115016924D01*
X79727507Y-115016925D01*
X79612413Y-115103085D01*
X79612405Y-115103093D01*
X79526245Y-115218187D01*
X79526244Y-115218189D01*
X79476001Y-115352896D01*
X79475999Y-115352907D01*
X79469598Y-115412453D01*
X78150500Y-115412453D01*
X78150500Y-112206900D01*
X78169407Y-112148709D01*
X78179496Y-112136896D01*
X78803188Y-111513204D01*
X79500096Y-110816295D01*
X79554611Y-110788520D01*
X79615043Y-110798091D01*
G37*
G04 #@! TD.AperFunction*
G04 #@! TA.AperFunction,Conductor*
G36*
X84319501Y-106872798D02*
G01*
X84437461Y-106990758D01*
X84437463Y-106990759D01*
X84437465Y-106990761D01*
X84528782Y-107043483D01*
X84528780Y-107043483D01*
X84528784Y-107043484D01*
X84528786Y-107043485D01*
X84630647Y-107070778D01*
X87370098Y-107070778D01*
X87428289Y-107089685D01*
X87464253Y-107139185D01*
X87469098Y-107169778D01*
X87469098Y-107241278D01*
X87450191Y-107299469D01*
X87400691Y-107335433D01*
X87370098Y-107340278D01*
X86819599Y-107340278D01*
X86819598Y-107340279D01*
X86819598Y-109360277D01*
X86819599Y-109360278D01*
X87370098Y-109360278D01*
X87428289Y-109379185D01*
X87464253Y-109428685D01*
X87469098Y-109459278D01*
X87469098Y-109980778D01*
X87450191Y-110038969D01*
X87400691Y-110074933D01*
X87370098Y-110079778D01*
X85524737Y-110079778D01*
X85524734Y-110079779D01*
X85499607Y-110082692D01*
X85396832Y-110128072D01*
X85382075Y-110142829D01*
X85327558Y-110170606D01*
X85274190Y-110164289D01*
X85261428Y-110159003D01*
X85261426Y-110159002D01*
X85114503Y-110129778D01*
X85114501Y-110129778D01*
X84964695Y-110129778D01*
X84964692Y-110129778D01*
X84817768Y-110159003D01*
X84817766Y-110159003D01*
X84679368Y-110216329D01*
X84679367Y-110216329D01*
X84554807Y-110299559D01*
X84554803Y-110299562D01*
X84448882Y-110405483D01*
X84448879Y-110405487D01*
X84365649Y-110530047D01*
X84365649Y-110530048D01*
X84308323Y-110668446D01*
X84308323Y-110668448D01*
X84279098Y-110815372D01*
X84279098Y-110874708D01*
X84260191Y-110932899D01*
X84210691Y-110968863D01*
X84149506Y-110968863D01*
X84062421Y-110940568D01*
X83868018Y-110909778D01*
X83868015Y-110909778D01*
X83671181Y-110909778D01*
X83671178Y-110909778D01*
X83476774Y-110940568D01*
X83389690Y-110968863D01*
X83328505Y-110968862D01*
X83279005Y-110932898D01*
X83260098Y-110874708D01*
X83260098Y-110815375D01*
X83260097Y-110815372D01*
X83254756Y-110788520D01*
X83230873Y-110668448D01*
X83173546Y-110530048D01*
X83173546Y-110530047D01*
X83152809Y-110499013D01*
X83090317Y-110405487D01*
X82984389Y-110299559D01*
X82859830Y-110216331D01*
X82859829Y-110216330D01*
X82859827Y-110216329D01*
X82721428Y-110159003D01*
X82574503Y-110129778D01*
X82574501Y-110129778D01*
X82535621Y-110129778D01*
X82477430Y-110110871D01*
X82441466Y-110061371D01*
X82441466Y-110000185D01*
X82465615Y-109960775D01*
X82496896Y-109929495D01*
X82551412Y-109901719D01*
X82566899Y-109900500D01*
X82618825Y-109900500D01*
X82618827Y-109900500D01*
X82720688Y-109873207D01*
X82720690Y-109873205D01*
X82720692Y-109873205D01*
X82812008Y-109820483D01*
X82812008Y-109820482D01*
X82812013Y-109820480D01*
X84070480Y-108562013D01*
X84114365Y-108486000D01*
X84159834Y-108445060D01*
X84220684Y-108438664D01*
X84273672Y-108469257D01*
X84297198Y-108516186D01*
X84308320Y-108572099D01*
X84308323Y-108572109D01*
X84365649Y-108710507D01*
X84365649Y-108710508D01*
X84392372Y-108750501D01*
X84448879Y-108835069D01*
X84554807Y-108940997D01*
X84679366Y-109024225D01*
X84679367Y-109024225D01*
X84679368Y-109024226D01*
X84710721Y-109037212D01*
X84817768Y-109081553D01*
X84964695Y-109110778D01*
X84964696Y-109110778D01*
X85082986Y-109110778D01*
X85141177Y-109129685D01*
X85162239Y-109150449D01*
X85212405Y-109217462D01*
X85212413Y-109217470D01*
X85327507Y-109303630D01*
X85327509Y-109303631D01*
X85462216Y-109353874D01*
X85462227Y-109353876D01*
X85521774Y-109360278D01*
X86319597Y-109360278D01*
X86319598Y-109360277D01*
X86319598Y-107340279D01*
X86319597Y-107340278D01*
X85521774Y-107340278D01*
X85462227Y-107346679D01*
X85462216Y-107346681D01*
X85327509Y-107396924D01*
X85327507Y-107396925D01*
X85212413Y-107483085D01*
X85212405Y-107483093D01*
X85162239Y-107550107D01*
X85112230Y-107585360D01*
X85082986Y-107589778D01*
X84964692Y-107589778D01*
X84817768Y-107619003D01*
X84817766Y-107619003D01*
X84679368Y-107676329D01*
X84679367Y-107676329D01*
X84554807Y-107759559D01*
X84554803Y-107759562D01*
X84448882Y-107865483D01*
X84448879Y-107865487D01*
X84365649Y-107990047D01*
X84365649Y-107990048D01*
X84340964Y-108049645D01*
X84301228Y-108096171D01*
X84241733Y-108110455D01*
X84185205Y-108087040D01*
X84153235Y-108034871D01*
X84150500Y-108011760D01*
X84150500Y-106942804D01*
X84169407Y-106884613D01*
X84218907Y-106848649D01*
X84280093Y-106848649D01*
X84319501Y-106872798D01*
G37*
G04 #@! TD.AperFunction*
G04 #@! TA.AperFunction,Conductor*
G36*
X88658691Y-50819407D02*
G01*
X88694655Y-50868907D01*
X88699500Y-50899500D01*
X88699500Y-123600500D01*
X88680593Y-123658691D01*
X88631093Y-123694655D01*
X88600500Y-123699500D01*
X50899500Y-123699500D01*
X50841309Y-123680593D01*
X50805345Y-123631093D01*
X50800500Y-123600500D01*
X50800500Y-120749996D01*
X64444532Y-120749996D01*
X64444532Y-120750003D01*
X64464363Y-120976684D01*
X64523262Y-121196500D01*
X64619426Y-121402723D01*
X64619434Y-121402737D01*
X64749946Y-121589130D01*
X64749947Y-121589132D01*
X64749950Y-121589135D01*
X64749953Y-121589139D01*
X64910861Y-121750047D01*
X64910864Y-121750049D01*
X64910867Y-121750052D01*
X64910869Y-121750053D01*
X65035131Y-121837061D01*
X65097266Y-121880568D01*
X65097272Y-121880571D01*
X65097276Y-121880573D01*
X65303500Y-121976737D01*
X65303504Y-121976739D01*
X65523308Y-122035635D01*
X65523312Y-122035635D01*
X65523315Y-122035636D01*
X65749997Y-122055468D01*
X65750000Y-122055468D01*
X65750003Y-122055468D01*
X65976684Y-122035636D01*
X65976685Y-122035635D01*
X65976692Y-122035635D01*
X66196496Y-121976739D01*
X66402734Y-121880568D01*
X66589139Y-121750047D01*
X66750047Y-121589139D01*
X66880568Y-121402734D01*
X66976739Y-121196496D01*
X67035635Y-120976692D01*
X67055468Y-120750000D01*
X67055468Y-120749996D01*
X67035636Y-120523315D01*
X67035635Y-120523312D01*
X67035635Y-120523308D01*
X66976739Y-120303504D01*
X66907481Y-120154981D01*
X66880573Y-120097276D01*
X66880571Y-120097272D01*
X66880568Y-120097266D01*
X66837061Y-120035131D01*
X66750053Y-119910869D01*
X66750052Y-119910867D01*
X66750049Y-119910864D01*
X66750047Y-119910861D01*
X66589139Y-119749953D01*
X66589135Y-119749950D01*
X66589132Y-119749947D01*
X66589130Y-119749946D01*
X66402737Y-119619434D01*
X66402736Y-119619433D01*
X66402734Y-119619432D01*
X66402731Y-119619430D01*
X66402723Y-119619426D01*
X66196499Y-119523262D01*
X66196500Y-119523262D01*
X66098238Y-119496933D01*
X65976692Y-119464365D01*
X65976691Y-119464364D01*
X65976684Y-119464363D01*
X65750003Y-119444532D01*
X65749997Y-119444532D01*
X65523315Y-119464363D01*
X65303499Y-119523262D01*
X65097276Y-119619426D01*
X65097262Y-119619434D01*
X64910869Y-119749946D01*
X64910867Y-119749947D01*
X64749947Y-119910867D01*
X64749946Y-119910869D01*
X64619434Y-120097262D01*
X64619426Y-120097276D01*
X64523262Y-120303499D01*
X64464363Y-120523315D01*
X64444532Y-120749996D01*
X50800500Y-120749996D01*
X50800500Y-106190000D01*
X56594571Y-106190000D01*
X56614244Y-106402310D01*
X56672595Y-106607389D01*
X56767634Y-106798255D01*
X56896128Y-106968407D01*
X56896135Y-106968413D01*
X57053692Y-107112047D01*
X57053699Y-107112053D01*
X57097519Y-107139185D01*
X57234981Y-107224298D01*
X57433802Y-107301321D01*
X57643390Y-107340500D01*
X57856610Y-107340500D01*
X58066198Y-107301321D01*
X58265019Y-107224298D01*
X58446302Y-107112052D01*
X58603872Y-106968407D01*
X58732366Y-106798255D01*
X58827405Y-106607389D01*
X58885756Y-106402310D01*
X58905429Y-106190000D01*
X58885756Y-105977690D01*
X58827405Y-105772611D01*
X58732366Y-105581745D01*
X58603872Y-105411593D01*
X58451152Y-105272369D01*
X58446307Y-105267952D01*
X58446300Y-105267946D01*
X58265024Y-105155705D01*
X58265019Y-105155702D01*
X58066198Y-105078679D01*
X58066197Y-105078678D01*
X58066195Y-105078678D01*
X57856610Y-105039500D01*
X57643390Y-105039500D01*
X57433804Y-105078678D01*
X57234980Y-105155702D01*
X57234975Y-105155705D01*
X57053699Y-105267946D01*
X57053692Y-105267952D01*
X56896135Y-105411586D01*
X56896131Y-105411589D01*
X56896128Y-105411593D01*
X56896125Y-105411597D01*
X56767635Y-105581743D01*
X56767630Y-105581752D01*
X56672596Y-105772608D01*
X56614244Y-105977688D01*
X56599366Y-106138250D01*
X56594571Y-106190000D01*
X50800500Y-106190000D01*
X50800500Y-100860000D01*
X56419364Y-100860000D01*
X57316988Y-100860000D01*
X57284075Y-100917007D01*
X57250000Y-101044174D01*
X57250000Y-101175826D01*
X57284075Y-101302993D01*
X57316988Y-101360000D01*
X56419364Y-101360000D01*
X56476569Y-101573489D01*
X56576399Y-101787577D01*
X56711886Y-101981073D01*
X56878926Y-102148113D01*
X57072422Y-102283600D01*
X57286512Y-102383432D01*
X57317696Y-102391787D01*
X57369011Y-102425110D01*
X57390939Y-102482231D01*
X57375104Y-102541332D01*
X57327838Y-102579729D01*
X57234980Y-102615702D01*
X57234975Y-102615705D01*
X57053699Y-102727946D01*
X57053692Y-102727952D01*
X56896135Y-102871586D01*
X56896131Y-102871589D01*
X56896128Y-102871593D01*
X56896125Y-102871597D01*
X56767635Y-103041743D01*
X56767630Y-103041752D01*
X56672596Y-103232608D01*
X56614244Y-103437688D01*
X56594571Y-103650000D01*
X56614244Y-103862311D01*
X56672596Y-104067391D01*
X56763772Y-104250500D01*
X56767634Y-104258255D01*
X56896128Y-104428407D01*
X56896135Y-104428413D01*
X57053692Y-104572047D01*
X57053699Y-104572053D01*
X57081719Y-104589402D01*
X57234981Y-104684298D01*
X57433802Y-104761321D01*
X57643390Y-104800500D01*
X57856610Y-104800500D01*
X58066198Y-104761321D01*
X58265019Y-104684298D01*
X58446302Y-104572052D01*
X58603872Y-104428407D01*
X58723619Y-104269837D01*
X58773774Y-104234796D01*
X58802621Y-104230500D01*
X59794076Y-104230500D01*
X59852267Y-104249407D01*
X59852865Y-104249846D01*
X59871839Y-104263850D01*
X59871845Y-104263853D01*
X59918785Y-104280278D01*
X59997181Y-104307710D01*
X60024619Y-104310282D01*
X60026923Y-104310499D01*
X60026928Y-104310500D01*
X60026934Y-104310500D01*
X60473072Y-104310500D01*
X60473075Y-104310499D01*
X60502819Y-104307710D01*
X60628157Y-104263852D01*
X60628159Y-104263849D01*
X60631708Y-104261975D01*
X60677972Y-104250500D01*
X60971036Y-104250500D01*
X61029227Y-104269407D01*
X61036685Y-104275397D01*
X61099148Y-104330734D01*
X61249775Y-104409790D01*
X61414944Y-104450500D01*
X61414947Y-104450500D01*
X61585053Y-104450500D01*
X61585056Y-104450500D01*
X61750225Y-104409790D01*
X61900852Y-104330734D01*
X62028183Y-104217929D01*
X62124818Y-104077930D01*
X62185140Y-103918872D01*
X62205645Y-103750000D01*
X62185140Y-103581128D01*
X62124818Y-103422070D01*
X62028183Y-103282071D01*
X61900852Y-103169266D01*
X61750225Y-103090210D01*
X61750224Y-103090209D01*
X61750223Y-103090209D01*
X61585058Y-103049500D01*
X61585056Y-103049500D01*
X61414944Y-103049500D01*
X61414941Y-103049500D01*
X61249778Y-103090208D01*
X61201280Y-103115662D01*
X61140967Y-103125962D01*
X61086120Y-103098844D01*
X61057686Y-103044667D01*
X61058766Y-103025676D01*
X61054504Y-103020000D01*
X59445495Y-103020000D01*
X59469574Y-103102880D01*
X59467652Y-103164035D01*
X59430151Y-103212381D01*
X59374505Y-103229500D01*
X58887154Y-103229500D01*
X58828963Y-103210593D01*
X58798533Y-103174628D01*
X58793839Y-103165202D01*
X58732366Y-103041745D01*
X58603872Y-102871593D01*
X58504902Y-102781369D01*
X58446307Y-102727952D01*
X58446300Y-102727946D01*
X58265024Y-102615705D01*
X58265019Y-102615702D01*
X58172161Y-102579729D01*
X58124730Y-102541077D01*
X58119152Y-102519999D01*
X59445495Y-102519999D01*
X59445496Y-102520000D01*
X59999999Y-102520000D01*
X60000000Y-102519999D01*
X60500000Y-102519999D01*
X60500001Y-102520000D01*
X61054504Y-102520000D01*
X61054504Y-102519999D01*
X61012030Y-102373802D01*
X61012030Y-102373801D01*
X60929721Y-102234625D01*
X60815374Y-102120278D01*
X60676197Y-102037969D01*
X60520912Y-101992855D01*
X60500000Y-101991209D01*
X60500000Y-102519999D01*
X60000000Y-102519999D01*
X60000000Y-101991209D01*
X59979087Y-101992855D01*
X59823802Y-102037969D01*
X59823801Y-102037969D01*
X59684625Y-102120278D01*
X59570278Y-102234625D01*
X59487969Y-102373801D01*
X59487969Y-102373802D01*
X59445495Y-102519999D01*
X58119152Y-102519999D01*
X58109076Y-102481928D01*
X58131179Y-102424874D01*
X58182303Y-102391787D01*
X58213487Y-102383431D01*
X58427577Y-102283600D01*
X58621073Y-102148113D01*
X58788113Y-101981073D01*
X58923600Y-101787577D01*
X59023430Y-101573489D01*
X59080636Y-101360000D01*
X58183012Y-101360000D01*
X58215925Y-101302993D01*
X58250000Y-101175826D01*
X58250000Y-101044174D01*
X58215925Y-100917007D01*
X58183012Y-100860000D01*
X59080636Y-100860000D01*
X59023429Y-100646505D01*
X58923605Y-100432432D01*
X58923601Y-100432424D01*
X58788113Y-100238926D01*
X58621073Y-100071886D01*
X58427577Y-99936399D01*
X58213489Y-99836569D01*
X58182301Y-99828212D01*
X58130987Y-99794888D01*
X58109060Y-99737766D01*
X58124896Y-99678666D01*
X58172160Y-99640271D01*
X58265019Y-99604298D01*
X58446302Y-99492052D01*
X58603872Y-99348407D01*
X58732366Y-99178255D01*
X58827405Y-98987389D01*
X58885756Y-98782310D01*
X58905429Y-98570000D01*
X58885756Y-98357690D01*
X58827405Y-98152611D01*
X58732366Y-97961745D01*
X58603872Y-97791593D01*
X58538029Y-97731569D01*
X58446307Y-97647952D01*
X58446300Y-97647946D01*
X58265024Y-97535705D01*
X58265019Y-97535702D01*
X58215016Y-97516331D01*
X58066198Y-97458679D01*
X58066197Y-97458678D01*
X58066195Y-97458678D01*
X57856610Y-97419500D01*
X57643390Y-97419500D01*
X57433804Y-97458678D01*
X57234980Y-97535702D01*
X57234975Y-97535705D01*
X57053699Y-97647946D01*
X57053692Y-97647952D01*
X56896135Y-97791586D01*
X56896131Y-97791589D01*
X56896128Y-97791593D01*
X56896125Y-97791597D01*
X56767635Y-97961743D01*
X56767630Y-97961752D01*
X56672596Y-98152608D01*
X56614244Y-98357688D01*
X56594571Y-98570000D01*
X56614244Y-98782311D01*
X56633820Y-98851111D01*
X56672595Y-98987389D01*
X56767634Y-99178255D01*
X56896128Y-99348407D01*
X56953271Y-99400500D01*
X57053692Y-99492047D01*
X57053699Y-99492053D01*
X57115136Y-99530093D01*
X57234981Y-99604298D01*
X57327839Y-99640271D01*
X57375269Y-99678921D01*
X57390923Y-99738070D01*
X57368820Y-99795124D01*
X57317699Y-99828211D01*
X57286512Y-99836567D01*
X57286505Y-99836570D01*
X57072432Y-99936394D01*
X57072424Y-99936398D01*
X56878926Y-100071886D01*
X56711886Y-100238926D01*
X56576398Y-100432424D01*
X56576394Y-100432432D01*
X56476570Y-100646505D01*
X56419364Y-100860000D01*
X50800500Y-100860000D01*
X50800500Y-97000000D01*
X52244859Y-97000000D01*
X52265386Y-97247736D01*
X52326412Y-97488719D01*
X52426265Y-97716363D01*
X52426270Y-97716372D01*
X52526563Y-97869881D01*
X53267036Y-97129407D01*
X53284075Y-97192993D01*
X53349901Y-97307007D01*
X53442993Y-97400099D01*
X53557007Y-97465925D01*
X53620590Y-97482962D01*
X52879942Y-98223610D01*
X52926768Y-98260054D01*
X53145388Y-98378366D01*
X53380513Y-98459084D01*
X53625706Y-98500000D01*
X53874294Y-98500000D01*
X54119486Y-98459084D01*
X54354611Y-98378366D01*
X54573234Y-98260053D01*
X54573237Y-98260051D01*
X54620056Y-98223610D01*
X53879409Y-97482962D01*
X53942993Y-97465925D01*
X54057007Y-97400099D01*
X54150099Y-97307007D01*
X54215925Y-97192993D01*
X54232962Y-97129408D01*
X54973435Y-97869881D01*
X55073729Y-97716372D01*
X55073734Y-97716363D01*
X55173587Y-97488719D01*
X55234613Y-97247736D01*
X55255140Y-97000000D01*
X55234613Y-96752263D01*
X55173587Y-96511280D01*
X55073734Y-96283636D01*
X55073729Y-96283627D01*
X54973435Y-96130117D01*
X54232962Y-96870589D01*
X54215925Y-96807007D01*
X54150099Y-96692993D01*
X54057007Y-96599901D01*
X53942993Y-96534075D01*
X53879407Y-96517036D01*
X54620056Y-95776388D01*
X54573232Y-95739945D01*
X54354611Y-95621633D01*
X54119486Y-95540915D01*
X53874294Y-95500000D01*
X53625706Y-95500000D01*
X53380513Y-95540915D01*
X53145388Y-95621633D01*
X52926765Y-95739947D01*
X52926764Y-95739947D01*
X52879942Y-95776388D01*
X53620591Y-96517037D01*
X53557007Y-96534075D01*
X53442993Y-96599901D01*
X53349901Y-96692993D01*
X53284075Y-96807007D01*
X53267037Y-96870591D01*
X52526564Y-96130118D01*
X52426268Y-96283632D01*
X52326412Y-96511283D01*
X52265386Y-96752263D01*
X52244859Y-97000000D01*
X50800500Y-97000000D01*
X50800500Y-74249996D01*
X52444532Y-74249996D01*
X52444532Y-74250003D01*
X52464363Y-74476684D01*
X52464364Y-74476691D01*
X52464365Y-74476692D01*
X52470844Y-74500871D01*
X52523262Y-74696500D01*
X52619426Y-74902723D01*
X52619434Y-74902737D01*
X52749946Y-75089130D01*
X52749947Y-75089132D01*
X52749950Y-75089135D01*
X52749953Y-75089139D01*
X52910861Y-75250047D01*
X52910864Y-75250049D01*
X52910867Y-75250052D01*
X52910869Y-75250053D01*
X52918470Y-75255375D01*
X53097266Y-75380568D01*
X53097272Y-75380571D01*
X53097276Y-75380573D01*
X53303500Y-75476737D01*
X53303504Y-75476739D01*
X53523308Y-75535635D01*
X53523312Y-75535635D01*
X53523315Y-75535636D01*
X53749997Y-75555468D01*
X53750000Y-75555468D01*
X53750003Y-75555468D01*
X53976684Y-75535636D01*
X53976685Y-75535635D01*
X53976692Y-75535635D01*
X54196496Y-75476739D01*
X54402734Y-75380568D01*
X54589139Y-75250047D01*
X54750047Y-75089139D01*
X54880568Y-74902734D01*
X54976739Y-74696496D01*
X55035635Y-74476692D01*
X55037851Y-74451371D01*
X55055468Y-74250003D01*
X55055468Y-74249996D01*
X55035636Y-74023315D01*
X55035635Y-74023312D01*
X55035635Y-74023308D01*
X54976739Y-73803504D01*
X54938026Y-73720485D01*
X54930570Y-73659759D01*
X54957745Y-73608646D01*
X56973943Y-71592448D01*
X57028458Y-71564673D01*
X57088890Y-71574244D01*
X57096062Y-71578283D01*
X57234981Y-71664298D01*
X57433802Y-71741321D01*
X57643390Y-71780500D01*
X57856610Y-71780500D01*
X58066198Y-71741321D01*
X58170908Y-71700755D01*
X58231998Y-71697366D01*
X58276674Y-71723067D01*
X62984103Y-76430496D01*
X63011880Y-76485013D01*
X63002309Y-76545445D01*
X62959044Y-76588710D01*
X62914099Y-76599500D01*
X61786901Y-76599500D01*
X61728710Y-76580593D01*
X61716897Y-76570504D01*
X58846650Y-73700257D01*
X58818873Y-73645740D01*
X58827111Y-73592182D01*
X58825752Y-73591656D01*
X58827400Y-73587398D01*
X58827405Y-73587389D01*
X58885756Y-73382310D01*
X58905429Y-73170000D01*
X58885756Y-72957690D01*
X58827405Y-72752611D01*
X58732366Y-72561745D01*
X58603872Y-72391593D01*
X58509419Y-72305487D01*
X58446307Y-72247952D01*
X58446300Y-72247946D01*
X58265024Y-72135705D01*
X58265019Y-72135702D01*
X58146020Y-72089602D01*
X58066198Y-72058679D01*
X58066197Y-72058678D01*
X58066195Y-72058678D01*
X57856610Y-72019500D01*
X57643390Y-72019500D01*
X57433804Y-72058678D01*
X57234980Y-72135702D01*
X57234975Y-72135705D01*
X57053699Y-72247946D01*
X57053692Y-72247952D01*
X56896135Y-72391586D01*
X56896131Y-72391589D01*
X56896128Y-72391593D01*
X56896125Y-72391597D01*
X56767635Y-72561743D01*
X56767630Y-72561752D01*
X56672596Y-72752608D01*
X56614244Y-72957688D01*
X56594571Y-73170000D01*
X56614244Y-73382311D01*
X56672598Y-73587401D01*
X56674249Y-73591661D01*
X56672870Y-73592195D01*
X56680977Y-73646647D01*
X56653348Y-73700257D01*
X53429517Y-76924090D01*
X53429516Y-76924091D01*
X53376794Y-77015407D01*
X53369971Y-77040871D01*
X53356751Y-77090210D01*
X53356751Y-77090211D01*
X53356750Y-77090210D01*
X53349500Y-77117269D01*
X53349500Y-78938742D01*
X53330593Y-78996933D01*
X53292340Y-79028466D01*
X53097271Y-79119428D01*
X53097262Y-79119434D01*
X52910869Y-79249946D01*
X52910867Y-79249947D01*
X52749947Y-79410867D01*
X52749946Y-79410869D01*
X52619434Y-79597262D01*
X52619426Y-79597276D01*
X52523262Y-79803499D01*
X52464363Y-80023315D01*
X52444532Y-80249996D01*
X52444532Y-80250003D01*
X52464363Y-80476684D01*
X52523262Y-80696500D01*
X52619426Y-80902723D01*
X52619434Y-80902737D01*
X52749946Y-81089130D01*
X52749947Y-81089132D01*
X52749950Y-81089135D01*
X52749953Y-81089139D01*
X52910861Y-81250047D01*
X52910864Y-81250049D01*
X52910867Y-81250052D01*
X52910869Y-81250053D01*
X52970838Y-81292043D01*
X53097266Y-81380568D01*
X53097272Y-81380571D01*
X53097276Y-81380573D01*
X53303500Y-81476737D01*
X53303504Y-81476739D01*
X53523308Y-81535635D01*
X53523312Y-81535635D01*
X53523315Y-81535636D01*
X53749997Y-81555468D01*
X53750000Y-81555468D01*
X53750003Y-81555468D01*
X53976684Y-81535636D01*
X53976685Y-81535635D01*
X53976692Y-81535635D01*
X54196496Y-81476739D01*
X54402734Y-81380568D01*
X54589139Y-81250047D01*
X54750047Y-81089139D01*
X54880568Y-80902734D01*
X54976739Y-80696496D01*
X55035635Y-80476692D01*
X55055468Y-80250000D01*
X55050083Y-80188446D01*
X55035636Y-80023315D01*
X55035635Y-80023312D01*
X55035635Y-80023308D01*
X54976739Y-79803504D01*
X54941304Y-79727513D01*
X54880573Y-79597276D01*
X54880571Y-79597272D01*
X54880568Y-79597266D01*
X54750053Y-79410869D01*
X54750052Y-79410867D01*
X54750049Y-79410864D01*
X54750047Y-79410861D01*
X54589139Y-79249953D01*
X54589135Y-79249950D01*
X54589132Y-79249947D01*
X54589130Y-79249946D01*
X54402737Y-79119434D01*
X54402728Y-79119428D01*
X54207660Y-79028466D01*
X54162912Y-78986738D01*
X54150500Y-78938742D01*
X54150500Y-78250000D01*
X56594571Y-78250000D01*
X56614244Y-78462311D01*
X56637449Y-78543867D01*
X56672595Y-78667389D01*
X56767634Y-78858255D01*
X56896128Y-79028407D01*
X56896135Y-79028413D01*
X57053692Y-79172047D01*
X57053699Y-79172053D01*
X57157389Y-79236255D01*
X57234981Y-79284298D01*
X57433802Y-79361321D01*
X57643390Y-79400500D01*
X57856610Y-79400500D01*
X58066198Y-79361321D01*
X58265019Y-79284298D01*
X58446302Y-79172052D01*
X58603872Y-79028407D01*
X58732366Y-78858255D01*
X58827405Y-78667389D01*
X58885756Y-78462310D01*
X58905429Y-78250000D01*
X58885756Y-78037690D01*
X58827405Y-77832611D01*
X58732366Y-77641745D01*
X58603872Y-77471593D01*
X58526222Y-77400805D01*
X58446307Y-77327952D01*
X58446300Y-77327946D01*
X58265024Y-77215705D01*
X58265019Y-77215702D01*
X58066195Y-77138678D01*
X57856610Y-77099500D01*
X57643390Y-77099500D01*
X57433804Y-77138678D01*
X57234980Y-77215702D01*
X57234975Y-77215705D01*
X57053699Y-77327946D01*
X57053692Y-77327952D01*
X56896135Y-77471586D01*
X56896131Y-77471589D01*
X56896128Y-77471593D01*
X56896125Y-77471597D01*
X56767635Y-77641743D01*
X56767630Y-77641752D01*
X56672596Y-77832608D01*
X56614244Y-78037688D01*
X56594571Y-78250000D01*
X54150500Y-78250000D01*
X54150500Y-77376900D01*
X54169407Y-77318709D01*
X54179490Y-77306902D01*
X55776391Y-75710000D01*
X56594571Y-75710000D01*
X56614244Y-75922311D01*
X56626628Y-75965835D01*
X56672595Y-76127389D01*
X56767634Y-76318255D01*
X56896128Y-76488407D01*
X56958695Y-76545445D01*
X57053692Y-76632047D01*
X57053699Y-76632053D01*
X57130361Y-76679520D01*
X57234981Y-76744298D01*
X57433802Y-76821321D01*
X57643390Y-76860500D01*
X57856610Y-76860500D01*
X58066198Y-76821321D01*
X58265019Y-76744298D01*
X58446302Y-76632052D01*
X58603872Y-76488407D01*
X58732366Y-76318255D01*
X58827405Y-76127389D01*
X58885756Y-75922310D01*
X58905429Y-75710000D01*
X58885756Y-75497690D01*
X58827405Y-75292611D01*
X58732366Y-75101745D01*
X58603872Y-74931593D01*
X58509419Y-74845487D01*
X58446307Y-74787952D01*
X58446300Y-74787946D01*
X58265024Y-74675705D01*
X58265019Y-74675702D01*
X58096985Y-74610606D01*
X58066198Y-74598679D01*
X58066197Y-74598678D01*
X58066195Y-74598678D01*
X57856610Y-74559500D01*
X57643390Y-74559500D01*
X57433804Y-74598678D01*
X57234980Y-74675702D01*
X57234975Y-74675705D01*
X57053699Y-74787946D01*
X57053692Y-74787952D01*
X56896135Y-74931586D01*
X56896131Y-74931589D01*
X56896128Y-74931593D01*
X56896125Y-74931597D01*
X56767635Y-75101743D01*
X56767630Y-75101752D01*
X56672596Y-75292608D01*
X56614244Y-75497688D01*
X56594571Y-75710000D01*
X55776391Y-75710000D01*
X57223326Y-74263065D01*
X57277841Y-74235290D01*
X57329090Y-74240756D01*
X57433802Y-74281321D01*
X57643390Y-74320500D01*
X57856610Y-74320500D01*
X58066198Y-74281321D01*
X58170908Y-74240755D01*
X58231998Y-74237366D01*
X58276674Y-74263067D01*
X61334087Y-77320480D01*
X61334089Y-77320481D01*
X61334090Y-77320482D01*
X61334091Y-77320483D01*
X61425408Y-77373205D01*
X61425406Y-77373205D01*
X61425410Y-77373206D01*
X61425412Y-77373207D01*
X61527273Y-77400500D01*
X75989937Y-77400500D01*
X76048128Y-77419407D01*
X76084092Y-77468907D01*
X76084092Y-77530093D01*
X76082508Y-77534591D01*
X76064860Y-77581128D01*
X76048772Y-77713616D01*
X76022988Y-77769103D01*
X76020498Y-77771686D01*
X71721682Y-82070504D01*
X71667165Y-82098281D01*
X71651678Y-82099500D01*
X68215893Y-82099500D01*
X68084108Y-82099500D01*
X68006200Y-82120375D01*
X67956809Y-82133609D01*
X67842690Y-82199496D01*
X63942686Y-86099500D01*
X63942685Y-86099499D01*
X63849500Y-86192685D01*
X63849496Y-86192690D01*
X63783609Y-86306809D01*
X63766680Y-86369990D01*
X63752975Y-86421141D01*
X63749500Y-86434109D01*
X63749500Y-94213277D01*
X63730593Y-94271468D01*
X63724607Y-94278921D01*
X63721819Y-94282067D01*
X63644338Y-94394318D01*
X63625182Y-94422070D01*
X63564860Y-94581128D01*
X63544355Y-94750000D01*
X63564860Y-94918872D01*
X63625182Y-95077930D01*
X63721817Y-95217929D01*
X63849148Y-95330734D01*
X63999775Y-95409790D01*
X64061706Y-95425054D01*
X64099529Y-95434377D01*
X64151504Y-95466660D01*
X64174577Y-95523329D01*
X64159935Y-95582736D01*
X64113170Y-95622191D01*
X64075837Y-95629500D01*
X63207694Y-95629500D01*
X63149503Y-95610593D01*
X63113539Y-95561093D01*
X63113539Y-95499907D01*
X63147427Y-95451958D01*
X63154835Y-95446272D01*
X63178282Y-95428282D01*
X63274536Y-95302841D01*
X63335044Y-95156762D01*
X63355682Y-95000000D01*
X63353869Y-94986232D01*
X63346346Y-94929086D01*
X63335044Y-94843238D01*
X63296424Y-94750001D01*
X63274537Y-94697161D01*
X63274537Y-94697160D01*
X63178286Y-94571723D01*
X63178285Y-94571722D01*
X63178282Y-94571718D01*
X63178277Y-94571714D01*
X63178276Y-94571713D01*
X63052838Y-94475462D01*
X62906766Y-94414957D01*
X62906758Y-94414955D01*
X62743567Y-94393471D01*
X62743794Y-94391743D01*
X62693528Y-94375411D01*
X62681715Y-94365322D01*
X61789764Y-93473371D01*
X61766325Y-93436067D01*
X61743852Y-93371843D01*
X61743850Y-93371841D01*
X61743850Y-93371839D01*
X61665002Y-93265004D01*
X61664995Y-93264997D01*
X61558158Y-93186148D01*
X61432823Y-93142291D01*
X61432814Y-93142289D01*
X61403076Y-93139500D01*
X61403066Y-93139500D01*
X61016934Y-93139500D01*
X61016923Y-93139500D01*
X60987185Y-93142289D01*
X60987176Y-93142291D01*
X60861841Y-93186148D01*
X60788788Y-93240064D01*
X60730740Y-93259406D01*
X60672410Y-93240935D01*
X60671212Y-93240064D01*
X60598158Y-93186148D01*
X60472823Y-93142291D01*
X60472814Y-93142289D01*
X60443076Y-93139500D01*
X60443066Y-93139500D01*
X60056934Y-93139500D01*
X60056923Y-93139500D01*
X60027185Y-93142289D01*
X60027176Y-93142291D01*
X59901841Y-93186148D01*
X59795004Y-93264997D01*
X59795001Y-93265000D01*
X59795001Y-93265001D01*
X59762314Y-93309289D01*
X59712549Y-93344881D01*
X59682661Y-93349500D01*
X58980949Y-93349500D01*
X58922758Y-93330593D01*
X58886794Y-93281093D01*
X58885728Y-93277593D01*
X58882146Y-93265004D01*
X58827405Y-93072611D01*
X58732366Y-92881745D01*
X58603872Y-92711593D01*
X58509419Y-92625487D01*
X58446307Y-92567952D01*
X58446300Y-92567946D01*
X58265024Y-92455705D01*
X58265019Y-92455702D01*
X58067034Y-92379003D01*
X58066198Y-92378679D01*
X58066197Y-92378678D01*
X58066195Y-92378678D01*
X57856610Y-92339500D01*
X57643390Y-92339500D01*
X57433804Y-92378678D01*
X57234980Y-92455702D01*
X57234975Y-92455705D01*
X57053699Y-92567946D01*
X57053692Y-92567952D01*
X56896135Y-92711586D01*
X56896131Y-92711589D01*
X56896128Y-92711593D01*
X56896125Y-92711597D01*
X56767635Y-92881743D01*
X56767630Y-92881752D01*
X56672596Y-93072608D01*
X56614244Y-93277688D01*
X56594571Y-93490000D01*
X56614244Y-93702311D01*
X56618678Y-93717895D01*
X56672595Y-93907389D01*
X56767634Y-94098255D01*
X56896128Y-94268407D01*
X56963237Y-94329585D01*
X57053692Y-94412047D01*
X57053699Y-94412053D01*
X57156108Y-94475462D01*
X57234981Y-94524298D01*
X57433802Y-94601321D01*
X57643390Y-94640500D01*
X57856610Y-94640500D01*
X58066198Y-94601321D01*
X58265019Y-94524298D01*
X58446302Y-94412052D01*
X58603872Y-94268407D01*
X58645505Y-94213277D01*
X58663205Y-94189839D01*
X58713361Y-94154796D01*
X58742208Y-94150500D01*
X59682661Y-94150500D01*
X59740852Y-94169407D01*
X59762312Y-94190707D01*
X59795001Y-94234999D01*
X59795002Y-94235000D01*
X59795004Y-94235002D01*
X59901841Y-94313851D01*
X59901842Y-94313851D01*
X59901843Y-94313852D01*
X60027181Y-94357710D01*
X60054619Y-94360282D01*
X60056923Y-94360499D01*
X60056928Y-94360500D01*
X60056934Y-94360500D01*
X60443072Y-94360500D01*
X60443075Y-94360499D01*
X60472819Y-94357710D01*
X60598157Y-94313852D01*
X60671212Y-94259934D01*
X60729259Y-94240593D01*
X60787590Y-94259064D01*
X60788730Y-94259892D01*
X60861843Y-94313852D01*
X60987181Y-94357710D01*
X61014619Y-94360282D01*
X61016923Y-94360499D01*
X61016928Y-94360500D01*
X61016934Y-94360500D01*
X61403072Y-94360500D01*
X61403075Y-94360499D01*
X61432819Y-94357710D01*
X61454474Y-94350131D01*
X61515641Y-94348756D01*
X61557178Y-94373571D01*
X62115322Y-94931715D01*
X62143099Y-94986232D01*
X62143981Y-94997445D01*
X62164955Y-95156758D01*
X62164957Y-95156766D01*
X62225462Y-95302838D01*
X62225462Y-95302839D01*
X62316700Y-95421743D01*
X62321718Y-95428282D01*
X62321722Y-95428285D01*
X62321723Y-95428286D01*
X62352573Y-95451958D01*
X62387229Y-95502382D01*
X62385628Y-95563547D01*
X62348380Y-95612088D01*
X62292306Y-95629500D01*
X58897113Y-95629500D01*
X58838922Y-95610593D01*
X58808492Y-95574628D01*
X58771332Y-95500000D01*
X58732366Y-95421745D01*
X58603872Y-95251593D01*
X58509419Y-95165487D01*
X58446307Y-95107952D01*
X58446300Y-95107946D01*
X58265024Y-94995705D01*
X58265019Y-94995702D01*
X58174794Y-94960749D01*
X58066198Y-94918679D01*
X58066197Y-94918678D01*
X58066195Y-94918678D01*
X57856610Y-94879500D01*
X57643390Y-94879500D01*
X57433802Y-94918678D01*
X57329091Y-94959243D01*
X57268000Y-94962633D01*
X57223325Y-94936932D01*
X54179496Y-91893103D01*
X54151719Y-91838586D01*
X54150500Y-91823099D01*
X54150500Y-90950000D01*
X56594571Y-90950000D01*
X56614244Y-91162311D01*
X56632213Y-91225462D01*
X56672595Y-91367389D01*
X56767634Y-91558255D01*
X56896128Y-91728407D01*
X56966734Y-91792773D01*
X57053692Y-91872047D01*
X57053699Y-91872053D01*
X57087696Y-91893103D01*
X57234981Y-91984298D01*
X57433802Y-92061321D01*
X57643390Y-92100500D01*
X57856610Y-92100500D01*
X58066198Y-92061321D01*
X58265019Y-91984298D01*
X58446302Y-91872052D01*
X58603872Y-91728407D01*
X58732366Y-91558255D01*
X58827405Y-91367389D01*
X58885756Y-91162310D01*
X58905429Y-90950000D01*
X58885756Y-90737690D01*
X58827405Y-90532611D01*
X58732366Y-90341745D01*
X58603872Y-90171593D01*
X58509419Y-90085487D01*
X58446307Y-90027952D01*
X58446300Y-90027946D01*
X58265024Y-89915705D01*
X58265019Y-89915702D01*
X58135447Y-89865506D01*
X58066198Y-89838679D01*
X58066197Y-89838678D01*
X58066195Y-89838678D01*
X57856610Y-89799500D01*
X57643390Y-89799500D01*
X57433804Y-89838678D01*
X57234980Y-89915702D01*
X57234975Y-89915705D01*
X57053699Y-90027946D01*
X57053692Y-90027952D01*
X56896135Y-90171586D01*
X56896131Y-90171589D01*
X56896128Y-90171593D01*
X56896125Y-90171597D01*
X56767635Y-90341743D01*
X56767630Y-90341752D01*
X56672596Y-90532608D01*
X56672595Y-90532611D01*
X56662410Y-90568407D01*
X56614244Y-90737688D01*
X56594571Y-90950000D01*
X54150500Y-90950000D01*
X54150500Y-87561257D01*
X54169407Y-87503066D01*
X54207661Y-87471533D01*
X54402723Y-87380573D01*
X54402721Y-87380573D01*
X54402734Y-87380568D01*
X54589139Y-87250047D01*
X54750047Y-87089139D01*
X54880568Y-86902734D01*
X54976739Y-86696496D01*
X55035635Y-86476692D01*
X55044971Y-86369990D01*
X55055468Y-86250003D01*
X55055468Y-86249996D01*
X55035636Y-86023315D01*
X55035635Y-86023312D01*
X55035635Y-86023308D01*
X54976739Y-85803504D01*
X54976737Y-85803499D01*
X54880573Y-85597276D01*
X54880571Y-85597272D01*
X54880568Y-85597266D01*
X54816576Y-85505875D01*
X54750053Y-85410869D01*
X54750052Y-85410867D01*
X54750049Y-85410864D01*
X54750047Y-85410861D01*
X54589139Y-85249953D01*
X54589135Y-85249950D01*
X54589132Y-85249947D01*
X54589130Y-85249946D01*
X54402737Y-85119434D01*
X54402736Y-85119433D01*
X54402734Y-85119432D01*
X54402731Y-85119430D01*
X54402723Y-85119426D01*
X54196499Y-85023262D01*
X54196500Y-85023262D01*
X54123228Y-85003629D01*
X53976692Y-84964365D01*
X53976691Y-84964364D01*
X53976684Y-84964363D01*
X53750003Y-84944532D01*
X53749997Y-84944532D01*
X53523315Y-84964363D01*
X53303499Y-85023262D01*
X53097276Y-85119426D01*
X53097262Y-85119434D01*
X52910869Y-85249946D01*
X52910867Y-85249947D01*
X52749947Y-85410867D01*
X52749946Y-85410869D01*
X52619434Y-85597262D01*
X52619426Y-85597276D01*
X52523262Y-85803499D01*
X52464363Y-86023315D01*
X52444532Y-86249996D01*
X52444532Y-86250003D01*
X52464363Y-86476684D01*
X52523262Y-86696500D01*
X52619426Y-86902723D01*
X52619434Y-86902737D01*
X52749946Y-87089130D01*
X52749947Y-87089132D01*
X52749950Y-87089135D01*
X52749953Y-87089139D01*
X52910861Y-87250047D01*
X52910864Y-87250049D01*
X52910867Y-87250052D01*
X52910869Y-87250053D01*
X53024478Y-87329602D01*
X53097266Y-87380568D01*
X53097272Y-87380571D01*
X53097276Y-87380573D01*
X53292339Y-87471533D01*
X53337087Y-87513261D01*
X53349500Y-87561257D01*
X53349500Y-91977273D01*
X53349500Y-92082727D01*
X53370714Y-92161902D01*
X53376794Y-92184592D01*
X53429516Y-92275908D01*
X53429517Y-92275909D01*
X53429518Y-92275910D01*
X53429520Y-92275913D01*
X55044877Y-93891270D01*
X56653348Y-95499741D01*
X56681125Y-95554258D01*
X56672904Y-95607818D01*
X56674249Y-95608339D01*
X56672598Y-95612598D01*
X56614244Y-95817688D01*
X56597612Y-95997181D01*
X56594571Y-96030000D01*
X56614244Y-96242310D01*
X56672595Y-96447389D01*
X56767634Y-96638255D01*
X56896128Y-96808407D01*
X56953270Y-96860499D01*
X57053692Y-96952047D01*
X57053699Y-96952053D01*
X57157389Y-97016255D01*
X57234981Y-97064298D01*
X57433802Y-97141321D01*
X57643390Y-97180500D01*
X57856610Y-97180500D01*
X58066198Y-97141321D01*
X58265019Y-97064298D01*
X58446302Y-96952052D01*
X58603872Y-96808407D01*
X58732366Y-96638255D01*
X58808492Y-96485372D01*
X58851354Y-96441710D01*
X58897113Y-96430500D01*
X62437273Y-96430500D01*
X65608639Y-96430500D01*
X65666830Y-96449407D01*
X65700103Y-96491614D01*
X65725463Y-96552839D01*
X65725464Y-96552842D01*
X65816730Y-96671782D01*
X65821718Y-96678282D01*
X65947159Y-96774536D01*
X65947160Y-96774536D01*
X65947161Y-96774537D01*
X66042076Y-96813852D01*
X66093238Y-96835044D01*
X66210809Y-96850522D01*
X66249999Y-96855682D01*
X66250000Y-96855682D01*
X66250001Y-96855682D01*
X66281352Y-96851554D01*
X66406762Y-96835044D01*
X66552841Y-96774536D01*
X66671590Y-96683416D01*
X66729264Y-96662993D01*
X66787930Y-96680370D01*
X66811508Y-96703167D01*
X66835001Y-96734999D01*
X66835002Y-96735000D01*
X66835004Y-96735002D01*
X66941841Y-96813851D01*
X66941842Y-96813851D01*
X66941843Y-96813852D01*
X67067181Y-96857710D01*
X67094619Y-96860282D01*
X67096923Y-96860499D01*
X67096928Y-96860500D01*
X67096934Y-96860500D01*
X67483072Y-96860500D01*
X67483075Y-96860499D01*
X67512819Y-96857710D01*
X67638157Y-96813852D01*
X67711212Y-96759934D01*
X67769259Y-96740593D01*
X67827590Y-96759064D01*
X67828730Y-96759892D01*
X67901843Y-96813852D01*
X68027181Y-96857710D01*
X68054619Y-96860282D01*
X68056923Y-96860499D01*
X68056928Y-96860500D01*
X68056934Y-96860500D01*
X68328099Y-96860500D01*
X68386290Y-96879407D01*
X68398103Y-96889496D01*
X69245504Y-97736897D01*
X69273281Y-97791414D01*
X69274500Y-97806901D01*
X69274500Y-98500500D01*
X69255593Y-98558691D01*
X69206093Y-98594655D01*
X69175500Y-98599500D01*
X68927456Y-98599500D01*
X68869265Y-98580593D01*
X68833301Y-98531093D01*
X68828889Y-98509746D01*
X68827710Y-98497185D01*
X68827710Y-98497181D01*
X68783852Y-98371843D01*
X68773407Y-98357690D01*
X68705002Y-98265004D01*
X68704995Y-98264997D01*
X68598158Y-98186148D01*
X68472823Y-98142291D01*
X68472814Y-98142289D01*
X68443076Y-98139500D01*
X68443066Y-98139500D01*
X68056934Y-98139500D01*
X68056923Y-98139500D01*
X68027185Y-98142289D01*
X68027176Y-98142291D01*
X67901841Y-98186148D01*
X67828788Y-98240064D01*
X67770740Y-98259406D01*
X67712410Y-98240935D01*
X67711212Y-98240064D01*
X67638158Y-98186148D01*
X67512823Y-98142291D01*
X67512814Y-98142289D01*
X67483076Y-98139500D01*
X67483066Y-98139500D01*
X67096934Y-98139500D01*
X67096923Y-98139500D01*
X67067185Y-98142289D01*
X67067181Y-98142290D01*
X66966393Y-98177557D01*
X66905223Y-98178929D01*
X66854929Y-98144085D01*
X66835543Y-98097031D01*
X66835044Y-98093238D01*
X66835042Y-98093233D01*
X66774537Y-97947161D01*
X66774537Y-97947160D01*
X66678286Y-97821723D01*
X66678285Y-97821722D01*
X66678282Y-97821718D01*
X66678277Y-97821714D01*
X66678276Y-97821713D01*
X66552838Y-97725462D01*
X66406766Y-97664957D01*
X66406758Y-97664955D01*
X66250001Y-97644318D01*
X66249999Y-97644318D01*
X66093241Y-97664955D01*
X66093233Y-97664957D01*
X65947161Y-97725462D01*
X65947160Y-97725462D01*
X65821723Y-97821713D01*
X65821713Y-97821723D01*
X65725462Y-97947160D01*
X65725462Y-97947161D01*
X65664957Y-98093233D01*
X65664955Y-98093241D01*
X65644318Y-98249999D01*
X65644318Y-98250000D01*
X65664955Y-98406758D01*
X65664957Y-98406766D01*
X65725462Y-98552838D01*
X65725462Y-98552839D01*
X65821713Y-98678276D01*
X65821718Y-98678282D01*
X65947159Y-98774536D01*
X65947160Y-98774536D01*
X65947161Y-98774537D01*
X66076756Y-98828217D01*
X66093238Y-98835044D01*
X66250000Y-98855682D01*
X66256433Y-98856529D01*
X66256205Y-98858256D01*
X66306473Y-98874589D01*
X66318285Y-98884678D01*
X66426057Y-98992449D01*
X66426062Y-98992455D01*
X66426063Y-98992455D01*
X66429518Y-98995910D01*
X66429520Y-98995913D01*
X66504087Y-99070480D01*
X66549750Y-99096843D01*
X66595412Y-99123207D01*
X66697273Y-99150500D01*
X66722661Y-99150500D01*
X66780852Y-99169407D01*
X66802312Y-99190707D01*
X66835001Y-99234999D01*
X66835002Y-99235000D01*
X66835004Y-99235002D01*
X66941841Y-99313851D01*
X66941842Y-99313851D01*
X66941843Y-99313852D01*
X67067181Y-99357710D01*
X67094619Y-99360282D01*
X67096923Y-99360499D01*
X67096928Y-99360500D01*
X67096934Y-99360500D01*
X67483072Y-99360500D01*
X67483075Y-99360499D01*
X67512819Y-99357710D01*
X67638157Y-99313852D01*
X67711212Y-99259934D01*
X67769259Y-99240593D01*
X67827590Y-99259064D01*
X67828730Y-99259892D01*
X67901843Y-99313852D01*
X68027181Y-99357710D01*
X68054619Y-99360282D01*
X68056923Y-99360499D01*
X68056928Y-99360500D01*
X68056934Y-99360500D01*
X68296877Y-99360500D01*
X68338976Y-99371782D01*
X68339415Y-99370723D01*
X68345407Y-99373205D01*
X68345411Y-99373206D01*
X68345413Y-99373207D01*
X68447273Y-99400500D01*
X69619098Y-99400500D01*
X69677289Y-99419407D01*
X69713253Y-99468907D01*
X69713253Y-99530093D01*
X69689102Y-99569504D01*
X69237959Y-100020647D01*
X69183442Y-100048424D01*
X69167955Y-100049643D01*
X69031675Y-100049643D01*
X68973484Y-100030736D01*
X68952020Y-100009431D01*
X68941476Y-99995144D01*
X68941474Y-99995141D01*
X68834635Y-99916291D01*
X68709300Y-99872434D01*
X68709291Y-99872432D01*
X68679553Y-99869643D01*
X68679543Y-99869643D01*
X68233411Y-99869643D01*
X68233400Y-99869643D01*
X68203662Y-99872432D01*
X68203653Y-99872434D01*
X68078318Y-99916291D01*
X67971481Y-99995140D01*
X67971474Y-99995147D01*
X67892625Y-100101984D01*
X67856829Y-100204282D01*
X67819763Y-100252963D01*
X67761163Y-100270559D01*
X67703411Y-100250350D01*
X67671288Y-100207904D01*
X67659361Y-100177658D01*
X67567922Y-100057078D01*
X67447342Y-99965639D01*
X67447341Y-99965638D01*
X67447339Y-99965637D01*
X67306565Y-99910123D01*
X67218106Y-99899500D01*
X67218102Y-99899500D01*
X66281898Y-99899500D01*
X66281893Y-99899500D01*
X66193434Y-99910123D01*
X66052660Y-99965637D01*
X66052656Y-99965640D01*
X65932081Y-100057075D01*
X65932075Y-100057081D01*
X65840640Y-100177656D01*
X65840637Y-100177660D01*
X65785123Y-100318434D01*
X65774500Y-100406893D01*
X65774500Y-101393106D01*
X65785123Y-101481565D01*
X65840637Y-101622339D01*
X65840638Y-101622341D01*
X65840639Y-101622342D01*
X65932078Y-101742922D01*
X66052658Y-101834361D01*
X66052659Y-101834361D01*
X66052660Y-101834362D01*
X66082243Y-101846028D01*
X66193436Y-101889877D01*
X66281898Y-101900500D01*
X66281900Y-101900500D01*
X67218100Y-101900500D01*
X67218102Y-101900500D01*
X67306564Y-101889877D01*
X67447342Y-101834361D01*
X67541965Y-101762605D01*
X67599755Y-101742510D01*
X67658321Y-101760221D01*
X67692641Y-101802169D01*
X67694447Y-101806342D01*
X67776755Y-101945517D01*
X67891102Y-102059864D01*
X68030279Y-102142173D01*
X68185556Y-102187286D01*
X68185564Y-102187287D01*
X68206477Y-102188932D01*
X68206477Y-101660144D01*
X68706477Y-101660144D01*
X68706477Y-102188932D01*
X68727389Y-102187287D01*
X68727397Y-102187286D01*
X68882674Y-102142173D01*
X68882675Y-102142173D01*
X69021851Y-102059864D01*
X69136198Y-101945517D01*
X69205373Y-101828550D01*
X69843043Y-101828550D01*
X69885517Y-101974747D01*
X69885517Y-101974748D01*
X69967826Y-102113924D01*
X70082173Y-102228271D01*
X70221350Y-102310580D01*
X70376627Y-102355693D01*
X70376635Y-102355694D01*
X70397548Y-102357339D01*
X70397548Y-101828551D01*
X70397547Y-101828550D01*
X69843043Y-101828550D01*
X69205373Y-101828550D01*
X69218507Y-101806341D01*
X69218507Y-101806340D01*
X69260981Y-101660143D01*
X68706478Y-101660143D01*
X68706477Y-101660144D01*
X68206477Y-101660144D01*
X68206477Y-101304227D01*
X68225384Y-101246036D01*
X68248204Y-101225494D01*
X68247387Y-101224429D01*
X68252526Y-101220485D01*
X68252528Y-101220482D01*
X68252533Y-101220480D01*
X68283875Y-101189138D01*
X68338392Y-101161362D01*
X68353878Y-101160143D01*
X69260981Y-101160143D01*
X69260981Y-101160142D01*
X69218508Y-101013947D01*
X69210283Y-101000039D01*
X69196935Y-100940327D01*
X69221235Y-100884174D01*
X69273899Y-100853027D01*
X69295496Y-100850643D01*
X69427581Y-100850643D01*
X69427583Y-100850643D01*
X69529444Y-100823350D01*
X69529446Y-100823348D01*
X69529448Y-100823348D01*
X69620764Y-100770626D01*
X69620764Y-100770625D01*
X69620769Y-100770623D01*
X69868044Y-100523346D01*
X69922561Y-100495569D01*
X69982993Y-100505140D01*
X70026258Y-100548405D01*
X70037048Y-100593350D01*
X70037048Y-100811626D01*
X70039837Y-100841364D01*
X70039839Y-100841373D01*
X70052936Y-100878802D01*
X70054309Y-100939972D01*
X70029497Y-100981503D01*
X69967826Y-101043175D01*
X69885517Y-101182351D01*
X69885517Y-101182352D01*
X69843043Y-101328549D01*
X69843044Y-101328550D01*
X70798548Y-101328550D01*
X70856739Y-101347457D01*
X70892703Y-101396957D01*
X70897548Y-101427550D01*
X70897548Y-102357339D01*
X70918460Y-102355694D01*
X70918468Y-102355693D01*
X71073745Y-102310580D01*
X71073746Y-102310580D01*
X71212922Y-102228271D01*
X71327269Y-102113924D01*
X71409580Y-101974745D01*
X71413633Y-101960794D01*
X71448023Y-101910187D01*
X71505590Y-101889460D01*
X71545499Y-101899245D01*
X71546359Y-101897066D01*
X71552658Y-101899550D01*
X71693436Y-101955066D01*
X71781898Y-101965689D01*
X71781900Y-101965689D01*
X72718100Y-101965689D01*
X72718102Y-101965689D01*
X72806564Y-101955066D01*
X72947342Y-101899550D01*
X73067922Y-101808111D01*
X73099575Y-101766371D01*
X75445495Y-101766371D01*
X75487969Y-101912568D01*
X75487969Y-101912569D01*
X75570278Y-102051745D01*
X75684625Y-102166092D01*
X75823802Y-102248401D01*
X75979079Y-102293514D01*
X75979087Y-102293515D01*
X76000000Y-102295160D01*
X76000000Y-101766372D01*
X75999999Y-101766371D01*
X75445495Y-101766371D01*
X73099575Y-101766371D01*
X73159361Y-101687531D01*
X73214877Y-101546753D01*
X73225500Y-101458291D01*
X73225500Y-101079188D01*
X73244407Y-101020997D01*
X73293907Y-100985033D01*
X73324500Y-100980188D01*
X73422805Y-100980188D01*
X73480996Y-100999095D01*
X73502460Y-101020400D01*
X73543578Y-101076112D01*
X73543579Y-101076113D01*
X73649204Y-101154068D01*
X73649205Y-101154068D01*
X73649206Y-101154069D01*
X73773121Y-101197429D01*
X73802543Y-101200188D01*
X74177456Y-101200187D01*
X74177457Y-101200187D01*
X74183340Y-101199635D01*
X74206879Y-101197429D01*
X74330794Y-101154069D01*
X74432254Y-101079188D01*
X74441212Y-101072577D01*
X74499259Y-101053235D01*
X74557590Y-101071706D01*
X74558788Y-101072577D01*
X74669204Y-101154068D01*
X74669205Y-101154068D01*
X74669206Y-101154069D01*
X74793121Y-101197429D01*
X74822543Y-101200188D01*
X75197456Y-101200187D01*
X75197457Y-101200187D01*
X75203340Y-101199635D01*
X75226879Y-101197429D01*
X75311153Y-101167939D01*
X75372322Y-101166566D01*
X75422616Y-101201410D01*
X75442825Y-101259162D01*
X75442417Y-101262271D01*
X75445496Y-101266371D01*
X76401000Y-101266371D01*
X76459191Y-101285278D01*
X76495155Y-101334778D01*
X76500000Y-101365371D01*
X76500000Y-102295160D01*
X76520912Y-102293515D01*
X76520920Y-102293514D01*
X76676197Y-102248401D01*
X76676198Y-102248401D01*
X76815374Y-102166092D01*
X76929719Y-102051747D01*
X76993549Y-101943817D01*
X77039445Y-101903354D01*
X77100359Y-101897596D01*
X77153024Y-101928742D01*
X77157636Y-101934380D01*
X77182078Y-101966611D01*
X77302658Y-102058050D01*
X77302659Y-102058050D01*
X77302660Y-102058051D01*
X77373047Y-102085808D01*
X77443436Y-102113566D01*
X77531898Y-102124189D01*
X77531900Y-102124189D01*
X78468100Y-102124189D01*
X78468102Y-102124189D01*
X78556564Y-102113566D01*
X78697342Y-102058050D01*
X78817922Y-101966611D01*
X78909361Y-101846031D01*
X78964877Y-101705253D01*
X78975500Y-101616791D01*
X78975500Y-100630587D01*
X78964877Y-100542125D01*
X78923815Y-100438000D01*
X78909362Y-100401349D01*
X78909361Y-100401348D01*
X78909361Y-100401347D01*
X78817922Y-100280767D01*
X78697342Y-100189328D01*
X78697341Y-100189327D01*
X78697339Y-100189326D01*
X78556565Y-100133812D01*
X78468106Y-100123189D01*
X78468102Y-100123189D01*
X78349500Y-100123189D01*
X78291309Y-100104282D01*
X78255345Y-100054782D01*
X78250500Y-100024189D01*
X78250500Y-99786722D01*
X78269407Y-99728531D01*
X78275397Y-99721073D01*
X78278174Y-99717936D01*
X78278183Y-99717929D01*
X78374818Y-99577930D01*
X78435140Y-99418872D01*
X78455645Y-99250000D01*
X78435140Y-99081128D01*
X78374818Y-98922070D01*
X78278183Y-98782071D01*
X78150852Y-98669266D01*
X78000225Y-98590210D01*
X78000224Y-98590209D01*
X78000223Y-98590209D01*
X77835058Y-98549500D01*
X77835056Y-98549500D01*
X77664944Y-98549500D01*
X77664941Y-98549500D01*
X77499776Y-98590209D01*
X77349146Y-98669267D01*
X77221818Y-98782069D01*
X77221816Y-98782072D01*
X77125182Y-98922070D01*
X77125180Y-98922072D01*
X77101373Y-98984847D01*
X77078811Y-99019743D01*
X76151682Y-99946874D01*
X76097165Y-99974652D01*
X76081678Y-99975871D01*
X76026923Y-99975871D01*
X75997185Y-99978660D01*
X75997176Y-99978662D01*
X75871845Y-100022517D01*
X75871839Y-100022520D01*
X75852865Y-100036525D01*
X75794818Y-100055868D01*
X75794076Y-100055871D01*
X75597407Y-100055871D01*
X75539216Y-100036964D01*
X75503252Y-99987464D01*
X75501781Y-99982495D01*
X75500006Y-99975871D01*
X75500005Y-99975869D01*
X75497917Y-99968073D01*
X75476392Y-99887740D01*
X75443479Y-99830734D01*
X75443479Y-99830733D01*
X75410500Y-99773612D01*
X75317314Y-99680425D01*
X75317314Y-99680426D01*
X74865481Y-99228593D01*
X74837704Y-99174076D01*
X74847275Y-99113644D01*
X74881588Y-99077105D01*
X74881189Y-99076590D01*
X74884443Y-99074065D01*
X74885093Y-99073374D01*
X74886111Y-99072771D01*
X74929388Y-99029496D01*
X74983905Y-99001719D01*
X74999391Y-99000500D01*
X75183491Y-99000500D01*
X75215583Y-98995416D01*
X75283126Y-98984719D01*
X75283132Y-98984716D01*
X75305053Y-98973547D01*
X75365484Y-98963973D01*
X75394947Y-98973547D01*
X75416867Y-98984716D01*
X75416870Y-98984717D01*
X75416874Y-98984719D01*
X75480555Y-98994805D01*
X75516509Y-99000500D01*
X75516512Y-99000500D01*
X75833490Y-99000500D01*
X75862468Y-98995910D01*
X75933126Y-98984719D01*
X76053220Y-98923528D01*
X76148528Y-98828220D01*
X76209719Y-98708126D01*
X76225500Y-98608488D01*
X76225500Y-98249500D01*
X76244407Y-98191309D01*
X76293907Y-98155345D01*
X76324500Y-98150500D01*
X78543099Y-98150500D01*
X78601290Y-98169407D01*
X78613103Y-98179496D01*
X79240102Y-98806495D01*
X79267879Y-98861012D01*
X79269098Y-98876499D01*
X79269098Y-102964460D01*
X79250191Y-103022651D01*
X79200691Y-103058615D01*
X79139505Y-103058615D01*
X79090005Y-103022651D01*
X79085838Y-103016433D01*
X79017320Y-102905349D01*
X78893340Y-102781369D01*
X78744124Y-102689332D01*
X78577693Y-102634182D01*
X78474987Y-102623689D01*
X78250001Y-102623689D01*
X78250000Y-102623690D01*
X78250000Y-105023687D01*
X78250001Y-105023688D01*
X78474986Y-105023688D01*
X78577687Y-105013196D01*
X78577699Y-105013193D01*
X78744124Y-104958045D01*
X78893340Y-104866008D01*
X79017319Y-104742029D01*
X79109356Y-104592813D01*
X79164506Y-104426382D01*
X79164506Y-104426381D01*
X79169904Y-104373550D01*
X79194627Y-104317582D01*
X79247526Y-104286835D01*
X79308394Y-104293053D01*
X79346932Y-104323342D01*
X79349115Y-104326187D01*
X79349116Y-104326188D01*
X79349118Y-104326191D01*
X79423685Y-104400758D01*
X79515011Y-104453485D01*
X79616871Y-104480778D01*
X79722325Y-104480778D01*
X81886473Y-104480778D01*
X81944664Y-104499685D01*
X81956477Y-104509774D01*
X82353602Y-104906899D01*
X82381379Y-104961416D01*
X82371808Y-105021848D01*
X82328543Y-105065113D01*
X82302915Y-105074000D01*
X82277772Y-105079001D01*
X82277757Y-105079006D01*
X82265002Y-105084289D01*
X82204005Y-105089086D01*
X82157120Y-105062828D01*
X82142364Y-105048073D01*
X82142363Y-105048072D01*
X82039589Y-105002693D01*
X82039588Y-105002692D01*
X82039586Y-105002692D01*
X82014466Y-104999778D01*
X79924737Y-104999778D01*
X79924734Y-104999779D01*
X79899607Y-105002692D01*
X79796833Y-105048072D01*
X79717392Y-105127513D01*
X79672012Y-105230289D01*
X79669098Y-105255408D01*
X79669098Y-106365138D01*
X79669099Y-106365141D01*
X79672012Y-106390268D01*
X79697354Y-106447663D01*
X79717392Y-106493043D01*
X79796833Y-106572484D01*
X79899607Y-106617863D01*
X79924733Y-106620778D01*
X82014462Y-106620777D01*
X82039589Y-106617863D01*
X82142363Y-106572484D01*
X82157118Y-106557728D01*
X82211633Y-106529950D01*
X82265005Y-106536266D01*
X82277768Y-106541553D01*
X82424695Y-106570778D01*
X82424696Y-106570778D01*
X82574500Y-106570778D01*
X82574501Y-106570778D01*
X82721428Y-106541553D01*
X82859830Y-106484225D01*
X82984389Y-106400997D01*
X83090317Y-106295069D01*
X83168186Y-106178530D01*
X83216235Y-106140652D01*
X83277373Y-106138250D01*
X83328246Y-106172243D01*
X83349424Y-106229646D01*
X83349500Y-106233533D01*
X83349500Y-107927022D01*
X83330593Y-107985213D01*
X83281093Y-108021177D01*
X83219907Y-108021177D01*
X83170407Y-107985213D01*
X83168185Y-107982024D01*
X83146453Y-107949500D01*
X83090317Y-107865487D01*
X82984389Y-107759559D01*
X82859830Y-107676331D01*
X82859829Y-107676330D01*
X82859827Y-107676329D01*
X82721428Y-107619003D01*
X82574503Y-107589778D01*
X82574501Y-107589778D01*
X82424695Y-107589778D01*
X82424692Y-107589778D01*
X82277767Y-107619003D01*
X82277757Y-107619006D01*
X82265002Y-107624289D01*
X82204005Y-107629086D01*
X82157120Y-107602828D01*
X82142364Y-107588073D01*
X82142363Y-107588072D01*
X82039589Y-107542693D01*
X82039588Y-107542692D01*
X82039586Y-107542692D01*
X82014466Y-107539778D01*
X79924737Y-107539778D01*
X79924734Y-107539779D01*
X79899607Y-107542692D01*
X79796833Y-107588072D01*
X79717392Y-107667513D01*
X79672012Y-107770289D01*
X79669098Y-107795408D01*
X79669098Y-107850500D01*
X79650191Y-107908691D01*
X79600691Y-107944655D01*
X79570098Y-107949500D01*
X68306900Y-107949500D01*
X68248709Y-107930593D01*
X68236896Y-107920504D01*
X64166394Y-103850001D01*
X65575001Y-103850001D01*
X65575001Y-104099986D01*
X65585492Y-104202687D01*
X65585495Y-104202699D01*
X65640643Y-104369124D01*
X65732680Y-104518340D01*
X65856659Y-104642319D01*
X66005875Y-104734356D01*
X66172306Y-104789506D01*
X66275013Y-104799999D01*
X66499998Y-104799999D01*
X66500000Y-104799998D01*
X66500000Y-103850001D01*
X67000000Y-103850001D01*
X67000000Y-104799998D01*
X67000001Y-104799999D01*
X67224986Y-104799999D01*
X67327687Y-104789507D01*
X67327699Y-104789504D01*
X67494124Y-104734356D01*
X67643340Y-104642319D01*
X67767319Y-104518340D01*
X67859356Y-104369124D01*
X67914506Y-104202693D01*
X67925000Y-104099987D01*
X67925000Y-103915190D01*
X71075001Y-103915190D01*
X71075001Y-104165175D01*
X71085492Y-104267876D01*
X71085495Y-104267888D01*
X71140643Y-104434313D01*
X71232680Y-104583529D01*
X71356659Y-104707508D01*
X71505875Y-104799545D01*
X71672306Y-104854695D01*
X71775013Y-104865188D01*
X71999998Y-104865188D01*
X72000000Y-104865187D01*
X72000000Y-103915190D01*
X72500000Y-103915190D01*
X72500000Y-104865187D01*
X72500001Y-104865188D01*
X72724986Y-104865188D01*
X72827687Y-104854696D01*
X72827699Y-104854693D01*
X72994124Y-104799545D01*
X73143340Y-104707508D01*
X73267319Y-104583529D01*
X73359356Y-104434313D01*
X73414506Y-104267882D01*
X73425000Y-104165176D01*
X73425000Y-104073690D01*
X76825001Y-104073690D01*
X76825001Y-104323675D01*
X76835492Y-104426376D01*
X76835495Y-104426388D01*
X76890643Y-104592813D01*
X76982680Y-104742029D01*
X77106659Y-104866008D01*
X77255875Y-104958045D01*
X77422306Y-105013195D01*
X77525013Y-105023688D01*
X77749998Y-105023688D01*
X77750000Y-105023687D01*
X77750000Y-104073690D01*
X77749999Y-104073689D01*
X76825002Y-104073689D01*
X76825001Y-104073690D01*
X73425000Y-104073690D01*
X73425000Y-103915190D01*
X73424999Y-103915189D01*
X72500001Y-103915189D01*
X72500000Y-103915190D01*
X72000000Y-103915190D01*
X71999999Y-103915189D01*
X71075002Y-103915189D01*
X71075001Y-103915190D01*
X67925000Y-103915190D01*
X67925000Y-103850001D01*
X67924999Y-103850000D01*
X67000001Y-103850000D01*
X67000000Y-103850001D01*
X66500000Y-103850001D01*
X66499999Y-103850000D01*
X65575002Y-103850000D01*
X65575001Y-103850001D01*
X64166394Y-103850001D01*
X63416405Y-103100012D01*
X65575000Y-103100012D01*
X65575000Y-103349999D01*
X65575001Y-103350000D01*
X66499999Y-103350000D01*
X66500000Y-103349999D01*
X66500000Y-102400001D01*
X67000000Y-102400001D01*
X67000000Y-103349999D01*
X67000001Y-103350000D01*
X67924998Y-103350000D01*
X67924999Y-103349999D01*
X67924999Y-103165201D01*
X71075000Y-103165201D01*
X71075000Y-103415188D01*
X71075001Y-103415189D01*
X71999999Y-103415189D01*
X72000000Y-103415188D01*
X72000000Y-102465190D01*
X72500000Y-102465190D01*
X72500000Y-103415188D01*
X72500001Y-103415189D01*
X73424998Y-103415189D01*
X73424999Y-103415188D01*
X73424999Y-103323701D01*
X76825000Y-103323701D01*
X76825000Y-103573688D01*
X76825001Y-103573689D01*
X77749999Y-103573689D01*
X77750000Y-103573688D01*
X77750000Y-102623690D01*
X77749999Y-102623689D01*
X77525013Y-102623689D01*
X77422312Y-102634181D01*
X77422300Y-102634184D01*
X77255875Y-102689332D01*
X77106659Y-102781369D01*
X76982680Y-102905348D01*
X76890643Y-103054564D01*
X76835493Y-103220995D01*
X76825000Y-103323701D01*
X73424999Y-103323701D01*
X73424999Y-103165202D01*
X73414507Y-103062501D01*
X73414504Y-103062489D01*
X73359356Y-102896064D01*
X73267319Y-102746848D01*
X73143340Y-102622869D01*
X72994124Y-102530832D01*
X72827693Y-102475682D01*
X72724987Y-102465189D01*
X72500001Y-102465189D01*
X72500000Y-102465190D01*
X72000000Y-102465190D01*
X71999999Y-102465189D01*
X71775013Y-102465189D01*
X71672312Y-102475681D01*
X71672300Y-102475684D01*
X71505875Y-102530832D01*
X71356659Y-102622869D01*
X71232680Y-102746848D01*
X71140643Y-102896064D01*
X71085493Y-103062495D01*
X71075000Y-103165201D01*
X67924999Y-103165201D01*
X67924999Y-103100013D01*
X67914507Y-102997312D01*
X67914504Y-102997300D01*
X67859356Y-102830875D01*
X67767319Y-102681659D01*
X67643340Y-102557680D01*
X67494124Y-102465643D01*
X67327693Y-102410493D01*
X67224987Y-102400000D01*
X67000001Y-102400000D01*
X67000000Y-102400001D01*
X66500000Y-102400001D01*
X66499999Y-102400000D01*
X66275013Y-102400000D01*
X66172312Y-102410492D01*
X66172300Y-102410495D01*
X66005875Y-102465643D01*
X65856659Y-102557680D01*
X65732680Y-102681659D01*
X65640643Y-102830875D01*
X65585493Y-102997306D01*
X65575000Y-103100012D01*
X63416405Y-103100012D01*
X63179496Y-102863103D01*
X63151719Y-102808586D01*
X63150500Y-102793099D01*
X63150500Y-97747071D01*
X63169407Y-97688880D01*
X63176715Y-97680324D01*
X63178282Y-97678282D01*
X63274536Y-97552841D01*
X63335044Y-97406762D01*
X63355682Y-97250000D01*
X63335044Y-97093238D01*
X63301093Y-97011274D01*
X63274537Y-96947161D01*
X63274537Y-96947160D01*
X63178286Y-96821723D01*
X63178285Y-96821722D01*
X63178282Y-96821718D01*
X63178277Y-96821714D01*
X63178276Y-96821713D01*
X63087766Y-96752263D01*
X63052841Y-96725464D01*
X63052840Y-96725463D01*
X63052838Y-96725462D01*
X62906766Y-96664957D01*
X62906758Y-96664955D01*
X62750001Y-96644318D01*
X62749999Y-96644318D01*
X62593241Y-96664955D01*
X62593233Y-96664957D01*
X62447161Y-96725462D01*
X62447160Y-96725462D01*
X62321723Y-96821713D01*
X62321713Y-96821723D01*
X62225462Y-96947160D01*
X62225462Y-96947161D01*
X62164957Y-97093233D01*
X62164955Y-97093241D01*
X62144318Y-97249999D01*
X62144318Y-97250000D01*
X62164955Y-97406758D01*
X62164957Y-97406766D01*
X62225462Y-97552838D01*
X62225462Y-97552839D01*
X62325668Y-97683431D01*
X62324283Y-97684493D01*
X62348279Y-97731569D01*
X62349500Y-97747071D01*
X62349500Y-102947273D01*
X62349500Y-103052727D01*
X62361857Y-103098844D01*
X62376794Y-103154592D01*
X62429516Y-103245908D01*
X62429518Y-103245910D01*
X62429520Y-103245913D01*
X67779518Y-108595910D01*
X67779520Y-108595913D01*
X67854087Y-108670480D01*
X67908767Y-108702049D01*
X67923417Y-108710508D01*
X67923421Y-108710510D01*
X67945413Y-108723207D01*
X67945415Y-108723207D01*
X67945416Y-108723208D01*
X67996343Y-108736854D01*
X68047270Y-108750500D01*
X68047272Y-108750501D01*
X68047273Y-108750501D01*
X68158790Y-108750501D01*
X68158806Y-108750500D01*
X79570099Y-108750500D01*
X79628290Y-108769407D01*
X79664254Y-108818907D01*
X79669099Y-108849500D01*
X79669099Y-108905141D01*
X79672012Y-108930268D01*
X79697354Y-108987663D01*
X79717392Y-109033043D01*
X79796833Y-109112484D01*
X79854900Y-109138123D01*
X79900494Y-109178921D01*
X79913400Y-109238730D01*
X79888687Y-109294702D01*
X79884915Y-109298690D01*
X77429517Y-111754090D01*
X77429516Y-111754091D01*
X77376793Y-111845411D01*
X77376792Y-111845411D01*
X77376793Y-111845412D01*
X77349500Y-111947273D01*
X77349500Y-119438742D01*
X77330593Y-119496933D01*
X77292340Y-119528466D01*
X77097271Y-119619428D01*
X77097262Y-119619434D01*
X76910869Y-119749946D01*
X76910867Y-119749947D01*
X76749947Y-119910867D01*
X76749946Y-119910869D01*
X76619434Y-120097262D01*
X76619426Y-120097276D01*
X76523262Y-120303499D01*
X76464363Y-120523315D01*
X76444532Y-120749996D01*
X76444532Y-120750003D01*
X76464363Y-120976684D01*
X76523262Y-121196500D01*
X76619426Y-121402723D01*
X76619430Y-121402731D01*
X76683138Y-121493716D01*
X76701027Y-121552228D01*
X76681107Y-121610080D01*
X76630986Y-121645174D01*
X76602042Y-121649500D01*
X74897958Y-121649500D01*
X74839767Y-121630593D01*
X74803803Y-121581093D01*
X74803803Y-121519907D01*
X74816862Y-121493716D01*
X74880568Y-121402734D01*
X74976739Y-121196496D01*
X75035635Y-120976692D01*
X75055468Y-120750000D01*
X75055468Y-120749996D01*
X75035636Y-120523315D01*
X75035635Y-120523312D01*
X75035635Y-120523308D01*
X74976739Y-120303504D01*
X74907481Y-120154981D01*
X74880573Y-120097276D01*
X74880571Y-120097272D01*
X74880568Y-120097266D01*
X74837061Y-120035131D01*
X74750053Y-119910869D01*
X74750052Y-119910867D01*
X74750049Y-119910864D01*
X74750047Y-119910861D01*
X74589139Y-119749953D01*
X74589135Y-119749950D01*
X74589132Y-119749947D01*
X74589130Y-119749946D01*
X74402737Y-119619434D01*
X74402736Y-119619433D01*
X74402734Y-119619432D01*
X74402731Y-119619430D01*
X74402723Y-119619426D01*
X74196499Y-119523262D01*
X74196500Y-119523262D01*
X74098238Y-119496933D01*
X73976692Y-119464365D01*
X73976691Y-119464364D01*
X73976684Y-119464363D01*
X73750003Y-119444532D01*
X73749997Y-119444532D01*
X73523315Y-119464363D01*
X73303499Y-119523262D01*
X73097276Y-119619426D01*
X73097262Y-119619434D01*
X72910869Y-119749946D01*
X72910867Y-119749947D01*
X72749947Y-119910867D01*
X72749946Y-119910869D01*
X72619434Y-120097262D01*
X72619426Y-120097276D01*
X72523262Y-120303499D01*
X72464363Y-120523315D01*
X72444532Y-120749996D01*
X72444532Y-120750003D01*
X72464363Y-120976684D01*
X72523262Y-121196500D01*
X72619426Y-121402723D01*
X72619430Y-121402731D01*
X72683138Y-121493716D01*
X72701027Y-121552228D01*
X72681107Y-121610080D01*
X72630986Y-121645174D01*
X72602042Y-121649500D01*
X71256900Y-121649500D01*
X71198709Y-121630593D01*
X71186896Y-121620504D01*
X70957747Y-121391355D01*
X70929970Y-121336838D01*
X70938027Y-121279511D01*
X70976737Y-121196500D01*
X70976739Y-121196496D01*
X71035635Y-120976692D01*
X71055468Y-120750000D01*
X71055468Y-120749996D01*
X71035636Y-120523315D01*
X71035635Y-120523312D01*
X71035635Y-120523308D01*
X70976739Y-120303504D01*
X70907481Y-120154981D01*
X70880573Y-120097276D01*
X70880571Y-120097272D01*
X70880568Y-120097266D01*
X70837061Y-120035131D01*
X70750053Y-119910869D01*
X70750052Y-119910867D01*
X70750049Y-119910864D01*
X70750047Y-119910861D01*
X70589139Y-119749953D01*
X70589135Y-119749950D01*
X70589132Y-119749947D01*
X70589130Y-119749946D01*
X70402737Y-119619434D01*
X70402736Y-119619433D01*
X70402734Y-119619432D01*
X70402731Y-119619430D01*
X70402723Y-119619426D01*
X70196499Y-119523262D01*
X70196500Y-119523262D01*
X70098238Y-119496933D01*
X69976692Y-119464365D01*
X69976691Y-119464364D01*
X69976684Y-119464363D01*
X69750003Y-119444532D01*
X69749997Y-119444532D01*
X69523315Y-119464363D01*
X69303499Y-119523262D01*
X69097276Y-119619426D01*
X69097262Y-119619434D01*
X68910869Y-119749946D01*
X68910867Y-119749947D01*
X68749947Y-119910867D01*
X68749946Y-119910869D01*
X68619434Y-120097262D01*
X68619426Y-120097276D01*
X68523262Y-120303499D01*
X68464363Y-120523315D01*
X68444532Y-120749996D01*
X68444532Y-120750003D01*
X68464363Y-120976684D01*
X68523262Y-121196500D01*
X68619426Y-121402723D01*
X68619434Y-121402737D01*
X68749946Y-121589130D01*
X68749947Y-121589132D01*
X68749950Y-121589135D01*
X68749953Y-121589139D01*
X68910861Y-121750047D01*
X68910864Y-121750049D01*
X68910867Y-121750052D01*
X68910869Y-121750053D01*
X69035131Y-121837061D01*
X69097266Y-121880568D01*
X69097272Y-121880571D01*
X69097276Y-121880573D01*
X69303500Y-121976737D01*
X69303504Y-121976739D01*
X69523308Y-122035635D01*
X69523312Y-122035635D01*
X69523315Y-122035636D01*
X69749997Y-122055468D01*
X69750000Y-122055468D01*
X69750003Y-122055468D01*
X69976684Y-122035636D01*
X69976685Y-122035635D01*
X69976692Y-122035635D01*
X70196496Y-121976739D01*
X70279512Y-121938026D01*
X70340240Y-121930570D01*
X70391355Y-121957747D01*
X70729518Y-122295910D01*
X70729520Y-122295913D01*
X70804087Y-122370480D01*
X70804089Y-122370481D01*
X70895409Y-122423205D01*
X70895413Y-122423207D01*
X70997270Y-122450500D01*
X70997272Y-122450501D01*
X70997273Y-122450501D01*
X71108790Y-122450501D01*
X71108806Y-122450500D01*
X78341203Y-122450500D01*
X78341205Y-122450500D01*
X78443066Y-122423207D01*
X78443068Y-122423205D01*
X78443070Y-122423205D01*
X78534386Y-122370483D01*
X78534386Y-122370482D01*
X78534391Y-122370480D01*
X80556704Y-120348167D01*
X80556707Y-120348162D01*
X80609429Y-120256846D01*
X80609429Y-120256844D01*
X80609431Y-120256842D01*
X80636724Y-120154981D01*
X80636724Y-120049527D01*
X80636724Y-119656900D01*
X80655631Y-119598709D01*
X80665720Y-119586896D01*
X81048529Y-119204087D01*
X84136242Y-116116373D01*
X84190757Y-116088598D01*
X84251189Y-116098169D01*
X84294454Y-116141434D01*
X84303342Y-116167066D01*
X84308322Y-116192106D01*
X84308323Y-116192109D01*
X84365649Y-116330507D01*
X84365649Y-116330508D01*
X84407122Y-116392575D01*
X84448879Y-116455069D01*
X84554807Y-116560997D01*
X84679366Y-116644225D01*
X84679367Y-116644225D01*
X84679368Y-116644226D01*
X84710721Y-116657212D01*
X84817768Y-116701553D01*
X84964695Y-116730778D01*
X84964696Y-116730778D01*
X85114500Y-116730778D01*
X85114501Y-116730778D01*
X85261428Y-116701553D01*
X85274184Y-116696268D01*
X85335179Y-116691465D01*
X85382074Y-116717725D01*
X85396833Y-116732484D01*
X85499607Y-116777863D01*
X85524733Y-116780778D01*
X87614462Y-116780777D01*
X87639589Y-116777863D01*
X87742363Y-116732484D01*
X87821804Y-116653043D01*
X87867183Y-116550269D01*
X87870098Y-116525143D01*
X87870097Y-115415414D01*
X87867183Y-115390287D01*
X87821804Y-115287513D01*
X87742363Y-115208072D01*
X87639589Y-115162693D01*
X87639588Y-115162692D01*
X87639586Y-115162692D01*
X87614467Y-115159778D01*
X85645621Y-115159778D01*
X85587430Y-115140871D01*
X85551466Y-115091371D01*
X85551466Y-115030185D01*
X85575613Y-114990778D01*
X86296619Y-114269772D01*
X86351136Y-114241996D01*
X86366623Y-114240777D01*
X87614459Y-114240777D01*
X87614462Y-114240777D01*
X87639589Y-114237863D01*
X87742363Y-114192484D01*
X87821804Y-114113043D01*
X87867183Y-114010269D01*
X87870098Y-113985143D01*
X87870097Y-112875414D01*
X87867183Y-112850287D01*
X87848261Y-112807434D01*
X87842054Y-112746565D01*
X87868821Y-112697445D01*
X88115508Y-112450759D01*
X88115511Y-112450758D01*
X88190078Y-112376191D01*
X88242805Y-112284865D01*
X88253242Y-112245913D01*
X88270099Y-112183005D01*
X88270099Y-112077551D01*
X88270099Y-112071489D01*
X88270098Y-112071471D01*
X88270098Y-106617552D01*
X88270098Y-106617551D01*
X88242805Y-106515691D01*
X88190078Y-106424365D01*
X88115511Y-106349798D01*
X88024185Y-106297071D01*
X87943473Y-106275444D01*
X87892160Y-106242121D01*
X87870233Y-106184999D01*
X87870097Y-106179852D01*
X87870097Y-105255414D01*
X87867183Y-105230287D01*
X87821804Y-105127513D01*
X87742363Y-105048072D01*
X87639589Y-105002693D01*
X87639588Y-105002692D01*
X87639586Y-105002692D01*
X87614467Y-104999778D01*
X87614463Y-104999778D01*
X86367179Y-104999778D01*
X86308988Y-104980871D01*
X86297176Y-104970782D01*
X85955913Y-104629520D01*
X85955908Y-104629516D01*
X85864591Y-104576794D01*
X85864593Y-104576794D01*
X85825070Y-104566204D01*
X85762727Y-104549500D01*
X85762725Y-104549500D01*
X85406901Y-104549500D01*
X85348710Y-104530593D01*
X85336897Y-104520504D01*
X85162796Y-104346403D01*
X85135019Y-104291886D01*
X85144590Y-104231454D01*
X85187855Y-104188189D01*
X85248287Y-104178618D01*
X85292130Y-104197146D01*
X85327510Y-104223632D01*
X85462216Y-104273874D01*
X85462227Y-104273876D01*
X85521774Y-104280278D01*
X86319597Y-104280278D01*
X86319598Y-104280277D01*
X86319598Y-103520279D01*
X86819598Y-103520279D01*
X86819598Y-104280277D01*
X86819599Y-104280278D01*
X87617422Y-104280278D01*
X87676968Y-104273876D01*
X87676979Y-104273874D01*
X87811686Y-104223631D01*
X87811688Y-104223630D01*
X87926782Y-104137470D01*
X87926790Y-104137462D01*
X88012950Y-104022368D01*
X88012951Y-104022366D01*
X88063194Y-103887659D01*
X88063196Y-103887648D01*
X88069598Y-103828102D01*
X88069598Y-103520279D01*
X88069597Y-103520278D01*
X86819599Y-103520278D01*
X86819598Y-103520279D01*
X86319598Y-103520279D01*
X86319598Y-102260279D01*
X86819598Y-102260279D01*
X86819598Y-103020277D01*
X86819599Y-103020278D01*
X88069597Y-103020278D01*
X88069598Y-103020277D01*
X88069598Y-102712453D01*
X88063196Y-102652907D01*
X88063194Y-102652896D01*
X88012951Y-102518189D01*
X88012950Y-102518187D01*
X87926790Y-102403093D01*
X87926782Y-102403085D01*
X87811688Y-102316925D01*
X87811686Y-102316924D01*
X87676979Y-102266681D01*
X87676968Y-102266679D01*
X87617422Y-102260278D01*
X86819599Y-102260278D01*
X86819598Y-102260279D01*
X86319598Y-102260279D01*
X86319597Y-102260278D01*
X85521774Y-102260278D01*
X85462227Y-102266679D01*
X85462216Y-102266681D01*
X85327509Y-102316924D01*
X85327507Y-102316925D01*
X85212413Y-102403085D01*
X85212405Y-102403093D01*
X85162239Y-102470107D01*
X85112230Y-102505360D01*
X85082986Y-102509778D01*
X84964692Y-102509778D01*
X84817768Y-102539003D01*
X84817766Y-102539003D01*
X84716983Y-102580749D01*
X84655986Y-102585550D01*
X84603818Y-102553580D01*
X84580403Y-102497052D01*
X84580098Y-102489285D01*
X84580098Y-101511270D01*
X84599005Y-101453079D01*
X84648505Y-101417115D01*
X84709691Y-101417115D01*
X84716964Y-101419798D01*
X84817768Y-101461553D01*
X84964695Y-101490778D01*
X84964696Y-101490778D01*
X85114500Y-101490778D01*
X85114501Y-101490778D01*
X85261428Y-101461553D01*
X85274184Y-101456268D01*
X85335179Y-101451465D01*
X85382074Y-101477725D01*
X85396833Y-101492484D01*
X85499607Y-101537863D01*
X85524733Y-101540778D01*
X87614462Y-101540777D01*
X87639589Y-101537863D01*
X87742363Y-101492484D01*
X87821804Y-101413043D01*
X87867183Y-101310269D01*
X87870098Y-101285143D01*
X87870097Y-100175414D01*
X87867183Y-100150287D01*
X87821804Y-100047513D01*
X87742363Y-99968072D01*
X87639589Y-99922693D01*
X87639588Y-99922692D01*
X87639586Y-99922692D01*
X87614466Y-99919778D01*
X85524737Y-99919778D01*
X85524734Y-99919779D01*
X85499607Y-99922692D01*
X85396832Y-99968072D01*
X85382075Y-99982829D01*
X85327558Y-100010606D01*
X85274190Y-100004289D01*
X85265822Y-100000823D01*
X85261426Y-99999002D01*
X85114503Y-99969778D01*
X85114501Y-99969778D01*
X84964695Y-99969778D01*
X84964692Y-99969778D01*
X84817768Y-99999003D01*
X84817766Y-99999003D01*
X84716983Y-100040749D01*
X84655986Y-100045550D01*
X84603818Y-100013580D01*
X84580403Y-99957052D01*
X84580098Y-99949285D01*
X84580098Y-98971270D01*
X84599005Y-98913079D01*
X84648505Y-98877115D01*
X84709691Y-98877115D01*
X84716964Y-98879798D01*
X84817768Y-98921553D01*
X84964695Y-98950778D01*
X84964696Y-98950778D01*
X85114500Y-98950778D01*
X85114501Y-98950778D01*
X85261428Y-98921553D01*
X85274184Y-98916268D01*
X85335179Y-98911465D01*
X85382074Y-98937725D01*
X85396833Y-98952484D01*
X85499607Y-98997863D01*
X85524733Y-99000778D01*
X87614462Y-99000777D01*
X87639589Y-98997863D01*
X87742363Y-98952484D01*
X87821804Y-98873043D01*
X87867183Y-98770269D01*
X87870098Y-98745143D01*
X87870097Y-97635414D01*
X87867183Y-97610287D01*
X87821804Y-97507513D01*
X87742363Y-97428072D01*
X87639589Y-97382693D01*
X87639588Y-97382692D01*
X87639586Y-97382692D01*
X87614466Y-97379778D01*
X85524737Y-97379778D01*
X85524734Y-97379779D01*
X85499607Y-97382692D01*
X85396832Y-97428072D01*
X85382075Y-97442829D01*
X85327558Y-97470606D01*
X85274190Y-97464289D01*
X85261428Y-97459003D01*
X85261426Y-97459002D01*
X85114503Y-97429778D01*
X85114501Y-97429778D01*
X84964695Y-97429778D01*
X84964692Y-97429778D01*
X84817768Y-97459003D01*
X84817766Y-97459003D01*
X84716983Y-97500749D01*
X84655986Y-97505550D01*
X84603818Y-97473580D01*
X84580403Y-97417052D01*
X84580098Y-97409285D01*
X84580098Y-96431270D01*
X84599005Y-96373079D01*
X84648505Y-96337115D01*
X84709691Y-96337115D01*
X84716964Y-96339798D01*
X84817768Y-96381553D01*
X84964695Y-96410778D01*
X84964696Y-96410778D01*
X85114500Y-96410778D01*
X85114501Y-96410778D01*
X85261428Y-96381553D01*
X85274184Y-96376268D01*
X85335179Y-96371465D01*
X85382074Y-96397725D01*
X85396833Y-96412484D01*
X85499607Y-96457863D01*
X85524733Y-96460778D01*
X87614462Y-96460777D01*
X87639589Y-96457863D01*
X87742363Y-96412484D01*
X87821804Y-96333043D01*
X87867183Y-96230269D01*
X87870098Y-96205143D01*
X87870097Y-95095414D01*
X87867183Y-95070287D01*
X87821804Y-94967513D01*
X87742363Y-94888072D01*
X87639589Y-94842693D01*
X87639588Y-94842692D01*
X87639586Y-94842692D01*
X87614466Y-94839778D01*
X85524737Y-94839778D01*
X85524734Y-94839779D01*
X85499607Y-94842692D01*
X85396832Y-94888072D01*
X85382075Y-94902829D01*
X85327558Y-94930606D01*
X85274190Y-94924289D01*
X85265822Y-94920823D01*
X85261426Y-94919002D01*
X85114503Y-94889778D01*
X85114501Y-94889778D01*
X84964695Y-94889778D01*
X84964692Y-94889778D01*
X84817768Y-94919003D01*
X84817766Y-94919003D01*
X84716983Y-94960749D01*
X84655986Y-94965550D01*
X84603818Y-94933580D01*
X84580403Y-94877052D01*
X84580098Y-94869285D01*
X84580098Y-93891270D01*
X84599005Y-93833079D01*
X84648505Y-93797115D01*
X84709691Y-93797115D01*
X84716964Y-93799798D01*
X84817768Y-93841553D01*
X84964695Y-93870778D01*
X84964696Y-93870778D01*
X85114500Y-93870778D01*
X85114501Y-93870778D01*
X85261428Y-93841553D01*
X85274184Y-93836268D01*
X85335179Y-93831465D01*
X85382074Y-93857725D01*
X85396833Y-93872484D01*
X85499607Y-93917863D01*
X85524733Y-93920778D01*
X87614462Y-93920777D01*
X87639589Y-93917863D01*
X87742363Y-93872484D01*
X87821804Y-93793043D01*
X87867183Y-93690269D01*
X87870098Y-93665143D01*
X87870097Y-92555414D01*
X87867183Y-92530287D01*
X87821804Y-92427513D01*
X87742363Y-92348072D01*
X87639589Y-92302693D01*
X87639588Y-92302692D01*
X87639586Y-92302692D01*
X87614466Y-92299778D01*
X85524737Y-92299778D01*
X85524734Y-92299779D01*
X85499607Y-92302692D01*
X85396832Y-92348072D01*
X85382075Y-92362829D01*
X85327558Y-92390606D01*
X85274190Y-92384289D01*
X85261428Y-92379003D01*
X85261426Y-92379002D01*
X85114503Y-92349778D01*
X85114501Y-92349778D01*
X84964695Y-92349778D01*
X84964692Y-92349778D01*
X84817768Y-92379003D01*
X84817766Y-92379003D01*
X84679368Y-92436329D01*
X84679367Y-92436329D01*
X84554807Y-92519559D01*
X84554803Y-92519562D01*
X84448882Y-92625483D01*
X84448879Y-92625487D01*
X84365649Y-92750047D01*
X84365649Y-92750048D01*
X84308323Y-92888446D01*
X84308321Y-92888455D01*
X84303320Y-92913594D01*
X84273423Y-92966978D01*
X84217857Y-92992592D01*
X84157847Y-92980654D01*
X84136219Y-92964282D01*
X83627639Y-92455702D01*
X83101735Y-91929798D01*
X83101732Y-91929796D01*
X83101731Y-91929795D01*
X83101730Y-91929794D01*
X83010413Y-91877072D01*
X83010415Y-91877072D01*
X82970892Y-91866482D01*
X82908549Y-91849778D01*
X82908547Y-91849778D01*
X80746499Y-91849778D01*
X80688308Y-91830871D01*
X80676495Y-91820782D01*
X80405494Y-91549781D01*
X80377717Y-91495264D01*
X80387288Y-91434832D01*
X80430553Y-91391567D01*
X80475498Y-91380777D01*
X82014459Y-91380777D01*
X82014462Y-91380777D01*
X82039589Y-91377863D01*
X82142363Y-91332484D01*
X82157118Y-91317728D01*
X82211633Y-91289950D01*
X82265005Y-91296266D01*
X82277768Y-91301553D01*
X82424695Y-91330778D01*
X82424696Y-91330778D01*
X82574500Y-91330778D01*
X82574501Y-91330778D01*
X82721428Y-91301553D01*
X82859830Y-91244225D01*
X82984389Y-91160997D01*
X83090317Y-91055069D01*
X83173545Y-90930510D01*
X83230873Y-90792108D01*
X83260098Y-90645181D01*
X83260098Y-90495375D01*
X83260097Y-90495372D01*
X84279098Y-90495372D01*
X84279098Y-90645183D01*
X84308323Y-90792107D01*
X84308323Y-90792109D01*
X84365649Y-90930507D01*
X84365649Y-90930508D01*
X84407122Y-90992575D01*
X84448879Y-91055069D01*
X84554807Y-91160997D01*
X84679366Y-91244225D01*
X84817768Y-91301553D01*
X84964695Y-91330778D01*
X84964696Y-91330778D01*
X85082986Y-91330778D01*
X85141177Y-91349685D01*
X85162239Y-91370449D01*
X85212405Y-91437462D01*
X85212413Y-91437470D01*
X85327507Y-91523630D01*
X85327509Y-91523631D01*
X85462216Y-91573874D01*
X85462227Y-91573876D01*
X85521774Y-91580278D01*
X86319597Y-91580278D01*
X86319598Y-91580277D01*
X86319598Y-90820279D01*
X86819598Y-90820279D01*
X86819598Y-91580277D01*
X86819599Y-91580278D01*
X87617422Y-91580278D01*
X87676968Y-91573876D01*
X87676979Y-91573874D01*
X87811686Y-91523631D01*
X87811688Y-91523630D01*
X87926782Y-91437470D01*
X87926790Y-91437462D01*
X88012950Y-91322368D01*
X88012951Y-91322366D01*
X88063194Y-91187659D01*
X88063196Y-91187648D01*
X88069598Y-91128102D01*
X88069598Y-90820279D01*
X88069597Y-90820278D01*
X86819599Y-90820278D01*
X86819598Y-90820279D01*
X86319598Y-90820279D01*
X86319598Y-89560279D01*
X86819598Y-89560279D01*
X86819598Y-90320277D01*
X86819599Y-90320278D01*
X88069597Y-90320278D01*
X88069598Y-90320277D01*
X88069598Y-90012453D01*
X88063196Y-89952907D01*
X88063194Y-89952896D01*
X88012951Y-89818189D01*
X88012950Y-89818187D01*
X87926790Y-89703093D01*
X87926782Y-89703085D01*
X87811688Y-89616925D01*
X87811686Y-89616924D01*
X87676979Y-89566681D01*
X87676968Y-89566679D01*
X87617422Y-89560278D01*
X86819599Y-89560278D01*
X86819598Y-89560279D01*
X86319598Y-89560279D01*
X86319597Y-89560278D01*
X85521774Y-89560278D01*
X85462227Y-89566679D01*
X85462216Y-89566681D01*
X85327509Y-89616924D01*
X85327507Y-89616925D01*
X85212413Y-89703085D01*
X85212405Y-89703093D01*
X85162239Y-89770107D01*
X85112230Y-89805360D01*
X85082986Y-89809778D01*
X84964692Y-89809778D01*
X84817768Y-89839003D01*
X84817766Y-89839003D01*
X84679368Y-89896329D01*
X84679367Y-89896329D01*
X84554807Y-89979559D01*
X84554803Y-89979562D01*
X84448882Y-90085483D01*
X84448879Y-90085487D01*
X84365649Y-90210047D01*
X84365649Y-90210048D01*
X84308323Y-90348446D01*
X84308323Y-90348448D01*
X84279098Y-90495372D01*
X83260097Y-90495372D01*
X83230873Y-90348448D01*
X83181781Y-90229929D01*
X83173546Y-90210048D01*
X83173546Y-90210047D01*
X83147847Y-90171586D01*
X83090317Y-90085487D01*
X82984389Y-89979559D01*
X82859830Y-89896331D01*
X82859829Y-89896330D01*
X82859827Y-89896329D01*
X82721428Y-89839003D01*
X82574503Y-89809778D01*
X82574501Y-89809778D01*
X82424695Y-89809778D01*
X82424692Y-89809778D01*
X82277767Y-89839003D01*
X82277757Y-89839006D01*
X82265002Y-89844289D01*
X82204005Y-89849086D01*
X82157120Y-89822828D01*
X82142364Y-89808073D01*
X82142363Y-89808072D01*
X82039589Y-89762693D01*
X82039588Y-89762692D01*
X82039586Y-89762692D01*
X82014466Y-89759778D01*
X79924737Y-89759778D01*
X79924734Y-89759779D01*
X79899607Y-89762692D01*
X79796833Y-89808072D01*
X79717392Y-89887513D01*
X79672012Y-89990289D01*
X79669098Y-90015408D01*
X79669098Y-90574377D01*
X79650191Y-90632568D01*
X79600691Y-90668532D01*
X79539505Y-90668532D01*
X79500094Y-90644381D01*
X78529338Y-89673625D01*
X78501561Y-89619108D01*
X78500678Y-89607894D01*
X78500342Y-89605339D01*
X78479704Y-89448578D01*
X78467397Y-89418866D01*
X78419197Y-89302501D01*
X78419197Y-89302500D01*
X78322946Y-89177063D01*
X78322945Y-89177062D01*
X78322942Y-89177058D01*
X78322937Y-89177054D01*
X78322936Y-89177053D01*
X78197498Y-89080802D01*
X78051426Y-89020297D01*
X78051418Y-89020295D01*
X77894661Y-88999658D01*
X77894659Y-88999658D01*
X77737901Y-89020295D01*
X77737893Y-89020297D01*
X77591821Y-89080802D01*
X77591820Y-89080802D01*
X77466383Y-89177053D01*
X77466373Y-89177063D01*
X77370122Y-89302500D01*
X77370122Y-89302501D01*
X77309617Y-89448573D01*
X77309615Y-89448581D01*
X77288978Y-89605339D01*
X77288978Y-89605340D01*
X77309615Y-89762098D01*
X77309617Y-89762106D01*
X77370122Y-89908178D01*
X77370122Y-89908179D01*
X77462024Y-90027948D01*
X77466378Y-90033622D01*
X77591819Y-90129876D01*
X77591820Y-90129876D01*
X77591821Y-90129877D01*
X77692542Y-90171597D01*
X77737898Y-90190384D01*
X77859940Y-90206451D01*
X77887261Y-90210048D01*
X77894660Y-90211022D01*
X77901093Y-90211869D01*
X77900865Y-90213596D01*
X77951132Y-90229929D01*
X77962945Y-90240018D01*
X79884829Y-92161902D01*
X79912606Y-92216419D01*
X79903035Y-92276851D01*
X79859770Y-92320116D01*
X79854814Y-92322470D01*
X79796834Y-92348071D01*
X79717392Y-92427513D01*
X79672012Y-92530289D01*
X79669098Y-92555408D01*
X79669098Y-93665138D01*
X79669099Y-93665141D01*
X79672012Y-93690268D01*
X79677330Y-93702311D01*
X79717392Y-93793043D01*
X79796833Y-93872484D01*
X79899607Y-93917863D01*
X79924733Y-93920778D01*
X82014462Y-93920777D01*
X82039589Y-93917863D01*
X82142363Y-93872484D01*
X82157118Y-93857728D01*
X82211633Y-93829950D01*
X82265005Y-93836266D01*
X82277768Y-93841553D01*
X82424695Y-93870778D01*
X82424696Y-93870778D01*
X82574500Y-93870778D01*
X82574501Y-93870778D01*
X82721428Y-93841553D01*
X82859830Y-93784225D01*
X82984389Y-93700997D01*
X83090317Y-93595069D01*
X83173545Y-93470510D01*
X83215292Y-93369723D01*
X83255026Y-93323200D01*
X83314520Y-93308916D01*
X83371048Y-93332330D01*
X83376758Y-93337607D01*
X83750102Y-93710951D01*
X83777879Y-93765468D01*
X83779098Y-93780955D01*
X83779098Y-97448154D01*
X83760191Y-97506345D01*
X83710691Y-97542309D01*
X83649505Y-97542309D01*
X83610096Y-97518159D01*
X83605511Y-97513574D01*
X83605508Y-97513572D01*
X83156230Y-97064294D01*
X82645593Y-96553656D01*
X82617816Y-96499139D01*
X82627387Y-96438707D01*
X82670652Y-96395442D01*
X82696283Y-96386554D01*
X82721428Y-96381553D01*
X82859830Y-96324225D01*
X82984389Y-96240997D01*
X83090317Y-96135069D01*
X83173545Y-96010510D01*
X83230873Y-95872108D01*
X83260098Y-95725181D01*
X83260098Y-95575375D01*
X83230873Y-95428448D01*
X83173546Y-95290048D01*
X83173546Y-95290047D01*
X83125358Y-95217930D01*
X83090317Y-95165487D01*
X82984389Y-95059559D01*
X82859830Y-94976331D01*
X82859829Y-94976330D01*
X82859827Y-94976329D01*
X82721428Y-94919003D01*
X82574503Y-94889778D01*
X82574501Y-94889778D01*
X82424695Y-94889778D01*
X82424692Y-94889778D01*
X82277767Y-94919003D01*
X82277757Y-94919006D01*
X82265002Y-94924289D01*
X82204005Y-94929086D01*
X82157120Y-94902828D01*
X82142364Y-94888073D01*
X82142363Y-94888072D01*
X82039589Y-94842693D01*
X82039588Y-94842692D01*
X82039586Y-94842692D01*
X82014466Y-94839778D01*
X79924737Y-94839778D01*
X79924734Y-94839779D01*
X79899607Y-94842692D01*
X79796833Y-94888072D01*
X79717392Y-94967513D01*
X79672012Y-95070289D01*
X79669098Y-95095408D01*
X79669098Y-95613697D01*
X79650191Y-95671888D01*
X79600691Y-95707852D01*
X79539505Y-95707852D01*
X79500094Y-95683701D01*
X75942023Y-92125630D01*
X75914246Y-92071113D01*
X75923817Y-92010681D01*
X75967078Y-91967419D01*
X76053220Y-91923528D01*
X76097675Y-91879072D01*
X76152189Y-91851296D01*
X76212621Y-91860867D01*
X76237681Y-91879073D01*
X76354518Y-91995910D01*
X76354520Y-91995913D01*
X76429087Y-92070480D01*
X76459529Y-92088055D01*
X76520409Y-92123205D01*
X76520413Y-92123207D01*
X76622270Y-92150500D01*
X76622272Y-92150501D01*
X76622273Y-92150501D01*
X76733790Y-92150501D01*
X76733806Y-92150500D01*
X77002929Y-92150500D01*
X77061120Y-92169407D01*
X77069687Y-92176723D01*
X77071716Y-92178280D01*
X77071718Y-92178282D01*
X77197159Y-92274536D01*
X77197160Y-92274536D01*
X77197161Y-92274537D01*
X77312882Y-92322470D01*
X77343238Y-92335044D01*
X77460809Y-92350522D01*
X77499999Y-92355682D01*
X77500000Y-92355682D01*
X77500001Y-92355682D01*
X77531352Y-92351554D01*
X77656762Y-92335044D01*
X77802841Y-92274536D01*
X77928282Y-92178282D01*
X78024536Y-92052841D01*
X78085044Y-91906762D01*
X78105682Y-91750000D01*
X78085044Y-91593238D01*
X78070550Y-91558247D01*
X78024537Y-91447161D01*
X78024537Y-91447160D01*
X77928286Y-91321723D01*
X77928285Y-91321722D01*
X77928282Y-91321718D01*
X77928277Y-91321714D01*
X77928276Y-91321713D01*
X77802838Y-91225462D01*
X77656766Y-91164957D01*
X77656758Y-91164955D01*
X77500001Y-91144318D01*
X77499999Y-91144318D01*
X77343241Y-91164955D01*
X77343233Y-91164957D01*
X77197161Y-91225462D01*
X77197160Y-91225462D01*
X77066570Y-91325668D01*
X77065509Y-91324286D01*
X77018416Y-91348281D01*
X77002929Y-91349500D01*
X76881900Y-91349500D01*
X76823709Y-91330593D01*
X76811896Y-91320504D01*
X76254496Y-90763103D01*
X76226719Y-90708586D01*
X76225500Y-90693099D01*
X76225500Y-89891510D01*
X76218780Y-89849086D01*
X76209719Y-89791874D01*
X76209716Y-89791869D01*
X76209716Y-89791867D01*
X76148529Y-89671782D01*
X76148528Y-89671780D01*
X76148526Y-89671778D01*
X76104496Y-89627747D01*
X76076719Y-89573230D01*
X76075500Y-89557744D01*
X76075500Y-88531901D01*
X76094407Y-88473710D01*
X76104496Y-88461897D01*
X77090985Y-87475408D01*
X79669098Y-87475408D01*
X79669098Y-88585138D01*
X79669099Y-88585141D01*
X79672012Y-88610268D01*
X79686062Y-88642088D01*
X79717392Y-88713043D01*
X79796833Y-88792484D01*
X79899607Y-88837863D01*
X79924733Y-88840778D01*
X82014462Y-88840777D01*
X82039589Y-88837863D01*
X82142363Y-88792484D01*
X82157118Y-88777728D01*
X82211633Y-88749950D01*
X82265005Y-88756266D01*
X82277768Y-88761553D01*
X82424695Y-88790778D01*
X82424696Y-88790778D01*
X82574500Y-88790778D01*
X82574501Y-88790778D01*
X82721428Y-88761553D01*
X82859830Y-88704225D01*
X82984389Y-88620997D01*
X83090317Y-88515069D01*
X83173545Y-88390510D01*
X83230873Y-88252108D01*
X83260098Y-88105181D01*
X83260098Y-87955375D01*
X83260097Y-87955372D01*
X84279098Y-87955372D01*
X84279098Y-88105183D01*
X84308323Y-88252107D01*
X84308323Y-88252109D01*
X84365649Y-88390507D01*
X84365649Y-88390508D01*
X84403947Y-88447824D01*
X84448879Y-88515069D01*
X84554807Y-88620997D01*
X84679366Y-88704225D01*
X84679367Y-88704225D01*
X84679368Y-88704226D01*
X84710721Y-88717212D01*
X84817768Y-88761553D01*
X84964695Y-88790778D01*
X84964696Y-88790778D01*
X85114500Y-88790778D01*
X85114501Y-88790778D01*
X85261428Y-88761553D01*
X85274184Y-88756268D01*
X85335179Y-88751465D01*
X85382074Y-88777725D01*
X85396833Y-88792484D01*
X85499607Y-88837863D01*
X85524733Y-88840778D01*
X87614462Y-88840777D01*
X87639589Y-88837863D01*
X87742363Y-88792484D01*
X87821804Y-88713043D01*
X87867183Y-88610269D01*
X87870098Y-88585143D01*
X87870097Y-87475414D01*
X87867183Y-87450287D01*
X87821804Y-87347513D01*
X87742363Y-87268072D01*
X87639589Y-87222693D01*
X87639588Y-87222692D01*
X87639586Y-87222692D01*
X87614466Y-87219778D01*
X85524737Y-87219778D01*
X85524734Y-87219779D01*
X85499607Y-87222692D01*
X85396832Y-87268072D01*
X85382075Y-87282829D01*
X85327558Y-87310606D01*
X85274190Y-87304289D01*
X85265822Y-87300823D01*
X85261426Y-87299002D01*
X85114503Y-87269778D01*
X85114501Y-87269778D01*
X84964695Y-87269778D01*
X84964692Y-87269778D01*
X84817768Y-87299003D01*
X84817766Y-87299003D01*
X84679368Y-87356329D01*
X84679367Y-87356329D01*
X84554807Y-87439559D01*
X84554803Y-87439562D01*
X84448882Y-87545483D01*
X84448879Y-87545487D01*
X84365649Y-87670047D01*
X84365649Y-87670048D01*
X84308323Y-87808446D01*
X84308323Y-87808448D01*
X84279098Y-87955372D01*
X83260097Y-87955372D01*
X83230873Y-87808448D01*
X83202209Y-87739247D01*
X83173546Y-87670048D01*
X83173546Y-87670047D01*
X83152809Y-87639013D01*
X83090317Y-87545487D01*
X82984389Y-87439559D01*
X82859830Y-87356331D01*
X82859829Y-87356330D01*
X82859827Y-87356329D01*
X82721428Y-87299003D01*
X82574503Y-87269778D01*
X82574501Y-87269778D01*
X82424695Y-87269778D01*
X82424692Y-87269778D01*
X82277767Y-87299003D01*
X82277757Y-87299006D01*
X82265002Y-87304289D01*
X82204005Y-87309086D01*
X82157120Y-87282828D01*
X82142364Y-87268073D01*
X82142363Y-87268072D01*
X82039589Y-87222693D01*
X82039588Y-87222692D01*
X82039586Y-87222692D01*
X82014466Y-87219778D01*
X79924737Y-87219778D01*
X79924734Y-87219779D01*
X79899607Y-87222692D01*
X79796833Y-87268072D01*
X79717392Y-87347513D01*
X79672012Y-87450289D01*
X79669098Y-87475408D01*
X77090985Y-87475408D01*
X77566897Y-86999496D01*
X77621414Y-86971719D01*
X77636901Y-86970500D01*
X82688949Y-86970500D01*
X82688951Y-86970500D01*
X82790812Y-86943207D01*
X82790814Y-86943205D01*
X82790816Y-86943205D01*
X82882132Y-86890483D01*
X82882132Y-86890482D01*
X82882137Y-86890480D01*
X83745910Y-86026705D01*
X83745913Y-86026704D01*
X83820480Y-85952137D01*
X83873207Y-85860811D01*
X83877930Y-85843186D01*
X83900501Y-85758951D01*
X83900501Y-85653497D01*
X83900501Y-85647435D01*
X83900500Y-85647417D01*
X83900500Y-85415372D01*
X84279098Y-85415372D01*
X84279098Y-85565183D01*
X84308323Y-85712107D01*
X84308323Y-85712109D01*
X84365649Y-85850507D01*
X84365649Y-85850508D01*
X84407122Y-85912575D01*
X84448879Y-85975069D01*
X84554807Y-86080997D01*
X84679366Y-86164225D01*
X84679367Y-86164225D01*
X84679368Y-86164226D01*
X84710721Y-86177212D01*
X84817768Y-86221553D01*
X84964695Y-86250778D01*
X84964696Y-86250778D01*
X85114500Y-86250778D01*
X85114501Y-86250778D01*
X85261428Y-86221553D01*
X85274184Y-86216268D01*
X85335179Y-86211465D01*
X85382074Y-86237725D01*
X85396833Y-86252484D01*
X85499607Y-86297863D01*
X85524733Y-86300778D01*
X87614462Y-86300777D01*
X87639589Y-86297863D01*
X87742363Y-86252484D01*
X87821804Y-86173043D01*
X87867183Y-86070269D01*
X87870098Y-86045143D01*
X87870097Y-84935414D01*
X87867183Y-84910287D01*
X87821804Y-84807513D01*
X87742363Y-84728072D01*
X87639589Y-84682693D01*
X87639588Y-84682692D01*
X87639586Y-84682692D01*
X87614466Y-84679778D01*
X85524737Y-84679778D01*
X85524734Y-84679779D01*
X85499607Y-84682692D01*
X85396832Y-84728072D01*
X85382075Y-84742829D01*
X85327558Y-84770606D01*
X85274190Y-84764289D01*
X85265822Y-84760823D01*
X85261426Y-84759002D01*
X85114503Y-84729778D01*
X85114501Y-84729778D01*
X84964695Y-84729778D01*
X84964692Y-84729778D01*
X84817768Y-84759003D01*
X84817766Y-84759003D01*
X84679368Y-84816329D01*
X84679367Y-84816329D01*
X84554807Y-84899559D01*
X84554803Y-84899562D01*
X84448882Y-85005483D01*
X84448879Y-85005487D01*
X84365649Y-85130047D01*
X84365649Y-85130048D01*
X84308323Y-85268446D01*
X84308323Y-85268448D01*
X84279098Y-85415372D01*
X83900500Y-85415372D01*
X83900500Y-83480675D01*
X83919407Y-83422484D01*
X83929490Y-83410678D01*
X84162474Y-83177693D01*
X84216989Y-83149917D01*
X84277421Y-83159488D01*
X84320686Y-83202753D01*
X84323940Y-83209812D01*
X84365650Y-83310509D01*
X84365651Y-83310510D01*
X84448879Y-83435069D01*
X84554807Y-83540997D01*
X84679366Y-83624225D01*
X84679367Y-83624225D01*
X84679368Y-83624226D01*
X84710721Y-83637212D01*
X84817768Y-83681553D01*
X84964695Y-83710778D01*
X84964696Y-83710778D01*
X85082986Y-83710778D01*
X85141177Y-83729685D01*
X85162239Y-83750449D01*
X85212405Y-83817462D01*
X85212413Y-83817470D01*
X85327507Y-83903630D01*
X85327509Y-83903631D01*
X85462216Y-83953874D01*
X85462227Y-83953876D01*
X85521774Y-83960278D01*
X86319597Y-83960278D01*
X86319598Y-83960277D01*
X86319598Y-83200279D01*
X86819598Y-83200279D01*
X86819598Y-83960277D01*
X86819599Y-83960278D01*
X87617422Y-83960278D01*
X87676968Y-83953876D01*
X87676979Y-83953874D01*
X87811686Y-83903631D01*
X87811688Y-83903630D01*
X87926782Y-83817470D01*
X87926790Y-83817462D01*
X88012950Y-83702368D01*
X88012951Y-83702366D01*
X88063194Y-83567659D01*
X88063196Y-83567648D01*
X88069598Y-83508102D01*
X88069598Y-83200279D01*
X88069597Y-83200278D01*
X86819599Y-83200278D01*
X86819598Y-83200279D01*
X86319598Y-83200279D01*
X86319598Y-81940279D01*
X86819598Y-81940279D01*
X86819598Y-82700277D01*
X86819599Y-82700278D01*
X88069597Y-82700278D01*
X88069598Y-82700277D01*
X88069598Y-82392453D01*
X88063196Y-82332907D01*
X88063194Y-82332896D01*
X88012951Y-82198189D01*
X88012950Y-82198187D01*
X87926790Y-82083093D01*
X87926782Y-82083085D01*
X87811688Y-81996925D01*
X87811686Y-81996924D01*
X87676979Y-81946681D01*
X87676968Y-81946679D01*
X87617422Y-81940278D01*
X86819599Y-81940278D01*
X86819598Y-81940279D01*
X86319598Y-81940279D01*
X86319597Y-81940278D01*
X85638897Y-81940278D01*
X85580706Y-81921371D01*
X85544742Y-81871871D01*
X85544742Y-81810685D01*
X85568891Y-81771276D01*
X86090395Y-81249773D01*
X86144912Y-81221996D01*
X86160399Y-81220777D01*
X87614459Y-81220777D01*
X87614462Y-81220777D01*
X87639589Y-81217863D01*
X87742363Y-81172484D01*
X87821804Y-81093043D01*
X87867183Y-80990269D01*
X87870098Y-80965143D01*
X87870097Y-79855414D01*
X87867183Y-79830287D01*
X87821804Y-79727513D01*
X87742363Y-79648072D01*
X87639589Y-79602693D01*
X87639588Y-79602692D01*
X87639586Y-79602692D01*
X87614466Y-79599778D01*
X85524737Y-79599778D01*
X85524734Y-79599779D01*
X85499607Y-79602692D01*
X85396832Y-79648072D01*
X85382075Y-79662829D01*
X85327558Y-79690606D01*
X85274190Y-79684289D01*
X85265822Y-79680823D01*
X85261426Y-79679002D01*
X85114503Y-79649778D01*
X85114501Y-79649778D01*
X84964695Y-79649778D01*
X84964692Y-79649778D01*
X84817768Y-79679003D01*
X84817766Y-79679003D01*
X84679368Y-79736329D01*
X84679367Y-79736329D01*
X84554807Y-79819559D01*
X84554803Y-79819562D01*
X84448882Y-79925483D01*
X84448879Y-79925487D01*
X84365649Y-80050047D01*
X84365649Y-80050048D01*
X84308323Y-80188446D01*
X84308323Y-80188448D01*
X84279098Y-80335372D01*
X84279098Y-80485183D01*
X84308323Y-80632107D01*
X84308323Y-80632109D01*
X84365649Y-80770507D01*
X84365649Y-80770508D01*
X84407122Y-80832575D01*
X84448879Y-80895069D01*
X84554807Y-81000997D01*
X84679366Y-81084225D01*
X84679367Y-81084225D01*
X84679368Y-81084226D01*
X84743893Y-81110953D01*
X84817768Y-81141553D01*
X84817770Y-81141553D01*
X84817772Y-81141554D01*
X84825776Y-81143145D01*
X84843014Y-81146574D01*
X84896398Y-81176469D01*
X84922015Y-81232033D01*
X84910081Y-81292043D01*
X84893706Y-81313676D01*
X83402996Y-82804386D01*
X83348479Y-82832163D01*
X83288047Y-82822592D01*
X83244782Y-82779327D01*
X83235894Y-82753693D01*
X83230874Y-82728452D01*
X83230872Y-82728446D01*
X83219204Y-82700278D01*
X83173546Y-82590048D01*
X83173546Y-82590047D01*
X83152809Y-82559013D01*
X83090317Y-82465487D01*
X82984389Y-82359559D01*
X82859830Y-82276331D01*
X82859829Y-82276330D01*
X82859827Y-82276329D01*
X82721428Y-82219003D01*
X82574503Y-82189778D01*
X82574501Y-82189778D01*
X82424695Y-82189778D01*
X82424692Y-82189778D01*
X82277767Y-82219003D01*
X82277757Y-82219006D01*
X82265002Y-82224289D01*
X82204005Y-82229086D01*
X82157120Y-82202828D01*
X82142364Y-82188073D01*
X82142363Y-82188072D01*
X82039589Y-82142693D01*
X82039588Y-82142692D01*
X82039586Y-82142692D01*
X82014466Y-82139778D01*
X79924737Y-82139778D01*
X79924734Y-82139779D01*
X79899607Y-82142692D01*
X79796833Y-82188072D01*
X79717392Y-82267513D01*
X79672012Y-82370289D01*
X79669098Y-82395408D01*
X79669098Y-83505138D01*
X79669099Y-83505141D01*
X79672012Y-83530268D01*
X79688223Y-83566982D01*
X79717392Y-83633043D01*
X79796833Y-83712484D01*
X79899607Y-83757863D01*
X79924733Y-83760778D01*
X82014462Y-83760777D01*
X82039589Y-83757863D01*
X82142363Y-83712484D01*
X82157118Y-83697728D01*
X82211633Y-83669950D01*
X82265005Y-83676266D01*
X82277768Y-83681553D01*
X82424695Y-83710778D01*
X82424696Y-83710778D01*
X82574500Y-83710778D01*
X82574501Y-83710778D01*
X82721428Y-83681553D01*
X82859830Y-83624225D01*
X82945501Y-83566981D01*
X83004386Y-83550373D01*
X83061789Y-83571550D01*
X83095783Y-83622423D01*
X83099500Y-83649297D01*
X83099500Y-84791258D01*
X83080593Y-84849449D01*
X83031093Y-84885413D01*
X82969907Y-84885413D01*
X82945498Y-84873573D01*
X82859827Y-84816329D01*
X82721428Y-84759003D01*
X82574503Y-84729778D01*
X82574501Y-84729778D01*
X82424695Y-84729778D01*
X82424692Y-84729778D01*
X82277767Y-84759003D01*
X82277757Y-84759006D01*
X82265002Y-84764289D01*
X82204005Y-84769086D01*
X82157120Y-84742828D01*
X82142364Y-84728073D01*
X82142363Y-84728072D01*
X82039589Y-84682693D01*
X82039588Y-84682692D01*
X82039586Y-84682692D01*
X82014466Y-84679778D01*
X79924737Y-84679778D01*
X79924734Y-84679779D01*
X79899607Y-84682692D01*
X79796833Y-84728072D01*
X79717392Y-84807513D01*
X79672012Y-84910289D01*
X79669098Y-84935408D01*
X79669098Y-86045138D01*
X79669099Y-86045146D01*
X79670717Y-86059098D01*
X79658638Y-86119079D01*
X79613609Y-86160505D01*
X79572376Y-86169500D01*
X77482727Y-86169500D01*
X77377273Y-86169500D01*
X77314929Y-86186204D01*
X77275407Y-86196794D01*
X77184091Y-86249516D01*
X75354516Y-88079091D01*
X75301793Y-88170411D01*
X75301792Y-88170411D01*
X75301793Y-88170412D01*
X75286732Y-88226622D01*
X75253408Y-88277937D01*
X75196287Y-88299864D01*
X75191105Y-88300000D01*
X74630001Y-88300000D01*
X74630000Y-88300001D01*
X74630000Y-88854504D01*
X74776197Y-88812030D01*
X74776198Y-88812030D01*
X74915374Y-88729721D01*
X75029721Y-88615374D01*
X75090287Y-88512964D01*
X75136182Y-88472501D01*
X75197096Y-88466743D01*
X75249761Y-88497889D01*
X75274061Y-88554042D01*
X75274500Y-88563359D01*
X75274500Y-89400500D01*
X75255593Y-89458691D01*
X75206093Y-89494655D01*
X75175500Y-89499500D01*
X74999391Y-89499500D01*
X74941200Y-89480593D01*
X74929388Y-89470504D01*
X74886112Y-89427229D01*
X74750189Y-89346845D01*
X74625000Y-89310473D01*
X74625000Y-89557244D01*
X74606093Y-89615435D01*
X74596004Y-89627247D01*
X74551473Y-89671778D01*
X74551470Y-89671782D01*
X74490283Y-89791867D01*
X74490281Y-89791874D01*
X74474500Y-89891510D01*
X74474500Y-91608489D01*
X74490281Y-91708125D01*
X74490283Y-91708132D01*
X74551470Y-91828217D01*
X74551472Y-91828220D01*
X74596005Y-91872753D01*
X74623781Y-91927268D01*
X74625000Y-91942755D01*
X74625000Y-92189525D01*
X74756171Y-92151417D01*
X74756628Y-92152993D01*
X74809781Y-92147969D01*
X74858188Y-92174581D01*
X77159070Y-94475462D01*
X79389796Y-96706188D01*
X79389798Y-96706191D01*
X79464365Y-96780758D01*
X79497238Y-96799737D01*
X79555691Y-96833485D01*
X79657548Y-96860778D01*
X79657550Y-96860779D01*
X79657551Y-96860779D01*
X79769068Y-96860779D01*
X79769084Y-96860778D01*
X81778921Y-96860778D01*
X81837112Y-96879685D01*
X81848925Y-96889774D01*
X81970425Y-97011274D01*
X81998202Y-97065791D01*
X81988631Y-97126223D01*
X81945366Y-97169488D01*
X81900421Y-97180278D01*
X81219599Y-97180278D01*
X81219598Y-97180279D01*
X81219598Y-99200277D01*
X81219599Y-99200278D01*
X82017422Y-99200278D01*
X82076968Y-99193876D01*
X82076979Y-99193874D01*
X82211686Y-99143631D01*
X82211688Y-99143630D01*
X82326782Y-99057470D01*
X82326789Y-99057463D01*
X82376955Y-98990450D01*
X82426964Y-98955196D01*
X82456209Y-98950778D01*
X82574500Y-98950778D01*
X82574501Y-98950778D01*
X82721428Y-98921553D01*
X82822214Y-98879805D01*
X82883209Y-98875005D01*
X82935378Y-98906974D01*
X82958793Y-98963502D01*
X82959098Y-98971270D01*
X82959098Y-99949285D01*
X82940191Y-100007476D01*
X82890691Y-100043440D01*
X82829505Y-100043440D01*
X82822213Y-100040749D01*
X82721428Y-99999003D01*
X82574503Y-99969778D01*
X82574501Y-99969778D01*
X82424695Y-99969778D01*
X82424692Y-99969778D01*
X82277767Y-99999003D01*
X82277757Y-99999006D01*
X82265002Y-100004289D01*
X82204005Y-100009086D01*
X82157120Y-99982828D01*
X82142364Y-99968073D01*
X82142363Y-99968072D01*
X82039589Y-99922693D01*
X82039588Y-99922692D01*
X82039586Y-99922692D01*
X82014467Y-99919778D01*
X82014463Y-99919778D01*
X80169098Y-99919778D01*
X80110907Y-99900871D01*
X80074943Y-99851371D01*
X80070098Y-99820778D01*
X80070098Y-99299278D01*
X80089005Y-99241087D01*
X80138505Y-99205123D01*
X80169098Y-99200278D01*
X80719597Y-99200278D01*
X80719598Y-99200277D01*
X80719598Y-97180279D01*
X80719597Y-97180278D01*
X79921774Y-97180278D01*
X79862227Y-97186679D01*
X79862216Y-97186681D01*
X79727509Y-97236924D01*
X79727507Y-97236925D01*
X79612413Y-97323085D01*
X79612405Y-97323093D01*
X79526245Y-97438187D01*
X79526244Y-97438189D01*
X79476001Y-97572896D01*
X79475999Y-97572907D01*
X79469598Y-97632453D01*
X79469598Y-97664197D01*
X79450691Y-97722388D01*
X79401191Y-97758352D01*
X79340005Y-97758352D01*
X79300595Y-97734201D01*
X78995913Y-97429520D01*
X78995908Y-97429516D01*
X78904591Y-97376794D01*
X78904593Y-97376794D01*
X78865070Y-97366204D01*
X78802727Y-97349500D01*
X78802725Y-97349500D01*
X76324500Y-97349500D01*
X76266309Y-97330593D01*
X76230345Y-97281093D01*
X76225500Y-97250500D01*
X76225500Y-96891510D01*
X76216309Y-96833485D01*
X76209719Y-96791874D01*
X76209716Y-96791869D01*
X76209716Y-96791867D01*
X76148529Y-96671782D01*
X76148528Y-96671780D01*
X76053220Y-96576472D01*
X76053217Y-96576470D01*
X75933132Y-96515283D01*
X75933127Y-96515281D01*
X75933126Y-96515281D01*
X75899913Y-96510020D01*
X75833490Y-96499500D01*
X75833488Y-96499500D01*
X75516512Y-96499500D01*
X75516510Y-96499500D01*
X75416874Y-96515281D01*
X75416869Y-96515282D01*
X75394944Y-96526454D01*
X75334512Y-96536025D01*
X75305056Y-96526454D01*
X75283130Y-96515282D01*
X75283126Y-96515281D01*
X75249913Y-96510020D01*
X75183490Y-96499500D01*
X75183488Y-96499500D01*
X74999391Y-96499500D01*
X74941200Y-96480593D01*
X74929388Y-96470504D01*
X74886112Y-96427229D01*
X74750189Y-96346845D01*
X74625000Y-96310473D01*
X74625000Y-96557244D01*
X74606093Y-96615435D01*
X74596004Y-96627247D01*
X74551473Y-96671778D01*
X74551470Y-96671782D01*
X74490283Y-96791867D01*
X74490281Y-96791874D01*
X74474500Y-96891510D01*
X74474500Y-97901000D01*
X74455593Y-97959191D01*
X74406093Y-97995155D01*
X74375500Y-98000000D01*
X74374500Y-98000000D01*
X74316309Y-97981093D01*
X74280345Y-97931593D01*
X74275500Y-97901000D01*
X74275500Y-96891510D01*
X74266309Y-96833485D01*
X74259719Y-96791874D01*
X74259716Y-96791869D01*
X74259716Y-96791867D01*
X74198529Y-96671782D01*
X74198528Y-96671780D01*
X74177248Y-96650500D01*
X74153996Y-96627247D01*
X74126219Y-96572730D01*
X74125000Y-96557244D01*
X74125000Y-96310473D01*
X73999810Y-96346845D01*
X73863887Y-96427229D01*
X73820612Y-96470504D01*
X73766095Y-96498281D01*
X73750609Y-96499500D01*
X73699391Y-96499500D01*
X73641200Y-96480593D01*
X73629388Y-96470504D01*
X73586112Y-96427229D01*
X73450189Y-96346845D01*
X73325000Y-96310473D01*
X73325000Y-96557244D01*
X73306093Y-96615435D01*
X73296004Y-96627247D01*
X73251473Y-96671778D01*
X73251470Y-96671782D01*
X73190283Y-96791867D01*
X73190281Y-96791874D01*
X73174500Y-96891510D01*
X73174500Y-97901000D01*
X73155593Y-97959191D01*
X73106093Y-97995155D01*
X73075500Y-98000000D01*
X73074500Y-98000000D01*
X73016309Y-97981093D01*
X72980345Y-97931593D01*
X72975500Y-97901000D01*
X72975500Y-96891510D01*
X72966309Y-96833485D01*
X72959719Y-96791874D01*
X72959716Y-96791869D01*
X72959716Y-96791867D01*
X72898529Y-96671782D01*
X72898528Y-96671780D01*
X72877248Y-96650500D01*
X72853996Y-96627247D01*
X72826219Y-96572730D01*
X72825000Y-96557244D01*
X72825000Y-96310473D01*
X72699810Y-96346845D01*
X72563887Y-96427229D01*
X72520612Y-96470504D01*
X72466095Y-96498281D01*
X72450609Y-96499500D01*
X72266510Y-96499500D01*
X72166874Y-96515281D01*
X72166869Y-96515282D01*
X72144944Y-96526454D01*
X72084512Y-96536025D01*
X72055056Y-96526454D01*
X72033130Y-96515282D01*
X72033126Y-96515281D01*
X71999913Y-96510020D01*
X71933490Y-96499500D01*
X71933488Y-96499500D01*
X71616512Y-96499500D01*
X71616510Y-96499500D01*
X71516874Y-96515281D01*
X71516869Y-96515282D01*
X71494944Y-96526454D01*
X71434512Y-96536025D01*
X71405056Y-96526454D01*
X71383130Y-96515282D01*
X71383126Y-96515281D01*
X71349913Y-96510020D01*
X71283490Y-96499500D01*
X71283488Y-96499500D01*
X70966512Y-96499500D01*
X70966510Y-96499500D01*
X70866874Y-96515281D01*
X70866869Y-96515282D01*
X70844944Y-96526454D01*
X70784512Y-96536025D01*
X70755056Y-96526454D01*
X70733130Y-96515282D01*
X70733126Y-96515281D01*
X70699913Y-96510020D01*
X70633490Y-96499500D01*
X70633488Y-96499500D01*
X70316512Y-96499500D01*
X70316510Y-96499500D01*
X70216874Y-96515281D01*
X70216869Y-96515282D01*
X70194944Y-96526454D01*
X70134512Y-96536025D01*
X70105056Y-96526454D01*
X70083130Y-96515282D01*
X70083126Y-96515281D01*
X70049913Y-96510020D01*
X69983490Y-96499500D01*
X69983488Y-96499500D01*
X69666512Y-96499500D01*
X69666510Y-96499500D01*
X69566874Y-96515281D01*
X69566867Y-96515283D01*
X69446782Y-96576470D01*
X69446777Y-96576474D01*
X69402324Y-96620926D01*
X69347807Y-96648702D01*
X69287375Y-96639130D01*
X69262318Y-96620925D01*
X68859496Y-96218103D01*
X68831719Y-96163586D01*
X68830500Y-96148099D01*
X68830500Y-96026928D01*
X68830499Y-96026923D01*
X68828960Y-96010508D01*
X68827710Y-95997181D01*
X68783852Y-95871843D01*
X68783851Y-95871841D01*
X68705002Y-95765004D01*
X68704995Y-95764997D01*
X68598158Y-95686148D01*
X68472823Y-95642291D01*
X68472814Y-95642289D01*
X68443076Y-95639500D01*
X68443066Y-95639500D01*
X68056934Y-95639500D01*
X68056923Y-95639500D01*
X68027185Y-95642289D01*
X68027176Y-95642291D01*
X67901841Y-95686148D01*
X67828788Y-95740064D01*
X67770740Y-95759406D01*
X67712410Y-95740935D01*
X67711212Y-95740064D01*
X67638158Y-95686148D01*
X67512823Y-95642291D01*
X67512814Y-95642289D01*
X67483076Y-95639500D01*
X67483066Y-95639500D01*
X67096934Y-95639500D01*
X67096923Y-95639500D01*
X67067185Y-95642289D01*
X67067176Y-95642291D01*
X66941841Y-95686148D01*
X66835003Y-95764998D01*
X66811511Y-95796829D01*
X66761743Y-95832421D01*
X66700559Y-95831963D01*
X66671589Y-95816582D01*
X66604363Y-95764998D01*
X66552841Y-95725464D01*
X66552840Y-95725463D01*
X66552838Y-95725462D01*
X66406766Y-95664957D01*
X66406758Y-95664955D01*
X66250001Y-95644318D01*
X66249997Y-95644318D01*
X66194441Y-95651631D01*
X66155900Y-95649105D01*
X66082729Y-95629500D01*
X66082727Y-95629500D01*
X64424163Y-95629500D01*
X64365972Y-95610593D01*
X64330008Y-95561093D01*
X64330008Y-95499907D01*
X64365972Y-95450407D01*
X64400471Y-95434377D01*
X64425223Y-95428276D01*
X64500225Y-95409790D01*
X64650852Y-95330734D01*
X64778183Y-95217929D01*
X64874818Y-95077930D01*
X64935140Y-94918872D01*
X64955645Y-94750000D01*
X64935140Y-94581128D01*
X64874818Y-94422070D01*
X64778183Y-94282071D01*
X64778182Y-94282070D01*
X64778180Y-94282067D01*
X64775393Y-94278921D01*
X64750962Y-94222825D01*
X64750500Y-94213277D01*
X64750500Y-91000001D01*
X69075000Y-91000001D01*
X69075000Y-91638105D01*
X69077788Y-91673546D01*
X69077790Y-91673552D01*
X69121845Y-91825189D01*
X69202227Y-91961109D01*
X69313890Y-92072772D01*
X69449810Y-92153154D01*
X69574999Y-92189525D01*
X69575000Y-92189525D01*
X69575000Y-91000001D01*
X69574999Y-91000000D01*
X69075001Y-91000000D01*
X69075000Y-91000001D01*
X64750500Y-91000001D01*
X64750500Y-89861894D01*
X69075000Y-89861894D01*
X69075000Y-90499999D01*
X69075001Y-90500000D01*
X69574999Y-90500000D01*
X69575000Y-90499999D01*
X69575000Y-89310473D01*
X69449810Y-89346845D01*
X69313890Y-89427227D01*
X69202227Y-89538890D01*
X69121845Y-89674810D01*
X69077790Y-89826447D01*
X69077788Y-89826453D01*
X69075000Y-89861894D01*
X64750500Y-89861894D01*
X64750500Y-88447824D01*
X66349999Y-88447824D01*
X66356401Y-88507370D01*
X66356403Y-88507381D01*
X66406646Y-88642088D01*
X66406647Y-88642090D01*
X66492807Y-88757184D01*
X66492815Y-88757192D01*
X66607909Y-88843352D01*
X66607911Y-88843353D01*
X66742618Y-88893596D01*
X66742629Y-88893598D01*
X66802176Y-88900000D01*
X67149999Y-88900000D01*
X67150000Y-88899999D01*
X67150000Y-88000001D01*
X67149999Y-88000000D01*
X66350001Y-88000000D01*
X66350000Y-88000001D01*
X66350000Y-88447824D01*
X66349999Y-88447824D01*
X64750500Y-88447824D01*
X64750500Y-86748321D01*
X64769407Y-86690130D01*
X64779490Y-86678323D01*
X66380498Y-85077314D01*
X66435013Y-85049539D01*
X66495445Y-85059110D01*
X66538710Y-85102375D01*
X66549500Y-85147320D01*
X66549500Y-86344860D01*
X66549501Y-86344863D01*
X66552414Y-86369990D01*
X66575000Y-86421141D01*
X66597794Y-86472765D01*
X66626791Y-86501762D01*
X66654567Y-86556277D01*
X66644996Y-86616709D01*
X66612160Y-86650507D01*
X66613579Y-86652403D01*
X66492815Y-86742807D01*
X66492807Y-86742815D01*
X66406647Y-86857909D01*
X66406646Y-86857911D01*
X66356403Y-86992618D01*
X66356401Y-86992629D01*
X66350000Y-87052175D01*
X66350000Y-87499999D01*
X66350001Y-87500000D01*
X67551000Y-87500000D01*
X67609191Y-87518907D01*
X67645155Y-87568407D01*
X67650000Y-87599000D01*
X67650000Y-88899999D01*
X67650001Y-88900000D01*
X67997824Y-88900000D01*
X68057370Y-88893598D01*
X68057381Y-88893596D01*
X68192088Y-88843353D01*
X68192090Y-88843352D01*
X68307184Y-88757192D01*
X68307192Y-88757184D01*
X68324717Y-88733773D01*
X68374724Y-88698518D01*
X68422499Y-88697701D01*
X68422613Y-88696727D01*
X68429920Y-88697574D01*
X68429970Y-88697574D01*
X68430004Y-88697583D01*
X68430009Y-88697585D01*
X68455135Y-88700500D01*
X69644864Y-88700499D01*
X69669991Y-88697585D01*
X69772765Y-88652206D01*
X69852206Y-88572765D01*
X69897585Y-88469991D01*
X69900500Y-88444865D01*
X69900500Y-88249500D01*
X69919407Y-88191309D01*
X69968907Y-88155345D01*
X69999500Y-88150500D01*
X70818098Y-88150500D01*
X70876289Y-88169407D01*
X70888102Y-88179496D01*
X71075451Y-88366845D01*
X71103228Y-88421362D01*
X71093657Y-88481794D01*
X71050392Y-88525059D01*
X71029140Y-88532972D01*
X70999776Y-88540209D01*
X70849146Y-88619267D01*
X70721816Y-88732071D01*
X70688074Y-88780953D01*
X70675564Y-88794132D01*
X70676346Y-88794914D01*
X70584220Y-88887037D01*
X70584215Y-88887044D01*
X70182873Y-89288385D01*
X70128357Y-89316162D01*
X70085251Y-89313450D01*
X70075001Y-89310472D01*
X70075000Y-89310473D01*
X70075000Y-89369366D01*
X70061737Y-89418866D01*
X70008608Y-89510886D01*
X69974500Y-89638183D01*
X69974500Y-89700946D01*
X69963710Y-89745890D01*
X69940282Y-89791869D01*
X69940281Y-89791874D01*
X69924500Y-89891510D01*
X69924500Y-91608489D01*
X69940281Y-91708125D01*
X69940283Y-91708132D01*
X70001470Y-91828217D01*
X70001472Y-91828220D01*
X70046005Y-91872753D01*
X70073781Y-91927268D01*
X70075000Y-91942755D01*
X70075000Y-92189525D01*
X70200189Y-92153154D01*
X70336112Y-92072770D01*
X70379388Y-92029496D01*
X70433905Y-92001719D01*
X70449391Y-92000500D01*
X70500609Y-92000500D01*
X70558800Y-92019407D01*
X70570612Y-92029496D01*
X70613887Y-92072770D01*
X70749810Y-92153154D01*
X70874999Y-92189525D01*
X70875000Y-92189525D01*
X70875000Y-91942755D01*
X70893907Y-91884564D01*
X70903990Y-91872757D01*
X70948528Y-91828220D01*
X71009719Y-91708126D01*
X71025500Y-91608488D01*
X71025500Y-90599000D01*
X71044407Y-90540809D01*
X71093907Y-90504845D01*
X71124500Y-90500000D01*
X71125500Y-90500000D01*
X71183691Y-90518907D01*
X71219655Y-90568407D01*
X71224500Y-90599000D01*
X71224500Y-91608489D01*
X71240281Y-91708125D01*
X71240283Y-91708132D01*
X71301470Y-91828217D01*
X71301472Y-91828220D01*
X71346005Y-91872753D01*
X71373781Y-91927268D01*
X71375000Y-91942755D01*
X71375000Y-92189525D01*
X71500189Y-92153154D01*
X71636112Y-92072770D01*
X71679388Y-92029496D01*
X71733905Y-92001719D01*
X71749391Y-92000500D01*
X71800609Y-92000500D01*
X71858800Y-92019407D01*
X71870612Y-92029496D01*
X71913887Y-92072770D01*
X72049810Y-92153154D01*
X72174999Y-92189525D01*
X72175000Y-92189525D01*
X72175000Y-91942755D01*
X72193907Y-91884564D01*
X72203990Y-91872757D01*
X72248528Y-91828220D01*
X72309719Y-91708126D01*
X72325500Y-91608488D01*
X72325500Y-90599000D01*
X72344407Y-90540809D01*
X72393907Y-90504845D01*
X72424500Y-90500000D01*
X72425500Y-90500000D01*
X72483691Y-90518907D01*
X72519655Y-90568407D01*
X72524500Y-90599000D01*
X72524500Y-91608489D01*
X72540281Y-91708125D01*
X72540283Y-91708132D01*
X72601470Y-91828217D01*
X72601472Y-91828220D01*
X72646005Y-91872753D01*
X72673781Y-91927268D01*
X72675000Y-91942755D01*
X72675000Y-92189525D01*
X72800189Y-92153154D01*
X72936112Y-92072770D01*
X72979388Y-92029496D01*
X73033905Y-92001719D01*
X73049391Y-92000500D01*
X73233491Y-92000500D01*
X73265583Y-91995416D01*
X73333126Y-91984719D01*
X73333960Y-91984294D01*
X73355053Y-91973547D01*
X73415484Y-91963973D01*
X73444947Y-91973547D01*
X73466867Y-91984716D01*
X73466870Y-91984717D01*
X73466874Y-91984719D01*
X73530555Y-91994805D01*
X73566509Y-92000500D01*
X73750609Y-92000500D01*
X73808800Y-92019407D01*
X73820612Y-92029496D01*
X73863887Y-92072770D01*
X73999810Y-92153154D01*
X74124999Y-92189525D01*
X74125000Y-92189525D01*
X74125000Y-91942755D01*
X74143907Y-91884564D01*
X74153990Y-91872757D01*
X74198528Y-91828220D01*
X74259719Y-91708126D01*
X74275500Y-91608488D01*
X74275500Y-89891512D01*
X74259719Y-89791874D01*
X74259717Y-89791870D01*
X74259717Y-89791869D01*
X74236290Y-89745890D01*
X74225500Y-89700946D01*
X74225500Y-89159111D01*
X74225500Y-89159108D01*
X74224359Y-89154851D01*
X74224359Y-89154838D01*
X74224356Y-89154840D01*
X74191392Y-89031814D01*
X74143262Y-88948451D01*
X74130000Y-88898953D01*
X74130000Y-87468001D01*
X74630000Y-87468001D01*
X74630000Y-87799999D01*
X74630001Y-87800000D01*
X75158789Y-87800000D01*
X75157144Y-87779087D01*
X75157143Y-87779079D01*
X75112030Y-87623802D01*
X75112030Y-87623801D01*
X75079221Y-87568324D01*
X75065873Y-87508612D01*
X75090173Y-87452459D01*
X75142838Y-87421313D01*
X75154374Y-87419441D01*
X75202696Y-87414505D01*
X75202699Y-87414504D01*
X75369124Y-87359356D01*
X75518340Y-87267319D01*
X75642319Y-87143340D01*
X75734356Y-86994124D01*
X75789506Y-86827693D01*
X75800000Y-86724987D01*
X75800000Y-86500001D01*
X75799999Y-86500000D01*
X74850001Y-86500000D01*
X74850000Y-86500001D01*
X74850000Y-87369000D01*
X74831093Y-87427191D01*
X74781593Y-87463155D01*
X74751000Y-87468000D01*
X74630001Y-87468000D01*
X74630000Y-87468001D01*
X74130000Y-87468001D01*
X74130000Y-87296000D01*
X74148907Y-87237809D01*
X74198407Y-87201845D01*
X74229000Y-87197000D01*
X74349999Y-87197000D01*
X74350000Y-87196999D01*
X74350000Y-86500001D01*
X74349999Y-86500000D01*
X73400002Y-86500000D01*
X73400001Y-86500001D01*
X73400001Y-86724986D01*
X73410492Y-86827687D01*
X73410495Y-86827699D01*
X73465643Y-86994124D01*
X73557680Y-87143340D01*
X73684836Y-87270496D01*
X73712613Y-87325013D01*
X73703042Y-87385445D01*
X73659777Y-87428710D01*
X73614832Y-87439500D01*
X73558322Y-87439500D01*
X73500131Y-87420593D01*
X73488318Y-87410504D01*
X72923315Y-86845501D01*
X72895538Y-86790984D01*
X72895025Y-86763693D01*
X72896979Y-86747422D01*
X72900500Y-86718102D01*
X72900500Y-85781898D01*
X72899673Y-85775012D01*
X73400000Y-85775012D01*
X73400000Y-85999999D01*
X73400001Y-86000000D01*
X74349999Y-86000000D01*
X74350000Y-85999999D01*
X74350000Y-85075001D01*
X74850000Y-85075001D01*
X74850000Y-85999999D01*
X74850001Y-86000000D01*
X75799998Y-86000000D01*
X75799999Y-85999999D01*
X75799999Y-85775013D01*
X75789507Y-85672312D01*
X75789504Y-85672300D01*
X75734356Y-85505875D01*
X75642319Y-85356659D01*
X75518340Y-85232680D01*
X75369124Y-85140643D01*
X75202693Y-85085493D01*
X75099987Y-85075000D01*
X74850001Y-85075000D01*
X74850000Y-85075001D01*
X74350000Y-85075001D01*
X74349999Y-85075000D01*
X74100013Y-85075000D01*
X73997312Y-85085492D01*
X73997300Y-85085495D01*
X73830875Y-85140643D01*
X73681659Y-85232680D01*
X73557680Y-85356659D01*
X73465643Y-85505875D01*
X73410493Y-85672306D01*
X73400000Y-85775012D01*
X72899673Y-85775012D01*
X72889877Y-85693436D01*
X72839300Y-85565183D01*
X72834362Y-85552660D01*
X72834361Y-85552659D01*
X72834361Y-85552658D01*
X72742922Y-85432078D01*
X72622342Y-85340639D01*
X72622341Y-85340638D01*
X72622339Y-85340637D01*
X72481562Y-85285122D01*
X72475410Y-85283567D01*
X72476163Y-85280585D01*
X72431929Y-85259919D01*
X72402305Y-85206384D01*
X72400500Y-85187565D01*
X72400500Y-82848322D01*
X72419407Y-82790131D01*
X72429496Y-82778318D01*
X75352406Y-79855408D01*
X79669098Y-79855408D01*
X79669098Y-80965138D01*
X79669099Y-80965141D01*
X79672012Y-80990268D01*
X79697354Y-81047663D01*
X79717392Y-81093043D01*
X79796833Y-81172484D01*
X79899607Y-81217863D01*
X79924733Y-81220778D01*
X82014462Y-81220777D01*
X82039589Y-81217863D01*
X82142363Y-81172484D01*
X82157118Y-81157728D01*
X82211633Y-81129950D01*
X82265005Y-81136266D01*
X82277768Y-81141553D01*
X82424695Y-81170778D01*
X82424696Y-81170778D01*
X82574500Y-81170778D01*
X82574501Y-81170778D01*
X82721428Y-81141553D01*
X82859830Y-81084225D01*
X82984389Y-81000997D01*
X83090317Y-80895069D01*
X83173545Y-80770510D01*
X83230873Y-80632108D01*
X83260098Y-80485181D01*
X83260098Y-80335375D01*
X83230873Y-80188448D01*
X83173546Y-80050048D01*
X83173546Y-80050047D01*
X83152809Y-80019013D01*
X83090317Y-79925487D01*
X82984389Y-79819559D01*
X82859830Y-79736331D01*
X82859829Y-79736330D01*
X82859827Y-79736329D01*
X82721428Y-79679003D01*
X82574503Y-79649778D01*
X82574501Y-79649778D01*
X82424695Y-79649778D01*
X82424692Y-79649778D01*
X82277767Y-79679003D01*
X82277757Y-79679006D01*
X82265002Y-79684289D01*
X82204005Y-79689086D01*
X82157120Y-79662828D01*
X82142364Y-79648073D01*
X82142363Y-79648072D01*
X82039589Y-79602693D01*
X82039588Y-79602692D01*
X82039586Y-79602692D01*
X82014466Y-79599778D01*
X79924737Y-79599778D01*
X79924734Y-79599779D01*
X79899607Y-79602692D01*
X79796833Y-79648072D01*
X79717392Y-79727513D01*
X79672012Y-79830289D01*
X79669098Y-79855408D01*
X75352406Y-79855408D01*
X76728318Y-78479496D01*
X76782835Y-78451719D01*
X76798322Y-78450500D01*
X76835053Y-78450500D01*
X76835056Y-78450500D01*
X76925929Y-78428102D01*
X79469597Y-78428102D01*
X79475999Y-78487648D01*
X79476001Y-78487659D01*
X79526244Y-78622366D01*
X79526245Y-78622368D01*
X79612405Y-78737462D01*
X79612413Y-78737470D01*
X79727507Y-78823630D01*
X79727509Y-78823631D01*
X79862216Y-78873874D01*
X79862227Y-78873876D01*
X79921774Y-78880278D01*
X80719597Y-78880278D01*
X80719598Y-78880277D01*
X80719598Y-78120279D01*
X80719597Y-78120278D01*
X79469599Y-78120278D01*
X79469598Y-78120279D01*
X79469598Y-78428102D01*
X79469597Y-78428102D01*
X76925929Y-78428102D01*
X77000225Y-78409790D01*
X77150852Y-78330734D01*
X77278183Y-78217929D01*
X77374818Y-78077930D01*
X77435140Y-77918872D01*
X77455645Y-77750000D01*
X77435140Y-77581128D01*
X77417495Y-77534603D01*
X77414540Y-77473492D01*
X77448071Y-77422312D01*
X77505280Y-77400616D01*
X77510063Y-77400500D01*
X79370598Y-77400500D01*
X79428789Y-77419407D01*
X79464753Y-77468907D01*
X79469598Y-77499500D01*
X79469598Y-77620277D01*
X79469599Y-77620278D01*
X81120598Y-77620278D01*
X81178789Y-77639185D01*
X81214753Y-77688685D01*
X81219598Y-77719278D01*
X81219598Y-78880277D01*
X81219599Y-78880278D01*
X82017422Y-78880278D01*
X82076968Y-78873876D01*
X82076979Y-78873874D01*
X82211686Y-78823631D01*
X82211688Y-78823630D01*
X82326782Y-78737470D01*
X82326789Y-78737463D01*
X82376955Y-78670450D01*
X82426964Y-78635196D01*
X82456209Y-78630778D01*
X82574500Y-78630778D01*
X82574501Y-78630778D01*
X82721428Y-78601553D01*
X82859830Y-78544225D01*
X82984389Y-78460997D01*
X83090317Y-78355069D01*
X83173545Y-78230510D01*
X83230873Y-78092108D01*
X83260098Y-77945181D01*
X83260098Y-77795375D01*
X83230873Y-77648448D01*
X83202989Y-77581129D01*
X83184870Y-77537385D01*
X83180070Y-77476388D01*
X83212039Y-77424219D01*
X83268567Y-77400805D01*
X83276334Y-77400500D01*
X84262862Y-77400500D01*
X84321053Y-77419407D01*
X84357017Y-77468907D01*
X84357017Y-77530093D01*
X84354326Y-77537385D01*
X84308323Y-77648446D01*
X84308323Y-77648448D01*
X84279098Y-77795372D01*
X84279098Y-77945183D01*
X84308323Y-78092107D01*
X84308323Y-78092109D01*
X84365649Y-78230507D01*
X84365649Y-78230508D01*
X84407122Y-78292575D01*
X84448879Y-78355069D01*
X84554807Y-78460997D01*
X84679366Y-78544225D01*
X84679367Y-78544225D01*
X84679368Y-78544226D01*
X84710721Y-78557212D01*
X84817768Y-78601553D01*
X84964695Y-78630778D01*
X84964696Y-78630778D01*
X85114500Y-78630778D01*
X85114501Y-78630778D01*
X85261428Y-78601553D01*
X85274184Y-78596268D01*
X85335179Y-78591465D01*
X85382074Y-78617725D01*
X85396833Y-78632484D01*
X85499607Y-78677863D01*
X85524733Y-78680778D01*
X87614462Y-78680777D01*
X87639589Y-78677863D01*
X87742363Y-78632484D01*
X87821804Y-78553043D01*
X87867183Y-78450269D01*
X87870098Y-78425143D01*
X87870097Y-77315414D01*
X87867183Y-77290287D01*
X87821804Y-77187513D01*
X87742363Y-77108072D01*
X87639589Y-77062693D01*
X87639588Y-77062692D01*
X87639586Y-77062692D01*
X87614467Y-77059778D01*
X87614463Y-77059778D01*
X86367179Y-77059778D01*
X86308988Y-77040871D01*
X86297176Y-77030782D01*
X85945912Y-76679519D01*
X85945478Y-76679186D01*
X85945256Y-76678863D01*
X85941325Y-76674932D01*
X85942053Y-76674203D01*
X85910826Y-76628759D01*
X85912432Y-76567595D01*
X85935748Y-76530644D01*
X86296620Y-76169773D01*
X86351136Y-76141996D01*
X86366623Y-76140777D01*
X87614459Y-76140777D01*
X87614462Y-76140777D01*
X87639589Y-76137863D01*
X87742363Y-76092484D01*
X87821804Y-76013043D01*
X87867183Y-75910269D01*
X87870098Y-75885143D01*
X87870097Y-74775414D01*
X87867183Y-74750287D01*
X87821804Y-74647513D01*
X87742363Y-74568072D01*
X87639589Y-74522693D01*
X87639588Y-74522692D01*
X87639586Y-74522692D01*
X87614466Y-74519778D01*
X85524737Y-74519778D01*
X85524734Y-74519779D01*
X85499607Y-74522692D01*
X85396832Y-74568072D01*
X85382075Y-74582829D01*
X85327558Y-74610606D01*
X85274190Y-74604289D01*
X85265822Y-74600823D01*
X85261426Y-74599002D01*
X85114503Y-74569778D01*
X85114501Y-74569778D01*
X84964695Y-74569778D01*
X84964692Y-74569778D01*
X84817768Y-74599003D01*
X84817766Y-74599003D01*
X84679368Y-74656329D01*
X84679367Y-74656329D01*
X84554807Y-74739559D01*
X84554803Y-74739562D01*
X84448882Y-74845483D01*
X84448879Y-74845487D01*
X84365649Y-74970047D01*
X84365649Y-74970048D01*
X84308323Y-75108446D01*
X84308323Y-75108448D01*
X84279098Y-75255372D01*
X84279098Y-75255375D01*
X84279098Y-75405181D01*
X84305046Y-75535635D01*
X84308323Y-75552107D01*
X84308323Y-75552109D01*
X84365649Y-75690507D01*
X84365649Y-75690508D01*
X84421136Y-75773549D01*
X84448544Y-75814568D01*
X84448880Y-75815070D01*
X84451039Y-75817701D01*
X84473335Y-75874680D01*
X84457881Y-75933881D01*
X84410581Y-75972693D01*
X84374506Y-75979500D01*
X83164690Y-75979500D01*
X83106499Y-75960593D01*
X83070535Y-75911093D01*
X83070535Y-75849907D01*
X83088157Y-75817701D01*
X83090310Y-75815075D01*
X83090317Y-75815069D01*
X83173545Y-75690510D01*
X83230873Y-75552108D01*
X83260098Y-75405181D01*
X83260098Y-75255375D01*
X83230873Y-75108448D01*
X83173546Y-74970048D01*
X83173546Y-74970047D01*
X83128561Y-74902723D01*
X83090317Y-74845487D01*
X82984389Y-74739559D01*
X82859830Y-74656331D01*
X82859829Y-74656330D01*
X82859827Y-74656329D01*
X82721428Y-74599003D01*
X82574503Y-74569778D01*
X82574501Y-74569778D01*
X82424695Y-74569778D01*
X82424692Y-74569778D01*
X82277767Y-74599003D01*
X82277757Y-74599006D01*
X82265002Y-74604289D01*
X82204005Y-74609086D01*
X82157120Y-74582828D01*
X82142364Y-74568073D01*
X82142363Y-74568072D01*
X82039589Y-74522693D01*
X82039588Y-74522692D01*
X82039586Y-74522692D01*
X82014467Y-74519778D01*
X82014463Y-74519778D01*
X80169500Y-74519778D01*
X80111309Y-74500871D01*
X80075345Y-74451371D01*
X80070500Y-74420778D01*
X80070500Y-73699777D01*
X80089407Y-73641586D01*
X80138907Y-73605622D01*
X80169500Y-73600777D01*
X82014459Y-73600777D01*
X82014462Y-73600777D01*
X82039589Y-73597863D01*
X82142363Y-73552484D01*
X82157118Y-73537728D01*
X82211633Y-73509950D01*
X82265005Y-73516266D01*
X82277768Y-73521553D01*
X82424695Y-73550778D01*
X82424696Y-73550778D01*
X82574500Y-73550778D01*
X82574501Y-73550778D01*
X82721428Y-73521553D01*
X82859830Y-73464225D01*
X82984389Y-73380997D01*
X83090317Y-73275069D01*
X83173545Y-73150510D01*
X83230873Y-73012108D01*
X83260098Y-72865181D01*
X83260098Y-72805847D01*
X83279005Y-72747656D01*
X83328505Y-72711692D01*
X83389689Y-72711692D01*
X83389691Y-72711692D01*
X83389691Y-72711693D01*
X83476771Y-72739987D01*
X83476768Y-72739987D01*
X83671178Y-72770778D01*
X83671181Y-72770778D01*
X83868018Y-72770778D01*
X84062425Y-72739987D01*
X84149505Y-72711693D01*
X84210690Y-72711692D01*
X84260190Y-72747656D01*
X84279098Y-72805847D01*
X84279098Y-72865183D01*
X84308323Y-73012107D01*
X84308323Y-73012109D01*
X84365649Y-73150507D01*
X84365649Y-73150508D01*
X84407122Y-73212575D01*
X84448879Y-73275069D01*
X84554807Y-73380997D01*
X84679366Y-73464225D01*
X84817768Y-73521553D01*
X84964695Y-73550778D01*
X84964696Y-73550778D01*
X85082986Y-73550778D01*
X85141177Y-73569685D01*
X85162239Y-73590449D01*
X85212405Y-73657462D01*
X85212413Y-73657470D01*
X85327507Y-73743630D01*
X85327509Y-73743631D01*
X85462216Y-73793874D01*
X85462227Y-73793876D01*
X85521774Y-73800278D01*
X86319597Y-73800278D01*
X86319598Y-73800277D01*
X86319598Y-73040279D01*
X86819598Y-73040279D01*
X86819598Y-73800277D01*
X86819599Y-73800278D01*
X87617422Y-73800278D01*
X87676968Y-73793876D01*
X87676979Y-73793874D01*
X87811686Y-73743631D01*
X87811688Y-73743630D01*
X87926782Y-73657470D01*
X87926790Y-73657462D01*
X88012950Y-73542368D01*
X88012951Y-73542366D01*
X88063194Y-73407659D01*
X88063196Y-73407648D01*
X88069598Y-73348102D01*
X88069598Y-73040279D01*
X88069597Y-73040278D01*
X86819599Y-73040278D01*
X86819598Y-73040279D01*
X86319598Y-73040279D01*
X86319598Y-71780279D01*
X86819598Y-71780279D01*
X86819598Y-72540277D01*
X86819599Y-72540278D01*
X88069597Y-72540278D01*
X88069598Y-72540277D01*
X88069598Y-72232453D01*
X88063196Y-72172907D01*
X88063194Y-72172896D01*
X88012951Y-72038189D01*
X88012950Y-72038187D01*
X87926790Y-71923093D01*
X87926782Y-71923085D01*
X87811688Y-71836925D01*
X87811686Y-71836924D01*
X87676979Y-71786681D01*
X87676968Y-71786679D01*
X87617422Y-71780278D01*
X86819599Y-71780278D01*
X86819598Y-71780279D01*
X86319598Y-71780279D01*
X86319597Y-71780278D01*
X85521774Y-71780278D01*
X85462227Y-71786679D01*
X85462216Y-71786681D01*
X85327509Y-71836924D01*
X85327507Y-71836925D01*
X85212413Y-71923085D01*
X85212405Y-71923093D01*
X85162239Y-71990107D01*
X85112230Y-72025360D01*
X85082986Y-72029778D01*
X85055167Y-72029778D01*
X84996976Y-72010871D01*
X84961012Y-71961371D01*
X84961012Y-71900186D01*
X84967319Y-71880778D01*
X84989307Y-71813105D01*
X85020098Y-71618698D01*
X85020098Y-71421857D01*
X84989307Y-71227450D01*
X84961013Y-71140371D01*
X84961012Y-71079186D01*
X84996976Y-71029686D01*
X85055167Y-71010778D01*
X85114500Y-71010778D01*
X85114501Y-71010778D01*
X85261428Y-70981553D01*
X85274184Y-70976268D01*
X85335179Y-70971465D01*
X85382074Y-70997725D01*
X85396833Y-71012484D01*
X85499607Y-71057863D01*
X85524733Y-71060778D01*
X87614462Y-71060777D01*
X87639589Y-71057863D01*
X87742363Y-71012484D01*
X87821804Y-70933043D01*
X87867183Y-70830269D01*
X87870098Y-70805143D01*
X87870097Y-69695414D01*
X87867183Y-69670287D01*
X87821804Y-69567513D01*
X87742363Y-69488072D01*
X87639589Y-69442693D01*
X87639588Y-69442692D01*
X87639586Y-69442692D01*
X87614467Y-69439778D01*
X87614463Y-69439778D01*
X87225826Y-69439778D01*
X87167635Y-69420871D01*
X87131671Y-69371371D01*
X87131671Y-69310185D01*
X87133259Y-69305673D01*
X87154352Y-69250053D01*
X87185140Y-69168872D01*
X87203641Y-69016499D01*
X87205645Y-69000001D01*
X87205645Y-68999998D01*
X87195544Y-68916814D01*
X87185140Y-68831128D01*
X87124818Y-68672070D01*
X87124813Y-68672063D01*
X87122035Y-68666768D01*
X87124414Y-68665518D01*
X87110044Y-68617418D01*
X87130333Y-68559694D01*
X87180676Y-68524920D01*
X87209016Y-68520777D01*
X87614459Y-68520777D01*
X87614462Y-68520777D01*
X87639589Y-68517863D01*
X87742363Y-68472484D01*
X87821804Y-68393043D01*
X87867183Y-68290269D01*
X87870098Y-68265143D01*
X87870097Y-67155414D01*
X87867183Y-67130287D01*
X87821804Y-67027513D01*
X87742363Y-66948072D01*
X87639589Y-66902693D01*
X87639588Y-66902692D01*
X87639586Y-66902692D01*
X87614466Y-66899778D01*
X85524737Y-66899778D01*
X85524734Y-66899779D01*
X85499607Y-66902692D01*
X85396832Y-66948072D01*
X85382075Y-66962829D01*
X85327558Y-66990606D01*
X85274190Y-66984289D01*
X85261428Y-66979003D01*
X85261426Y-66979002D01*
X85114503Y-66949778D01*
X85114501Y-66949778D01*
X84964695Y-66949778D01*
X84964692Y-66949778D01*
X84817768Y-66979003D01*
X84817766Y-66979003D01*
X84679368Y-67036329D01*
X84679367Y-67036329D01*
X84554807Y-67119559D01*
X84554803Y-67119562D01*
X84448882Y-67225483D01*
X84448879Y-67225487D01*
X84365649Y-67350047D01*
X84365649Y-67350048D01*
X84308323Y-67488446D01*
X84308323Y-67488448D01*
X84279098Y-67635372D01*
X84279098Y-67785183D01*
X84308323Y-67932107D01*
X84308323Y-67932109D01*
X84365649Y-68070507D01*
X84365649Y-68070508D01*
X84407122Y-68132575D01*
X84448879Y-68195069D01*
X84554807Y-68300997D01*
X84679366Y-68384225D01*
X84679367Y-68384225D01*
X84679368Y-68384226D01*
X84710721Y-68397212D01*
X84817768Y-68441553D01*
X84964695Y-68470778D01*
X84964696Y-68470778D01*
X85114500Y-68470778D01*
X85114501Y-68470778D01*
X85261428Y-68441553D01*
X85274184Y-68436268D01*
X85335179Y-68431465D01*
X85382074Y-68457725D01*
X85396833Y-68472484D01*
X85499607Y-68517863D01*
X85524733Y-68520778D01*
X85790984Y-68520777D01*
X85849173Y-68539684D01*
X85885137Y-68589184D01*
X85885138Y-68650369D01*
X85877225Y-68666379D01*
X85877965Y-68666768D01*
X85875182Y-68672070D01*
X85814860Y-68831128D01*
X85810333Y-68868413D01*
X85794355Y-68999998D01*
X85794355Y-69000001D01*
X85814860Y-69168871D01*
X85866741Y-69305673D01*
X85869696Y-69366787D01*
X85836166Y-69417966D01*
X85778956Y-69439662D01*
X85774174Y-69439778D01*
X85524737Y-69439778D01*
X85524734Y-69439779D01*
X85499607Y-69442692D01*
X85396832Y-69488072D01*
X85382075Y-69502829D01*
X85327558Y-69530606D01*
X85274190Y-69524289D01*
X85265822Y-69520823D01*
X85261426Y-69519002D01*
X85114503Y-69489778D01*
X85114501Y-69489778D01*
X84964695Y-69489778D01*
X84964692Y-69489778D01*
X84817768Y-69519003D01*
X84817766Y-69519003D01*
X84679368Y-69576329D01*
X84679367Y-69576329D01*
X84554807Y-69659559D01*
X84554803Y-69659562D01*
X84448882Y-69765483D01*
X84448879Y-69765487D01*
X84365649Y-69890047D01*
X84365649Y-69890048D01*
X84308323Y-70028446D01*
X84308323Y-70028448D01*
X84279098Y-70175372D01*
X84279098Y-70234708D01*
X84260191Y-70292899D01*
X84210691Y-70328863D01*
X84149506Y-70328863D01*
X84062421Y-70300568D01*
X83868018Y-70269778D01*
X83868015Y-70269778D01*
X83671181Y-70269778D01*
X83671178Y-70269778D01*
X83476774Y-70300568D01*
X83389690Y-70328863D01*
X83328505Y-70328862D01*
X83279005Y-70292898D01*
X83260098Y-70234708D01*
X83260098Y-70175375D01*
X83260097Y-70175372D01*
X83230873Y-70028448D01*
X83173546Y-69890048D01*
X83173546Y-69890047D01*
X83147847Y-69851586D01*
X83090317Y-69765487D01*
X82984389Y-69659559D01*
X82859830Y-69576331D01*
X82859829Y-69576330D01*
X82859827Y-69576329D01*
X82721428Y-69519003D01*
X82574503Y-69489778D01*
X82574501Y-69489778D01*
X82424695Y-69489778D01*
X82424692Y-69489778D01*
X82277767Y-69519003D01*
X82277757Y-69519006D01*
X82265002Y-69524289D01*
X82204005Y-69529086D01*
X82157120Y-69502828D01*
X82142364Y-69488073D01*
X82142363Y-69488072D01*
X82039589Y-69442693D01*
X82039588Y-69442692D01*
X82039586Y-69442692D01*
X82014467Y-69439778D01*
X82014463Y-69439778D01*
X80187044Y-69439778D01*
X80128853Y-69420871D01*
X80092889Y-69371371D01*
X80092889Y-69310185D01*
X80117040Y-69270774D01*
X80838040Y-68549773D01*
X80892557Y-68521996D01*
X80908044Y-68520777D01*
X82014459Y-68520777D01*
X82014462Y-68520777D01*
X82039589Y-68517863D01*
X82142363Y-68472484D01*
X82157118Y-68457728D01*
X82211633Y-68429950D01*
X82265005Y-68436266D01*
X82277768Y-68441553D01*
X82424695Y-68470778D01*
X82424696Y-68470778D01*
X82574500Y-68470778D01*
X82574501Y-68470778D01*
X82721428Y-68441553D01*
X82859830Y-68384225D01*
X82984389Y-68300997D01*
X83090317Y-68195069D01*
X83173545Y-68070510D01*
X83230873Y-67932108D01*
X83260098Y-67785181D01*
X83260098Y-67635375D01*
X83230873Y-67488448D01*
X83173546Y-67350048D01*
X83173546Y-67350047D01*
X83147847Y-67311586D01*
X83090317Y-67225487D01*
X82984389Y-67119559D01*
X82859830Y-67036331D01*
X82859829Y-67036330D01*
X82859827Y-67036329D01*
X82721429Y-66979003D01*
X82642334Y-66963270D01*
X82588951Y-66933373D01*
X82563335Y-66877808D01*
X82575272Y-66817798D01*
X82591641Y-66796172D01*
X83650500Y-65737314D01*
X83716392Y-65623186D01*
X83750500Y-65495892D01*
X83750500Y-65364107D01*
X83750500Y-64499499D01*
X83769407Y-64441308D01*
X83818907Y-64405344D01*
X83849500Y-64400499D01*
X84093096Y-64400499D01*
X84093098Y-64400499D01*
X84181564Y-64389876D01*
X84322342Y-64334361D01*
X84442922Y-64242922D01*
X84534361Y-64122342D01*
X84589876Y-63981564D01*
X84600500Y-63893099D01*
X84600499Y-59806902D01*
X84589876Y-59718436D01*
X84534361Y-59577658D01*
X84442922Y-59457078D01*
X84322342Y-59365639D01*
X84181564Y-59310124D01*
X84093099Y-59299500D01*
X82406903Y-59299500D01*
X82406897Y-59299501D01*
X82318436Y-59310124D01*
X82177658Y-59365639D01*
X82177657Y-59365639D01*
X82177656Y-59365640D01*
X82057081Y-59457075D01*
X82057075Y-59457081D01*
X81965640Y-59577656D01*
X81965639Y-59577657D01*
X81965639Y-59577658D01*
X81946270Y-59626773D01*
X81910124Y-59718435D01*
X81899500Y-59806898D01*
X81899500Y-63893096D01*
X81899501Y-63893099D01*
X81910124Y-63981564D01*
X81965639Y-64122342D01*
X82057078Y-64242922D01*
X82177658Y-64334361D01*
X82318436Y-64389876D01*
X82406901Y-64400500D01*
X82650500Y-64400499D01*
X82708690Y-64419406D01*
X82744654Y-64468906D01*
X82749500Y-64499499D01*
X82749500Y-65181677D01*
X82730593Y-65239868D01*
X82720504Y-65251681D01*
X81101402Y-66870782D01*
X81046885Y-66898559D01*
X81031398Y-66899778D01*
X79924737Y-66899778D01*
X79924734Y-66899779D01*
X79899607Y-66902692D01*
X79796833Y-66948072D01*
X79717392Y-67027513D01*
X79672012Y-67130289D01*
X79669098Y-67155408D01*
X79669098Y-68262079D01*
X79650191Y-68320270D01*
X79640102Y-68332082D01*
X79262686Y-68709499D01*
X79169500Y-68802685D01*
X79169496Y-68802690D01*
X79103609Y-68916809D01*
X79069500Y-69044109D01*
X79069500Y-74495462D01*
X79050593Y-74553653D01*
X79004902Y-74586849D01*
X79005372Y-74588087D01*
X78999776Y-74590209D01*
X78849146Y-74669267D01*
X78721818Y-74782069D01*
X78721816Y-74782072D01*
X78678044Y-74845487D01*
X78625182Y-74922070D01*
X78564860Y-75081128D01*
X78544355Y-75250000D01*
X78564860Y-75418872D01*
X78625182Y-75577930D01*
X78702889Y-75690507D01*
X78721816Y-75717927D01*
X78721818Y-75717930D01*
X78821677Y-75806397D01*
X78852696Y-75859137D01*
X78846790Y-75920037D01*
X78806217Y-75965835D01*
X78756028Y-75979500D01*
X63706901Y-75979500D01*
X63648710Y-75960593D01*
X63636897Y-75950504D01*
X58846650Y-71160257D01*
X58818873Y-71105740D01*
X58827111Y-71052182D01*
X58825752Y-71051656D01*
X58827400Y-71047398D01*
X58827405Y-71047389D01*
X58885756Y-70842310D01*
X58905429Y-70630000D01*
X58885756Y-70417690D01*
X58827405Y-70212611D01*
X58732366Y-70021745D01*
X58603872Y-69851593D01*
X58509419Y-69765487D01*
X58446307Y-69707952D01*
X58446300Y-69707946D01*
X58265024Y-69595705D01*
X58265019Y-69595702D01*
X58096985Y-69530606D01*
X58066198Y-69518679D01*
X58066197Y-69518678D01*
X58066195Y-69518678D01*
X57856610Y-69479500D01*
X57643390Y-69479500D01*
X57433804Y-69518678D01*
X57234980Y-69595702D01*
X57234975Y-69595705D01*
X57053699Y-69707946D01*
X57053692Y-69707952D01*
X56896135Y-69851586D01*
X56896131Y-69851589D01*
X56896128Y-69851593D01*
X56896125Y-69851597D01*
X56767635Y-70021743D01*
X56767630Y-70021752D01*
X56672596Y-70212608D01*
X56614244Y-70417688D01*
X56594571Y-70630000D01*
X56608010Y-70775031D01*
X56594552Y-70834718D01*
X56579436Y-70854169D01*
X54391354Y-73042251D01*
X54336837Y-73070028D01*
X54279511Y-73061971D01*
X54196499Y-73023262D01*
X54196500Y-73023262D01*
X54123228Y-73003629D01*
X53976692Y-72964365D01*
X53976691Y-72964364D01*
X53976684Y-72964363D01*
X53750003Y-72944532D01*
X53749997Y-72944532D01*
X53523315Y-72964363D01*
X53303499Y-73023262D01*
X53097276Y-73119426D01*
X53097262Y-73119434D01*
X52910869Y-73249946D01*
X52910867Y-73249947D01*
X52749947Y-73410867D01*
X52749946Y-73410869D01*
X52619434Y-73597262D01*
X52619426Y-73597276D01*
X52523262Y-73803499D01*
X52464363Y-74023315D01*
X52444532Y-74249996D01*
X50800500Y-74249996D01*
X50800500Y-68249996D01*
X52444532Y-68249996D01*
X52444532Y-68250003D01*
X52464363Y-68476684D01*
X52464364Y-68476691D01*
X52464365Y-68476692D01*
X52476178Y-68520778D01*
X52523262Y-68696500D01*
X52619426Y-68902723D01*
X52619434Y-68902737D01*
X52749946Y-69089130D01*
X52749947Y-69089132D01*
X52749950Y-69089135D01*
X52749953Y-69089139D01*
X52910861Y-69250047D01*
X52910864Y-69250049D01*
X52910867Y-69250052D01*
X52910869Y-69250053D01*
X52940462Y-69270774D01*
X53097266Y-69380568D01*
X53097272Y-69380571D01*
X53097276Y-69380573D01*
X53303500Y-69476737D01*
X53303504Y-69476739D01*
X53523308Y-69535635D01*
X53523312Y-69535635D01*
X53523315Y-69535636D01*
X53749997Y-69555468D01*
X53750000Y-69555468D01*
X53750003Y-69555468D01*
X53976684Y-69535636D01*
X53976685Y-69535635D01*
X53976692Y-69535635D01*
X54196496Y-69476739D01*
X54402734Y-69380568D01*
X54589139Y-69250047D01*
X54750047Y-69089139D01*
X54880568Y-68902734D01*
X54976739Y-68696496D01*
X55012274Y-68563877D01*
X55045598Y-68512562D01*
X55102720Y-68490636D01*
X55107901Y-68490500D01*
X56602887Y-68490500D01*
X56661078Y-68509407D01*
X56691508Y-68545372D01*
X56700722Y-68563877D01*
X56767634Y-68698255D01*
X56896128Y-68868407D01*
X56896135Y-68868413D01*
X57053692Y-69012047D01*
X57053699Y-69012053D01*
X57157389Y-69076255D01*
X57234981Y-69124298D01*
X57433802Y-69201321D01*
X57643390Y-69240500D01*
X57856610Y-69240500D01*
X58066198Y-69201321D01*
X58265019Y-69124298D01*
X58446302Y-69012052D01*
X58603872Y-68868407D01*
X58732366Y-68698255D01*
X58827405Y-68507389D01*
X58885756Y-68302310D01*
X58905429Y-68090000D01*
X58885756Y-67877690D01*
X58827405Y-67672611D01*
X58732366Y-67481745D01*
X58603872Y-67311593D01*
X58509419Y-67225487D01*
X58446307Y-67167952D01*
X58446300Y-67167946D01*
X58265024Y-67055705D01*
X58265019Y-67055702D01*
X58067034Y-66979003D01*
X58066198Y-66978679D01*
X58066197Y-66978678D01*
X58066195Y-66978678D01*
X57856610Y-66939500D01*
X57643390Y-66939500D01*
X57433804Y-66978678D01*
X57234980Y-67055702D01*
X57234975Y-67055705D01*
X57053699Y-67167946D01*
X57053692Y-67167952D01*
X56896135Y-67311586D01*
X56896131Y-67311589D01*
X56896128Y-67311593D01*
X56896125Y-67311597D01*
X56767635Y-67481743D01*
X56767630Y-67481752D01*
X56691508Y-67634628D01*
X56648646Y-67678290D01*
X56602887Y-67689500D01*
X54986648Y-67689500D01*
X54928457Y-67670593D01*
X54896924Y-67632340D01*
X54880571Y-67597271D01*
X54880565Y-67597262D01*
X54750053Y-67410869D01*
X54750052Y-67410867D01*
X54750049Y-67410864D01*
X54750047Y-67410861D01*
X54589139Y-67249953D01*
X54589135Y-67249950D01*
X54589132Y-67249947D01*
X54589130Y-67249946D01*
X54402737Y-67119434D01*
X54402736Y-67119433D01*
X54402734Y-67119432D01*
X54402731Y-67119430D01*
X54402723Y-67119426D01*
X54196499Y-67023262D01*
X54196500Y-67023262D01*
X54030109Y-66978678D01*
X53976692Y-66964365D01*
X53976691Y-66964364D01*
X53976684Y-66964363D01*
X53750003Y-66944532D01*
X53749997Y-66944532D01*
X53523315Y-66964363D01*
X53303499Y-67023262D01*
X53097276Y-67119426D01*
X53097262Y-67119434D01*
X52910869Y-67249946D01*
X52910867Y-67249947D01*
X52749947Y-67410867D01*
X52749946Y-67410869D01*
X52619434Y-67597262D01*
X52619426Y-67597276D01*
X52523262Y-67803499D01*
X52464363Y-68023315D01*
X52444532Y-68249996D01*
X50800500Y-68249996D01*
X50800500Y-61684108D01*
X55749500Y-61684108D01*
X55749500Y-63984108D01*
X55749500Y-64115892D01*
X55775936Y-64214554D01*
X55783609Y-64243190D01*
X55849496Y-64357309D01*
X55849497Y-64357310D01*
X55849498Y-64357311D01*
X55849500Y-64357314D01*
X56263772Y-64771586D01*
X56620868Y-65128682D01*
X56648645Y-65183199D01*
X56646085Y-65225778D01*
X56614244Y-65337688D01*
X56614244Y-65337690D01*
X56594571Y-65550000D01*
X56614244Y-65762310D01*
X56672595Y-65967389D01*
X56767634Y-66158255D01*
X56896128Y-66328407D01*
X56896135Y-66328413D01*
X57053692Y-66472047D01*
X57053699Y-66472053D01*
X57157389Y-66536255D01*
X57234981Y-66584298D01*
X57433802Y-66661321D01*
X57643390Y-66700500D01*
X57856610Y-66700500D01*
X58066198Y-66661321D01*
X58265019Y-66584298D01*
X58446302Y-66472052D01*
X58603872Y-66328407D01*
X58732366Y-66158255D01*
X58827405Y-65967389D01*
X58885756Y-65762310D01*
X58905429Y-65550000D01*
X58885756Y-65337690D01*
X58827405Y-65132611D01*
X58732366Y-64941745D01*
X58603872Y-64771593D01*
X58549623Y-64722139D01*
X58446307Y-64627952D01*
X58446300Y-64627946D01*
X58265024Y-64515705D01*
X58265019Y-64515702D01*
X58223194Y-64499499D01*
X58066198Y-64438679D01*
X58066197Y-64438678D01*
X58066195Y-64438678D01*
X57856610Y-64399500D01*
X57643390Y-64399500D01*
X57433802Y-64438678D01*
X57431022Y-64439756D01*
X57429771Y-64439825D01*
X57429397Y-64439932D01*
X57429372Y-64439847D01*
X57369931Y-64443144D01*
X57325258Y-64417444D01*
X57237317Y-64329503D01*
X57209540Y-64274986D01*
X57219111Y-64214554D01*
X57262376Y-64171289D01*
X57307321Y-64160499D01*
X58644861Y-64160499D01*
X58644864Y-64160499D01*
X58669991Y-64157585D01*
X58772765Y-64112206D01*
X58852206Y-64032765D01*
X58897585Y-63929991D01*
X58900500Y-63904865D01*
X58900499Y-62608320D01*
X58919406Y-62550130D01*
X58929496Y-62538317D01*
X58977313Y-62490500D01*
X59063000Y-62404814D01*
X59128892Y-62290686D01*
X59163000Y-62163392D01*
X59163000Y-62031607D01*
X59163000Y-61609821D01*
X59181907Y-61551630D01*
X59231407Y-61515666D01*
X59292593Y-61515666D01*
X59332001Y-61539815D01*
X60282686Y-62490500D01*
X60282688Y-62490501D01*
X60282690Y-62490503D01*
X60396810Y-62556390D01*
X60396808Y-62556390D01*
X60396812Y-62556391D01*
X60396814Y-62556392D01*
X60524108Y-62590500D01*
X60655893Y-62590500D01*
X68575360Y-62590500D01*
X68633551Y-62609407D01*
X68669515Y-62658907D01*
X68673654Y-62677696D01*
X68680123Y-62731565D01*
X68735637Y-62872339D01*
X68735638Y-62872341D01*
X68735639Y-62872342D01*
X68827078Y-62992922D01*
X68947658Y-63084361D01*
X68947659Y-63084361D01*
X68947660Y-63084362D01*
X69018047Y-63112119D01*
X69088436Y-63139877D01*
X69176898Y-63150500D01*
X69176900Y-63150500D01*
X70283100Y-63150500D01*
X70283102Y-63150500D01*
X70371564Y-63139877D01*
X70512342Y-63084361D01*
X70632922Y-62992922D01*
X70724361Y-62872342D01*
X70779877Y-62731564D01*
X70790500Y-62643102D01*
X70790500Y-61536898D01*
X70779877Y-61448436D01*
X70743301Y-61355685D01*
X70724362Y-61307660D01*
X70724361Y-61307659D01*
X70724361Y-61307658D01*
X70632922Y-61187078D01*
X70512342Y-61095639D01*
X70512341Y-61095638D01*
X70512339Y-61095637D01*
X70371565Y-61040123D01*
X70283106Y-61029500D01*
X70283102Y-61029500D01*
X69176898Y-61029500D01*
X69176893Y-61029500D01*
X69088434Y-61040123D01*
X68947660Y-61095637D01*
X68947656Y-61095640D01*
X68827081Y-61187075D01*
X68827075Y-61187081D01*
X68735640Y-61307656D01*
X68735637Y-61307660D01*
X68680123Y-61448434D01*
X68673654Y-61502304D01*
X68647943Y-61557826D01*
X68594508Y-61587631D01*
X68575360Y-61589500D01*
X60838322Y-61589500D01*
X60780131Y-61570593D01*
X60768318Y-61560504D01*
X59504496Y-60296682D01*
X59476719Y-60242165D01*
X59475500Y-60226678D01*
X59475500Y-60140057D01*
X59494407Y-60081866D01*
X59543907Y-60045902D01*
X59600123Y-60044431D01*
X59622773Y-60050500D01*
X59622774Y-60050500D01*
X69755697Y-60050500D01*
X69813888Y-60069407D01*
X69843006Y-60102831D01*
X69863960Y-60142033D01*
X69919222Y-60209370D01*
X69996480Y-60303510D01*
X69996489Y-60303519D01*
X70071800Y-60365324D01*
X70157967Y-60436040D01*
X70157971Y-60436042D01*
X70157978Y-60436047D01*
X70342195Y-60534512D01*
X70342201Y-60534515D01*
X70481465Y-60576759D01*
X70542105Y-60595155D01*
X70542110Y-60595156D01*
X70749997Y-60615631D01*
X70750000Y-60615631D01*
X70750003Y-60615631D01*
X70957889Y-60595156D01*
X70957894Y-60595155D01*
X71157799Y-60534515D01*
X71223850Y-60499209D01*
X71342021Y-60436047D01*
X71342024Y-60436044D01*
X71342033Y-60436040D01*
X71503515Y-60303515D01*
X71636040Y-60142033D01*
X71636044Y-60142024D01*
X71636047Y-60142021D01*
X71707088Y-60009112D01*
X71734515Y-59957799D01*
X71795155Y-59757894D01*
X71795156Y-59757889D01*
X71815631Y-59550003D01*
X71815631Y-59549996D01*
X71795156Y-59342110D01*
X71795155Y-59342105D01*
X71743743Y-59172623D01*
X71734515Y-59142201D01*
X71729599Y-59133004D01*
X71636047Y-58957978D01*
X71636042Y-58957971D01*
X71636040Y-58957967D01*
X71565324Y-58871800D01*
X71503519Y-58796489D01*
X71503510Y-58796480D01*
X71409370Y-58719222D01*
X71342033Y-58663960D01*
X71342030Y-58663958D01*
X71342021Y-58663952D01*
X71157804Y-58565487D01*
X71157799Y-58565485D01*
X70957894Y-58504844D01*
X70957889Y-58504843D01*
X70750003Y-58484369D01*
X70749997Y-58484369D01*
X70542110Y-58504843D01*
X70542105Y-58504844D01*
X70342200Y-58565485D01*
X70342195Y-58565487D01*
X70157978Y-58663952D01*
X70157968Y-58663959D01*
X69996489Y-58796480D01*
X69996480Y-58796489D01*
X69863960Y-58957967D01*
X69843006Y-58997168D01*
X69798903Y-59039574D01*
X69755697Y-59049500D01*
X59936988Y-59049500D01*
X59878797Y-59030593D01*
X59866985Y-59020504D01*
X59508480Y-58662000D01*
X59508475Y-58661996D01*
X59394355Y-58596109D01*
X59394357Y-58596109D01*
X59344965Y-58582875D01*
X59267058Y-58562000D01*
X58003393Y-58562000D01*
X57871608Y-58562000D01*
X57793700Y-58582875D01*
X57744309Y-58596109D01*
X57630190Y-58661996D01*
X57630185Y-58662000D01*
X57159181Y-59133004D01*
X57104665Y-59160781D01*
X57089178Y-59162000D01*
X56531893Y-59162000D01*
X56443434Y-59172623D01*
X56302660Y-59228137D01*
X56302656Y-59228140D01*
X56182081Y-59319575D01*
X56182075Y-59319581D01*
X56090640Y-59440156D01*
X56090637Y-59440160D01*
X56035123Y-59580934D01*
X56024500Y-59669393D01*
X56024500Y-60655606D01*
X56035123Y-60744065D01*
X56090637Y-60884839D01*
X56090640Y-60884843D01*
X56175066Y-60996176D01*
X56195161Y-61053967D01*
X56177450Y-61112533D01*
X56166186Y-61125998D01*
X55942686Y-61349499D01*
X55849500Y-61442685D01*
X55849496Y-61442690D01*
X55783609Y-61556809D01*
X55774850Y-61589500D01*
X55749500Y-61684108D01*
X50800500Y-61684108D01*
X50800500Y-57139774D01*
X62839500Y-57139774D01*
X62839500Y-57360225D01*
X62873984Y-57577948D01*
X62942102Y-57787599D01*
X62942104Y-57787602D01*
X62942105Y-57787606D01*
X63042185Y-57984022D01*
X63171758Y-58162365D01*
X63327635Y-58318242D01*
X63505978Y-58447815D01*
X63702394Y-58547895D01*
X63912049Y-58616015D01*
X63999140Y-58629809D01*
X64129775Y-58650500D01*
X64129778Y-58650500D01*
X64350225Y-58650500D01*
X64459086Y-58633257D01*
X64567951Y-58616015D01*
X64777606Y-58547895D01*
X64974022Y-58447815D01*
X65152365Y-58318242D01*
X65308242Y-58162365D01*
X65437815Y-57984022D01*
X65537895Y-57787606D01*
X65606015Y-57577951D01*
X65640500Y-57360222D01*
X65640500Y-57139778D01*
X65640500Y-57139774D01*
X74839500Y-57139774D01*
X74839500Y-57360225D01*
X74873984Y-57577948D01*
X74942102Y-57787599D01*
X74942104Y-57787602D01*
X74942105Y-57787606D01*
X75042185Y-57984022D01*
X75171758Y-58162365D01*
X75327635Y-58318242D01*
X75505978Y-58447815D01*
X75702394Y-58547895D01*
X75912049Y-58616015D01*
X75999140Y-58629809D01*
X76129775Y-58650500D01*
X76129778Y-58650500D01*
X76350225Y-58650500D01*
X76459086Y-58633257D01*
X76567951Y-58616015D01*
X76777606Y-58547895D01*
X76974022Y-58447815D01*
X77152365Y-58318242D01*
X77308242Y-58162365D01*
X77437815Y-57984022D01*
X77537895Y-57787606D01*
X77606015Y-57577951D01*
X77640500Y-57360222D01*
X77640500Y-57139778D01*
X77640500Y-57139774D01*
X77606015Y-56922051D01*
X77606015Y-56922049D01*
X77537895Y-56712394D01*
X77437815Y-56515978D01*
X77308242Y-56337635D01*
X77152365Y-56181758D01*
X76974022Y-56052185D01*
X76974021Y-56052184D01*
X76974019Y-56052183D01*
X76884825Y-56006736D01*
X76777606Y-55952105D01*
X76777602Y-55952104D01*
X76777599Y-55952102D01*
X76567948Y-55883984D01*
X76350225Y-55849500D01*
X76350222Y-55849500D01*
X76129778Y-55849500D01*
X76129775Y-55849500D01*
X75912051Y-55883984D01*
X75702400Y-55952102D01*
X75505980Y-56052183D01*
X75416806Y-56116971D01*
X75327635Y-56181758D01*
X75171758Y-56337635D01*
X75106971Y-56426806D01*
X75042183Y-56515980D01*
X74942102Y-56712400D01*
X74873984Y-56922051D01*
X74839500Y-57139774D01*
X65640500Y-57139774D01*
X65606015Y-56922051D01*
X65606015Y-56922049D01*
X65537895Y-56712394D01*
X65437815Y-56515978D01*
X65308242Y-56337635D01*
X65152365Y-56181758D01*
X64974022Y-56052185D01*
X64974021Y-56052184D01*
X64974019Y-56052183D01*
X64884825Y-56006736D01*
X64777606Y-55952105D01*
X64777602Y-55952104D01*
X64777599Y-55952102D01*
X64567948Y-55883984D01*
X64350225Y-55849500D01*
X64350222Y-55849500D01*
X64129778Y-55849500D01*
X64129775Y-55849500D01*
X63912051Y-55883984D01*
X63702400Y-55952102D01*
X63505980Y-56052183D01*
X63416806Y-56116971D01*
X63327635Y-56181758D01*
X63171758Y-56337635D01*
X63106971Y-56426806D01*
X63042183Y-56515980D01*
X62942102Y-56712400D01*
X62873984Y-56922051D01*
X62839500Y-57139774D01*
X50800500Y-57139774D01*
X50800500Y-54900001D01*
X81700000Y-54900001D01*
X81700000Y-56699986D01*
X81710493Y-56802692D01*
X81765643Y-56969123D01*
X81857680Y-57118339D01*
X81981660Y-57242319D01*
X82130876Y-57334356D01*
X82297307Y-57389506D01*
X82400014Y-57400000D01*
X82999999Y-57400000D01*
X83000000Y-57399999D01*
X83000000Y-54900001D01*
X83500000Y-54900001D01*
X83500000Y-57399999D01*
X83500001Y-57400000D01*
X84099986Y-57400000D01*
X84202692Y-57389506D01*
X84369123Y-57334356D01*
X84518339Y-57242319D01*
X84642319Y-57118339D01*
X84734356Y-56969123D01*
X84789506Y-56802692D01*
X84800000Y-56699986D01*
X84800000Y-54900001D01*
X84799999Y-54900000D01*
X83500001Y-54900000D01*
X83500000Y-54900001D01*
X83000000Y-54900001D01*
X82999999Y-54900000D01*
X81700001Y-54900000D01*
X81700000Y-54900001D01*
X50800500Y-54900001D01*
X50800500Y-52600013D01*
X81700000Y-52600013D01*
X81700000Y-54399999D01*
X81700001Y-54400000D01*
X82999999Y-54400000D01*
X83000000Y-54399999D01*
X83000000Y-51900001D01*
X83500000Y-51900001D01*
X83500000Y-54399999D01*
X83500001Y-54400000D01*
X84799999Y-54400000D01*
X84800000Y-54399999D01*
X84800000Y-52600013D01*
X84789506Y-52497307D01*
X84734356Y-52330876D01*
X84642319Y-52181660D01*
X84518339Y-52057680D01*
X84369123Y-51965643D01*
X84202692Y-51910493D01*
X84099986Y-51900000D01*
X83500001Y-51900000D01*
X83500000Y-51900001D01*
X83000000Y-51900001D01*
X82999999Y-51900000D01*
X82400014Y-51900000D01*
X82297307Y-51910493D01*
X82130876Y-51965643D01*
X81981660Y-52057680D01*
X81857680Y-52181660D01*
X81765643Y-52330876D01*
X81710493Y-52497307D01*
X81700000Y-52600013D01*
X50800500Y-52600013D01*
X50800500Y-50899500D01*
X50819407Y-50841309D01*
X50868907Y-50805345D01*
X50899500Y-50800500D01*
X88600500Y-50800500D01*
X88658691Y-50819407D01*
G37*
G04 #@! TD.AperFunction*
M02*
