M48
; DRILL file {KiCad 8.0.4} date 2024-09-04T02:40:31-0400
; FORMAT={-:-/ absolute / metric / decimal}
; #@! TF.CreationDate,2024-09-04T02:40:31-04:00
; #@! TF.GenerationSoftware,Kicad,Pcbnew,8.0.4
; #@! TF.FileFunction,Plated,1,2,PTH
FMAT,2
METRIC
; #@! TA.AperFunction,Plated,PTH,ViaDrill
T1C0.300
; #@! TA.AperFunction,Plated,PTH,ViaDrill
T2C0.500
; #@! TA.AperFunction,Plated,PTH,ComponentDrill
T3C0.790
; #@! TA.AperFunction,Plated,PTH,ComponentDrill
T4C1.000
%
G90
G05
T1
X62.75Y-95.0
X62.75Y-97.25
X66.25Y-96.25
X66.25Y-98.25
X77.5Y-91.75
X77.895Y-89.605
X79.0Y-113.25
X80.0Y-118.0
X84.0Y-109.75
T2
X61.5Y-103.75
X64.25Y-94.75
X71.25Y-89.2
X73.42Y-88.92
X76.75Y-77.75
X77.75Y-99.25
X79.25Y-75.25
X86.5Y-69.0
T3
X69.73Y-62.09
X70.75Y-59.55
T4
X53.75Y-68.25
X53.75Y-74.25
X53.75Y-80.25
X53.75Y-86.25
X53.75Y-97.0
X57.75Y-63.01
X57.75Y-65.55
X57.75Y-68.09
X57.75Y-70.63
X57.75Y-73.17
X57.75Y-75.71
X57.75Y-78.25
X57.75Y-90.95
X57.75Y-93.49
X57.75Y-96.03
X57.75Y-98.57
X57.75Y-101.11
X57.75Y-103.65
X57.75Y-106.19
X65.75Y-120.75
X69.75Y-120.75
X73.75Y-120.75
X77.75Y-120.75
M30
