<svg class="rc-logo" xmlns="http://www.w3.org/2000/svg" viewBox="0 0 12 15">
  <rect class="rc-logo__primary" x="0" y="0" width="12" height="1" fill="#2a2d2d"></rect>
  <rect class="rc-logo__primary" x="0" y="0" width="1" height="10" fill="#2a2d2d"></rect>
  <rect class="rc-logo__primary" x="11" y="0" width="1" height="10" fill="#2a2d2d"></rect>
  <rect class="rc-logo__primary" x="0" y="9" width="12" height="1" fill="#2a2d2d"></rect>

  <rect class="rc-logo__primary" x="4" y="9" width="4" height="3" fill="#2a2d2d"></rect>

  <rect class="rc-logo__primary" x="1" y="11" width="10" height="1" fill="#2a2d2d"></rect>
  <rect class="rc-logo__primary" x="1" y="11" width="1" height="4" fill="#2a2d2d"></rect>
  <rect class="rc-logo__primary" x="10" y="11" width="1" height="4" fill="#2a2d2d"></rect>
  <rect class="rc-logo__primary" x="1" y="14" width="10" height="1" fill="#2a2d2d"></rect>

  <rect class="rc-logo__primary" x="0" y="12" width="2" height="3" fill="#2a2d2d"></rect>
  <rect class="rc-logo__primary" x="10" y="12" width="2" height="3" fill="#2a2d2d"></rect>

  <rect class="rc-logo__primary" x="10" y="12" width="2" height="3" fill="#2a2d2d"></rect>

  <rect class="rc-logo__primary" x="1" y="11" width="2" height="2" fill="#2a2d2d"></rect>
  <rect class="rc-logo__primary" x="4" y="11" width="1" height="2" fill="#2a2d2d"></rect>
  <rect class="rc-logo__primary" x="6" y="11" width="1" height="2" fill="#2a2d2d"></rect>
  <rect class="rc-logo__primary" x="8" y="11" width="1" height="2" fill="#2a2d2d"></rect>

  <rect class="rc-logo__primary" x="9" y="13" width="2" height="2" fill="#2a2d2d"></rect>
  <rect class="rc-logo__primary" x="7" y="13" width="1" height="2" fill="#2a2d2d"></rect>
  <rect class="rc-logo__primary" x="5" y="13" width="1" height="2" fill="#2a2d2d"></rect>
  <rect class="rc-logo__primary" x="3" y="13" width="1" height="2" fill="#2a2d2d"></rect>

  <rect class="rc-logo__primary" x="2" y="2" width="8" height="1" fill="#2a2d2d"></rect>
  <rect class="rc-logo__primary" x="3" y="3" width="1" height="1" fill="#2a2d2d"></rect>
  <rect class="rc-logo__primary" x="5" y="3" width="1" height="1" fill="#2a2d2d"></rect>
  <rect class="rc-logo__primary" x="7" y="3" width="3" height="1" fill="#2a2d2d"></rect>
  <rect class="rc-logo__primary" x="2" y="4" width="8" height="1" fill="#2a2d2d"></rect>
  <rect class="rc-logo__primary" x="2" y="5" width="1" height="1" fill="#2a2d2d"></rect>
  <rect class="rc-logo__primary" x="5" y="5" width="1" height="1" fill="#2a2d2d"></rect>
  <rect class="rc-logo__primary" x="8" y="5" width="2" height="1" fill="#2a2d2d"></rect>
  <rect class="rc-logo__primary" x="2" y="6" width="8" height="2" fill="#2a2d2d"></rect>
</svg>

